<?xml version="1.0" encoding="UTF-8" standalone="no"?>
<!DOCTYPE svg PUBLIC "-//W3C//DTD SVG 1.1//EN"
 "http://www.w3.org/Graphics/SVG/1.1/DTD/svg11.dtd">
<!-- Generated by graphviz version 9.0.0 (20230911.1827)
 -->
<!-- Pages: 1 -->
<svg width="2173pt" height="1745pt"
 viewBox="0.00 0.00 2173.25 1745.28" xmlns="http://www.w3.org/2000/svg" xmlns:xlink="http://www.w3.org/1999/xlink">
<g id="graph0" class="graph" transform="scale(1 1) rotate(0) translate(4 1741.28)">
<polygon fill="white" stroke="none" points="-4,4 -4,-1741.28 2169.25,-1741.28 2169.25,4 -4,4"/>
<!-- org.clojure/clojure -->
<g id="node1" class="node">
<title>org.clojure/clojure</title>
<g id="a_node1"><a xlink:href="./org.clojure__clojure.svg" xlink:title="org.clojure/clojure">
<path fill="green" stroke="black" d="M1117.15,-939.39C1117.15,-941.52 1083.34,-943.25 1041.7,-943.25 1000.07,-943.25 966.25,-941.52 966.25,-939.39 966.25,-939.39 966.25,-904.63 966.25,-904.63 966.25,-902.49 1000.07,-900.76 1041.7,-900.76 1083.34,-900.76 1117.15,-902.49 1117.15,-904.63 1117.15,-904.63 1117.15,-939.39 1117.15,-939.39"/>
<path fill="none" stroke="black" d="M1117.15,-939.39C1117.15,-937.26 1083.34,-935.53 1041.7,-935.53 1000.07,-935.53 966.25,-937.26 966.25,-939.39"/>
<text text-anchor="middle" x="1041.7" y="-916.96" font-family="Times,serif" font-size="14.00">org.clojure/clojure</text>
</a>
</g>
</g>
<!-- org.clojure/tools.cli -->
<g id="node2" class="node">
<title>org.clojure/tools.cli</title>
<g id="a_node2"><a xlink:href="./org.clojure__tools.cli.svg" xlink:title="org.clojure/tools.cli">
<path fill="red" stroke="black" d="M1857.23,-49.4C1857.23,-51.53 1822.07,-53.26 1778.78,-53.26 1735.49,-53.26 1700.33,-51.53 1700.33,-49.4 1700.33,-49.4 1700.33,-14.63 1700.33,-14.63 1700.33,-12.5 1735.49,-10.77 1778.78,-10.77 1822.07,-10.77 1857.23,-12.5 1857.23,-14.63 1857.23,-14.63 1857.23,-49.4 1857.23,-49.4"/>
<path fill="none" stroke="black" d="M1857.23,-49.4C1857.23,-47.27 1822.07,-45.53 1778.78,-45.53 1735.49,-45.53 1700.33,-47.27 1700.33,-49.4"/>
<text text-anchor="middle" x="1778.78" y="-26.97" font-family="Times,serif" font-size="14.00">org.clojure/tools.cli</text>
</a>
</g>
</g>
<!-- clj&#45;htmltopdf/clj&#45;htmltopdf -->
<g id="node3" class="node">
<title>clj&#45;htmltopdf/clj&#45;htmltopdf</title>
<g id="a_node3"><a xlink:href="./clj-htmltopdf.svg" xlink:title="clj&#45;htmltopdf/clj&#45;htmltopdf">
<path fill="green" stroke="black" d="M411.03,-38.62C411.03,-40.76 366.63,-42.49 311.96,-42.49 257.29,-42.49 212.88,-40.76 212.88,-38.62 212.88,-38.62 212.88,-3.86 212.88,-3.86 212.88,-1.73 257.29,0 311.96,0 366.63,0 411.03,-1.73 411.03,-3.86 411.03,-3.86 411.03,-38.62 411.03,-38.62"/>
<path fill="none" stroke="black" d="M411.03,-38.62C411.03,-36.49 366.63,-34.76 311.96,-34.76 257.29,-34.76 212.88,-36.49 212.88,-38.62"/>
<text text-anchor="middle" x="311.96" y="-16.19" font-family="Times,serif" font-size="14.00">clj&#45;htmltopdf/clj&#45;htmltopdf</text>
</a>
</g>
</g>
<!-- markdown&#45;clj/markdown&#45;clj -->
<g id="node4" class="node">
<title>markdown&#45;clj/markdown&#45;clj</title>
<g id="a_node4"><a xlink:href="./markdown-clj.svg" xlink:title="markdown&#45;clj/markdown&#45;clj">
<path fill="green" stroke="black" d="M207.15,-1615.38C207.15,-1617.51 160.73,-1619.24 103.57,-1619.24 46.42,-1619.24 0,-1617.51 0,-1615.38 0,-1615.38 0,-1580.61 0,-1580.61 0,-1578.48 46.42,-1576.75 103.57,-1576.75 160.73,-1576.75 207.15,-1578.48 207.15,-1580.61 207.15,-1580.61 207.15,-1615.38 207.15,-1615.38"/>
<path fill="none" stroke="black" d="M207.15,-1615.38C207.15,-1613.25 160.73,-1611.51 103.57,-1611.51 46.42,-1611.51 0,-1613.25 0,-1615.38"/>
<text text-anchor="middle" x="103.57" y="-1592.95" font-family="Times,serif" font-size="14.00">markdown&#45;clj/markdown&#45;clj</text>
</a>
</g>
</g>
<!-- hiccup/hiccup -->
<g id="node5" class="node">
<title>hiccup/hiccup</title>
<g id="a_node5"><a xlink:href="./hiccup.svg" xlink:title="hiccup/hiccup">
<path fill="green" stroke="black" d="M1908.15,-388.61C1908.15,-390.74 1879.88,-392.47 1845.08,-392.47 1810.27,-392.47 1782,-390.74 1782,-388.61 1782,-388.61 1782,-353.85 1782,-353.85 1782,-351.72 1810.27,-349.99 1845.08,-349.99 1879.88,-349.99 1908.15,-351.72 1908.15,-353.85 1908.15,-353.85 1908.15,-388.61 1908.15,-388.61"/>
<path fill="none" stroke="black" d="M1908.15,-388.61C1908.15,-386.48 1879.88,-384.75 1845.08,-384.75 1810.27,-384.75 1782,-386.48 1782,-388.61"/>
<text text-anchor="middle" x="1845.08" y="-366.18" font-family="Times,serif" font-size="14.00">hiccup/hiccup</text>
</a>
</g>
</g>
<!-- metosin/malli -->
<g id="node6" class="node">
<title>metosin/malli</title>
<g id="a_node6"><a xlink:href="./metosin__malli.svg" xlink:title="metosin/malli">
<path fill="green" stroke="black" d="M1908.15,-549.85C1908.15,-551.98 1879.88,-553.71 1845.08,-553.71 1810.27,-553.71 1782,-551.98 1782,-549.85 1782,-549.85 1782,-515.08 1782,-515.08 1782,-512.95 1810.27,-511.22 1845.08,-511.22 1879.88,-511.22 1908.15,-512.95 1908.15,-515.08 1908.15,-515.08 1908.15,-549.85 1908.15,-549.85"/>
<path fill="none" stroke="black" d="M1908.15,-549.85C1908.15,-547.71 1879.88,-545.98 1845.08,-545.98 1810.27,-545.98 1782,-547.71 1782,-549.85"/>
<text text-anchor="middle" x="1845.08" y="-527.41" font-family="Times,serif" font-size="14.00">metosin/malli</text>
</a>
</g>
</g>
<!-- babashka/process -->
<g id="node7" class="node">
<title>babashka/process</title>
<g id="a_node7"><a xlink:href="./babashka__process.svg" xlink:title="babashka/process">
<path fill="green" stroke="black" d="M1961.34,-1733.41C1961.34,-1735.55 1928.87,-1737.28 1888.89,-1737.28 1848.92,-1737.28 1816.44,-1735.55 1816.44,-1733.41 1816.44,-1733.41 1816.44,-1698.65 1816.44,-1698.65 1816.44,-1696.52 1848.92,-1694.79 1888.89,-1694.79 1928.87,-1694.79 1961.34,-1696.52 1961.34,-1698.65 1961.34,-1698.65 1961.34,-1733.41 1961.34,-1733.41"/>
<path fill="none" stroke="black" d="M1961.34,-1733.41C1961.34,-1731.28 1928.87,-1729.55 1888.89,-1729.55 1848.92,-1729.55 1816.44,-1731.28 1816.44,-1733.41"/>
<text text-anchor="middle" x="1888.89" y="-1710.98" font-family="Times,serif" font-size="14.00">babashka/process</text>
</a>
</g>
</g>
<!-- io.github.clojure/tools.deps.graph -->
<g id="node8" class="node">
<title>io.github.clojure/tools.deps.graph</title>
<g id="a_node8"><a xlink:href="./io.github.clojure__tools.deps.graph.svg" xlink:title="io.github.clojure/tools.deps.graph">
<path fill="green" stroke="black" d="M1853.4,-1191.79C1853.4,-1193.92 1801.09,-1195.65 1736.7,-1195.65 1672.31,-1195.65 1620,-1193.92 1620,-1191.79 1620,-1191.79 1620,-1157.02 1620,-1157.02 1620,-1154.89 1672.31,-1153.16 1736.7,-1153.16 1801.09,-1153.16 1853.4,-1154.89 1853.4,-1157.02 1853.4,-1157.02 1853.4,-1191.79 1853.4,-1191.79"/>
<path fill="none" stroke="black" d="M1853.4,-1191.79C1853.4,-1189.66 1801.09,-1187.92 1736.7,-1187.92 1672.31,-1187.92 1620,-1189.66 1620,-1191.79"/>
<text text-anchor="middle" x="1736.7" y="-1169.36" font-family="Times,serif" font-size="14.00">io.github.clojure/tools.deps.graph</text>
</a>
</g>
</g>
<!-- com.github.liquidz/antq -->
<g id="node9" class="node">
<title>com.github.liquidz/antq</title>
<g id="a_node9"><a xlink:href="./com.github.liquidz__antq.svg" xlink:title="com.github.liquidz/antq">
<path fill="green" stroke="black" d="M1233.9,-241.64C1233.9,-243.77 1193.36,-245.5 1143.45,-245.5 1093.54,-245.5 1053,-243.77 1053,-241.64 1053,-241.64 1053,-206.87 1053,-206.87 1053,-204.74 1093.54,-203.01 1143.45,-203.01 1193.36,-203.01 1233.9,-204.74 1233.9,-206.87 1233.9,-206.87 1233.9,-241.64 1233.9,-241.64"/>
<path fill="none" stroke="black" d="M1233.9,-241.64C1233.9,-239.51 1193.36,-237.77 1143.45,-237.77 1093.54,-237.77 1053,-239.51 1053,-241.64"/>
<text text-anchor="middle" x="1143.45" y="-219.21" font-family="Times,serif" font-size="14.00">com.github.liquidz/antq</text>
</a>
</g>
</g>
<!-- codox/codox -->
<g id="node10" class="node">
<title>codox/codox</title>
<g id="a_node10"><a xlink:href="./codox.svg" xlink:title="codox/codox">
<path fill="green" stroke="black" d="M2029.2,-1230.12C2029.2,-1232.25 2002.27,-1233.98 1969.12,-1233.98 1935.97,-1233.98 1909.05,-1232.25 1909.05,-1230.12 1909.05,-1230.12 1909.05,-1195.35 1909.05,-1195.35 1909.05,-1193.22 1935.97,-1191.49 1969.12,-1191.49 2002.27,-1191.49 2029.2,-1193.22 2029.2,-1195.35 2029.2,-1195.35 2029.2,-1230.12 2029.2,-1230.12"/>
<path fill="none" stroke="black" d="M2029.2,-1230.12C2029.2,-1227.98 2002.27,-1226.25 1969.12,-1226.25 1935.97,-1226.25 1909.05,-1227.98 1909.05,-1230.12"/>
<text text-anchor="middle" x="1969.12" y="-1207.68" font-family="Times,serif" font-size="14.00">codox/codox</text>
</a>
</g>
</g>
<!-- io.github.clojure/tools.build -->
<g id="node11" class="node">
<title>io.github.clojure/tools.build</title>
<g id="a_node11"><a xlink:href="./io.github.clojure__tools.build.svg" xlink:title="io.github.clojure/tools.build">
<path fill="green" stroke="black" d="M2038.98,-1468.51C2038.98,-1470.64 1993.73,-1472.37 1938.03,-1472.37 1882.32,-1472.37 1837.08,-1470.64 1837.08,-1468.51 1837.08,-1468.51 1837.08,-1433.74 1837.08,-1433.74 1837.08,-1431.61 1882.32,-1429.88 1938.03,-1429.88 1993.73,-1429.88 2038.98,-1431.61 2038.98,-1433.74 2038.98,-1433.74 2038.98,-1468.51 2038.98,-1468.51"/>
<path fill="none" stroke="black" d="M2038.98,-1468.51C2038.98,-1466.37 1993.73,-1464.64 1938.03,-1464.64 1882.32,-1464.64 1837.08,-1466.37 1837.08,-1468.51"/>
<text text-anchor="middle" x="1938.03" y="-1446.07" font-family="Times,serif" font-size="14.00">io.github.clojure/tools.build</text>
</a>
</g>
</g>
<!-- io.dominic/vizns -->
<g id="node12" class="node">
<title>io.dominic/vizns</title>
<g id="a_node12"><a xlink:href="./io.dominic__vizns.svg" xlink:title="io.dominic/vizns">
<path fill="green" stroke="black" d="M1956.86,-1010.62C1956.86,-1012.76 1925.06,-1014.49 1885.91,-1014.49 1846.76,-1014.49 1814.96,-1012.76 1814.96,-1010.62 1814.96,-1010.62 1814.96,-975.86 1814.96,-975.86 1814.96,-973.73 1846.76,-972 1885.91,-972 1925.06,-972 1956.86,-973.73 1956.86,-975.86 1956.86,-975.86 1956.86,-1010.62 1956.86,-1010.62"/>
<path fill="none" stroke="black" d="M1956.86,-1010.62C1956.86,-1008.49 1925.06,-1006.76 1885.91,-1006.76 1846.76,-1006.76 1814.96,-1008.49 1814.96,-1010.62"/>
<text text-anchor="middle" x="1885.91" y="-988.19" font-family="Times,serif" font-size="14.00">io.dominic/vizns</text>
</a>
</g>
</g>
<!-- babashka/fs -->
<g id="node13" class="node">
<title>babashka/fs</title>
<g id="a_node13"><a xlink:href="./babashka__fs.svg" xlink:title="babashka/fs">
<path fill="green" stroke="black" d="M2093.54,-644.18C2093.54,-646.31 2067.96,-648.04 2036.46,-648.04 2004.97,-648.04 1979.39,-646.31 1979.39,-644.18 1979.39,-644.18 1979.39,-609.41 1979.39,-609.41 1979.39,-607.28 2004.97,-605.55 2036.46,-605.55 2067.96,-605.55 2093.54,-607.28 2093.54,-609.41 2093.54,-609.41 2093.54,-644.18 2093.54,-644.18"/>
<path fill="none" stroke="black" d="M2093.54,-644.18C2093.54,-642.05 2067.96,-640.31 2036.46,-640.31 2004.97,-640.31 1979.39,-642.05 1979.39,-644.18"/>
<text text-anchor="middle" x="2036.46" y="-621.75" font-family="Times,serif" font-size="14.00">babashka/fs</text>
</a>
</g>
</g>
<!-- org.clojure/core.async -->
<g id="node14" class="node">
<title>org.clojure/core.async</title>
<g id="a_node14"><a xlink:href="./org.clojure__core.async.svg" xlink:title="org.clojure/core.async">
<path fill="red" stroke="black" d="M1467.15,-1604.14C1467.15,-1606.27 1428.79,-1608.01 1381.58,-1608.01 1334.36,-1608.01 1296,-1606.27 1296,-1604.14 1296,-1604.14 1296,-1569.38 1296,-1569.38 1296,-1567.25 1334.36,-1565.52 1381.58,-1565.52 1428.79,-1565.52 1467.15,-1567.25 1467.15,-1569.38 1467.15,-1569.38 1467.15,-1604.14 1467.15,-1604.14"/>
<path fill="none" stroke="black" d="M1467.15,-1604.14C1467.15,-1602.01 1428.79,-1600.28 1381.58,-1600.28 1334.36,-1600.28 1296,-1602.01 1296,-1604.14"/>
<text text-anchor="middle" x="1381.58" y="-1581.71" font-family="Times,serif" font-size="14.00">org.clojure/core.async</text>
</a>
</g>
</g>
<!-- automaton&#45;build&#45;app.code&#45;helpers.analyze.utils -->
<g id="node15" class="node">
<title>automaton&#45;build&#45;app.code&#45;helpers.analyze.utils</title>
<g id="a_node15"><a xlink:href="./automaton-build-app.code-helpers.analyze.utils.svg" xlink:title="automaton&#45;build&#45;app.code&#45;helpers.analyze.utils">
<ellipse fill="none" stroke="black" cx="507.25" cy="-711.39" rx="187.49" ry="18"/>
<text text-anchor="middle" x="507.25" y="-706.34" font-family="Times,serif" font-size="14.00">automaton&#45;build&#45;app.code&#45;helpers.analyze.utils</text>
</a>
</g>
</g>
<!-- automaton&#45;build&#45;app.code&#45;helpers.analyze.utils&#45;&gt;org.clojure/clojure -->
<g id="edge15" class="edge">
<title>automaton&#45;build&#45;app.code&#45;helpers.analyze.utils&#45;&gt;org.clojure/clojure</title>
<path fill="none" stroke="black" d="M552.36,-729.17C646.85,-766.41 865.95,-852.75 976.05,-896.14"/>
<polygon fill="black" stroke="black" points="974.69,-899.36 985.27,-899.77 977.25,-892.85 974.69,-899.36"/>
</g>
<!-- automaton&#45;build&#45;app.os.edn&#45;utils -->
<g id="node16" class="node">
<title>automaton&#45;build&#45;app.os.edn&#45;utils</title>
<g id="a_node16"><a xlink:href="./automaton-build-app.os.edn-utils.svg" xlink:title="automaton&#45;build&#45;app.os.edn&#45;utils">
<ellipse fill="none" stroke="black" cx="1263.92" cy="-596.79" rx="134.26" ry="18"/>
<text text-anchor="middle" x="1263.92" y="-591.74" font-family="Times,serif" font-size="14.00">automaton&#45;build&#45;app.os.edn&#45;utils</text>
</a>
</g>
</g>
<!-- automaton&#45;build&#45;app.os.edn&#45;utils&#45;&gt;org.clojure/clojure -->
<g id="edge34" class="edge">
<title>automaton&#45;build&#45;app.os.edn&#45;utils&#45;&gt;org.clojure/clojure</title>
<path fill="none" stroke="black" d="M1251.34,-615.21C1214.76,-668.74 1108.17,-824.73 1062.68,-891.31"/>
<polygon fill="black" stroke="black" points="1060.03,-888.98 1057.28,-899.21 1065.81,-892.93 1060.03,-888.98"/>
</g>
<!-- automaton&#45;build&#45;app.doc.html -->
<g id="node17" class="node">
<title>automaton&#45;build&#45;app.doc.html</title>
<g id="a_node17"><a xlink:href="./automaton-build-app.doc.html.svg" xlink:title="automaton&#45;build&#45;app.doc.html">
<ellipse fill="none" stroke="black" cx="2040.71" cy="-342" rx="124.54" ry="18"/>
<text text-anchor="middle" x="2040.71" y="-336.95" font-family="Times,serif" font-size="14.00">automaton&#45;build&#45;app.doc.html</text>
</a>
</g>
</g>
<!-- automaton&#45;build&#45;app.doc.html&#45;&gt;hiccup/hiccup -->
<g id="edge23" class="edge">
<title>automaton&#45;build&#45;app.doc.html&#45;&gt;hiccup/hiccup</title>
<path fill="none" stroke="black" d="M1952.91,-355.12C1941.82,-356.77 1930.57,-358.46 1919.72,-360.08"/>
<polygon fill="black" stroke="black" points="1919.45,-356.58 1910.08,-361.52 1920.48,-363.5 1919.45,-356.58"/>
</g>
<!-- automaton&#45;build&#45;app.schema -->
<g id="node18" class="node">
<title>automaton&#45;build&#45;app.schema</title>
<g id="a_node18"><a xlink:href="./automaton-build-app.schema.svg" xlink:title="automaton&#45;build&#45;app.schema">
<ellipse fill="none" stroke="black" cx="2035.59" cy="-504" rx="119.42" ry="18"/>
<text text-anchor="middle" x="2035.59" y="-498.95" font-family="Times,serif" font-size="14.00">automaton&#45;build&#45;app.schema</text>
</a>
</g>
</g>
<!-- automaton&#45;build&#45;app.schema&#45;&gt;metosin/malli -->
<g id="edge4" class="edge">
<title>automaton&#45;build&#45;app.schema&#45;&gt;metosin/malli</title>
<path fill="none" stroke="black" d="M1949.53,-516.86C1939.61,-518.34 1929.55,-519.84 1919.79,-521.3"/>
<polygon fill="black" stroke="black" points="1919.38,-517.82 1910,-522.76 1920.41,-524.75 1919.38,-517.82"/>
</g>
<!-- automaton&#45;build&#45;app.log -->
<g id="node19" class="node">
<title>automaton&#45;build&#45;app.log</title>
<g id="a_node19"><a xlink:href="./automaton-build-app.log.svg" xlink:title="automaton&#45;build&#45;app.log">
<ellipse fill="none" stroke="black" cx="738.65" cy="-662.22" rx="103.04" ry="18"/>
<text text-anchor="middle" x="738.65" y="-657.17" font-family="Times,serif" font-size="14.00">automaton&#45;build&#45;app.log</text>
</a>
</g>
</g>
<!-- automaton&#45;build&#45;app.log&#45;&gt;org.clojure/clojure -->
<g id="edge6" class="edge">
<title>automaton&#45;build&#45;app.log&#45;&gt;org.clojure/clojure</title>
<path fill="none" stroke="black" d="M759.48,-680.08C811.08,-724.31 945.19,-839.27 1008.15,-893.24"/>
<polygon fill="black" stroke="black" points="1005.52,-895.6 1015.39,-899.45 1010.08,-890.29 1005.52,-895.6"/>
</g>
<!-- automaton&#45;build&#45;app.code&#45;helpers.compiler -->
<g id="node20" class="node">
<title>automaton&#45;build&#45;app.code&#45;helpers.compiler</title>
<g id="a_node20"><a xlink:href="./automaton-build-app.code-helpers.compiler.svg" xlink:title="automaton&#45;build&#45;app.code&#45;helpers.compiler">
<ellipse fill="none" stroke="black" cx="1974.15" cy="-1498.37" rx="174.19" ry="18"/>
<text text-anchor="middle" x="1974.15" y="-1493.32" font-family="Times,serif" font-size="14.00">automaton&#45;build&#45;app.code&#45;helpers.compiler</text>
</a>
</g>
</g>
<!-- automaton&#45;build&#45;app.code&#45;helpers.compiler&#45;&gt;io.github.clojure/tools.build -->
<g id="edge14" class="edge">
<title>automaton&#45;build&#45;app.code&#45;helpers.compiler&#45;&gt;io.github.clojure/tools.build</title>
<path fill="none" stroke="black" d="M1960.08,-1479.97C1959.96,-1479.82 1959.85,-1479.67 1959.73,-1479.52"/>
<polygon fill="black" stroke="black" points="1964.29,-1479.72 1955.44,-1473.9 1958.73,-1483.97 1964.29,-1479.72"/>
</g>
<!-- automaton&#45;build&#45;app.code&#45;helpers.update&#45;deps&#45;clj -->
<g id="node21" class="node">
<title>automaton&#45;build&#45;app.code&#45;helpers.update&#45;deps&#45;clj</title>
<g id="a_node21"><a xlink:href="./automaton-build-app.code-helpers.update-deps-clj.svg" xlink:title="automaton&#45;build&#45;app.code&#45;helpers.update&#45;deps&#45;clj">
<ellipse fill="none" stroke="black" cx="1439.66" cy="-180" rx="197.73" ry="18"/>
<text text-anchor="middle" x="1439.66" y="-174.95" font-family="Times,serif" font-size="14.00">automaton&#45;build&#45;app.code&#45;helpers.update&#45;deps&#45;clj</text>
</a>
</g>
</g>
<!-- automaton&#45;build&#45;app.code&#45;helpers.update&#45;deps&#45;clj&#45;&gt;com.github.liquidz/antq -->
<g id="edge12" class="edge">
<title>automaton&#45;build&#45;app.code&#45;helpers.update&#45;deps&#45;clj&#45;&gt;com.github.liquidz/antq</title>
<path fill="none" stroke="black" d="M1334.81,-195.66C1305.87,-199.99 1274.51,-204.67 1245.71,-208.98"/>
<polygon fill="black" stroke="black" points="1245.26,-205.51 1235.89,-210.44 1246.3,-212.43 1245.26,-205.51"/>
</g>
<!-- automaton&#45;build&#45;app.tasks&#45;helper -->
<g id="node22" class="node">
<title>automaton&#45;build&#45;app.tasks&#45;helper</title>
<g id="a_node22"><a xlink:href="./automaton-build-app.tasks-helper.svg" xlink:title="automaton&#45;build&#45;app.tasks&#45;helper">
<ellipse fill="none" stroke="black" cx="1533.28" cy="-501.59" rx="135.8" ry="18"/>
<text text-anchor="middle" x="1533.28" y="-496.54" font-family="Times,serif" font-size="14.00">automaton&#45;build&#45;app.tasks&#45;helper</text>
</a>
</g>
</g>
<!-- automaton&#45;build&#45;app.tasks&#45;helper&#45;&gt;org.clojure/clojure -->
<g id="edge21" class="edge">
<title>automaton&#45;build&#45;app.tasks&#45;helper&#45;&gt;org.clojure/clojure</title>
<path fill="none" stroke="black" d="M1512.16,-519.65C1435.34,-585.35 1170.37,-811.97 1075.68,-892.95"/>
<polygon fill="black" stroke="black" points="1073.53,-890.18 1068.21,-899.34 1078.08,-895.5 1073.53,-890.18"/>
</g>
<!-- automaton&#45;build&#45;app.tasks&#45;helper&#45;&gt;org.clojure/tools.cli -->
<g id="edge22" class="edge">
<title>automaton&#45;build&#45;app.tasks&#45;helper&#45;&gt;org.clojure/tools.cli</title>
<path fill="none" stroke="black" d="M1542.91,-483.18C1580.13,-411.98 1714.93,-154.15 1762.23,-63.66"/>
<polygon fill="black" stroke="black" points="1765.2,-65.55 1766.73,-55.07 1758.99,-62.31 1765.2,-65.55"/>
</g>
<!-- automaton&#45;build&#45;app.tasks&#45;helper&#45;&gt;babashka/fs -->
<g id="edge20" class="edge">
<title>automaton&#45;build&#45;app.tasks&#45;helper&#45;&gt;babashka/fs</title>
<path fill="none" stroke="black" d="M1598.55,-517.83C1693.96,-541.57 1870.7,-585.55 1967.93,-609.74"/>
<polygon fill="black" stroke="black" points="1967.07,-613.14 1977.62,-612.15 1968.76,-606.34 1967.07,-613.14"/>
</g>
<!-- automaton&#45;build&#45;app.utils.namespace -->
<g id="node23" class="node">
<title>automaton&#45;build&#45;app.utils.namespace</title>
<g id="a_node23"><a xlink:href="./automaton-build-app.utils.namespace.svg" xlink:title="automaton&#45;build&#45;app.utils.namespace">
<ellipse fill="none" stroke="black" cx="887.44" cy="-362.17" rx="150.64" ry="18"/>
<text text-anchor="middle" x="887.44" y="-357.12" font-family="Times,serif" font-size="14.00">automaton&#45;build&#45;app.utils.namespace</text>
</a>
</g>
</g>
<!-- automaton&#45;build&#45;app.utils.namespace&#45;&gt;org.clojure/clojure -->
<g id="edge11" class="edge">
<title>automaton&#45;build&#45;app.utils.namespace&#45;&gt;org.clojure/clojure</title>
<path fill="none" stroke="black" d="M892.48,-380.48C914.68,-461.04 1003.85,-784.64 1032.67,-889.22"/>
<polygon fill="black" stroke="black" points="1029.29,-890.14 1035.33,-898.86 1036.04,-888.29 1029.29,-890.14"/>
</g>
<!-- automaton&#45;build&#45;app.file&#45;repo.text&#45;matches -->
<g id="node24" class="node">
<title>automaton&#45;build&#45;app.file&#45;repo.text&#45;matches</title>
<g id="a_node24"><a xlink:href="./automaton-build-app.file-repo.text-matches.svg" xlink:title="automaton&#45;build&#45;app.file&#45;repo.text&#45;matches">
<ellipse fill="none" stroke="black" cx="447.82" cy="-937.22" rx="173.16" ry="18"/>
<text text-anchor="middle" x="447.82" y="-932.17" font-family="Times,serif" font-size="14.00">automaton&#45;build&#45;app.file&#45;repo.text&#45;matches</text>
</a>
</g>
</g>
<!-- automaton&#45;build&#45;app.file&#45;repo.text&#45;matches&#45;&gt;org.clojure/clojure -->
<g id="edge7" class="edge">
<title>automaton&#45;build&#45;app.file&#45;repo.text&#45;matches&#45;&gt;org.clojure/clojure</title>
<path fill="none" stroke="black" d="M616.41,-932.9C726.63,-930.08 866.07,-926.51 954.6,-924.24"/>
<polygon fill="black" stroke="black" points="954.53,-927.74 964.43,-923.99 954.35,-920.74 954.53,-927.74"/>
</g>
<!-- automaton&#45;build&#45;app.containers.local&#45;engine -->
<g id="node25" class="node">
<title>automaton&#45;build&#45;app.containers.local&#45;engine</title>
<g id="a_node25"><a xlink:href="./automaton-build-app.containers.local-engine.svg" xlink:title="automaton&#45;build&#45;app.containers.local&#45;engine">
<ellipse fill="none" stroke="black" cx="1413.45" cy="-1005.34" rx="177.26" ry="18"/>
<text text-anchor="middle" x="1413.45" y="-1000.29" font-family="Times,serif" font-size="14.00">automaton&#45;build&#45;app.containers.local&#45;engine</text>
</a>
</g>
</g>
<!-- automaton&#45;build&#45;app.containers.local&#45;engine&#45;&gt;org.clojure/clojure -->
<g id="edge37" class="edge">
<title>automaton&#45;build&#45;app.containers.local&#45;engine&#45;&gt;org.clojure/clojure</title>
<path fill="none" stroke="black" d="M1338.67,-988.58C1278.06,-974.99 1192.57,-955.83 1128.87,-941.55"/>
<polygon fill="black" stroke="black" points="1129.64,-938.13 1119.12,-939.36 1128.11,-944.96 1129.64,-938.13"/>
</g>
<!-- automaton&#45;build&#45;app.cicd.cfg&#45;mgt -->
<g id="node26" class="node">
<title>automaton&#45;build&#45;app.cicd.cfg&#45;mgt</title>
<g id="a_node26"><a xlink:href="./automaton-build-app.cicd.cfg-mgt.svg" xlink:title="automaton&#45;build&#45;app.cicd.cfg&#45;mgt">
<ellipse fill="none" stroke="black" cx="1349.17" cy="-1251.9" rx="138.87" ry="18"/>
<text text-anchor="middle" x="1349.17" y="-1246.85" font-family="Times,serif" font-size="14.00">automaton&#45;build&#45;app.cicd.cfg&#45;mgt</text>
</a>
</g>
</g>
<!-- automaton&#45;build&#45;app.cicd.cfg&#45;mgt&#45;&gt;org.clojure/clojure -->
<g id="edge18" class="edge">
<title>automaton&#45;build&#45;app.cicd.cfg&#45;mgt&#45;&gt;org.clojure/clojure</title>
<path fill="none" stroke="black" d="M1332.21,-1233.69C1281.62,-1179.42 1131.51,-1018.36 1069.25,-951.56"/>
<polygon fill="black" stroke="black" points="1072.17,-949.56 1062.79,-944.63 1067.05,-954.33 1072.17,-949.56"/>
</g>
<!-- automaton&#45;build&#45;app.tasks.container&#45;publication -->
<g id="node27" class="node">
<title>automaton&#45;build&#45;app.tasks.container&#45;publication</title>
<g id="a_node27"><a xlink:href="./automaton-build-app.tasks.container-publication.svg" xlink:title="automaton&#45;build&#45;app.tasks.container&#45;publication">
<ellipse fill="none" stroke="black" cx="1006.5" cy="-1526.54" rx="191.08" ry="18"/>
<text text-anchor="middle" x="1006.5" y="-1521.49" font-family="Times,serif" font-size="14.00">automaton&#45;build&#45;app.tasks.container&#45;publication</text>
</a>
</g>
</g>
<!-- automaton&#45;build&#45;app.tasks.container&#45;publication&#45;&gt;org.clojure/clojure -->
<g id="edge3" class="edge">
<title>automaton&#45;build&#45;app.tasks.container&#45;publication&#45;&gt;org.clojure/clojure</title>
<path fill="none" stroke="black" d="M1007.57,-1508.11C1012.54,-1422.86 1033.32,-1066.05 1039.78,-955.09"/>
<polygon fill="black" stroke="black" points="1043.27,-955.37 1040.36,-945.18 1036.28,-954.96 1043.27,-955.37"/>
</g>
<!-- automaton&#45;build&#45;app.file&#45;repo.raw.impl -->
<g id="node28" class="node">
<title>automaton&#45;build&#45;app.file&#45;repo.raw.impl</title>
<g id="a_node28"><a xlink:href="./automaton-build-app.file-repo.raw.impl.svg" xlink:title="automaton&#45;build&#45;app.file&#45;repo.raw.impl">
<ellipse fill="none" stroke="black" cx="1018.97" cy="-500.34" rx="158.83" ry="18"/>
<text text-anchor="middle" x="1018.97" y="-495.29" font-family="Times,serif" font-size="14.00">automaton&#45;build&#45;app.file&#45;repo.raw.impl</text>
</a>
</g>
</g>
<!-- automaton&#45;build&#45;app.file&#45;repo.raw.impl&#45;&gt;org.clojure/clojure -->
<g id="edge10" class="edge">
<title>automaton&#45;build&#45;app.file&#45;repo.raw.impl&#45;&gt;org.clojure/clojure</title>
<path fill="none" stroke="black" d="M1019.96,-518.73C1023.48,-583.93 1035.37,-804.59 1039.92,-888.89"/>
<polygon fill="black" stroke="black" points="1036.42,-889 1040.45,-898.8 1043.41,-888.62 1036.42,-889"/>
</g>
<!-- automaton&#45;build&#45;app.configuration.edn&#45;read -->
<g id="node29" class="node">
<title>automaton&#45;build&#45;app.configuration.edn&#45;read</title>
<g id="a_node29"><a xlink:href="./automaton-build-app.configuration.edn-read.svg" xlink:title="automaton&#45;build&#45;app.configuration.edn&#45;read">
<ellipse fill="none" stroke="black" cx="1555.63" cy="-736.43" rx="175.72" ry="18"/>
<text text-anchor="middle" x="1555.63" y="-731.38" font-family="Times,serif" font-size="14.00">automaton&#45;build&#45;app.configuration.edn&#45;read</text>
</a>
</g>
</g>
<!-- automaton&#45;build&#45;app.configuration.edn&#45;read&#45;&gt;org.clojure/clojure -->
<g id="edge2" class="edge">
<title>automaton&#45;build&#45;app.configuration.edn&#45;read&#45;&gt;org.clojure/clojure</title>
<path fill="none" stroke="black" d="M1506.82,-754.05C1415.38,-787.07 1217.97,-858.36 1112.12,-896.58"/>
<polygon fill="black" stroke="black" points="1111.19,-893.19 1102.97,-899.88 1113.57,-899.78 1111.19,-893.19"/>
</g>
<!-- automaton&#45;build&#45;app.configuration.edn&#45;read&#45;&gt;babashka/fs -->
<g id="edge1" class="edge">
<title>automaton&#45;build&#45;app.configuration.edn&#45;read&#45;&gt;babashka/fs</title>
<path fill="none" stroke="black" d="M1629.18,-719.66C1721.39,-698.63 1878.23,-662.87 1967.99,-642.41"/>
<polygon fill="black" stroke="black" points="1968.68,-645.84 1977.65,-640.21 1967.12,-639.02 1968.68,-645.84"/>
</g>
<!-- automaton&#45;build&#45;app.code&#45;helpers.formatter -->
<g id="node30" class="node">
<title>automaton&#45;build&#45;app.code&#45;helpers.formatter</title>
<g id="a_node30"><a xlink:href="./automaton-build-app.code-helpers.formatter.svg" xlink:title="automaton&#45;build&#45;app.code&#45;helpers.formatter">
<ellipse fill="none" stroke="black" cx="735.07" cy="-1227.81" rx="175.72" ry="18"/>
<text text-anchor="middle" x="735.07" y="-1222.76" font-family="Times,serif" font-size="14.00">automaton&#45;build&#45;app.code&#45;helpers.formatter</text>
</a>
</g>
</g>
<!-- automaton&#45;build&#45;app.code&#45;helpers.formatter&#45;&gt;org.clojure/clojure -->
<g id="edge16" class="edge">
<title>automaton&#45;build&#45;app.code&#45;helpers.formatter&#45;&gt;org.clojure/clojure</title>
<path fill="none" stroke="black" d="M753.33,-1209.59C804.42,-1158.65 949.13,-1014.33 1011.97,-951.66"/>
<polygon fill="black" stroke="black" points="1014.24,-954.34 1018.85,-944.8 1009.3,-949.38 1014.24,-954.34"/>
</g>
<!-- automaton&#45;build&#45;app.repl -->
<g id="node31" class="node">
<title>automaton&#45;build&#45;app.repl</title>
<g id="a_node31"><a xlink:href="./automaton-build-app.repl.svg" xlink:title="automaton&#45;build&#45;app.repl">
<ellipse fill="none" stroke="black" cx="1580.77" cy="-1557" rx="105.6" ry="18"/>
<text text-anchor="middle" x="1580.77" y="-1551.95" font-family="Times,serif" font-size="14.00">automaton&#45;build&#45;app.repl</text>
</a>
</g>
</g>
<!-- automaton&#45;build&#45;app.repl&#45;&gt;org.clojure/core.async -->
<g id="edge5" class="edge">
<title>automaton&#45;build&#45;app.repl&#45;&gt;org.clojure/core.async</title>
<path fill="none" stroke="black" d="M1500.33,-1569.02C1493.24,-1570.08 1486.02,-1571.16 1478.82,-1572.23"/>
<polygon fill="black" stroke="black" points="1478.4,-1568.76 1469.03,-1573.7 1479.43,-1575.68 1478.4,-1568.76"/>
</g>
<!-- automaton&#45;build&#45;app.cicd.version -->
<g id="node32" class="node">
<title>automaton&#45;build&#45;app.cicd.version</title>
<g id="a_node32"><a xlink:href="./automaton-build-app.cicd.version.svg" xlink:title="automaton&#45;build&#45;app.cicd.version">
<ellipse fill="none" stroke="black" cx="1918.31" cy="-1395" rx="136.31" ry="18"/>
<text text-anchor="middle" x="1918.31" y="-1389.95" font-family="Times,serif" font-size="14.00">automaton&#45;build&#45;app.cicd.version</text>
</a>
</g>
</g>
<!-- automaton&#45;build&#45;app.cicd.version&#45;&gt;io.github.clojure/tools.build -->
<g id="edge17" class="edge">
<title>automaton&#45;build&#45;app.cicd.version&#45;&gt;io.github.clojure/tools.build</title>
<path fill="none" stroke="black" d="M1924.77,-1413.38C1925.36,-1415.06 1925.96,-1416.79 1926.58,-1418.54"/>
<polygon fill="black" stroke="black" points="1923.27,-1419.68 1929.89,-1427.96 1929.88,-1417.36 1923.27,-1419.68"/>
</g>
<!-- automaton&#45;build&#45;app.doc.markdown -->
<g id="node33" class="node">
<title>automaton&#45;build&#45;app.doc.markdown</title>
<g id="a_node33"><a xlink:href="./automaton-build-app.doc.markdown.svg" xlink:title="automaton&#45;build&#45;app.doc.markdown">
<ellipse fill="none" stroke="black" cx="503.3" cy="-1276.21" rx="147.06" ry="18"/>
<text text-anchor="middle" x="503.3" y="-1271.16" font-family="Times,serif" font-size="14.00">automaton&#45;build&#45;app.doc.markdown</text>
</a>
</g>
</g>
<!-- automaton&#45;build&#45;app.doc.markdown&#45;&gt;org.clojure/clojure -->
<g id="edge28" class="edge">
<title>automaton&#45;build&#45;app.doc.markdown&#45;&gt;org.clojure/clojure</title>
<path fill="none" stroke="black" d="M530.74,-1258.16C618.64,-1200.33 893.66,-1019.4 999.56,-949.73"/>
<polygon fill="black" stroke="black" points="1001.28,-952.79 1007.71,-944.37 997.43,-946.95 1001.28,-952.79"/>
</g>
<!-- automaton&#45;build&#45;app.doc.markdown&#45;&gt;markdown&#45;clj/markdown&#45;clj -->
<g id="edge29" class="edge">
<title>automaton&#45;build&#45;app.doc.markdown&#45;&gt;markdown&#45;clj/markdown&#45;clj</title>
<path fill="none" stroke="black" d="M480.67,-1294.43C414.27,-1347.88 219.67,-1504.54 139.12,-1569.38"/>
<polygon fill="black" stroke="black" points="137.1,-1566.52 131.5,-1575.51 141.49,-1571.97 137.1,-1566.52"/>
</g>
<!-- automaton&#45;build&#45;app.file&#45;repo.clj&#45;code -->
<g id="node34" class="node">
<title>automaton&#45;build&#45;app.file&#45;repo.clj&#45;code</title>
<g id="a_node34"><a xlink:href="./automaton-build-app.file-repo.clj-code.svg" xlink:title="automaton&#45;build&#45;app.file&#45;repo.clj&#45;code">
<ellipse fill="none" stroke="black" cx="640.25" cy="-984.53" rx="155.25" ry="18"/>
<text text-anchor="middle" x="640.25" y="-979.48" font-family="Times,serif" font-size="14.00">automaton&#45;build&#45;app.file&#45;repo.clj&#45;code</text>
</a>
</g>
</g>
<!-- automaton&#45;build&#45;app.file&#45;repo.clj&#45;code&#45;&gt;org.clojure/clojure -->
<g id="edge9" class="edge">
<title>automaton&#45;build&#45;app.file&#45;repo.clj&#45;code&#45;&gt;org.clojure/clojure</title>
<path fill="none" stroke="black" d="M734.63,-969.83C801.35,-959.44 890.11,-945.62 955.03,-935.5"/>
<polygon fill="black" stroke="black" points="955.22,-939.02 964.56,-934.02 954.14,-932.1 955.22,-939.02"/>
</g>
<!-- automaton&#45;build&#45;app.os.commands -->
<g id="node35" class="node">
<title>automaton&#45;build&#45;app.os.commands</title>
<g id="a_node35"><a xlink:href="./automaton-build-app.os.commands.svg" xlink:title="automaton&#45;build&#45;app.os.commands">
<ellipse fill="none" stroke="black" cx="1548.6" cy="-1322.37" rx="142.97" ry="18"/>
<text text-anchor="middle" x="1548.6" y="-1317.32" font-family="Times,serif" font-size="14.00">automaton&#45;build&#45;app.os.commands</text>
</a>
</g>
</g>
<!-- automaton&#45;build&#45;app.os.commands&#45;&gt;org.clojure/clojure -->
<g id="edge31" class="edge">
<title>automaton&#45;build&#45;app.os.commands&#45;&gt;org.clojure/clojure</title>
<path fill="none" stroke="black" d="M1525.51,-1304.13C1445.01,-1240.55 1176.43,-1028.42 1078.14,-950.79"/>
<polygon fill="black" stroke="black" points="1080.38,-948.09 1070.36,-944.64 1076.04,-953.59 1080.38,-948.09"/>
</g>
<!-- automaton&#45;build&#45;app.os.commands&#45;&gt;babashka/process -->
<g id="edge30" class="edge">
<title>automaton&#45;build&#45;app.os.commands&#45;&gt;babashka/process</title>
<path fill="none" stroke="black" d="M1564.33,-1340.57C1618.33,-1403.03 1796.46,-1609.1 1863.28,-1686.4"/>
<polygon fill="black" stroke="black" points="1860.31,-1688.32 1869.5,-1693.6 1865.61,-1683.75 1860.31,-1688.32"/>
</g>
<!-- automaton&#45;build&#45;app.os.pdf -->
<g id="node36" class="node">
<title>automaton&#45;build&#45;app.os.pdf</title>
<g id="a_node36"><a xlink:href="./automaton-build-app.os.pdf.svg" xlink:title="automaton&#45;build&#45;app.os.pdf">
<ellipse fill="none" stroke="black" cx="625.89" cy="-432.26" rx="114.3" ry="18"/>
<text text-anchor="middle" x="625.89" y="-427.21" font-family="Times,serif" font-size="14.00">automaton&#45;build&#45;app.os.pdf</text>
</a>
</g>
</g>
<!-- automaton&#45;build&#45;app.os.pdf&#45;&gt;org.clojure/clojure -->
<g id="edge33" class="edge">
<title>automaton&#45;build&#45;app.os.pdf&#45;&gt;org.clojure/clojure</title>
<path fill="none" stroke="black" d="M641.44,-450.56C704,-524.26 937.83,-799.66 1016.04,-891.78"/>
<polygon fill="black" stroke="black" points="1013.2,-893.85 1022.34,-899.2 1018.54,-889.31 1013.2,-893.85"/>
</g>
<!-- automaton&#45;build&#45;app.os.pdf&#45;&gt;clj&#45;htmltopdf/clj&#45;htmltopdf -->
<g id="edge32" class="edge">
<title>automaton&#45;build&#45;app.os.pdf&#45;&gt;clj&#45;htmltopdf/clj&#45;htmltopdf</title>
<path fill="none" stroke="black" d="M612,-414.07C562.81,-349.67 396.6,-132.06 335.09,-51.53"/>
<polygon fill="black" stroke="black" points="338.23,-49.88 329.38,-44.05 332.67,-54.13 338.23,-49.88"/>
</g>
<!-- automaton&#45;build&#45;app.code&#45;helpers.code&#45;stats -->
<g id="node37" class="node">
<title>automaton&#45;build&#45;app.code&#45;helpers.code&#45;stats</title>
<g id="a_node37"><a xlink:href="./automaton-build-app.code-helpers.code-stats.svg" xlink:title="automaton&#45;build&#45;app.code&#45;helpers.code&#45;stats">
<ellipse fill="none" stroke="black" cx="1053.07" cy="-1296.12" rx="177.77" ry="18"/>
<text text-anchor="middle" x="1053.07" y="-1291.07" font-family="Times,serif" font-size="14.00">automaton&#45;build&#45;app.code&#45;helpers.code&#45;stats</text>
</a>
</g>
</g>
<!-- automaton&#45;build&#45;app.code&#45;helpers.code&#45;stats&#45;&gt;org.clojure/clojure -->
<g id="edge13" class="edge">
<title>automaton&#45;build&#45;app.code&#45;helpers.code&#45;stats&#45;&gt;org.clojure/clojure</title>
<path fill="none" stroke="black" d="M1052.51,-1277.82C1050.71,-1218.5 1045.01,-1030.94 1042.7,-954.7"/>
<polygon fill="black" stroke="black" points="1046.2,-954.86 1042.4,-944.97 1039.21,-955.08 1046.2,-954.86"/>
</g>
<!-- automaton&#45;build&#45;app.doc.blog -->
<g id="node38" class="node">
<title>automaton&#45;build&#45;app.doc.blog</title>
<g id="a_node38"><a xlink:href="./automaton-build-app.doc.blog.svg" xlink:title="automaton&#45;build&#45;app.doc.blog">
<ellipse fill="none" stroke="black" cx="1246.09" cy="-1476.36" rx="123.52" ry="18"/>
<text text-anchor="middle" x="1246.09" y="-1471.31" font-family="Times,serif" font-size="14.00">automaton&#45;build&#45;app.doc.blog</text>
</a>
</g>
</g>
<!-- automaton&#45;build&#45;app.doc.blog&#45;&gt;org.clojure/clojure -->
<g id="edge24" class="edge">
<title>automaton&#45;build&#45;app.doc.blog&#45;&gt;org.clojure/clojure</title>
<path fill="none" stroke="black" d="M1239.29,-1457.91C1209.68,-1377.6 1091.78,-1057.83 1053.66,-954.43"/>
<polygon fill="black" stroke="black" points="1056.99,-953.33 1050.24,-945.16 1050.42,-955.76 1056.99,-953.33"/>
</g>
<!-- automaton&#45;build&#45;app.cicd.server -->
<g id="node39" class="node">
<title>automaton&#45;build&#45;app.cicd.server</title>
<g id="a_node39"><a xlink:href="./automaton-build-app.cicd.server.svg" xlink:title="automaton&#45;build&#45;app.cicd.server">
<ellipse fill="none" stroke="black" cx="789.25" cy="-1448.75" rx="131.71" ry="18"/>
<text text-anchor="middle" x="789.25" y="-1443.7" font-family="Times,serif" font-size="14.00">automaton&#45;build&#45;app.cicd.server</text>
</a>
</g>
</g>
<!-- automaton&#45;build&#45;app.cicd.server&#45;&gt;org.clojure/clojure -->
<g id="edge19" class="edge">
<title>automaton&#45;build&#45;app.cicd.server&#45;&gt;org.clojure/clojure</title>
<path fill="none" stroke="black" d="M798.08,-1430.31C835.22,-1352.82 978.92,-1053 1026.39,-953.96"/>
<polygon fill="black" stroke="black" points="1029.49,-955.59 1030.66,-945.06 1023.18,-952.56 1029.49,-955.59"/>
</g>
<!-- automaton&#45;build&#45;app.file&#45;repo.text -->
<g id="node40" class="node">
<title>automaton&#45;build&#45;app.file&#45;repo.text</title>
<g id="a_node40"><a xlink:href="./automaton-build-app.file-repo.text.svg" xlink:title="automaton&#45;build&#45;app.file&#45;repo.text">
<ellipse fill="none" stroke="black" cx="1185.49" cy="-351.45" rx="139.38" ry="18"/>
<text text-anchor="middle" x="1185.49" y="-346.4" font-family="Times,serif" font-size="14.00">automaton&#45;build&#45;app.file&#45;repo.text</text>
</a>
</g>
</g>
<!-- automaton&#45;build&#45;app.file&#45;repo.text&#45;&gt;org.clojure/clojure -->
<g id="edge8" class="edge">
<title>automaton&#45;build&#45;app.file&#45;repo.text&#45;&gt;org.clojure/clojure</title>
<path fill="none" stroke="black" d="M1180.87,-369.79C1160.25,-451.6 1076.51,-783.89 1049.88,-889.57"/>
<polygon fill="black" stroke="black" points="1046.55,-888.45 1047.5,-899.01 1053.34,-890.16 1046.55,-888.45"/>
</g>
<!-- automaton&#45;build&#45;app.doc.code&#45;doc -->
<g id="node41" class="node">
<title>automaton&#45;build&#45;app.doc.code&#45;doc</title>
<g id="a_node41"><a xlink:href="./automaton-build-app.doc.code-doc.svg" xlink:title="automaton&#45;build&#45;app.doc.code&#45;doc">
<ellipse fill="none" stroke="black" cx="1863.87" cy="-1127.16" rx="140.92" ry="18"/>
<text text-anchor="middle" x="1863.87" y="-1122.11" font-family="Times,serif" font-size="14.00">automaton&#45;build&#45;app.doc.code&#45;doc</text>
</a>
</g>
</g>
<!-- automaton&#45;build&#45;app.doc.code&#45;doc&#45;&gt;io.github.clojure/tools.deps.graph -->
<g id="edge26" class="edge">
<title>automaton&#45;build&#45;app.doc.code&#45;doc&#45;&gt;io.github.clojure/tools.deps.graph</title>
<path fill="none" stroke="black" d="M1817.24,-1144.48C1813.4,-1145.91 1809.47,-1147.37 1805.51,-1148.84"/>
<polygon fill="black" stroke="black" points="1804.59,-1145.45 1796.43,-1152.21 1807.02,-1152.01 1804.59,-1145.45"/>
</g>
<!-- automaton&#45;build&#45;app.doc.code&#45;doc&#45;&gt;codox/codox -->
<g id="edge27" class="edge">
<title>automaton&#45;build&#45;app.doc.code&#45;doc&#45;&gt;codox/codox</title>
<path fill="none" stroke="black" d="M1886.19,-1145.31C1900.14,-1156.65 1918.4,-1171.5 1934.24,-1184.37"/>
<polygon fill="black" stroke="black" points="1931.6,-1186.74 1941.57,-1190.33 1936.02,-1181.31 1931.6,-1186.74"/>
</g>
<!-- automaton&#45;build&#45;app.doc.code&#45;doc&#45;&gt;io.dominic/vizns -->
<g id="edge25" class="edge">
<title>automaton&#45;build&#45;app.doc.code&#45;doc&#45;&gt;io.dominic/vizns</title>
<path fill="none" stroke="black" d="M1866.89,-1108.82C1870.38,-1087.57 1876.21,-1052.16 1880.5,-1026.12"/>
<polygon fill="black" stroke="black" points="1883.93,-1026.83 1882.1,-1016.4 1877.02,-1025.7 1883.93,-1026.83"/>
</g>
<!-- automaton&#45;build&#45;app.os.files -->
<g id="node42" class="node">
<title>automaton&#45;build&#45;app.os.files</title>
<g id="a_node42"><a xlink:href="./automaton-build-app.os.files.svg" xlink:title="automaton&#45;build&#45;app.os.files">
<ellipse fill="none" stroke="black" cx="1643.04" cy="-928.57" rx="117.89" ry="18"/>
<text text-anchor="middle" x="1643.04" y="-923.52" font-family="Times,serif" font-size="14.00">automaton&#45;build&#45;app.os.files</text>
</a>
</g>
</g>
<!-- automaton&#45;build&#45;app.os.files&#45;&gt;org.clojure/clojure -->
<g id="edge36" class="edge">
<title>automaton&#45;build&#45;app.os.files&#45;&gt;org.clojure/clojure</title>
<path fill="none" stroke="black" d="M1524.95,-927.28C1408.58,-926.01 1233.46,-924.1 1129.07,-922.96"/>
<polygon fill="black" stroke="black" points="1129.19,-919.46 1119.15,-922.85 1129.11,-926.46 1129.19,-919.46"/>
</g>
<!-- automaton&#45;build&#45;app.os.files&#45;&gt;babashka/fs -->
<g id="edge35" class="edge">
<title>automaton&#45;build&#45;app.os.files&#45;&gt;babashka/fs</title>
<path fill="none" stroke="black" d="M1666.47,-910.6C1732.34,-860.08 1919.51,-716.51 1999.49,-655.16"/>
<polygon fill="black" stroke="black" points="2001.24,-658.22 2007.04,-649.36 1996.98,-652.67 2001.24,-658.22"/>
</g>
</g>
</svg>
