<?xml version="1.0" encoding="UTF-8" standalone="no"?>
<!DOCTYPE svg PUBLIC "-//W3C//DTD SVG 1.1//EN"
 "http://www.w3.org/Graphics/SVG/1.1/DTD/svg11.dtd">
<!-- Generated by graphviz version 9.0.0 (20230911.1827)
 -->
<!-- Pages: 1 -->
<svg width="2141pt" height="1745pt"
 viewBox="0.00 0.00 2141.01 1745.28" xmlns="http://www.w3.org/2000/svg" xmlns:xlink="http://www.w3.org/1999/xlink">
<g id="graph0" class="graph" transform="scale(1 1) rotate(0) translate(4 1741.28)">
<polygon fill="white" stroke="none" points="-4,4 -4,-1741.28 2137.01,-1741.28 2137.01,4 -4,4"/>
<!-- org.clojure/clojure -->
<g id="node1" class="node">
<title>org.clojure/clojure</title>
<g id="a_node1"><a xlink:href="./org.clojure__clojure.svg" xlink:title="org.clojure/clojure">
<path fill="green" stroke="black" d="M1117.15,-939.39C1117.15,-941.52 1083.34,-943.25 1041.7,-943.25 1000.07,-943.25 966.25,-941.52 966.25,-939.39 966.25,-939.39 966.25,-904.63 966.25,-904.63 966.25,-902.49 1000.07,-900.76 1041.7,-900.76 1083.34,-900.76 1117.15,-902.49 1117.15,-904.63 1117.15,-904.63 1117.15,-939.39 1117.15,-939.39"/>
<path fill="none" stroke="black" d="M1117.15,-939.39C1117.15,-937.26 1083.34,-935.53 1041.7,-935.53 1000.07,-935.53 966.25,-937.26 966.25,-939.39"/>
<text text-anchor="middle" x="1041.7" y="-916.96" font-family="Times,serif" font-size="14.00">org.clojure/clojure</text>
</a>
</g>
</g>
<!-- org.clojure/tools.cli -->
<g id="node2" class="node">
<title>org.clojure/tools.cli</title>
<g id="a_node2"><a xlink:href="./org.clojure__tools.cli.svg" xlink:title="org.clojure/tools.cli">
<path fill="red" stroke="black" d="M1857.23,-49.4C1857.23,-51.53 1822.07,-53.26 1778.78,-53.26 1735.49,-53.26 1700.33,-51.53 1700.33,-49.4 1700.33,-49.4 1700.33,-14.63 1700.33,-14.63 1700.33,-12.5 1735.49,-10.77 1778.78,-10.77 1822.07,-10.77 1857.23,-12.5 1857.23,-14.63 1857.23,-14.63 1857.23,-49.4 1857.23,-49.4"/>
<path fill="none" stroke="black" d="M1857.23,-49.4C1857.23,-47.27 1822.07,-45.53 1778.78,-45.53 1735.49,-45.53 1700.33,-47.27 1700.33,-49.4"/>
<text text-anchor="middle" x="1778.78" y="-26.97" font-family="Times,serif" font-size="14.00">org.clojure/tools.cli</text>
</a>
</g>
</g>
<!-- clj&#45;htmltopdf/clj&#45;htmltopdf -->
<g id="node3" class="node">
<title>clj&#45;htmltopdf/clj&#45;htmltopdf</title>
<g id="a_node3"><a xlink:href="./clj-htmltopdf.svg" xlink:title="clj&#45;htmltopdf/clj&#45;htmltopdf">
<path fill="green" stroke="black" d="M411.03,-38.62C411.03,-40.76 366.63,-42.49 311.96,-42.49 257.29,-42.49 212.88,-40.76 212.88,-38.62 212.88,-38.62 212.88,-3.86 212.88,-3.86 212.88,-1.73 257.29,0 311.96,0 366.63,0 411.03,-1.73 411.03,-3.86 411.03,-3.86 411.03,-38.62 411.03,-38.62"/>
<path fill="none" stroke="black" d="M411.03,-38.62C411.03,-36.49 366.63,-34.76 311.96,-34.76 257.29,-34.76 212.88,-36.49 212.88,-38.62"/>
<text text-anchor="middle" x="311.96" y="-16.19" font-family="Times,serif" font-size="14.00">clj&#45;htmltopdf/clj&#45;htmltopdf</text>
</a>
</g>
</g>
<!-- markdown&#45;clj/markdown&#45;clj -->
<g id="node4" class="node">
<title>markdown&#45;clj/markdown&#45;clj</title>
<g id="a_node4"><a xlink:href="./markdown-clj.svg" xlink:title="markdown&#45;clj/markdown&#45;clj">
<path fill="green" stroke="black" d="M207.15,-1615.38C207.15,-1617.51 160.73,-1619.24 103.57,-1619.24 46.42,-1619.24 0,-1617.51 0,-1615.38 0,-1615.38 0,-1580.61 0,-1580.61 0,-1578.48 46.42,-1576.75 103.57,-1576.75 160.73,-1576.75 207.15,-1578.48 207.15,-1580.61 207.15,-1580.61 207.15,-1615.38 207.15,-1615.38"/>
<path fill="none" stroke="black" d="M207.15,-1615.38C207.15,-1613.25 160.73,-1611.51 103.57,-1611.51 46.42,-1611.51 0,-1613.25 0,-1615.38"/>
<text text-anchor="middle" x="103.57" y="-1592.95" font-family="Times,serif" font-size="14.00">markdown&#45;clj/markdown&#45;clj</text>
</a>
</g>
</g>
<!-- hiccup/hiccup -->
<g id="node5" class="node">
<title>hiccup/hiccup</title>
<g id="a_node5"><a xlink:href="./hiccup.svg" xlink:title="hiccup/hiccup">
<path fill="green" stroke="black" d="M766.15,-304.61C766.15,-306.74 737.88,-308.47 703.08,-308.47 668.27,-308.47 640,-306.74 640,-304.61 640,-304.61 640,-269.85 640,-269.85 640,-267.72 668.27,-265.99 703.08,-265.99 737.88,-265.99 766.15,-267.72 766.15,-269.85 766.15,-269.85 766.15,-304.61 766.15,-304.61"/>
<path fill="none" stroke="black" d="M766.15,-304.61C766.15,-302.48 737.88,-300.75 703.08,-300.75 668.27,-300.75 640,-302.48 640,-304.61"/>
<text text-anchor="middle" x="703.08" y="-282.18" font-family="Times,serif" font-size="14.00">hiccup/hiccup</text>
</a>
</g>
</g>
<!-- metosin/malli -->
<g id="node6" class="node">
<title>metosin/malli</title>
<g id="a_node6"><a xlink:href="./metosin__malli.svg" xlink:title="metosin/malli">
<path fill="green" stroke="black" d="M1886.15,-383.85C1886.15,-385.98 1857.88,-387.71 1823.08,-387.71 1788.27,-387.71 1760,-385.98 1760,-383.85 1760,-383.85 1760,-349.08 1760,-349.08 1760,-346.95 1788.27,-345.22 1823.08,-345.22 1857.88,-345.22 1886.15,-346.95 1886.15,-349.08 1886.15,-349.08 1886.15,-383.85 1886.15,-383.85"/>
<path fill="none" stroke="black" d="M1886.15,-383.85C1886.15,-381.71 1857.88,-379.98 1823.08,-379.98 1788.27,-379.98 1760,-381.71 1760,-383.85"/>
<text text-anchor="middle" x="1823.08" y="-361.41" font-family="Times,serif" font-size="14.00">metosin/malli</text>
</a>
</g>
</g>
<!-- babashka/process -->
<g id="node7" class="node">
<title>babashka/process</title>
<g id="a_node7"><a xlink:href="./babashka__process.svg" xlink:title="babashka/process">
<path fill="green" stroke="black" d="M1961.34,-1733.41C1961.34,-1735.55 1928.87,-1737.28 1888.89,-1737.28 1848.92,-1737.28 1816.44,-1735.55 1816.44,-1733.41 1816.44,-1733.41 1816.44,-1698.65 1816.44,-1698.65 1816.44,-1696.52 1848.92,-1694.79 1888.89,-1694.79 1928.87,-1694.79 1961.34,-1696.52 1961.34,-1698.65 1961.34,-1698.65 1961.34,-1733.41 1961.34,-1733.41"/>
<path fill="none" stroke="black" d="M1961.34,-1733.41C1961.34,-1731.28 1928.87,-1729.55 1888.89,-1729.55 1848.92,-1729.55 1816.44,-1731.28 1816.44,-1733.41"/>
<text text-anchor="middle" x="1888.89" y="-1710.98" font-family="Times,serif" font-size="14.00">babashka/process</text>
</a>
</g>
</g>
<!-- com.github.liquidz/antq -->
<g id="node8" class="node">
<title>com.github.liquidz/antq</title>
<g id="a_node8"><a xlink:href="./com.github.liquidz__antq.svg" xlink:title="com.github.liquidz/antq">
<path fill="green" stroke="black" d="M1620.9,-1119.64C1620.9,-1121.77 1580.36,-1123.5 1530.45,-1123.5 1480.54,-1123.5 1440,-1121.77 1440,-1119.64 1440,-1119.64 1440,-1084.87 1440,-1084.87 1440,-1082.74 1480.54,-1081.01 1530.45,-1081.01 1580.36,-1081.01 1620.9,-1082.74 1620.9,-1084.87 1620.9,-1084.87 1620.9,-1119.64 1620.9,-1119.64"/>
<path fill="none" stroke="black" d="M1620.9,-1119.64C1620.9,-1117.51 1580.36,-1115.77 1530.45,-1115.77 1480.54,-1115.77 1440,-1117.51 1440,-1119.64"/>
<text text-anchor="middle" x="1530.45" y="-1097.21" font-family="Times,serif" font-size="14.00">com.github.liquidz/antq</text>
</a>
</g>
</g>
<!-- codox/codox -->
<g id="node9" class="node">
<title>codox/codox</title>
<g id="a_node9"><a xlink:href="./codox.svg" xlink:title="codox/codox">
<path fill="green" stroke="black" d="M1320.15,-306.61C1320.15,-308.74 1293.22,-310.47 1260.08,-310.47 1226.93,-310.47 1200,-308.74 1200,-306.61 1200,-306.61 1200,-271.85 1200,-271.85 1200,-269.72 1226.93,-267.98 1260.08,-267.98 1293.22,-267.98 1320.15,-269.72 1320.15,-271.85 1320.15,-271.85 1320.15,-306.61 1320.15,-306.61"/>
<path fill="none" stroke="black" d="M1320.15,-306.61C1320.15,-304.48 1293.22,-302.75 1260.08,-302.75 1226.93,-302.75 1200,-304.48 1200,-306.61"/>
<text text-anchor="middle" x="1260.08" y="-284.18" font-family="Times,serif" font-size="14.00">codox/codox</text>
</a>
</g>
</g>
<!-- io.github.clojure/tools.build -->
<g id="node10" class="node">
<title>io.github.clojure/tools.build</title>
<g id="a_node10"><a xlink:href="./io.github.clojure__tools.build.svg" xlink:title="io.github.clojure/tools.build">
<path fill="green" stroke="black" d="M2016.98,-1531.51C2016.98,-1533.64 1971.73,-1535.37 1916.03,-1535.37 1860.32,-1535.37 1815.08,-1533.64 1815.08,-1531.51 1815.08,-1531.51 1815.08,-1496.74 1815.08,-1496.74 1815.08,-1494.61 1860.32,-1492.88 1916.03,-1492.88 1971.73,-1492.88 2016.98,-1494.61 2016.98,-1496.74 2016.98,-1496.74 2016.98,-1531.51 2016.98,-1531.51"/>
<path fill="none" stroke="black" d="M2016.98,-1531.51C2016.98,-1529.37 1971.73,-1527.64 1916.03,-1527.64 1860.32,-1527.64 1815.08,-1529.37 1815.08,-1531.51"/>
<text text-anchor="middle" x="1916.03" y="-1509.07" font-family="Times,serif" font-size="14.00">io.github.clojure/tools.build</text>
</a>
</g>
</g>
<!-- babashka/fs -->
<g id="node11" class="node">
<title>babashka/fs</title>
<g id="a_node11"><a xlink:href="./babashka__fs.svg" xlink:title="babashka/fs">
<path fill="green" stroke="black" d="M2093.54,-644.18C2093.54,-646.31 2067.96,-648.04 2036.46,-648.04 2004.97,-648.04 1979.39,-646.31 1979.39,-644.18 1979.39,-644.18 1979.39,-609.41 1979.39,-609.41 1979.39,-607.28 2004.97,-605.55 2036.46,-605.55 2067.96,-605.55 2093.54,-607.28 2093.54,-609.41 2093.54,-609.41 2093.54,-644.18 2093.54,-644.18"/>
<path fill="none" stroke="black" d="M2093.54,-644.18C2093.54,-642.05 2067.96,-640.31 2036.46,-640.31 2004.97,-640.31 1979.39,-642.05 1979.39,-644.18"/>
<text text-anchor="middle" x="2036.46" y="-621.75" font-family="Times,serif" font-size="14.00">babashka/fs</text>
</a>
</g>
</g>
<!-- org.clojure/core.async -->
<g id="node12" class="node">
<title>org.clojure/core.async</title>
<g id="a_node12"><a xlink:href="./org.clojure__core.async.svg" xlink:title="org.clojure/core.async">
<path fill="red" stroke="black" d="M1771.15,-1265.14C1771.15,-1267.27 1732.79,-1269.01 1685.57,-1269.01 1638.36,-1269.01 1600,-1267.27 1600,-1265.14 1600,-1265.14 1600,-1230.38 1600,-1230.38 1600,-1228.25 1638.36,-1226.52 1685.57,-1226.52 1732.79,-1226.52 1771.15,-1228.25 1771.15,-1230.38 1771.15,-1230.38 1771.15,-1265.14 1771.15,-1265.14"/>
<path fill="none" stroke="black" d="M1771.15,-1265.14C1771.15,-1263.01 1732.79,-1261.28 1685.57,-1261.28 1638.36,-1261.28 1600,-1263.01 1600,-1265.14"/>
<text text-anchor="middle" x="1685.57" y="-1242.71" font-family="Times,serif" font-size="14.00">org.clojure/core.async</text>
</a>
</g>
</g>
<!-- automaton&#45;build&#45;app.code&#45;helpers.analyze.utils -->
<g id="node13" class="node">
<title>automaton&#45;build&#45;app.code&#45;helpers.analyze.utils</title>
<g id="a_node13"><a xlink:href="./automaton-build-app.code-helpers.analyze.utils.svg" xlink:title="automaton&#45;build&#45;app.code&#45;helpers.analyze.utils">
<ellipse fill="none" stroke="black" cx="507.25" cy="-711.39" rx="187.49" ry="18"/>
<text text-anchor="middle" x="507.25" y="-706.34" font-family="Times,serif" font-size="14.00">automaton&#45;build&#45;app.code&#45;helpers.analyze.utils</text>
</a>
</g>
</g>
<!-- automaton&#45;build&#45;app.code&#45;helpers.analyze.utils&#45;&gt;org.clojure/clojure -->
<g id="edge15" class="edge">
<title>automaton&#45;build&#45;app.code&#45;helpers.analyze.utils&#45;&gt;org.clojure/clojure</title>
<path fill="none" stroke="black" d="M552.36,-729.17C646.85,-766.41 865.95,-852.75 976.05,-896.14"/>
<polygon fill="black" stroke="black" points="974.69,-899.36 985.27,-899.77 977.25,-892.85 974.69,-899.36"/>
</g>
<!-- automaton&#45;build&#45;app.os.edn&#45;utils -->
<g id="node14" class="node">
<title>automaton&#45;build&#45;app.os.edn&#45;utils</title>
<g id="a_node14"><a xlink:href="./automaton-build-app.os.edn-utils.svg" xlink:title="automaton&#45;build&#45;app.os.edn&#45;utils">
<ellipse fill="none" stroke="black" cx="1263.92" cy="-596.79" rx="134.26" ry="18"/>
<text text-anchor="middle" x="1263.92" y="-591.74" font-family="Times,serif" font-size="14.00">automaton&#45;build&#45;app.os.edn&#45;utils</text>
</a>
</g>
</g>
<!-- automaton&#45;build&#45;app.os.edn&#45;utils&#45;&gt;org.clojure/clojure -->
<g id="edge32" class="edge">
<title>automaton&#45;build&#45;app.os.edn&#45;utils&#45;&gt;org.clojure/clojure</title>
<path fill="none" stroke="black" d="M1251.34,-615.21C1214.76,-668.74 1108.17,-824.73 1062.68,-891.31"/>
<polygon fill="black" stroke="black" points="1060.03,-888.98 1057.28,-899.21 1065.81,-892.93 1060.03,-888.98"/>
</g>
<!-- automaton&#45;build&#45;app.doc.html -->
<g id="node15" class="node">
<title>automaton&#45;build&#45;app.doc.html</title>
<g id="a_node15"><a xlink:href="./automaton-build-app.doc.html.svg" xlink:title="automaton&#45;build&#45;app.doc.html">
<ellipse fill="none" stroke="black" cx="898.71" cy="-258" rx="124.54" ry="18"/>
<text text-anchor="middle" x="898.71" y="-252.95" font-family="Times,serif" font-size="14.00">automaton&#45;build&#45;app.doc.html</text>
</a>
</g>
</g>
<!-- automaton&#45;build&#45;app.doc.html&#45;&gt;hiccup/hiccup -->
<g id="edge23" class="edge">
<title>automaton&#45;build&#45;app.doc.html&#45;&gt;hiccup/hiccup</title>
<path fill="none" stroke="black" d="M810.91,-271.12C799.82,-272.77 788.57,-274.46 777.72,-276.08"/>
<polygon fill="black" stroke="black" points="777.45,-272.58 768.08,-277.52 778.48,-279.5 777.45,-272.58"/>
</g>
<!-- automaton&#45;build&#45;app.schema -->
<g id="node16" class="node">
<title>automaton&#45;build&#45;app.schema</title>
<g id="a_node16"><a xlink:href="./automaton-build-app.schema.svg" xlink:title="automaton&#45;build&#45;app.schema">
<ellipse fill="none" stroke="black" cx="2013.59" cy="-338" rx="119.42" ry="18"/>
<text text-anchor="middle" x="2013.59" y="-332.95" font-family="Times,serif" font-size="14.00">automaton&#45;build&#45;app.schema</text>
</a>
</g>
</g>
<!-- automaton&#45;build&#45;app.schema&#45;&gt;metosin/malli -->
<g id="edge4" class="edge">
<title>automaton&#45;build&#45;app.schema&#45;&gt;metosin/malli</title>
<path fill="none" stroke="black" d="M1927.53,-350.86C1917.61,-352.34 1907.55,-353.84 1897.79,-355.3"/>
<polygon fill="black" stroke="black" points="1897.38,-351.82 1888,-356.76 1898.41,-358.75 1897.38,-351.82"/>
</g>
<!-- automaton&#45;build&#45;app.log -->
<g id="node17" class="node">
<title>automaton&#45;build&#45;app.log</title>
<g id="a_node17"><a xlink:href="./automaton-build-app.log.svg" xlink:title="automaton&#45;build&#45;app.log">
<ellipse fill="none" stroke="black" cx="738.65" cy="-662.22" rx="103.04" ry="18"/>
<text text-anchor="middle" x="738.65" y="-657.17" font-family="Times,serif" font-size="14.00">automaton&#45;build&#45;app.log</text>
</a>
</g>
</g>
<!-- automaton&#45;build&#45;app.log&#45;&gt;org.clojure/clojure -->
<g id="edge6" class="edge">
<title>automaton&#45;build&#45;app.log&#45;&gt;org.clojure/clojure</title>
<path fill="none" stroke="black" d="M759.48,-680.08C811.08,-724.31 945.19,-839.27 1008.15,-893.24"/>
<polygon fill="black" stroke="black" points="1005.52,-895.6 1015.39,-899.45 1010.08,-890.29 1005.52,-895.6"/>
</g>
<!-- automaton&#45;build&#45;app.code&#45;helpers.compiler -->
<g id="node18" class="node">
<title>automaton&#45;build&#45;app.code&#45;helpers.compiler</title>
<g id="a_node18"><a xlink:href="./automaton-build-app.code-helpers.compiler.svg" xlink:title="automaton&#45;build&#45;app.code&#45;helpers.compiler">
<ellipse fill="none" stroke="black" cx="1952.15" cy="-1561.37" rx="174.19" ry="18"/>
<text text-anchor="middle" x="1952.15" y="-1556.32" font-family="Times,serif" font-size="14.00">automaton&#45;build&#45;app.code&#45;helpers.compiler</text>
</a>
</g>
</g>
<!-- automaton&#45;build&#45;app.code&#45;helpers.compiler&#45;&gt;io.github.clojure/tools.build -->
<g id="edge14" class="edge">
<title>automaton&#45;build&#45;app.code&#45;helpers.compiler&#45;&gt;io.github.clojure/tools.build</title>
<path fill="none" stroke="black" d="M1938.08,-1542.97C1937.96,-1542.82 1937.85,-1542.67 1937.73,-1542.52"/>
<polygon fill="black" stroke="black" points="1942.29,-1542.72 1933.44,-1536.9 1936.73,-1546.97 1942.29,-1542.72"/>
</g>
<!-- automaton&#45;build&#45;app.code&#45;helpers.update&#45;deps&#45;clj -->
<g id="node19" class="node">
<title>automaton&#45;build&#45;app.code&#45;helpers.update&#45;deps&#45;clj</title>
<g id="a_node19"><a xlink:href="./automaton-build-app.code-helpers.update-deps-clj.svg" xlink:title="automaton&#45;build&#45;app.code&#45;helpers.update&#45;deps&#45;clj">
<ellipse fill="none" stroke="black" cx="1826.66" cy="-1058" rx="197.73" ry="18"/>
<text text-anchor="middle" x="1826.66" y="-1052.95" font-family="Times,serif" font-size="14.00">automaton&#45;build&#45;app.code&#45;helpers.update&#45;deps&#45;clj</text>
</a>
</g>
</g>
<!-- automaton&#45;build&#45;app.code&#45;helpers.update&#45;deps&#45;clj&#45;&gt;com.github.liquidz/antq -->
<g id="edge12" class="edge">
<title>automaton&#45;build&#45;app.code&#45;helpers.update&#45;deps&#45;clj&#45;&gt;com.github.liquidz/antq</title>
<path fill="none" stroke="black" d="M1721.81,-1073.66C1692.87,-1077.99 1661.51,-1082.67 1632.71,-1086.98"/>
<polygon fill="black" stroke="black" points="1632.26,-1083.51 1622.89,-1088.44 1633.3,-1090.43 1632.26,-1083.51"/>
</g>
<!-- automaton&#45;build&#45;app.tasks&#45;helper -->
<g id="node20" class="node">
<title>automaton&#45;build&#45;app.tasks&#45;helper</title>
<g id="a_node20"><a xlink:href="./automaton-build-app.tasks-helper.svg" xlink:title="automaton&#45;build&#45;app.tasks&#45;helper">
<ellipse fill="none" stroke="black" cx="1533.28" cy="-501.59" rx="135.8" ry="18"/>
<text text-anchor="middle" x="1533.28" y="-496.54" font-family="Times,serif" font-size="14.00">automaton&#45;build&#45;app.tasks&#45;helper</text>
</a>
</g>
</g>
<!-- automaton&#45;build&#45;app.tasks&#45;helper&#45;&gt;org.clojure/clojure -->
<g id="edge21" class="edge">
<title>automaton&#45;build&#45;app.tasks&#45;helper&#45;&gt;org.clojure/clojure</title>
<path fill="none" stroke="black" d="M1512.16,-519.65C1435.34,-585.35 1170.37,-811.97 1075.68,-892.95"/>
<polygon fill="black" stroke="black" points="1073.53,-890.18 1068.21,-899.34 1078.08,-895.5 1073.53,-890.18"/>
</g>
<!-- automaton&#45;build&#45;app.tasks&#45;helper&#45;&gt;org.clojure/tools.cli -->
<g id="edge22" class="edge">
<title>automaton&#45;build&#45;app.tasks&#45;helper&#45;&gt;org.clojure/tools.cli</title>
<path fill="none" stroke="black" d="M1542.91,-483.18C1580.13,-411.98 1714.93,-154.15 1762.23,-63.66"/>
<polygon fill="black" stroke="black" points="1765.2,-65.55 1766.73,-55.07 1758.99,-62.31 1765.2,-65.55"/>
</g>
<!-- automaton&#45;build&#45;app.tasks&#45;helper&#45;&gt;babashka/fs -->
<g id="edge20" class="edge">
<title>automaton&#45;build&#45;app.tasks&#45;helper&#45;&gt;babashka/fs</title>
<path fill="none" stroke="black" d="M1598.55,-517.83C1693.96,-541.57 1870.7,-585.55 1967.93,-609.74"/>
<polygon fill="black" stroke="black" points="1967.07,-613.14 1977.62,-612.15 1968.76,-606.34 1967.07,-613.14"/>
</g>
<!-- automaton&#45;build&#45;app.utils.namespace -->
<g id="node21" class="node">
<title>automaton&#45;build&#45;app.utils.namespace</title>
<g id="a_node21"><a xlink:href="./automaton-build-app.utils.namespace.svg" xlink:title="automaton&#45;build&#45;app.utils.namespace">
<ellipse fill="none" stroke="black" cx="887.44" cy="-362.17" rx="150.64" ry="18"/>
<text text-anchor="middle" x="887.44" y="-357.12" font-family="Times,serif" font-size="14.00">automaton&#45;build&#45;app.utils.namespace</text>
</a>
</g>
</g>
<!-- automaton&#45;build&#45;app.utils.namespace&#45;&gt;org.clojure/clojure -->
<g id="edge11" class="edge">
<title>automaton&#45;build&#45;app.utils.namespace&#45;&gt;org.clojure/clojure</title>
<path fill="none" stroke="black" d="M892.48,-380.48C914.68,-461.04 1003.85,-784.64 1032.67,-889.22"/>
<polygon fill="black" stroke="black" points="1029.29,-890.14 1035.33,-898.86 1036.04,-888.29 1029.29,-890.14"/>
</g>
<!-- automaton&#45;build&#45;app.file&#45;repo.text&#45;matches -->
<g id="node22" class="node">
<title>automaton&#45;build&#45;app.file&#45;repo.text&#45;matches</title>
<g id="a_node22"><a xlink:href="./automaton-build-app.file-repo.text-matches.svg" xlink:title="automaton&#45;build&#45;app.file&#45;repo.text&#45;matches">
<ellipse fill="none" stroke="black" cx="447.82" cy="-937.22" rx="173.16" ry="18"/>
<text text-anchor="middle" x="447.82" y="-932.17" font-family="Times,serif" font-size="14.00">automaton&#45;build&#45;app.file&#45;repo.text&#45;matches</text>
</a>
</g>
</g>
<!-- automaton&#45;build&#45;app.file&#45;repo.text&#45;matches&#45;&gt;org.clojure/clojure -->
<g id="edge7" class="edge">
<title>automaton&#45;build&#45;app.file&#45;repo.text&#45;matches&#45;&gt;org.clojure/clojure</title>
<path fill="none" stroke="black" d="M616.41,-932.9C726.63,-930.08 866.07,-926.51 954.6,-924.24"/>
<polygon fill="black" stroke="black" points="954.53,-927.74 964.43,-923.99 954.35,-920.74 954.53,-927.74"/>
</g>
<!-- automaton&#45;build&#45;app.containers.local&#45;engine -->
<g id="node23" class="node">
<title>automaton&#45;build&#45;app.containers.local&#45;engine</title>
<g id="a_node23"><a xlink:href="./automaton-build-app.containers.local-engine.svg" xlink:title="automaton&#45;build&#45;app.containers.local&#45;engine">
<ellipse fill="none" stroke="black" cx="1413.45" cy="-1005.34" rx="177.26" ry="18"/>
<text text-anchor="middle" x="1413.45" y="-1000.29" font-family="Times,serif" font-size="14.00">automaton&#45;build&#45;app.containers.local&#45;engine</text>
</a>
</g>
</g>
<!-- automaton&#45;build&#45;app.containers.local&#45;engine&#45;&gt;org.clojure/clojure -->
<g id="edge35" class="edge">
<title>automaton&#45;build&#45;app.containers.local&#45;engine&#45;&gt;org.clojure/clojure</title>
<path fill="none" stroke="black" d="M1338.67,-988.58C1278.06,-974.99 1192.57,-955.83 1128.87,-941.55"/>
<polygon fill="black" stroke="black" points="1129.64,-938.13 1119.12,-939.36 1128.11,-944.96 1129.64,-938.13"/>
</g>
<!-- automaton&#45;build&#45;app.cicd.cfg&#45;mgt -->
<g id="node24" class="node">
<title>automaton&#45;build&#45;app.cicd.cfg&#45;mgt</title>
<g id="a_node24"><a xlink:href="./automaton-build-app.cicd.cfg-mgt.svg" xlink:title="automaton&#45;build&#45;app.cicd.cfg&#45;mgt">
<ellipse fill="none" stroke="black" cx="1349.17" cy="-1251.9" rx="138.87" ry="18"/>
<text text-anchor="middle" x="1349.17" y="-1246.85" font-family="Times,serif" font-size="14.00">automaton&#45;build&#45;app.cicd.cfg&#45;mgt</text>
</a>
</g>
</g>
<!-- automaton&#45;build&#45;app.cicd.cfg&#45;mgt&#45;&gt;org.clojure/clojure -->
<g id="edge18" class="edge">
<title>automaton&#45;build&#45;app.cicd.cfg&#45;mgt&#45;&gt;org.clojure/clojure</title>
<path fill="none" stroke="black" d="M1332.21,-1233.69C1281.62,-1179.42 1131.51,-1018.36 1069.25,-951.56"/>
<polygon fill="black" stroke="black" points="1072.17,-949.56 1062.79,-944.63 1067.05,-954.33 1072.17,-949.56"/>
</g>
<!-- automaton&#45;build&#45;app.tasks.container&#45;publication -->
<g id="node25" class="node">
<title>automaton&#45;build&#45;app.tasks.container&#45;publication</title>
<g id="a_node25"><a xlink:href="./automaton-build-app.tasks.container-publication.svg" xlink:title="automaton&#45;build&#45;app.tasks.container&#45;publication">
<ellipse fill="none" stroke="black" cx="1006.5" cy="-1526.54" rx="191.08" ry="18"/>
<text text-anchor="middle" x="1006.5" y="-1521.49" font-family="Times,serif" font-size="14.00">automaton&#45;build&#45;app.tasks.container&#45;publication</text>
</a>
</g>
</g>
<!-- automaton&#45;build&#45;app.tasks.container&#45;publication&#45;&gt;org.clojure/clojure -->
<g id="edge3" class="edge">
<title>automaton&#45;build&#45;app.tasks.container&#45;publication&#45;&gt;org.clojure/clojure</title>
<path fill="none" stroke="black" d="M1007.57,-1508.11C1012.54,-1422.86 1033.32,-1066.05 1039.78,-955.09"/>
<polygon fill="black" stroke="black" points="1043.27,-955.37 1040.36,-945.18 1036.28,-954.96 1043.27,-955.37"/>
</g>
<!-- automaton&#45;build&#45;app.file&#45;repo.raw.impl -->
<g id="node26" class="node">
<title>automaton&#45;build&#45;app.file&#45;repo.raw.impl</title>
<g id="a_node26"><a xlink:href="./automaton-build-app.file-repo.raw.impl.svg" xlink:title="automaton&#45;build&#45;app.file&#45;repo.raw.impl">
<ellipse fill="none" stroke="black" cx="1018.97" cy="-500.34" rx="158.83" ry="18"/>
<text text-anchor="middle" x="1018.97" y="-495.29" font-family="Times,serif" font-size="14.00">automaton&#45;build&#45;app.file&#45;repo.raw.impl</text>
</a>
</g>
</g>
<!-- automaton&#45;build&#45;app.file&#45;repo.raw.impl&#45;&gt;org.clojure/clojure -->
<g id="edge10" class="edge">
<title>automaton&#45;build&#45;app.file&#45;repo.raw.impl&#45;&gt;org.clojure/clojure</title>
<path fill="none" stroke="black" d="M1019.96,-518.73C1023.48,-583.93 1035.37,-804.59 1039.92,-888.89"/>
<polygon fill="black" stroke="black" points="1036.42,-889 1040.45,-898.8 1043.41,-888.62 1036.42,-889"/>
</g>
<!-- automaton&#45;build&#45;app.configuration.edn&#45;read -->
<g id="node27" class="node">
<title>automaton&#45;build&#45;app.configuration.edn&#45;read</title>
<g id="a_node27"><a xlink:href="./automaton-build-app.configuration.edn-read.svg" xlink:title="automaton&#45;build&#45;app.configuration.edn&#45;read">
<ellipse fill="none" stroke="black" cx="1555.63" cy="-736.43" rx="175.72" ry="18"/>
<text text-anchor="middle" x="1555.63" y="-731.38" font-family="Times,serif" font-size="14.00">automaton&#45;build&#45;app.configuration.edn&#45;read</text>
</a>
</g>
</g>
<!-- automaton&#45;build&#45;app.configuration.edn&#45;read&#45;&gt;org.clojure/clojure -->
<g id="edge2" class="edge">
<title>automaton&#45;build&#45;app.configuration.edn&#45;read&#45;&gt;org.clojure/clojure</title>
<path fill="none" stroke="black" d="M1506.82,-754.05C1415.38,-787.07 1217.97,-858.36 1112.12,-896.58"/>
<polygon fill="black" stroke="black" points="1111.19,-893.19 1102.97,-899.88 1113.57,-899.78 1111.19,-893.19"/>
</g>
<!-- automaton&#45;build&#45;app.configuration.edn&#45;read&#45;&gt;babashka/fs -->
<g id="edge1" class="edge">
<title>automaton&#45;build&#45;app.configuration.edn&#45;read&#45;&gt;babashka/fs</title>
<path fill="none" stroke="black" d="M1629.18,-719.66C1721.39,-698.63 1878.23,-662.87 1967.99,-642.41"/>
<polygon fill="black" stroke="black" points="1968.68,-645.84 1977.65,-640.21 1967.12,-639.02 1968.68,-645.84"/>
</g>
<!-- automaton&#45;build&#45;app.code&#45;helpers.formatter -->
<g id="node28" class="node">
<title>automaton&#45;build&#45;app.code&#45;helpers.formatter</title>
<g id="a_node28"><a xlink:href="./automaton-build-app.code-helpers.formatter.svg" xlink:title="automaton&#45;build&#45;app.code&#45;helpers.formatter">
<ellipse fill="none" stroke="black" cx="735.07" cy="-1227.81" rx="175.72" ry="18"/>
<text text-anchor="middle" x="735.07" y="-1222.76" font-family="Times,serif" font-size="14.00">automaton&#45;build&#45;app.code&#45;helpers.formatter</text>
</a>
</g>
</g>
<!-- automaton&#45;build&#45;app.code&#45;helpers.formatter&#45;&gt;org.clojure/clojure -->
<g id="edge16" class="edge">
<title>automaton&#45;build&#45;app.code&#45;helpers.formatter&#45;&gt;org.clojure/clojure</title>
<path fill="none" stroke="black" d="M753.33,-1209.59C804.42,-1158.65 949.13,-1014.33 1011.97,-951.66"/>
<polygon fill="black" stroke="black" points="1014.24,-954.34 1018.85,-944.8 1009.3,-949.38 1014.24,-954.34"/>
</g>
<!-- automaton&#45;build&#45;app.repl -->
<g id="node29" class="node">
<title>automaton&#45;build&#45;app.repl</title>
<g id="a_node29"><a xlink:href="./automaton-build-app.repl.svg" xlink:title="automaton&#45;build&#45;app.repl">
<ellipse fill="none" stroke="black" cx="1884.77" cy="-1218" rx="105.6" ry="18"/>
<text text-anchor="middle" x="1884.77" y="-1212.95" font-family="Times,serif" font-size="14.00">automaton&#45;build&#45;app.repl</text>
</a>
</g>
</g>
<!-- automaton&#45;build&#45;app.repl&#45;&gt;org.clojure/core.async -->
<g id="edge5" class="edge">
<title>automaton&#45;build&#45;app.repl&#45;&gt;org.clojure/core.async</title>
<path fill="none" stroke="black" d="M1804.33,-1230.02C1797.24,-1231.08 1790.02,-1232.16 1782.82,-1233.23"/>
<polygon fill="black" stroke="black" points="1782.4,-1229.76 1773.03,-1234.7 1783.43,-1236.68 1782.4,-1229.76"/>
</g>
<!-- automaton&#45;build&#45;app.cicd.version -->
<g id="node30" class="node">
<title>automaton&#45;build&#45;app.cicd.version</title>
<g id="a_node30"><a xlink:href="./automaton-build-app.cicd.version.svg" xlink:title="automaton&#45;build&#45;app.cicd.version">
<ellipse fill="none" stroke="black" cx="1896.31" cy="-1458" rx="136.31" ry="18"/>
<text text-anchor="middle" x="1896.31" y="-1452.95" font-family="Times,serif" font-size="14.00">automaton&#45;build&#45;app.cicd.version</text>
</a>
</g>
</g>
<!-- automaton&#45;build&#45;app.cicd.version&#45;&gt;io.github.clojure/tools.build -->
<g id="edge17" class="edge">
<title>automaton&#45;build&#45;app.cicd.version&#45;&gt;io.github.clojure/tools.build</title>
<path fill="none" stroke="black" d="M1902.77,-1476.38C1903.36,-1478.06 1903.96,-1479.79 1904.58,-1481.54"/>
<polygon fill="black" stroke="black" points="1901.27,-1482.68 1907.89,-1490.96 1907.88,-1480.36 1901.27,-1482.68"/>
</g>
<!-- automaton&#45;build&#45;app.doc.markdown -->
<g id="node31" class="node">
<title>automaton&#45;build&#45;app.doc.markdown</title>
<g id="a_node31"><a xlink:href="./automaton-build-app.doc.markdown.svg" xlink:title="automaton&#45;build&#45;app.doc.markdown">
<ellipse fill="none" stroke="black" cx="503.3" cy="-1276.21" rx="147.06" ry="18"/>
<text text-anchor="middle" x="503.3" y="-1271.16" font-family="Times,serif" font-size="14.00">automaton&#45;build&#45;app.doc.markdown</text>
</a>
</g>
</g>
<!-- automaton&#45;build&#45;app.doc.markdown&#45;&gt;org.clojure/clojure -->
<g id="edge26" class="edge">
<title>automaton&#45;build&#45;app.doc.markdown&#45;&gt;org.clojure/clojure</title>
<path fill="none" stroke="black" d="M530.74,-1258.16C618.64,-1200.33 893.66,-1019.4 999.56,-949.73"/>
<polygon fill="black" stroke="black" points="1001.28,-952.79 1007.71,-944.37 997.43,-946.95 1001.28,-952.79"/>
</g>
<!-- automaton&#45;build&#45;app.doc.markdown&#45;&gt;markdown&#45;clj/markdown&#45;clj -->
<g id="edge27" class="edge">
<title>automaton&#45;build&#45;app.doc.markdown&#45;&gt;markdown&#45;clj/markdown&#45;clj</title>
<path fill="none" stroke="black" d="M480.67,-1294.43C414.27,-1347.88 219.67,-1504.54 139.12,-1569.38"/>
<polygon fill="black" stroke="black" points="137.1,-1566.52 131.5,-1575.51 141.49,-1571.97 137.1,-1566.52"/>
</g>
<!-- automaton&#45;build&#45;app.file&#45;repo.clj&#45;code -->
<g id="node32" class="node">
<title>automaton&#45;build&#45;app.file&#45;repo.clj&#45;code</title>
<g id="a_node32"><a xlink:href="./automaton-build-app.file-repo.clj-code.svg" xlink:title="automaton&#45;build&#45;app.file&#45;repo.clj&#45;code">
<ellipse fill="none" stroke="black" cx="640.25" cy="-984.53" rx="155.25" ry="18"/>
<text text-anchor="middle" x="640.25" y="-979.48" font-family="Times,serif" font-size="14.00">automaton&#45;build&#45;app.file&#45;repo.clj&#45;code</text>
</a>
</g>
</g>
<!-- automaton&#45;build&#45;app.file&#45;repo.clj&#45;code&#45;&gt;org.clojure/clojure -->
<g id="edge9" class="edge">
<title>automaton&#45;build&#45;app.file&#45;repo.clj&#45;code&#45;&gt;org.clojure/clojure</title>
<path fill="none" stroke="black" d="M734.63,-969.83C801.35,-959.44 890.11,-945.62 955.03,-935.5"/>
<polygon fill="black" stroke="black" points="955.22,-939.02 964.56,-934.02 954.14,-932.1 955.22,-939.02"/>
</g>
<!-- automaton&#45;build&#45;app.os.commands -->
<g id="node33" class="node">
<title>automaton&#45;build&#45;app.os.commands</title>
<g id="a_node33"><a xlink:href="./automaton-build-app.os.commands.svg" xlink:title="automaton&#45;build&#45;app.os.commands">
<ellipse fill="none" stroke="black" cx="1548.6" cy="-1322.37" rx="142.97" ry="18"/>
<text text-anchor="middle" x="1548.6" y="-1317.32" font-family="Times,serif" font-size="14.00">automaton&#45;build&#45;app.os.commands</text>
</a>
</g>
</g>
<!-- automaton&#45;build&#45;app.os.commands&#45;&gt;org.clojure/clojure -->
<g id="edge29" class="edge">
<title>automaton&#45;build&#45;app.os.commands&#45;&gt;org.clojure/clojure</title>
<path fill="none" stroke="black" d="M1525.51,-1304.13C1445.01,-1240.55 1176.43,-1028.42 1078.14,-950.79"/>
<polygon fill="black" stroke="black" points="1080.38,-948.09 1070.36,-944.64 1076.04,-953.59 1080.38,-948.09"/>
</g>
<!-- automaton&#45;build&#45;app.os.commands&#45;&gt;babashka/process -->
<g id="edge28" class="edge">
<title>automaton&#45;build&#45;app.os.commands&#45;&gt;babashka/process</title>
<path fill="none" stroke="black" d="M1564.33,-1340.57C1618.33,-1403.03 1796.46,-1609.1 1863.28,-1686.4"/>
<polygon fill="black" stroke="black" points="1860.31,-1688.32 1869.5,-1693.6 1865.61,-1683.75 1860.31,-1688.32"/>
</g>
<!-- automaton&#45;build&#45;app.os.pdf -->
<g id="node34" class="node">
<title>automaton&#45;build&#45;app.os.pdf</title>
<g id="a_node34"><a xlink:href="./automaton-build-app.os.pdf.svg" xlink:title="automaton&#45;build&#45;app.os.pdf">
<ellipse fill="none" stroke="black" cx="625.89" cy="-432.26" rx="114.3" ry="18"/>
<text text-anchor="middle" x="625.89" y="-427.21" font-family="Times,serif" font-size="14.00">automaton&#45;build&#45;app.os.pdf</text>
</a>
</g>
</g>
<!-- automaton&#45;build&#45;app.os.pdf&#45;&gt;org.clojure/clojure -->
<g id="edge31" class="edge">
<title>automaton&#45;build&#45;app.os.pdf&#45;&gt;org.clojure/clojure</title>
<path fill="none" stroke="black" d="M641.44,-450.56C704,-524.26 937.83,-799.66 1016.04,-891.78"/>
<polygon fill="black" stroke="black" points="1013.2,-893.85 1022.34,-899.2 1018.54,-889.31 1013.2,-893.85"/>
</g>
<!-- automaton&#45;build&#45;app.os.pdf&#45;&gt;clj&#45;htmltopdf/clj&#45;htmltopdf -->
<g id="edge30" class="edge">
<title>automaton&#45;build&#45;app.os.pdf&#45;&gt;clj&#45;htmltopdf/clj&#45;htmltopdf</title>
<path fill="none" stroke="black" d="M612,-414.07C562.81,-349.67 396.6,-132.06 335.09,-51.53"/>
<polygon fill="black" stroke="black" points="338.23,-49.88 329.38,-44.05 332.67,-54.13 338.23,-49.88"/>
</g>
<!-- automaton&#45;build&#45;app.code&#45;helpers.code&#45;stats -->
<g id="node35" class="node">
<title>automaton&#45;build&#45;app.code&#45;helpers.code&#45;stats</title>
<g id="a_node35"><a xlink:href="./automaton-build-app.code-helpers.code-stats.svg" xlink:title="automaton&#45;build&#45;app.code&#45;helpers.code&#45;stats">
<ellipse fill="none" stroke="black" cx="1053.07" cy="-1296.12" rx="177.77" ry="18"/>
<text text-anchor="middle" x="1053.07" y="-1291.07" font-family="Times,serif" font-size="14.00">automaton&#45;build&#45;app.code&#45;helpers.code&#45;stats</text>
</a>
</g>
</g>
<!-- automaton&#45;build&#45;app.code&#45;helpers.code&#45;stats&#45;&gt;org.clojure/clojure -->
<g id="edge13" class="edge">
<title>automaton&#45;build&#45;app.code&#45;helpers.code&#45;stats&#45;&gt;org.clojure/clojure</title>
<path fill="none" stroke="black" d="M1052.51,-1277.82C1050.71,-1218.5 1045.01,-1030.94 1042.7,-954.7"/>
<polygon fill="black" stroke="black" points="1046.2,-954.86 1042.4,-944.97 1039.21,-955.08 1046.2,-954.86"/>
</g>
<!-- automaton&#45;build&#45;app.doc.blog -->
<g id="node36" class="node">
<title>automaton&#45;build&#45;app.doc.blog</title>
<g id="a_node36"><a xlink:href="./automaton-build-app.doc.blog.svg" xlink:title="automaton&#45;build&#45;app.doc.blog">
<ellipse fill="none" stroke="black" cx="1246.09" cy="-1476.36" rx="123.52" ry="18"/>
<text text-anchor="middle" x="1246.09" y="-1471.31" font-family="Times,serif" font-size="14.00">automaton&#45;build&#45;app.doc.blog</text>
</a>
</g>
</g>
<!-- automaton&#45;build&#45;app.doc.blog&#45;&gt;org.clojure/clojure -->
<g id="edge24" class="edge">
<title>automaton&#45;build&#45;app.doc.blog&#45;&gt;org.clojure/clojure</title>
<path fill="none" stroke="black" d="M1239.29,-1457.91C1209.68,-1377.6 1091.78,-1057.83 1053.66,-954.43"/>
<polygon fill="black" stroke="black" points="1056.99,-953.33 1050.24,-945.16 1050.42,-955.76 1056.99,-953.33"/>
</g>
<!-- automaton&#45;build&#45;app.cicd.server -->
<g id="node37" class="node">
<title>automaton&#45;build&#45;app.cicd.server</title>
<g id="a_node37"><a xlink:href="./automaton-build-app.cicd.server.svg" xlink:title="automaton&#45;build&#45;app.cicd.server">
<ellipse fill="none" stroke="black" cx="789.25" cy="-1448.75" rx="131.71" ry="18"/>
<text text-anchor="middle" x="789.25" y="-1443.7" font-family="Times,serif" font-size="14.00">automaton&#45;build&#45;app.cicd.server</text>
</a>
</g>
</g>
<!-- automaton&#45;build&#45;app.cicd.server&#45;&gt;org.clojure/clojure -->
<g id="edge19" class="edge">
<title>automaton&#45;build&#45;app.cicd.server&#45;&gt;org.clojure/clojure</title>
<path fill="none" stroke="black" d="M798.08,-1430.31C835.22,-1352.82 978.92,-1053 1026.39,-953.96"/>
<polygon fill="black" stroke="black" points="1029.49,-955.59 1030.66,-945.06 1023.18,-952.56 1029.49,-955.59"/>
</g>
<!-- automaton&#45;build&#45;app.file&#45;repo.text -->
<g id="node38" class="node">
<title>automaton&#45;build&#45;app.file&#45;repo.text</title>
<g id="a_node38"><a xlink:href="./automaton-build-app.file-repo.text.svg" xlink:title="automaton&#45;build&#45;app.file&#45;repo.text">
<ellipse fill="none" stroke="black" cx="1185.49" cy="-351.45" rx="139.38" ry="18"/>
<text text-anchor="middle" x="1185.49" y="-346.4" font-family="Times,serif" font-size="14.00">automaton&#45;build&#45;app.file&#45;repo.text</text>
</a>
</g>
</g>
<!-- automaton&#45;build&#45;app.file&#45;repo.text&#45;&gt;org.clojure/clojure -->
<g id="edge8" class="edge">
<title>automaton&#45;build&#45;app.file&#45;repo.text&#45;&gt;org.clojure/clojure</title>
<path fill="none" stroke="black" d="M1180.87,-369.79C1160.25,-451.6 1076.51,-783.89 1049.88,-889.57"/>
<polygon fill="black" stroke="black" points="1046.55,-888.45 1047.5,-899.01 1053.34,-890.16 1046.55,-888.45"/>
</g>
<!-- automaton&#45;build&#45;app.doc.code&#45;doc -->
<g id="node39" class="node">
<title>automaton&#45;build&#45;app.doc.code&#45;doc</title>
<g id="a_node39"><a xlink:href="./automaton-build-app.doc.code-doc.svg" xlink:title="automaton&#45;build&#45;app.doc.code&#45;doc">
<ellipse fill="none" stroke="black" cx="1469.09" cy="-258" rx="140.92" ry="18"/>
<text text-anchor="middle" x="1469.09" y="-252.95" font-family="Times,serif" font-size="14.00">automaton&#45;build&#45;app.doc.code&#45;doc</text>
</a>
</g>
</g>
<!-- automaton&#45;build&#45;app.doc.code&#45;doc&#45;&gt;codox/codox -->
<g id="edge25" class="edge">
<title>automaton&#45;build&#45;app.doc.code&#45;doc&#45;&gt;codox/codox</title>
<path fill="none" stroke="black" d="M1376.2,-271.88C1361.31,-274.1 1346.11,-276.37 1331.82,-278.51"/>
<polygon fill="black" stroke="black" points="1331.45,-275.03 1322.07,-279.97 1332.48,-281.95 1331.45,-275.03"/>
</g>
<!-- automaton&#45;build&#45;app.os.files -->
<g id="node40" class="node">
<title>automaton&#45;build&#45;app.os.files</title>
<g id="a_node40"><a xlink:href="./automaton-build-app.os.files.svg" xlink:title="automaton&#45;build&#45;app.os.files">
<ellipse fill="none" stroke="black" cx="1643.04" cy="-928.57" rx="117.89" ry="18"/>
<text text-anchor="middle" x="1643.04" y="-923.52" font-family="Times,serif" font-size="14.00">automaton&#45;build&#45;app.os.files</text>
</a>
</g>
</g>
<!-- automaton&#45;build&#45;app.os.files&#45;&gt;org.clojure/clojure -->
<g id="edge34" class="edge">
<title>automaton&#45;build&#45;app.os.files&#45;&gt;org.clojure/clojure</title>
<path fill="none" stroke="black" d="M1524.95,-927.28C1408.58,-926.01 1233.46,-924.1 1129.07,-922.96"/>
<polygon fill="black" stroke="black" points="1129.19,-919.46 1119.15,-922.85 1129.11,-926.46 1129.19,-919.46"/>
</g>
<!-- automaton&#45;build&#45;app.os.files&#45;&gt;babashka/fs -->
<g id="edge33" class="edge">
<title>automaton&#45;build&#45;app.os.files&#45;&gt;babashka/fs</title>
<path fill="none" stroke="black" d="M1666.47,-910.6C1732.34,-860.08 1919.51,-716.51 1999.49,-655.16"/>
<polygon fill="black" stroke="black" points="2001.24,-658.22 2007.04,-649.36 1996.98,-652.67 2001.24,-658.22"/>
</g>
</g>
</svg>
