<?xml version="1.0" encoding="UTF-8" standalone="no"?>
<!DOCTYPE svg PUBLIC "-//W3C//DTD SVG 1.1//EN"
 "http://www.w3.org/Graphics/SVG/1.1/DTD/svg11.dtd">
<!-- Generated by graphviz version 9.0.0 (20230911.1827)
 -->
<!-- Pages: 1 -->
<svg width="2202pt" height="2322pt"
 viewBox="0.00 0.00 2202.15 2322.37" xmlns="http://www.w3.org/2000/svg" xmlns:xlink="http://www.w3.org/1999/xlink">
<g id="graph0" class="graph" transform="scale(1 1) rotate(0) translate(4 2318.37)">
<polygon fill="white" stroke="none" points="-4,4 -4,-2318.37 2198.15,-2318.37 2198.15,4 -4,4"/>
<!-- org.clojure/clojure -->
<g id="node1" class="node">
<title>org.clojure/clojure</title>
<g id="a_node1"><a xlink:href="./org.clojure__clojure.svg" xlink:title="org.clojure/clojure">
<path fill="green" stroke="black" d="M1152.33,-1139.59C1152.33,-1141.72 1118.51,-1143.45 1076.88,-1143.45 1035.25,-1143.45 1001.43,-1141.72 1001.43,-1139.59 1001.43,-1139.59 1001.43,-1104.83 1001.43,-1104.83 1001.43,-1102.7 1035.25,-1100.96 1076.88,-1100.96 1118.51,-1100.96 1152.33,-1102.7 1152.33,-1104.83 1152.33,-1104.83 1152.33,-1139.59 1152.33,-1139.59"/>
<path fill="none" stroke="black" d="M1152.33,-1139.59C1152.33,-1137.46 1118.51,-1135.73 1076.88,-1135.73 1035.25,-1135.73 1001.43,-1137.46 1001.43,-1139.59"/>
<text text-anchor="middle" x="1076.88" y="-1117.16" font-family="Times,serif" font-size="14.00">org.clojure/clojure</text>
</a>
</g>
</g>
<!-- org.clojure/tools.cli -->
<g id="node2" class="node">
<title>org.clojure/tools.cli</title>
<g id="a_node2"><a xlink:href="./org.clojure__tools.cli.svg" xlink:title="org.clojure/tools.cli">
<path fill="red" stroke="black" d="M2167.71,-524.19C2167.71,-526.32 2132.55,-528.05 2089.26,-528.05 2045.98,-528.05 2010.81,-526.32 2010.81,-524.19 2010.81,-524.19 2010.81,-489.43 2010.81,-489.43 2010.81,-487.3 2045.98,-485.57 2089.26,-485.57 2132.55,-485.57 2167.71,-487.3 2167.71,-489.43 2167.71,-489.43 2167.71,-524.19 2167.71,-524.19"/>
<path fill="none" stroke="black" d="M2167.71,-524.19C2167.71,-522.06 2132.55,-520.33 2089.26,-520.33 2045.98,-520.33 2010.81,-522.06 2010.81,-524.19"/>
<text text-anchor="middle" x="2089.26" y="-501.76" font-family="Times,serif" font-size="14.00">org.clojure/tools.cli</text>
</a>
</g>
</g>
<!-- clj&#45;htmltopdf/clj&#45;htmltopdf -->
<g id="node3" class="node">
<title>clj&#45;htmltopdf/clj&#45;htmltopdf</title>
<g id="a_node3"><a xlink:href="./clj-htmltopdf.svg" xlink:title="clj&#45;htmltopdf/clj&#45;htmltopdf">
<path fill="green" stroke="black" d="M729.35,-38.63C729.35,-40.76 684.95,-42.49 630.28,-42.49 575.61,-42.49 531.2,-40.76 531.2,-38.63 531.2,-38.63 531.2,-3.86 531.2,-3.86 531.2,-1.73 575.61,0 630.28,0 684.95,0 729.35,-1.73 729.35,-3.86 729.35,-3.86 729.35,-38.63 729.35,-38.63"/>
<path fill="none" stroke="black" d="M729.35,-38.63C729.35,-36.49 684.95,-34.76 630.28,-34.76 575.61,-34.76 531.2,-36.49 531.2,-38.63"/>
<text text-anchor="middle" x="630.28" y="-16.19" font-family="Times,serif" font-size="14.00">clj&#45;htmltopdf/clj&#45;htmltopdf</text>
</a>
</g>
</g>
<!-- markdown&#45;clj/markdown&#45;clj -->
<g id="node4" class="node">
<title>markdown&#45;clj/markdown&#45;clj</title>
<g id="a_node4"><a xlink:href="./markdown-clj.svg" xlink:title="markdown&#45;clj/markdown&#45;clj">
<path fill="green" stroke="black" d="M207.15,-1810.25C207.15,-1812.38 160.73,-1814.12 103.58,-1814.12 46.42,-1814.12 0,-1812.38 0,-1810.25 0,-1810.25 0,-1775.49 0,-1775.49 0,-1773.36 46.42,-1771.63 103.58,-1771.63 160.73,-1771.63 207.15,-1773.36 207.15,-1775.49 207.15,-1775.49 207.15,-1810.25 207.15,-1810.25"/>
<path fill="none" stroke="black" d="M207.15,-1810.25C207.15,-1808.12 160.73,-1806.39 103.58,-1806.39 46.42,-1806.39 0,-1808.12 0,-1810.25"/>
<text text-anchor="middle" x="103.58" y="-1787.82" font-family="Times,serif" font-size="14.00">markdown&#45;clj/markdown&#45;clj</text>
</a>
</g>
</g>
<!-- hiccup/hiccup -->
<g id="node5" class="node">
<title>hiccup/hiccup</title>
<g id="a_node5"><a xlink:href="./hiccup.svg" xlink:title="hiccup/hiccup">
<path fill="green" stroke="black" d="M1893.15,-1552.61C1893.15,-1554.74 1864.88,-1556.47 1830.08,-1556.47 1795.27,-1556.47 1767,-1554.74 1767,-1552.61 1767,-1552.61 1767,-1517.85 1767,-1517.85 1767,-1515.72 1795.27,-1513.99 1830.08,-1513.99 1864.88,-1513.99 1893.15,-1515.72 1893.15,-1517.85 1893.15,-1517.85 1893.15,-1552.61 1893.15,-1552.61"/>
<path fill="none" stroke="black" d="M1893.15,-1552.61C1893.15,-1550.48 1864.88,-1548.75 1830.08,-1548.75 1795.27,-1548.75 1767,-1550.48 1767,-1552.61"/>
<text text-anchor="middle" x="1830.08" y="-1530.18" font-family="Times,serif" font-size="14.00">hiccup/hiccup</text>
</a>
</g>
</g>
<!-- metosin/malli -->
<g id="node6" class="node">
<title>metosin/malli</title>
<g id="a_node6"><a xlink:href="./metosin__malli.svg" xlink:title="metosin/malli">
<path fill="green" stroke="black" d="M1893.15,-1923.85C1893.15,-1925.98 1864.88,-1927.71 1830.08,-1927.71 1795.27,-1927.71 1767,-1925.98 1767,-1923.85 1767,-1923.85 1767,-1889.08 1767,-1889.08 1767,-1886.95 1795.27,-1885.22 1830.08,-1885.22 1864.88,-1885.22 1893.15,-1886.95 1893.15,-1889.08 1893.15,-1889.08 1893.15,-1923.85 1893.15,-1923.85"/>
<path fill="none" stroke="black" d="M1893.15,-1923.85C1893.15,-1921.71 1864.88,-1919.98 1830.08,-1919.98 1795.27,-1919.98 1767,-1921.71 1767,-1923.85"/>
<text text-anchor="middle" x="1830.08" y="-1901.41" font-family="Times,serif" font-size="14.00">metosin/malli</text>
</a>
</g>
</g>
<!-- babashka/process -->
<g id="node7" class="node">
<title>babashka/process</title>
<g id="a_node7"><a xlink:href="./babashka__process.svg" xlink:title="babashka/process">
<path fill="green" stroke="black" d="M1360.81,-2310.51C1360.81,-2312.64 1328.34,-2314.37 1288.36,-2314.37 1248.39,-2314.37 1215.91,-2312.64 1215.91,-2310.51 1215.91,-2310.51 1215.91,-2275.74 1215.91,-2275.74 1215.91,-2273.61 1248.39,-2271.88 1288.36,-2271.88 1328.34,-2271.88 1360.81,-2273.61 1360.81,-2275.74 1360.81,-2275.74 1360.81,-2310.51 1360.81,-2310.51"/>
<path fill="none" stroke="black" d="M1360.81,-2310.51C1360.81,-2308.38 1328.34,-2306.64 1288.36,-2306.64 1248.39,-2306.64 1215.91,-2308.38 1215.91,-2310.51"/>
<text text-anchor="middle" x="1288.36" y="-2288.08" font-family="Times,serif" font-size="14.00">babashka/process</text>
</a>
</g>
</g>
<!-- com.github.liquidz/antq -->
<g id="node8" class="node">
<title>com.github.liquidz/antq</title>
<g id="a_node8"><a xlink:href="./com.github.liquidz__antq.svg" xlink:title="com.github.liquidz/antq">
<path fill="green" stroke="black" d="M1761.9,-1753.64C1761.9,-1755.77 1721.36,-1757.5 1671.45,-1757.5 1621.54,-1757.5 1581,-1755.77 1581,-1753.64 1581,-1753.64 1581,-1718.87 1581,-1718.87 1581,-1716.74 1621.54,-1715.01 1671.45,-1715.01 1721.36,-1715.01 1761.9,-1716.74 1761.9,-1718.87 1761.9,-1718.87 1761.9,-1753.64 1761.9,-1753.64"/>
<path fill="none" stroke="black" d="M1761.9,-1753.64C1761.9,-1751.51 1721.36,-1749.77 1671.45,-1749.77 1621.54,-1749.77 1581,-1751.51 1581,-1753.64"/>
<text text-anchor="middle" x="1671.45" y="-1731.21" font-family="Times,serif" font-size="14.00">com.github.liquidz/antq</text>
</a>
</g>
</g>
<!-- codox/codox -->
<g id="node9" class="node">
<title>codox/codox</title>
<g id="a_node9"><a xlink:href="./codox.svg" xlink:title="codox/codox">
<path fill="green" stroke="black" d="M1236.15,-438.61C1236.15,-440.74 1209.22,-442.47 1176.08,-442.47 1142.93,-442.47 1116,-440.74 1116,-438.61 1116,-438.61 1116,-403.85 1116,-403.85 1116,-401.72 1142.93,-399.98 1176.08,-399.98 1209.22,-399.98 1236.15,-401.72 1236.15,-403.85 1236.15,-403.85 1236.15,-438.61 1236.15,-438.61"/>
<path fill="none" stroke="black" d="M1236.15,-438.61C1236.15,-436.48 1209.22,-434.75 1176.08,-434.75 1142.93,-434.75 1116,-436.48 1116,-438.61"/>
<text text-anchor="middle" x="1176.08" y="-416.18" font-family="Times,serif" font-size="14.00">codox/codox</text>
</a>
</g>
</g>
<!-- io.github.clojure/tools.build -->
<g id="node10" class="node">
<title>io.github.clojure/tools.build</title>
<g id="a_node10"><a xlink:href="./io.github.clojure__tools.build.svg" xlink:title="io.github.clojure/tools.build">
<path fill="green" stroke="black" d="M814.98,-1858.51C814.98,-1860.64 769.73,-1862.37 714.03,-1862.37 658.32,-1862.37 613.08,-1860.64 613.08,-1858.51 613.08,-1858.51 613.08,-1823.74 613.08,-1823.74 613.08,-1821.61 658.32,-1819.88 714.03,-1819.88 769.73,-1819.88 814.98,-1821.61 814.98,-1823.74 814.98,-1823.74 814.98,-1858.51 814.98,-1858.51"/>
<path fill="none" stroke="black" d="M814.98,-1858.51C814.98,-1856.37 769.73,-1854.64 714.03,-1854.64 658.32,-1854.64 613.08,-1856.37 613.08,-1858.51"/>
<text text-anchor="middle" x="714.03" y="-1836.07" font-family="Times,serif" font-size="14.00">io.github.clojure/tools.build</text>
</a>
</g>
</g>
<!-- babashka/fs -->
<g id="node11" class="node">
<title>babashka/fs</title>
<g id="a_node11"><a xlink:href="./babashka__fs.svg" xlink:title="babashka/fs">
<path fill="green" stroke="black" d="M2194.15,-1226.22C2194.15,-1228.35 2168.57,-1230.08 2137.08,-1230.08 2105.58,-1230.08 2080,-1228.35 2080,-1226.22 2080,-1226.22 2080,-1191.45 2080,-1191.45 2080,-1189.32 2105.58,-1187.59 2137.08,-1187.59 2168.57,-1187.59 2194.15,-1189.32 2194.15,-1191.45 2194.15,-1191.45 2194.15,-1226.22 2194.15,-1226.22"/>
<path fill="none" stroke="black" d="M2194.15,-1226.22C2194.15,-1224.09 2168.57,-1222.35 2137.08,-1222.35 2105.58,-1222.35 2080,-1224.09 2080,-1226.22"/>
<text text-anchor="middle" x="2137.08" y="-1203.79" font-family="Times,serif" font-size="14.00">babashka/fs</text>
</a>
</g>
</g>
<!-- org.clojure/core.async -->
<g id="node12" class="node">
<title>org.clojure/core.async</title>
<g id="a_node12"><a xlink:href="./org.clojure__core.async.svg" xlink:title="org.clojure/core.async">
<path fill="red" stroke="black" d="M1845.15,-437.14C1845.15,-439.27 1806.79,-441.01 1759.57,-441.01 1712.36,-441.01 1674,-439.27 1674,-437.14 1674,-437.14 1674,-402.38 1674,-402.38 1674,-400.25 1712.36,-398.52 1759.57,-398.52 1806.79,-398.52 1845.15,-400.25 1845.15,-402.38 1845.15,-402.38 1845.15,-437.14 1845.15,-437.14"/>
<path fill="none" stroke="black" d="M1845.15,-437.14C1845.15,-435.01 1806.79,-433.28 1759.57,-433.28 1712.36,-433.28 1674,-435.01 1674,-437.14"/>
<text text-anchor="middle" x="1759.57" y="-414.71" font-family="Times,serif" font-size="14.00">org.clojure/core.async</text>
</a>
</g>
</g>
<!-- automaton&#45;build&#45;app.code&#45;helpers.analyze.utils -->
<g id="node13" class="node">
<title>automaton&#45;build&#45;app.code&#45;helpers.analyze.utils</title>
<g id="a_node13"><a xlink:href="./automaton-build-app.code-helpers.analyze.utils.svg" xlink:title="automaton&#45;build&#45;app.code&#45;helpers.analyze.utils">
<ellipse fill="none" stroke="black" cx="531.79" cy="-823.48" rx="187.49" ry="18"/>
<text text-anchor="middle" x="531.79" y="-818.43" font-family="Times,serif" font-size="14.00">automaton&#45;build&#45;app.code&#45;helpers.analyze.utils</text>
</a>
</g>
</g>
<!-- automaton&#45;build&#45;app.code&#45;helpers.analyze.utils&#45;&gt;org.clojure/clojure -->
<g id="edge14" class="edge">
<title>automaton&#45;build&#45;app.code&#45;helpers.analyze.utils&#45;&gt;org.clojure/clojure</title>
<path fill="none" stroke="black" d="M564.66,-841.49C656.84,-892.01 918.22,-1035.26 1027.7,-1095.25"/>
<polygon fill="black" stroke="black" points="1025.72,-1098.16 1036.17,-1099.9 1029.08,-1092.02 1025.72,-1098.16"/>
</g>
<!-- automaton&#45;build&#45;app.os.edn&#45;utils -->
<g id="node14" class="node">
<title>automaton&#45;build&#45;app.os.edn&#45;utils</title>
<g id="a_node14"><a xlink:href="./automaton-build-app.os.edn-utils.svg" xlink:title="automaton&#45;build&#45;app.os.edn&#45;utils">
<ellipse fill="none" stroke="black" cx="1406.75" cy="-671.42" rx="134.26" ry="18"/>
<text text-anchor="middle" x="1406.75" y="-666.37" font-family="Times,serif" font-size="14.00">automaton&#45;build&#45;app.os.edn&#45;utils</text>
</a>
</g>
</g>
<!-- automaton&#45;build&#45;app.os.edn&#45;utils&#45;&gt;org.clojure/clojure -->
<g id="edge30" class="edge">
<title>automaton&#45;build&#45;app.os.edn&#45;utils&#45;&gt;org.clojure/clojure</title>
<path fill="none" stroke="black" d="M1393.41,-689.65C1342.87,-758.71 1162.84,-1004.74 1099.29,-1091.58"/>
<polygon fill="black" stroke="black" points="1096.62,-1089.3 1093.54,-1099.44 1102.27,-1093.44 1096.62,-1089.3"/>
</g>
<!-- automaton&#45;build&#45;app.doc.html -->
<g id="node15" class="node">
<title>automaton&#45;build&#45;app.doc.html</title>
<g id="a_node15"><a xlink:href="./automaton-build-app.doc.html.svg" xlink:title="automaton&#45;build&#45;app.doc.html">
<ellipse fill="none" stroke="black" cx="2025.71" cy="-1506" rx="124.54" ry="18"/>
<text text-anchor="middle" x="2025.71" y="-1500.95" font-family="Times,serif" font-size="14.00">automaton&#45;build&#45;app.doc.html</text>
</a>
</g>
</g>
<!-- automaton&#45;build&#45;app.doc.html&#45;&gt;hiccup/hiccup -->
<g id="edge21" class="edge">
<title>automaton&#45;build&#45;app.doc.html&#45;&gt;hiccup/hiccup</title>
<path fill="none" stroke="black" d="M1937.91,-1519.12C1926.82,-1520.77 1915.57,-1522.46 1904.72,-1524.08"/>
<polygon fill="black" stroke="black" points="1904.45,-1520.58 1895.08,-1525.52 1905.48,-1527.5 1904.45,-1520.58"/>
</g>
<!-- automaton&#45;build&#45;app.schema -->
<g id="node16" class="node">
<title>automaton&#45;build&#45;app.schema</title>
<g id="a_node16"><a xlink:href="./automaton-build-app.schema.svg" xlink:title="automaton&#45;build&#45;app.schema">
<ellipse fill="none" stroke="black" cx="2020.59" cy="-1878" rx="119.42" ry="18"/>
<text text-anchor="middle" x="2020.59" y="-1872.95" font-family="Times,serif" font-size="14.00">automaton&#45;build&#45;app.schema</text>
</a>
</g>
</g>
<!-- automaton&#45;build&#45;app.schema&#45;&gt;metosin/malli -->
<g id="edge3" class="edge">
<title>automaton&#45;build&#45;app.schema&#45;&gt;metosin/malli</title>
<path fill="none" stroke="black" d="M1934.53,-1890.86C1924.61,-1892.34 1914.55,-1893.84 1904.79,-1895.3"/>
<polygon fill="black" stroke="black" points="1904.38,-1891.82 1895,-1896.76 1905.41,-1898.75 1904.38,-1891.82"/>
</g>
<!-- automaton&#45;build&#45;app.log -->
<g id="node17" class="node">
<title>automaton&#45;build&#45;app.log</title>
<g id="a_node17"><a xlink:href="./automaton-build-app.log.svg" xlink:title="automaton&#45;build&#45;app.log">
<ellipse fill="none" stroke="black" cx="761.59" cy="-742.42" rx="103.04" ry="18"/>
<text text-anchor="middle" x="761.59" y="-737.37" font-family="Times,serif" font-size="14.00">automaton&#45;build&#45;app.log</text>
</a>
</g>
</g>
<!-- automaton&#45;build&#45;app.log&#45;&gt;org.clojure/clojure -->
<g id="edge5" class="edge">
<title>automaton&#45;build&#45;app.log&#45;&gt;org.clojure/clojure</title>
<path fill="none" stroke="black" d="M776.59,-760.48C826.8,-820.97 989.4,-1016.83 1052,-1092.23"/>
<polygon fill="black" stroke="black" points="1049.07,-1094.19 1058.16,-1099.65 1054.46,-1089.72 1049.07,-1094.19"/>
</g>
<!-- automaton&#45;build&#45;app.code&#45;helpers.compiler -->
<g id="node18" class="node">
<title>automaton&#45;build&#45;app.code&#45;helpers.compiler</title>
<g id="a_node18"><a xlink:href="./automaton-build-app.code-helpers.compiler.svg" xlink:title="automaton&#45;build&#45;app.code&#45;helpers.compiler">
<ellipse fill="none" stroke="black" cx="750.15" cy="-1888.37" rx="174.19" ry="18"/>
<text text-anchor="middle" x="750.15" y="-1883.32" font-family="Times,serif" font-size="14.00">automaton&#45;build&#45;app.code&#45;helpers.compiler</text>
</a>
</g>
</g>
<!-- automaton&#45;build&#45;app.code&#45;helpers.compiler&#45;&gt;io.github.clojure/tools.build -->
<g id="edge13" class="edge">
<title>automaton&#45;build&#45;app.code&#45;helpers.compiler&#45;&gt;io.github.clojure/tools.build</title>
<path fill="none" stroke="black" d="M736.08,-1869.97C735.96,-1869.82 735.85,-1869.67 735.73,-1869.52"/>
<polygon fill="black" stroke="black" points="740.29,-1869.72 731.44,-1863.9 734.73,-1873.97 740.29,-1869.72"/>
</g>
<!-- automaton&#45;build&#45;app.code&#45;helpers.update&#45;deps&#45;clj -->
<g id="node19" class="node">
<title>automaton&#45;build&#45;app.code&#45;helpers.update&#45;deps&#45;clj</title>
<g id="a_node19"><a xlink:href="./automaton-build-app.code-helpers.update-deps-clj.svg" xlink:title="automaton&#45;build&#45;app.code&#45;helpers.update&#45;deps&#45;clj">
<ellipse fill="none" stroke="black" cx="1967.66" cy="-1692" rx="197.73" ry="18"/>
<text text-anchor="middle" x="1967.66" y="-1686.95" font-family="Times,serif" font-size="14.00">automaton&#45;build&#45;app.code&#45;helpers.update&#45;deps&#45;clj</text>
</a>
</g>
</g>
<!-- automaton&#45;build&#45;app.code&#45;helpers.update&#45;deps&#45;clj&#45;&gt;com.github.liquidz/antq -->
<g id="edge11" class="edge">
<title>automaton&#45;build&#45;app.code&#45;helpers.update&#45;deps&#45;clj&#45;&gt;com.github.liquidz/antq</title>
<path fill="none" stroke="black" d="M1862.81,-1707.66C1833.87,-1711.99 1802.51,-1716.67 1773.71,-1720.98"/>
<polygon fill="black" stroke="black" points="1773.26,-1717.51 1763.89,-1722.44 1774.3,-1724.43 1773.26,-1717.51"/>
</g>
<!-- automaton&#45;build&#45;app.tasks&#45;helper -->
<g id="node20" class="node">
<title>automaton&#45;build&#45;app.tasks&#45;helper</title>
<g id="a_node20"><a xlink:href="./automaton-build-app.tasks-helper.svg" xlink:title="automaton&#45;build&#45;app.tasks&#45;helper">
<ellipse fill="none" stroke="black" cx="1698.38" cy="-883.52" rx="135.8" ry="18"/>
<text text-anchor="middle" x="1698.38" y="-878.47" font-family="Times,serif" font-size="14.00">automaton&#45;build&#45;app.tasks&#45;helper</text>
</a>
</g>
</g>
<!-- automaton&#45;build&#45;app.tasks&#45;helper&#45;&gt;org.clojure/clojure -->
<g id="edge19" class="edge">
<title>automaton&#45;build&#45;app.tasks&#45;helper&#45;&gt;org.clojure/clojure</title>
<path fill="none" stroke="black" d="M1653.18,-900.88C1545.05,-942.41 1270.98,-1047.66 1143.72,-1096.54"/>
<polygon fill="black" stroke="black" points="1142.83,-1093.13 1134.75,-1099.98 1145.34,-1099.67 1142.83,-1093.13"/>
</g>
<!-- automaton&#45;build&#45;app.tasks&#45;helper&#45;&gt;org.clojure/tools.cli -->
<g id="edge20" class="edge">
<title>automaton&#45;build&#45;app.tasks&#45;helper&#45;&gt;org.clojure/tools.cli</title>
<path fill="none" stroke="black" d="M1717.24,-865.35C1779.92,-804.94 1981.71,-610.46 2058.87,-536.1"/>
<polygon fill="black" stroke="black" points="2060.94,-538.97 2065.71,-529.51 2056.08,-533.93 2060.94,-538.97"/>
</g>
<!-- automaton&#45;build&#45;app.tasks&#45;helper&#45;&gt;babashka/fs -->
<g id="edge18" class="edge">
<title>automaton&#45;build&#45;app.tasks&#45;helper&#45;&gt;babashka/fs</title>
<path fill="none" stroke="black" d="M1722.91,-901.71C1795.68,-955.67 2010.79,-1115.19 2098.84,-1180.48"/>
<polygon fill="black" stroke="black" points="2096.62,-1183.19 2106.73,-1186.33 2100.79,-1177.57 2096.62,-1183.19"/>
</g>
<!-- automaton&#45;build&#45;app.utils.namespace -->
<g id="node21" class="node">
<title>automaton&#45;build&#45;app.utils.namespace</title>
<g id="a_node21"><a xlink:href="./automaton-build-app.utils.namespace.svg" xlink:title="automaton&#45;build&#45;app.utils.namespace">
<ellipse fill="none" stroke="black" cx="1054.39" cy="-695.26" rx="150.64" ry="18"/>
<text text-anchor="middle" x="1054.39" y="-690.21" font-family="Times,serif" font-size="14.00">automaton&#45;build&#45;app.utils.namespace</text>
</a>
</g>
</g>
<!-- automaton&#45;build&#45;app.utils.namespace&#45;&gt;org.clojure/clojure -->
<g id="edge10" class="edge">
<title>automaton&#45;build&#45;app.utils.namespace&#45;&gt;org.clojure/clojure</title>
<path fill="none" stroke="black" d="M1055.36,-713.6C1058.83,-779.46 1070.69,-1004.58 1075.16,-1089.46"/>
<polygon fill="black" stroke="black" points="1071.65,-1089.39 1075.67,-1099.19 1078.64,-1089.02 1071.65,-1089.39"/>
</g>
<!-- automaton&#45;build&#45;app.file&#45;repo.text&#45;matches -->
<g id="node22" class="node">
<title>automaton&#45;build&#45;app.file&#45;repo.text&#45;matches</title>
<g id="a_node22"><a xlink:href="./automaton-build-app.file-repo.text-matches.svg" xlink:title="automaton&#45;build&#45;app.file&#45;repo.text&#45;matches">
<ellipse fill="none" stroke="black" cx="468.59" cy="-1153.28" rx="173.16" ry="18"/>
<text text-anchor="middle" x="468.59" y="-1148.23" font-family="Times,serif" font-size="14.00">automaton&#45;build&#45;app.file&#45;repo.text&#45;matches</text>
</a>
</g>
</g>
<!-- automaton&#45;build&#45;app.file&#45;repo.text&#45;matches&#45;&gt;org.clojure/clojure -->
<g id="edge6" class="edge">
<title>automaton&#45;build&#45;app.file&#45;repo.text&#45;matches&#45;&gt;org.clojure/clojure</title>
<path fill="none" stroke="black" d="M624.84,-1145.3C740.87,-1139.37 894.84,-1131.51 989.83,-1126.66"/>
<polygon fill="black" stroke="black" points="989.79,-1130.16 999.6,-1126.16 989.43,-1123.17 989.79,-1130.16"/>
</g>
<!-- automaton&#45;build&#45;app.containers.local&#45;engine -->
<g id="node23" class="node">
<title>automaton&#45;build&#45;app.containers.local&#45;engine</title>
<g id="a_node23"><a xlink:href="./automaton-build-app.containers.local-engine.svg" xlink:title="automaton&#45;build&#45;app.containers.local&#45;engine">
<ellipse fill="none" stroke="black" cx="1388.99" cy="-939.82" rx="177.26" ry="18"/>
<text text-anchor="middle" x="1388.99" y="-934.77" font-family="Times,serif" font-size="14.00">automaton&#45;build&#45;app.containers.local&#45;engine</text>
</a>
</g>
</g>
<!-- automaton&#45;build&#45;app.containers.local&#45;engine&#45;&gt;org.clojure/clojure -->
<g id="edge33" class="edge">
<title>automaton&#45;build&#45;app.containers.local&#45;engine&#45;&gt;org.clojure/clojure</title>
<path fill="none" stroke="black" d="M1357.92,-957.98C1303.04,-990.05 1188.63,-1056.91 1123.99,-1094.68"/>
<polygon fill="black" stroke="black" points="1122.24,-1091.65 1115.37,-1099.72 1125.77,-1097.7 1122.24,-1091.65"/>
</g>
<!-- automaton&#45;build&#45;app.cicd.cfg&#45;mgt -->
<g id="node24" class="node">
<title>automaton&#45;build&#45;app.cicd.cfg&#45;mgt</title>
<g id="a_node24"><a xlink:href="./automaton-build-app.cicd.cfg-mgt.svg" xlink:title="automaton&#45;build&#45;app.cicd.cfg&#45;mgt">
<ellipse fill="none" stroke="black" cx="1391.06" cy="-1385.87" rx="138.87" ry="18"/>
<text text-anchor="middle" x="1391.06" y="-1380.82" font-family="Times,serif" font-size="14.00">automaton&#45;build&#45;app.cicd.cfg&#45;mgt</text>
</a>
</g>
</g>
<!-- automaton&#45;build&#45;app.cicd.cfg&#45;mgt&#45;&gt;org.clojure/clojure -->
<g id="edge17" class="edge">
<title>automaton&#45;build&#45;app.cicd.cfg&#45;mgt&#45;&gt;org.clojure/clojure</title>
<path fill="none" stroke="black" d="M1369.47,-1367.75C1315.84,-1322.74 1176.25,-1205.6 1111.19,-1151"/>
<polygon fill="black" stroke="black" points="1113.59,-1148.44 1103.68,-1144.7 1109.09,-1153.81 1113.59,-1148.44"/>
</g>
<!-- automaton&#45;build&#45;app.file&#45;repo.raw.impl -->
<g id="node25" class="node">
<title>automaton&#45;build&#45;app.file&#45;repo.raw.impl</title>
<g id="a_node25"><a xlink:href="./automaton-build-app.file-repo.raw.impl.svg" xlink:title="automaton&#45;build&#45;app.file&#45;repo.raw.impl">
<ellipse fill="none" stroke="black" cx="834.63" cy="-1636.14" rx="158.83" ry="18"/>
<text text-anchor="middle" x="834.63" y="-1631.09" font-family="Times,serif" font-size="14.00">automaton&#45;build&#45;app.file&#45;repo.raw.impl</text>
</a>
</g>
</g>
<!-- automaton&#45;build&#45;app.file&#45;repo.raw.impl&#45;&gt;org.clojure/clojure -->
<g id="edge9" class="edge">
<title>automaton&#45;build&#45;app.file&#45;repo.raw.impl&#45;&gt;org.clojure/clojure</title>
<path fill="none" stroke="black" d="M843.25,-1617.85C879,-1542 1015.86,-1251.67 1061.77,-1154.28"/>
<polygon fill="black" stroke="black" points="1064.92,-1155.8 1066.01,-1145.27 1058.58,-1152.82 1064.92,-1155.8"/>
</g>
<!-- automaton&#45;build&#45;app.configuration.edn&#45;read -->
<g id="node26" class="node">
<title>automaton&#45;build&#45;app.configuration.edn&#45;read</title>
<g id="a_node26"><a xlink:href="./automaton-build-app.configuration.edn-read.svg" xlink:title="automaton&#45;build&#45;app.configuration.edn&#45;read">
<ellipse fill="none" stroke="black" cx="1649.05" cy="-1154.8" rx="175.72" ry="18"/>
<text text-anchor="middle" x="1649.05" y="-1149.75" font-family="Times,serif" font-size="14.00">automaton&#45;build&#45;app.configuration.edn&#45;read</text>
</a>
</g>
</g>
<!-- automaton&#45;build&#45;app.configuration.edn&#45;read&#45;&gt;org.clojure/clojure -->
<g id="edge2" class="edge">
<title>automaton&#45;build&#45;app.configuration.edn&#45;read&#45;&gt;org.clojure/clojure</title>
<path fill="none" stroke="black" d="M1494.21,-1145.98C1388.27,-1139.94 1251.66,-1132.16 1164.15,-1127.18"/>
<polygon fill="black" stroke="black" points="1164.36,-1123.68 1154.17,-1126.61 1163.96,-1130.67 1164.36,-1123.68"/>
</g>
<!-- automaton&#45;build&#45;app.configuration.edn&#45;read&#45;&gt;babashka/fs -->
<g id="edge1" class="edge">
<title>automaton&#45;build&#45;app.configuration.edn&#45;read&#45;&gt;babashka/fs</title>
<path fill="none" stroke="black" d="M1770,-1168.19C1864.17,-1178.62 1991.46,-1192.71 2068.73,-1201.27"/>
<polygon fill="black" stroke="black" points="2067.93,-1204.7 2078.25,-1202.32 2068.7,-1197.74 2067.93,-1204.7"/>
</g>
<!-- automaton&#45;build&#45;app.code&#45;helpers.formatter -->
<g id="node27" class="node">
<title>automaton&#45;build&#45;app.code&#45;helpers.formatter</title>
<g id="a_node27"><a xlink:href="./automaton-build-app.code-helpers.formatter.svg" xlink:title="automaton&#45;build&#45;app.code&#45;helpers.formatter">
<ellipse fill="none" stroke="black" cx="1221.34" cy="-539.23" rx="175.72" ry="18"/>
<text text-anchor="middle" x="1221.34" y="-534.18" font-family="Times,serif" font-size="14.00">automaton&#45;build&#45;app.code&#45;helpers.formatter</text>
</a>
</g>
</g>
<!-- automaton&#45;build&#45;app.code&#45;helpers.formatter&#45;&gt;org.clojure/clojure -->
<g id="edge15" class="edge">
<title>automaton&#45;build&#45;app.code&#45;helpers.formatter&#45;&gt;org.clojure/clojure</title>
<path fill="none" stroke="black" d="M1216.78,-557.64C1196.18,-640.75 1111.73,-981.56 1085.02,-1089.36"/>
<polygon fill="black" stroke="black" points="1081.64,-1088.46 1082.63,-1099 1088.43,-1090.14 1081.64,-1088.46"/>
</g>
<!-- automaton&#45;build&#45;app.repl -->
<g id="node28" class="node">
<title>automaton&#45;build&#45;app.repl</title>
<g id="a_node28"><a xlink:href="./automaton-build-app.repl.svg" xlink:title="automaton&#45;build&#45;app.repl">
<ellipse fill="none" stroke="black" cx="1958.77" cy="-390" rx="105.6" ry="18"/>
<text text-anchor="middle" x="1958.77" y="-384.95" font-family="Times,serif" font-size="14.00">automaton&#45;build&#45;app.repl</text>
</a>
</g>
</g>
<!-- automaton&#45;build&#45;app.repl&#45;&gt;org.clojure/core.async -->
<g id="edge4" class="edge">
<title>automaton&#45;build&#45;app.repl&#45;&gt;org.clojure/core.async</title>
<path fill="none" stroke="black" d="M1878.33,-402.02C1871.24,-403.08 1864.02,-404.16 1856.82,-405.23"/>
<polygon fill="black" stroke="black" points="1856.4,-401.76 1847.03,-406.7 1857.43,-408.68 1856.4,-401.76"/>
</g>
<!-- automaton&#45;build&#45;app.cicd.version -->
<g id="node29" class="node">
<title>automaton&#45;build&#45;app.cicd.version</title>
<g id="a_node29"><a xlink:href="./automaton-build-app.cicd.version.svg" xlink:title="automaton&#45;build&#45;app.cicd.version">
<ellipse fill="none" stroke="black" cx="694.31" cy="-1785" rx="136.31" ry="18"/>
<text text-anchor="middle" x="694.31" y="-1779.95" font-family="Times,serif" font-size="14.00">automaton&#45;build&#45;app.cicd.version</text>
</a>
</g>
</g>
<!-- automaton&#45;build&#45;app.cicd.version&#45;&gt;io.github.clojure/tools.build -->
<g id="edge16" class="edge">
<title>automaton&#45;build&#45;app.cicd.version&#45;&gt;io.github.clojure/tools.build</title>
<path fill="none" stroke="black" d="M700.77,-1803.38C701.36,-1805.06 701.96,-1806.79 702.58,-1808.54"/>
<polygon fill="black" stroke="black" points="699.27,-1809.68 705.89,-1817.96 705.88,-1807.36 699.27,-1809.68"/>
</g>
<!-- automaton&#45;build&#45;app.doc.markdown -->
<g id="node30" class="node">
<title>automaton&#45;build&#45;app.doc.markdown</title>
<g id="a_node30"><a xlink:href="./automaton-build-app.doc.markdown.svg" xlink:title="automaton&#45;build&#45;app.doc.markdown">
<ellipse fill="none" stroke="black" cx="552.8" cy="-1512.87" rx="147.06" ry="18"/>
<text text-anchor="middle" x="552.8" y="-1507.82" font-family="Times,serif" font-size="14.00">automaton&#45;build&#45;app.doc.markdown</text>
</a>
</g>
</g>
<!-- automaton&#45;build&#45;app.doc.markdown&#45;&gt;org.clojure/clojure -->
<g id="edge24" class="edge">
<title>automaton&#45;build&#45;app.doc.markdown&#45;&gt;org.clojure/clojure</title>
<path fill="none" stroke="black" d="M577.03,-1494.81C660.58,-1432.53 937.14,-1226.38 1038.89,-1150.53"/>
<polygon fill="black" stroke="black" points="1040.75,-1153.51 1046.68,-1144.72 1036.57,-1147.89 1040.75,-1153.51"/>
</g>
<!-- automaton&#45;build&#45;app.doc.markdown&#45;&gt;markdown&#45;clj/markdown&#45;clj -->
<g id="edge25" class="edge">
<title>automaton&#45;build&#45;app.doc.markdown&#45;&gt;markdown&#45;clj/markdown&#45;clj</title>
<path fill="none" stroke="black" d="M524.02,-1530.81C447.6,-1578.44 239.22,-1708.33 147.69,-1765.38"/>
<polygon fill="black" stroke="black" points="146.08,-1762.26 139.44,-1770.52 149.78,-1768.2 146.08,-1762.26"/>
</g>
<!-- automaton&#45;build&#45;app.file&#45;repo.clj&#45;code -->
<g id="node31" class="node">
<title>automaton&#45;build&#45;app.file&#45;repo.clj&#45;code</title>
<g id="a_node31"><a xlink:href="./automaton-build-app.file-repo.clj-code.svg" xlink:title="automaton&#45;build&#45;app.file&#45;repo.clj&#45;code">
<ellipse fill="none" stroke="black" cx="699.2" cy="-1323.62" rx="155.25" ry="18"/>
<text text-anchor="middle" x="699.2" y="-1318.57" font-family="Times,serif" font-size="14.00">automaton&#45;build&#45;app.file&#45;repo.clj&#45;code</text>
</a>
</g>
</g>
<!-- automaton&#45;build&#45;app.file&#45;repo.clj&#45;code&#45;&gt;org.clojure/clojure -->
<g id="edge8" class="edge">
<title>automaton&#45;build&#45;app.file&#45;repo.clj&#45;code&#45;&gt;org.clojure/clojure</title>
<path fill="none" stroke="black" d="M733.04,-1305.57C799.59,-1270.09 947.75,-1191.07 1026.08,-1149.3"/>
<polygon fill="black" stroke="black" points="1027.68,-1152.41 1034.86,-1144.62 1024.39,-1146.24 1027.68,-1152.41"/>
</g>
<!-- automaton&#45;build&#45;app.os.commands -->
<g id="node32" class="node">
<title>automaton&#45;build&#45;app.os.commands</title>
<g id="a_node32"><a xlink:href="./automaton-build-app.os.commands.svg" xlink:title="automaton&#45;build&#45;app.os.commands">
<ellipse fill="none" stroke="black" cx="1163.27" cy="-1775.48" rx="142.97" ry="18"/>
<text text-anchor="middle" x="1163.27" y="-1770.43" font-family="Times,serif" font-size="14.00">automaton&#45;build&#45;app.os.commands</text>
</a>
</g>
</g>
<!-- automaton&#45;build&#45;app.os.commands&#45;&gt;org.clojure/clojure -->
<g id="edge27" class="edge">
<title>automaton&#45;build&#45;app.os.commands&#45;&gt;org.clojure/clojure</title>
<path fill="none" stroke="black" d="M1160.87,-1757.33C1149.02,-1667.77 1096.77,-1272.61 1081.25,-1155.21"/>
<polygon fill="black" stroke="black" points="1084.72,-1154.77 1079.94,-1145.31 1077.78,-1155.69 1084.72,-1154.77"/>
</g>
<!-- automaton&#45;build&#45;app.os.commands&#45;&gt;babashka/process -->
<g id="edge26" class="edge">
<title>automaton&#45;build&#45;app.os.commands&#45;&gt;babashka/process</title>
<path fill="none" stroke="black" d="M1167.72,-1793.91C1186.16,-1870.23 1256.72,-2162.2 1280.49,-2260.56"/>
<polygon fill="black" stroke="black" points="1277.05,-2261.2 1282.8,-2270.1 1283.85,-2259.56 1277.05,-2261.2"/>
</g>
<!-- automaton&#45;build&#45;app.os.pdf -->
<g id="node33" class="node">
<title>automaton&#45;build&#45;app.os.pdf</title>
<g id="a_node33"><a xlink:href="./automaton-build-app.os.pdf.svg" xlink:title="automaton&#45;build&#45;app.os.pdf">
<ellipse fill="none" stroke="black" cx="847.68" cy="-501.78" rx="114.3" ry="18"/>
<text text-anchor="middle" x="847.68" y="-496.73" font-family="Times,serif" font-size="14.00">automaton&#45;build&#45;app.os.pdf</text>
</a>
</g>
</g>
<!-- automaton&#45;build&#45;app.os.pdf&#45;&gt;org.clojure/clojure -->
<g id="edge29" class="edge">
<title>automaton&#45;build&#45;app.os.pdf&#45;&gt;org.clojure/clojure</title>
<path fill="none" stroke="black" d="M854.42,-520.02C886.45,-606.71 1023.49,-977.67 1064.95,-1089.91"/>
<polygon fill="black" stroke="black" points="1061.6,-1090.95 1068.35,-1099.12 1068.17,-1088.52 1061.6,-1090.95"/>
</g>
<!-- automaton&#45;build&#45;app.os.pdf&#45;&gt;clj&#45;htmltopdf/clj&#45;htmltopdf -->
<g id="edge28" class="edge">
<title>automaton&#45;build&#45;app.os.pdf&#45;&gt;clj&#45;htmltopdf/clj&#45;htmltopdf</title>
<path fill="none" stroke="black" d="M839.43,-483.53C806.78,-411.38 686.47,-145.45 644.69,-53.1"/>
<polygon fill="black" stroke="black" points="647.93,-51.76 640.62,-44.1 641.55,-54.65 647.93,-51.76"/>
</g>
<!-- automaton&#45;build&#45;app.code&#45;helpers.code&#45;stats -->
<g id="node34" class="node">
<title>automaton&#45;build&#45;app.code&#45;helpers.code&#45;stats</title>
<g id="a_node34"><a xlink:href="./automaton-build-app.code-helpers.code-stats.svg" xlink:title="automaton&#45;build&#45;app.code&#45;helpers.code&#45;stats">
<ellipse fill="none" stroke="black" cx="646.89" cy="-1017.82" rx="177.77" ry="18"/>
<text text-anchor="middle" x="646.89" y="-1012.77" font-family="Times,serif" font-size="14.00">automaton&#45;build&#45;app.code&#45;helpers.code&#45;stats</text>
</a>
</g>
</g>
<!-- automaton&#45;build&#45;app.code&#45;helpers.code&#45;stats&#45;&gt;org.clojure/clojure -->
<g id="edge12" class="edge">
<title>automaton&#45;build&#45;app.code&#45;helpers.code&#45;stats&#45;&gt;org.clojure/clojure</title>
<path fill="none" stroke="black" d="M716.93,-1034.83C791.48,-1052.92 909.56,-1081.59 989.99,-1101.11"/>
<polygon fill="black" stroke="black" points="989.06,-1104.49 999.6,-1103.45 990.71,-1097.69 989.06,-1104.49"/>
</g>
<!-- automaton&#45;build&#45;app.doc.blog -->
<g id="node35" class="node">
<title>automaton&#45;build&#45;app.doc.blog</title>
<g id="a_node35"><a xlink:href="./automaton-build-app.doc.blog.svg" xlink:title="automaton&#45;build&#45;app.doc.blog">
<ellipse fill="none" stroke="black" cx="1028.05" cy="-1524.47" rx="123.52" ry="18"/>
<text text-anchor="middle" x="1028.05" y="-1519.42" font-family="Times,serif" font-size="14.00">automaton&#45;build&#45;app.doc.blog</text>
</a>
</g>
</g>
<!-- automaton&#45;build&#45;app.doc.blog&#45;&gt;org.clojure/clojure -->
<g id="edge22" class="edge">
<title>automaton&#45;build&#45;app.doc.blog&#45;&gt;org.clojure/clojure</title>
<path fill="none" stroke="black" d="M1030.27,-1506.14C1037.9,-1443.27 1063.09,-1235.85 1072.91,-1154.94"/>
<polygon fill="black" stroke="black" points="1076.38,-1155.36 1074.11,-1145.01 1069.43,-1154.52 1076.38,-1155.36"/>
</g>
<!-- automaton&#45;build&#45;app.file&#45;repo.text -->
<g id="node36" class="node">
<title>automaton&#45;build&#45;app.file&#45;repo.text</title>
<g id="a_node36"><a xlink:href="./automaton-build-app.file-repo.text.svg" xlink:title="automaton&#45;build&#45;app.file&#45;repo.text">
<ellipse fill="none" stroke="black" cx="1359.41" cy="-1607.43" rx="139.38" ry="18"/>
<text text-anchor="middle" x="1359.41" y="-1602.38" font-family="Times,serif" font-size="14.00">automaton&#45;build&#45;app.file&#45;repo.text</text>
</a>
</g>
</g>
<!-- automaton&#45;build&#45;app.file&#45;repo.text&#45;&gt;org.clojure/clojure -->
<g id="edge7" class="edge">
<title>automaton&#45;build&#45;app.file&#45;repo.text&#45;&gt;org.clojure/clojure</title>
<path fill="none" stroke="black" d="M1348.68,-1589C1306.17,-1515.99 1149.27,-1246.53 1095.28,-1153.8"/>
<polygon fill="black" stroke="black" points="1098.33,-1152.08 1090.27,-1145.2 1092.28,-1155.6 1098.33,-1152.08"/>
</g>
<!-- automaton&#45;build&#45;app.doc.code&#45;doc -->
<g id="node37" class="node">
<title>automaton&#45;build&#45;app.doc.code&#45;doc</title>
<g id="a_node37"><a xlink:href="./automaton-build-app.doc.code-doc.svg" xlink:title="automaton&#45;build&#45;app.doc.code&#45;doc">
<ellipse fill="none" stroke="black" cx="1385.09" cy="-390" rx="140.92" ry="18"/>
<text text-anchor="middle" x="1385.09" y="-384.95" font-family="Times,serif" font-size="14.00">automaton&#45;build&#45;app.doc.code&#45;doc</text>
</a>
</g>
</g>
<!-- automaton&#45;build&#45;app.doc.code&#45;doc&#45;&gt;codox/codox -->
<g id="edge23" class="edge">
<title>automaton&#45;build&#45;app.doc.code&#45;doc&#45;&gt;codox/codox</title>
<path fill="none" stroke="black" d="M1292.2,-403.88C1277.31,-406.1 1262.11,-408.37 1247.82,-410.51"/>
<polygon fill="black" stroke="black" points="1247.45,-407.03 1238.07,-411.97 1248.48,-413.95 1247.45,-407.03"/>
</g>
<!-- automaton&#45;build&#45;app.os.files -->
<g id="node38" class="node">
<title>automaton&#45;build&#45;app.os.files</title>
<g id="a_node38"><a xlink:href="./automaton-build-app.os.files.svg" xlink:title="automaton&#45;build&#45;app.os.files">
<ellipse fill="none" stroke="black" cx="1655.85" cy="-1388.63" rx="117.89" ry="18"/>
<text text-anchor="middle" x="1655.85" y="-1383.58" font-family="Times,serif" font-size="14.00">automaton&#45;build&#45;app.os.files</text>
</a>
</g>
</g>
<!-- automaton&#45;build&#45;app.os.files&#45;&gt;org.clojure/clojure -->
<g id="edge32" class="edge">
<title>automaton&#45;build&#45;app.os.files&#45;&gt;org.clojure/clojure</title>
<path fill="none" stroke="black" d="M1617.86,-1371.15C1518.84,-1325.58 1252.33,-1202.94 1134.39,-1148.67"/>
<polygon fill="black" stroke="black" points="1136.05,-1145.58 1125.5,-1144.58 1133.12,-1151.94 1136.05,-1145.58"/>
</g>
<!-- automaton&#45;build&#45;app.os.files&#45;&gt;babashka/fs -->
<g id="edge31" class="edge">
<title>automaton&#45;build&#45;app.os.files&#45;&gt;babashka/fs</title>
<path fill="none" stroke="black" d="M1701.12,-1371.72C1786.93,-1339.66 1973.5,-1269.95 2072.44,-1232.98"/>
<polygon fill="black" stroke="black" points="2073.63,-1236.28 2081.78,-1229.5 2071.18,-1229.72 2073.63,-1236.28"/>
</g>
</g>
</svg>
