<?xml version="1.0" encoding="UTF-8" standalone="no"?>
<!DOCTYPE svg PUBLIC "-//W3C//DTD SVG 1.1//EN"
 "http://www.w3.org/Graphics/SVG/1.1/DTD/svg11.dtd">
<!-- Generated by graphviz version 9.0.0 (20230911.1827)
 -->
<!-- Pages: 1 -->
<svg width="2645pt" height="1831pt"
 viewBox="0.00 0.00 2645.02 1830.66" xmlns="http://www.w3.org/2000/svg" xmlns:xlink="http://www.w3.org/1999/xlink">
<g id="graph0" class="graph" transform="scale(1 1) rotate(0) translate(4 1826.66)">
<polygon fill="white" stroke="none" points="-4,4 -4,-1826.66 2641.02,-1826.66 2641.02,4 -4,4"/>
<!-- org.clojure/clojure -->
<g id="node1" class="node">
<title>org.clojure/clojure</title>
<g id="a_node1"><a xlink:href="./org.clojure__clojure.svg" xlink:title="org.clojure/clojure">
<path fill="green" stroke="black" d="M1162.28,-1130.09C1162.28,-1132.22 1128.47,-1133.95 1086.83,-1133.95 1045.2,-1133.95 1011.38,-1132.22 1011.38,-1130.09 1011.38,-1130.09 1011.38,-1095.33 1011.38,-1095.33 1011.38,-1093.2 1045.2,-1091.47 1086.83,-1091.47 1128.47,-1091.47 1162.28,-1093.2 1162.28,-1095.33 1162.28,-1095.33 1162.28,-1130.09 1162.28,-1130.09"/>
<path fill="none" stroke="black" d="M1162.28,-1130.09C1162.28,-1127.96 1128.47,-1126.23 1086.83,-1126.23 1045.2,-1126.23 1011.38,-1127.96 1011.38,-1130.09"/>
<text text-anchor="middle" x="1086.83" y="-1107.66" font-family="Times,serif" font-size="14.00">org.clojure/clojure</text>
</a>
</g>
</g>
<!-- org.clojure/tools.cli -->
<g id="node2" class="node">
<title>org.clojure/tools.cli</title>
<g id="a_node2"><a xlink:href="./org.clojure__tools.cli.svg" xlink:title="org.clojure/tools.cli">
<path fill="red" stroke="black" d="M2251.32,-1734.54C2251.32,-1736.67 2216.16,-1738.41 2172.87,-1738.41 2129.58,-1738.41 2094.42,-1736.67 2094.42,-1734.54 2094.42,-1734.54 2094.42,-1699.78 2094.42,-1699.78 2094.42,-1697.65 2129.58,-1695.92 2172.87,-1695.92 2216.16,-1695.92 2251.32,-1697.65 2251.32,-1699.78 2251.32,-1699.78 2251.32,-1734.54 2251.32,-1734.54"/>
<path fill="none" stroke="black" d="M2251.32,-1734.54C2251.32,-1732.41 2216.16,-1730.68 2172.87,-1730.68 2129.58,-1730.68 2094.42,-1732.41 2094.42,-1734.54"/>
<text text-anchor="middle" x="2172.87" y="-1712.11" font-family="Times,serif" font-size="14.00">org.clojure/tools.cli</text>
</a>
</g>
</g>
<!-- clj&#45;htmltopdf/clj&#45;htmltopdf -->
<g id="node3" class="node">
<title>clj&#45;htmltopdf/clj&#45;htmltopdf</title>
<g id="a_node3"><a xlink:href="./clj-htmltopdf.svg" xlink:title="clj&#45;htmltopdf/clj&#45;htmltopdf">
<path fill="green" stroke="black" d="M657.1,-38.62C657.1,-40.76 612.69,-42.49 558.03,-42.49 503.36,-42.49 458.95,-40.76 458.95,-38.62 458.95,-38.62 458.95,-3.86 458.95,-3.86 458.95,-1.73 503.36,0 558.03,0 612.69,0 657.1,-1.73 657.1,-3.86 657.1,-3.86 657.1,-38.62 657.1,-38.62"/>
<path fill="none" stroke="black" d="M657.1,-38.62C657.1,-36.49 612.69,-34.76 558.03,-34.76 503.36,-34.76 458.95,-36.49 458.95,-38.62"/>
<text text-anchor="middle" x="558.03" y="-16.19" font-family="Times,serif" font-size="14.00">clj&#45;htmltopdf/clj&#45;htmltopdf</text>
</a>
</g>
</g>
<!-- markdown&#45;clj/markdown&#45;clj -->
<g id="node4" class="node">
<title>markdown&#45;clj/markdown&#45;clj</title>
<g id="a_node4"><a xlink:href="./markdown-clj.svg" xlink:title="markdown&#45;clj/markdown&#45;clj">
<path fill="green" stroke="black" d="M1989.15,-1131.61C1989.15,-1133.75 1942.73,-1135.48 1885.58,-1135.48 1828.42,-1135.48 1782,-1133.75 1782,-1131.61 1782,-1131.61 1782,-1096.85 1782,-1096.85 1782,-1094.72 1828.42,-1092.99 1885.58,-1092.99 1942.73,-1092.99 1989.15,-1094.72 1989.15,-1096.85 1989.15,-1096.85 1989.15,-1131.61 1989.15,-1131.61"/>
<path fill="none" stroke="black" d="M1989.15,-1131.61C1989.15,-1129.48 1942.73,-1127.75 1885.58,-1127.75 1828.42,-1127.75 1782,-1129.48 1782,-1131.61"/>
<text text-anchor="middle" x="1885.58" y="-1109.18" font-family="Times,serif" font-size="14.00">markdown&#45;clj/markdown&#45;clj</text>
</a>
</g>
</g>
<!-- hiccup/hiccup -->
<g id="node5" class="node">
<title>hiccup/hiccup</title>
<g id="a_node5"><a xlink:href="./hiccup.svg" xlink:title="hiccup/hiccup">
<path fill="green" stroke="black" d="M1908.15,-226.61C1908.15,-228.74 1879.88,-230.47 1845.08,-230.47 1810.27,-230.47 1782,-228.74 1782,-226.61 1782,-226.61 1782,-191.85 1782,-191.85 1782,-189.72 1810.27,-187.99 1845.08,-187.99 1879.88,-187.99 1908.15,-189.72 1908.15,-191.85 1908.15,-191.85 1908.15,-226.61 1908.15,-226.61"/>
<path fill="none" stroke="black" d="M1908.15,-226.61C1908.15,-224.48 1879.88,-222.75 1845.08,-222.75 1810.27,-222.75 1782,-224.48 1782,-226.61"/>
<text text-anchor="middle" x="1845.08" y="-204.18" font-family="Times,serif" font-size="14.00">hiccup/hiccup</text>
</a>
</g>
</g>
<!-- metosin/malli -->
<g id="node6" class="node">
<title>metosin/malli</title>
<g id="a_node6"><a xlink:href="./metosin__malli.svg" xlink:title="metosin/malli">
<path fill="green" stroke="black" d="M1422.15,-225.85C1422.15,-227.98 1393.88,-229.71 1359.08,-229.71 1324.27,-229.71 1296,-227.98 1296,-225.85 1296,-225.85 1296,-191.08 1296,-191.08 1296,-188.95 1324.27,-187.22 1359.08,-187.22 1393.88,-187.22 1422.15,-188.95 1422.15,-191.08 1422.15,-191.08 1422.15,-225.85 1422.15,-225.85"/>
<path fill="none" stroke="black" d="M1422.15,-225.85C1422.15,-223.71 1393.88,-221.98 1359.08,-221.98 1324.27,-221.98 1296,-223.71 1296,-225.85"/>
<text text-anchor="middle" x="1359.08" y="-203.41" font-family="Times,serif" font-size="14.00">metosin/malli</text>
</a>
</g>
</g>
<!-- babashka/process -->
<g id="node7" class="node">
<title>babashka/process</title>
<g id="a_node7"><a xlink:href="./babashka__process.svg" xlink:title="babashka/process">
<path fill="green" stroke="black" d="M144.9,-1818.8C144.9,-1820.93 112.43,-1822.66 72.45,-1822.66 32.47,-1822.66 0,-1820.93 0,-1818.8 0,-1818.8 0,-1784.04 0,-1784.04 0,-1781.9 32.47,-1780.17 72.45,-1780.17 112.43,-1780.17 144.9,-1781.9 144.9,-1784.04 144.9,-1784.04 144.9,-1818.8 144.9,-1818.8"/>
<path fill="none" stroke="black" d="M144.9,-1818.8C144.9,-1816.67 112.43,-1814.94 72.45,-1814.94 32.47,-1814.94 0,-1816.67 0,-1818.8"/>
<text text-anchor="middle" x="72.45" y="-1796.37" font-family="Times,serif" font-size="14.00">babashka/process</text>
</a>
</g>
</g>
<!-- com.github.liquidz/antq -->
<g id="node8" class="node">
<title>com.github.liquidz/antq</title>
<g id="a_node8"><a xlink:href="./com.github.liquidz__antq.svg" xlink:title="com.github.liquidz/antq">
<path fill="green" stroke="black" d="M1638.9,-403.64C1638.9,-405.77 1598.36,-407.5 1548.45,-407.5 1498.54,-407.5 1458,-405.77 1458,-403.64 1458,-403.64 1458,-368.87 1458,-368.87 1458,-366.74 1498.54,-365.01 1548.45,-365.01 1598.36,-365.01 1638.9,-366.74 1638.9,-368.87 1638.9,-368.87 1638.9,-403.64 1638.9,-403.64"/>
<path fill="none" stroke="black" d="M1638.9,-403.64C1638.9,-401.51 1598.36,-399.77 1548.45,-399.77 1498.54,-399.77 1458,-401.51 1458,-403.64"/>
<text text-anchor="middle" x="1548.45" y="-381.21" font-family="Times,serif" font-size="14.00">com.github.liquidz/antq</text>
</a>
</g>
</g>
<!-- codox/codox -->
<g id="node9" class="node">
<title>codox/codox</title>
<g id="a_node9"><a xlink:href="./codox.svg" xlink:title="codox/codox">
<path fill="green" stroke="black" d="M1011.15,-390.69C1011.15,-392.82 984.22,-394.55 951.08,-394.55 917.93,-394.55 891,-392.82 891,-390.69 891,-390.69 891,-355.92 891,-355.92 891,-353.79 917.93,-352.06 951.08,-352.06 984.22,-352.06 1011.15,-353.79 1011.15,-355.92 1011.15,-355.92 1011.15,-390.69 1011.15,-390.69"/>
<path fill="none" stroke="black" d="M1011.15,-390.69C1011.15,-388.55 984.22,-386.82 951.08,-386.82 917.93,-386.82 891,-388.55 891,-390.69"/>
<text text-anchor="middle" x="951.08" y="-368.25" font-family="Times,serif" font-size="14.00">codox/codox</text>
</a>
</g>
</g>
<!-- io.github.clojure/tools.build -->
<g id="node10" class="node">
<title>io.github.clojure/tools.build</title>
<g id="a_node10"><a xlink:href="./io.github.clojure__tools.build.svg" xlink:title="io.github.clojure/tools.build">
<path fill="green" stroke="black" d="M2281.98,-1468.51C2281.98,-1470.64 2236.73,-1472.37 2181.03,-1472.37 2125.32,-1472.37 2080.08,-1470.64 2080.08,-1468.51 2080.08,-1468.51 2080.08,-1433.74 2080.08,-1433.74 2080.08,-1431.61 2125.32,-1429.88 2181.03,-1429.88 2236.73,-1429.88 2281.98,-1431.61 2281.98,-1433.74 2281.98,-1433.74 2281.98,-1468.51 2281.98,-1468.51"/>
<path fill="none" stroke="black" d="M2281.98,-1468.51C2281.98,-1466.37 2236.73,-1464.64 2181.03,-1464.64 2125.32,-1464.64 2080.08,-1466.37 2080.08,-1468.51"/>
<text text-anchor="middle" x="2181.03" y="-1446.07" font-family="Times,serif" font-size="14.00">io.github.clojure/tools.build</text>
</a>
</g>
</g>
<!-- io.dominic/vizns -->
<g id="node11" class="node">
<title>io.dominic/vizns</title>
<g id="a_node11"><a xlink:href="./io.dominic__vizns.svg" xlink:title="io.dominic/vizns">
<path fill="green" stroke="black" d="M2166.9,-798.76C2166.9,-800.89 2135.1,-802.63 2095.95,-802.63 2056.8,-802.63 2025,-800.89 2025,-798.76 2025,-798.76 2025,-764 2025,-764 2025,-761.87 2056.8,-760.14 2095.95,-760.14 2135.1,-760.14 2166.9,-761.87 2166.9,-764 2166.9,-764 2166.9,-798.76 2166.9,-798.76"/>
<path fill="none" stroke="black" d="M2166.9,-798.76C2166.9,-796.63 2135.1,-794.9 2095.95,-794.9 2056.8,-794.9 2025,-796.63 2025,-798.76"/>
<text text-anchor="middle" x="2095.95" y="-776.33" font-family="Times,serif" font-size="14.00">io.dominic/vizns</text>
</a>
</g>
</g>
<!-- babashka/fs -->
<g id="node12" class="node">
<title>babashka/fs</title>
<g id="a_node12"><a xlink:href="./babashka__fs.svg" xlink:title="babashka/fs">
<path fill="green" stroke="black" d="M2101.14,-520.12C2101.14,-522.25 2075.56,-523.99 2044.06,-523.99 2012.57,-523.99 1986.99,-522.25 1986.99,-520.12 1986.99,-520.12 1986.99,-485.36 1986.99,-485.36 1986.99,-483.23 2012.57,-481.5 2044.06,-481.5 2075.56,-481.5 2101.14,-483.23 2101.14,-485.36 2101.14,-485.36 2101.14,-520.12 2101.14,-520.12"/>
<path fill="none" stroke="black" d="M2101.14,-520.12C2101.14,-517.99 2075.56,-516.26 2044.06,-516.26 2012.57,-516.26 1986.99,-517.99 1986.99,-520.12"/>
<text text-anchor="middle" x="2044.06" y="-497.69" font-family="Times,serif" font-size="14.00">babashka/fs</text>
</a>
</g>
</g>
<!-- org.clojure/core.async -->
<g id="node13" class="node">
<title>org.clojure/core.async</title>
<g id="a_node13"><a xlink:href="./org.clojure__core.async.svg" xlink:title="org.clojure/core.async">
<path fill="red" stroke="black" d="M2115.15,-1280.14C2115.15,-1282.27 2076.79,-1284.01 2029.57,-1284.01 1982.36,-1284.01 1944,-1282.27 1944,-1280.14 1944,-1280.14 1944,-1245.38 1944,-1245.38 1944,-1243.25 1982.36,-1241.52 2029.57,-1241.52 2076.79,-1241.52 2115.15,-1243.25 2115.15,-1245.38 2115.15,-1245.38 2115.15,-1280.14 2115.15,-1280.14"/>
<path fill="none" stroke="black" d="M2115.15,-1280.14C2115.15,-1278.01 2076.79,-1276.28 2029.57,-1276.28 1982.36,-1276.28 1944,-1278.01 1944,-1280.14"/>
<text text-anchor="middle" x="2029.57" y="-1257.71" font-family="Times,serif" font-size="14.00">org.clojure/core.async</text>
</a>
</g>
</g>
<!-- automaton&#45;build&#45;app.doc.vizualise&#45;ns -->
<g id="node14" class="node">
<title>automaton&#45;build&#45;app.doc.vizualise&#45;ns</title>
<g id="a_node14"><a xlink:href="./automaton-build-app.doc.vizualise-ns.svg" xlink:title="automaton&#45;build&#45;app.doc.vizualise&#45;ns">
<ellipse fill="none" stroke="black" cx="2326.08" cy="-747" rx="151.15" ry="18"/>
<text text-anchor="middle" x="2326.08" y="-741.95" font-family="Times,serif" font-size="14.00">automaton&#45;build&#45;app.doc.vizualise&#45;ns</text>
</a>
</g>
</g>
<!-- automaton&#45;build&#45;app.doc.vizualise&#45;ns&#45;&gt;io.dominic/vizns -->
<g id="edge28" class="edge">
<title>automaton&#45;build&#45;app.doc.vizualise&#45;ns&#45;&gt;io.dominic/vizns</title>
<path fill="none" stroke="black" d="M2230.48,-761.28C2213.16,-763.87 2195.23,-766.55 2178.33,-769.07"/>
<polygon fill="black" stroke="black" points="2178.26,-765.55 2168.88,-770.49 2179.29,-772.47 2178.26,-765.55"/>
</g>
<!-- automaton&#45;build&#45;app.os.edn&#45;utils -->
<g id="node15" class="node">
<title>automaton&#45;build&#45;app.os.edn&#45;utils</title>
<g id="a_node15"><a xlink:href="./automaton-build-app.os.edn-utils.svg" xlink:title="automaton&#45;build&#45;app.os.edn&#45;utils">
<ellipse fill="none" stroke="black" cx="603.95" cy="-1241.41" rx="134.26" ry="18"/>
<text text-anchor="middle" x="603.95" y="-1236.36" font-family="Times,serif" font-size="14.00">automaton&#45;build&#45;app.os.edn&#45;utils</text>
</a>
</g>
</g>
<!-- automaton&#45;build&#45;app.os.edn&#45;utils&#45;&gt;org.clojure/clojure -->
<g id="edge35" class="edge">
<title>automaton&#45;build&#45;app.os.edn&#45;utils&#45;&gt;org.clojure/clojure</title>
<path fill="none" stroke="black" d="M665.59,-1224.98C750.67,-1202.3 904.46,-1161.32 1000.81,-1135.64"/>
<polygon fill="black" stroke="black" points="1001.46,-1139.09 1010.23,-1133.13 999.66,-1132.32 1001.46,-1139.09"/>
</g>
<!-- automaton&#45;build&#45;app.doc.html -->
<g id="node16" class="node">
<title>automaton&#45;build&#45;app.doc.html</title>
<g id="a_node16"><a xlink:href="./automaton-build-app.doc.html.svg" xlink:title="automaton&#45;build&#45;app.doc.html">
<ellipse fill="none" stroke="black" cx="2040.71" cy="-180" rx="124.54" ry="18"/>
<text text-anchor="middle" x="2040.71" y="-174.95" font-family="Times,serif" font-size="14.00">automaton&#45;build&#45;app.doc.html</text>
</a>
</g>
</g>
<!-- automaton&#45;build&#45;app.doc.html&#45;&gt;hiccup/hiccup -->
<g id="edge25" class="edge">
<title>automaton&#45;build&#45;app.doc.html&#45;&gt;hiccup/hiccup</title>
<path fill="none" stroke="black" d="M1952.91,-193.12C1941.82,-194.77 1930.57,-196.46 1919.72,-198.08"/>
<polygon fill="black" stroke="black" points="1919.45,-194.58 1910.08,-199.52 1920.48,-201.5 1919.45,-194.58"/>
</g>
<!-- automaton&#45;build&#45;app.schema -->
<g id="node17" class="node">
<title>automaton&#45;build&#45;app.schema</title>
<g id="a_node17"><a xlink:href="./automaton-build-app.schema.svg" xlink:title="automaton&#45;build&#45;app.schema">
<ellipse fill="none" stroke="black" cx="1549.59" cy="-180" rx="119.42" ry="18"/>
<text text-anchor="middle" x="1549.59" y="-174.95" font-family="Times,serif" font-size="14.00">automaton&#45;build&#45;app.schema</text>
</a>
</g>
</g>
<!-- automaton&#45;build&#45;app.schema&#45;&gt;metosin/malli -->
<g id="edge9" class="edge">
<title>automaton&#45;build&#45;app.schema&#45;&gt;metosin/malli</title>
<path fill="none" stroke="black" d="M1463.53,-192.86C1453.61,-194.34 1443.55,-195.84 1433.79,-197.3"/>
<polygon fill="black" stroke="black" points="1433.38,-193.82 1424,-198.76 1434.41,-200.75 1433.38,-193.82"/>
</g>
<!-- automaton&#45;build&#45;app.log -->
<g id="node18" class="node">
<title>automaton&#45;build&#45;app.log</title>
<g id="a_node18"><a xlink:href="./automaton-build-app.log.svg" xlink:title="automaton&#45;build&#45;app.log">
<ellipse fill="none" stroke="black" cx="526.34" cy="-780.47" rx="103.04" ry="18"/>
<text text-anchor="middle" x="526.34" y="-775.42" font-family="Times,serif" font-size="14.00">automaton&#45;build&#45;app.log</text>
</a>
</g>
</g>
<!-- automaton&#45;build&#45;app.log&#45;&gt;org.clojure/clojure -->
<g id="edge11" class="edge">
<title>automaton&#45;build&#45;app.log&#45;&gt;org.clojure/clojure</title>
<path fill="none" stroke="black" d="M556.08,-798.1C648.24,-852.73 929.54,-1019.47 1040.82,-1085.43"/>
<polygon fill="black" stroke="black" points="1038.73,-1088.26 1049.12,-1090.35 1042.3,-1082.24 1038.73,-1088.26"/>
</g>
<!-- automaton&#45;build&#45;app.code&#45;helpers.compiler -->
<g id="node19" class="node">
<title>automaton&#45;build&#45;app.code&#45;helpers.compiler</title>
<g id="a_node19"><a xlink:href="./automaton-build-app.code-helpers.compiler.svg" xlink:title="automaton&#45;build&#45;app.code&#45;helpers.compiler">
<ellipse fill="none" stroke="black" cx="2217.15" cy="-1498.37" rx="174.19" ry="18"/>
<text text-anchor="middle" x="2217.15" y="-1493.32" font-family="Times,serif" font-size="14.00">automaton&#45;build&#45;app.code&#45;helpers.compiler</text>
</a>
</g>
</g>
<!-- automaton&#45;build&#45;app.code&#45;helpers.compiler&#45;&gt;io.github.clojure/tools.build -->
<g id="edge19" class="edge">
<title>automaton&#45;build&#45;app.code&#45;helpers.compiler&#45;&gt;io.github.clojure/tools.build</title>
<path fill="none" stroke="black" d="M2203.08,-1479.97C2202.96,-1479.82 2202.85,-1479.67 2202.73,-1479.52"/>
<polygon fill="black" stroke="black" points="2207.29,-1479.72 2198.44,-1473.9 2201.73,-1483.97 2207.29,-1479.72"/>
</g>
<!-- automaton&#45;build&#45;app.tasks.launcher.print&#45;or&#45;spit -->
<g id="node20" class="node">
<title>automaton&#45;build&#45;app.tasks.launcher.print&#45;or&#45;spit</title>
<g id="a_node20"><a xlink:href="./automaton-build-app.tasks.launcher.print-or-spit.svg" xlink:title="automaton&#45;build&#45;app.tasks.launcher.print&#45;or&#45;spit">
<ellipse fill="none" stroke="black" cx="2446.46" cy="-205.22" rx="190.56" ry="18"/>
<text text-anchor="middle" x="2446.46" y="-200.17" font-family="Times,serif" font-size="14.00">automaton&#45;build&#45;app.tasks.launcher.print&#45;or&#45;spit</text>
</a>
</g>
</g>
<!-- automaton&#45;build&#45;app.tasks.launcher.print&#45;or&#45;spit&#45;&gt;babashka/fs -->
<g id="edge6" class="edge">
<title>automaton&#45;build&#45;app.tasks.launcher.print&#45;or&#45;spit&#45;&gt;babashka/fs</title>
<path fill="none" stroke="black" d="M2421.89,-223.38C2354.12,-273.5 2164.12,-413.98 2082.31,-474.46"/>
<polygon fill="black" stroke="black" points="2080.53,-471.43 2074.57,-480.19 2084.69,-477.06 2080.53,-471.43"/>
</g>
<!-- automaton&#45;build&#45;app.code&#45;helpers.update&#45;deps&#45;clj -->
<g id="node21" class="node">
<title>automaton&#45;build&#45;app.code&#45;helpers.update&#45;deps&#45;clj</title>
<g id="a_node21"><a xlink:href="./automaton-build-app.code-helpers.update-deps-clj.svg" xlink:title="automaton&#45;build&#45;app.code&#45;helpers.update&#45;deps&#45;clj">
<ellipse fill="none" stroke="black" cx="1844.66" cy="-342" rx="197.73" ry="18"/>
<text text-anchor="middle" x="1844.66" y="-336.95" font-family="Times,serif" font-size="14.00">automaton&#45;build&#45;app.code&#45;helpers.update&#45;deps&#45;clj</text>
</a>
</g>
</g>
<!-- automaton&#45;build&#45;app.code&#45;helpers.update&#45;deps&#45;clj&#45;&gt;com.github.liquidz/antq -->
<g id="edge17" class="edge">
<title>automaton&#45;build&#45;app.code&#45;helpers.update&#45;deps&#45;clj&#45;&gt;com.github.liquidz/antq</title>
<path fill="none" stroke="black" d="M1739.81,-357.66C1710.87,-361.99 1679.51,-366.67 1650.71,-370.98"/>
<polygon fill="black" stroke="black" points="1650.26,-367.51 1640.89,-372.44 1651.3,-374.43 1650.26,-367.51"/>
</g>
<!-- automaton&#45;build&#45;app.utils.namespace -->
<g id="node22" class="node">
<title>automaton&#45;build&#45;app.utils.namespace</title>
<g id="a_node22"><a xlink:href="./automaton-build-app.utils.namespace.svg" xlink:title="automaton&#45;build&#45;app.utils.namespace">
<ellipse fill="none" stroke="black" cx="742.51" cy="-725.1" rx="150.64" ry="18"/>
<text text-anchor="middle" x="742.51" y="-720.05" font-family="Times,serif" font-size="14.00">automaton&#45;build&#45;app.utils.namespace</text>
</a>
</g>
</g>
<!-- automaton&#45;build&#45;app.utils.namespace&#45;&gt;org.clojure/clojure -->
<g id="edge16" class="edge">
<title>automaton&#45;build&#45;app.utils.namespace&#45;&gt;org.clojure/clojure</title>
<path fill="none" stroke="black" d="M758.66,-743.27C813.45,-804.95 992.66,-1006.69 1060.49,-1083.06"/>
<polygon fill="black" stroke="black" points="1057.57,-1085.03 1066.82,-1090.18 1062.8,-1080.38 1057.57,-1085.03"/>
</g>
<!-- automaton&#45;build&#45;app.file&#45;repo.text&#45;matches -->
<g id="node23" class="node">
<title>automaton&#45;build&#45;app.file&#45;repo.text&#45;matches</title>
<g id="a_node23"><a xlink:href="./automaton-build-app.file-repo.text-matches.svg" xlink:title="automaton&#45;build&#45;app.file&#45;repo.text&#45;matches">
<ellipse fill="none" stroke="black" cx="1074.51" cy="-708.53" rx="173.16" ry="18"/>
<text text-anchor="middle" x="1074.51" y="-703.48" font-family="Times,serif" font-size="14.00">automaton&#45;build&#45;app.file&#45;repo.text&#45;matches</text>
</a>
</g>
</g>
<!-- automaton&#45;build&#45;app.file&#45;repo.text&#45;matches&#45;&gt;org.clojure/clojure -->
<g id="edge12" class="edge">
<title>automaton&#45;build&#45;app.file&#45;repo.text&#45;matches&#45;&gt;org.clojure/clojure</title>
<path fill="none" stroke="black" d="M1075.07,-726.94C1076.99,-790.11 1083.35,-998.53 1085.83,-1079.83"/>
<polygon fill="black" stroke="black" points="1082.33,-1079.9 1086.14,-1089.79 1089.33,-1079.69 1082.33,-1079.9"/>
</g>
<!-- automaton&#45;build&#45;app.containers.local&#45;engine -->
<g id="node24" class="node">
<title>automaton&#45;build&#45;app.containers.local&#45;engine</title>
<g id="a_node24"><a xlink:href="./automaton-build-app.containers.local-engine.svg" xlink:title="automaton&#45;build&#45;app.containers.local&#45;engine">
<ellipse fill="none" stroke="black" cx="1182.71" cy="-508.63" rx="177.26" ry="18"/>
<text text-anchor="middle" x="1182.71" y="-503.58" font-family="Times,serif" font-size="14.00">automaton&#45;build&#45;app.containers.local&#45;engine</text>
</a>
</g>
</g>
<!-- automaton&#45;build&#45;app.containers.local&#45;engine&#45;&gt;org.clojure/clojure -->
<g id="edge38" class="edge">
<title>automaton&#45;build&#45;app.containers.local&#45;engine&#45;&gt;org.clojure/clojure</title>
<path fill="none" stroke="black" d="M1179.79,-527.03C1166.26,-612.31 1109.57,-969.49 1092.03,-1079.99"/>
<polygon fill="black" stroke="black" points="1088.62,-1079.14 1090.51,-1089.57 1095.53,-1080.24 1088.62,-1079.14"/>
</g>
<!-- automaton&#45;build&#45;app.cicd.cfg&#45;mgt -->
<g id="node25" class="node">
<title>automaton&#45;build&#45;app.cicd.cfg&#45;mgt</title>
<g id="a_node25"><a xlink:href="./automaton-build-app.cicd.cfg-mgt.svg" xlink:title="automaton&#45;build&#45;app.cicd.cfg&#45;mgt">
<ellipse fill="none" stroke="black" cx="426.39" cy="-1087.57" rx="138.87" ry="18"/>
<text text-anchor="middle" x="426.39" y="-1082.52" font-family="Times,serif" font-size="14.00">automaton&#45;build&#45;app.cicd.cfg&#45;mgt</text>
</a>
</g>
</g>
<!-- automaton&#45;build&#45;app.cicd.cfg&#45;mgt&#45;&gt;org.clojure/clojure -->
<g id="edge23" class="edge">
<title>automaton&#45;build&#45;app.cicd.cfg&#45;mgt&#45;&gt;org.clojure/clojure</title>
<path fill="none" stroke="black" d="M560.04,-1092.66C691.23,-1097.65 887.49,-1105.12 999.73,-1109.4"/>
<polygon fill="black" stroke="black" points="999.35,-1112.88 1009.48,-1109.77 999.62,-1105.89 999.35,-1112.88"/>
</g>
<!-- automaton&#45;build&#45;app.file&#45;repo.raw.impl -->
<g id="node26" class="node">
<title>automaton&#45;build&#45;app.file&#45;repo.raw.impl</title>
<g id="a_node26"><a xlink:href="./automaton-build-app.file-repo.raw.impl.svg" xlink:title="automaton&#45;build&#45;app.file&#45;repo.raw.impl">
<ellipse fill="none" stroke="black" cx="1519.2" cy="-1167.17" rx="158.83" ry="18"/>
<text text-anchor="middle" x="1519.2" y="-1162.12" font-family="Times,serif" font-size="14.00">automaton&#45;build&#45;app.file&#45;repo.raw.impl</text>
</a>
</g>
</g>
<!-- automaton&#45;build&#45;app.file&#45;repo.raw.impl&#45;&gt;org.clojure/clojure -->
<g id="edge15" class="edge">
<title>automaton&#45;build&#45;app.file&#45;repo.raw.impl&#45;&gt;org.clojure/clojure</title>
<path fill="none" stroke="black" d="M1411.21,-1153.57C1337.88,-1144.33 1242.17,-1132.28 1173.76,-1123.66"/>
<polygon fill="black" stroke="black" points="1174.45,-1120.22 1164.09,-1122.44 1173.58,-1127.16 1174.45,-1120.22"/>
</g>
<!-- automaton&#45;build&#45;app.configuration.edn&#45;read -->
<g id="node27" class="node">
<title>automaton&#45;build&#45;app.configuration.edn&#45;read</title>
<g id="a_node27"><a xlink:href="./automaton-build-app.configuration.edn-read.svg" xlink:title="automaton&#45;build&#45;app.configuration.edn&#45;read">
<ellipse fill="none" stroke="black" cx="1735.16" cy="-950.07" rx="175.72" ry="18"/>
<text text-anchor="middle" x="1735.16" y="-945.02" font-family="Times,serif" font-size="14.00">automaton&#45;build&#45;app.configuration.edn&#45;read</text>
</a>
</g>
</g>
<!-- automaton&#45;build&#45;app.configuration.edn&#45;read&#45;&gt;org.clojure/clojure -->
<g id="edge2" class="edge">
<title>automaton&#45;build&#45;app.configuration.edn&#45;read&#45;&gt;org.clojure/clojure</title>
<path fill="none" stroke="black" d="M1667.31,-967.09C1548.83,-996.82 1304.43,-1058.13 1173.74,-1090.91"/>
<polygon fill="black" stroke="black" points="1172.93,-1087.51 1164.08,-1093.33 1174.63,-1094.29 1172.93,-1087.51"/>
</g>
<!-- automaton&#45;build&#45;app.configuration.edn&#45;read&#45;&gt;babashka/fs -->
<g id="edge1" class="edge">
<title>automaton&#45;build&#45;app.configuration.edn&#45;read&#45;&gt;babashka/fs</title>
<path fill="none" stroke="black" d="M1747.85,-931.7C1795.35,-862.92 1963.01,-620.12 2022.74,-533.63"/>
<polygon fill="black" stroke="black" points="2025.49,-535.8 2028.29,-525.59 2019.73,-531.83 2025.49,-535.8"/>
</g>
<!-- automaton&#45;build&#45;app.code&#45;helpers.formatter -->
<g id="node28" class="node">
<title>automaton&#45;build&#45;app.code&#45;helpers.formatter</title>
<g id="a_node28"><a xlink:href="./automaton-build-app.code-helpers.formatter.svg" xlink:title="automaton&#45;build&#45;app.code&#45;helpers.formatter">
<ellipse fill="none" stroke="black" cx="1216.37" cy="-1740.82" rx="175.72" ry="18"/>
<text text-anchor="middle" x="1216.37" y="-1735.77" font-family="Times,serif" font-size="14.00">automaton&#45;build&#45;app.code&#45;helpers.formatter</text>
</a>
</g>
</g>
<!-- automaton&#45;build&#45;app.code&#45;helpers.formatter&#45;&gt;org.clojure/clojure -->
<g id="edge21" class="edge">
<title>automaton&#45;build&#45;app.code&#45;helpers.formatter&#45;&gt;org.clojure/clojure</title>
<path fill="none" stroke="black" d="M1212.56,-1722.36C1194.46,-1634.59 1116.99,-1258.96 1093.57,-1145.37"/>
<polygon fill="black" stroke="black" points="1097.05,-1144.89 1091.6,-1135.81 1090.19,-1146.31 1097.05,-1144.89"/>
</g>
<!-- automaton&#45;build&#45;app.repl -->
<g id="node29" class="node">
<title>automaton&#45;build&#45;app.repl</title>
<g id="a_node29"><a xlink:href="./automaton-build-app.repl.svg" xlink:title="automaton&#45;build&#45;app.repl">
<ellipse fill="none" stroke="black" cx="2228.77" cy="-1233" rx="105.6" ry="18"/>
<text text-anchor="middle" x="2228.77" y="-1227.95" font-family="Times,serif" font-size="14.00">automaton&#45;build&#45;app.repl</text>
</a>
</g>
</g>
<!-- automaton&#45;build&#45;app.repl&#45;&gt;org.clojure/core.async -->
<g id="edge10" class="edge">
<title>automaton&#45;build&#45;app.repl&#45;&gt;org.clojure/core.async</title>
<path fill="none" stroke="black" d="M2148.33,-1245.02C2141.24,-1246.08 2134.02,-1247.16 2126.82,-1248.23"/>
<polygon fill="black" stroke="black" points="2126.4,-1244.76 2117.03,-1249.7 2127.43,-1251.68 2126.4,-1244.76"/>
</g>
<!-- automaton&#45;build&#45;app.cicd.version -->
<g id="node30" class="node">
<title>automaton&#45;build&#45;app.cicd.version</title>
<g id="a_node30"><a xlink:href="./automaton-build-app.cicd.version.svg" xlink:title="automaton&#45;build&#45;app.cicd.version">
<ellipse fill="none" stroke="black" cx="2161.31" cy="-1395" rx="136.31" ry="18"/>
<text text-anchor="middle" x="2161.31" y="-1389.95" font-family="Times,serif" font-size="14.00">automaton&#45;build&#45;app.cicd.version</text>
</a>
</g>
</g>
<!-- automaton&#45;build&#45;app.cicd.version&#45;&gt;io.github.clojure/tools.build -->
<g id="edge22" class="edge">
<title>automaton&#45;build&#45;app.cicd.version&#45;&gt;io.github.clojure/tools.build</title>
<path fill="none" stroke="black" d="M2167.77,-1413.38C2168.36,-1415.06 2168.96,-1416.79 2169.58,-1418.54"/>
<polygon fill="black" stroke="black" points="2166.27,-1419.68 2172.89,-1427.96 2172.88,-1417.36 2166.27,-1419.68"/>
</g>
<!-- automaton&#45;build&#45;app.doc.markdown&#45;to&#45;html -->
<g id="node31" class="node">
<title>automaton&#45;build&#45;app.doc.markdown&#45;to&#45;html</title>
<g id="a_node31"><a xlink:href="./automaton-build-app.doc.markdown-to-html.svg" xlink:title="automaton&#45;build&#45;app.doc.markdown&#45;to&#45;html">
<ellipse fill="none" stroke="black" cx="2174.95" cy="-1071" rx="177.77" ry="18"/>
<text text-anchor="middle" x="2174.95" y="-1065.95" font-family="Times,serif" font-size="14.00">automaton&#45;build&#45;app.doc.markdown&#45;to&#45;html</text>
</a>
</g>
</g>
<!-- automaton&#45;build&#45;app.doc.markdown&#45;to&#45;html&#45;&gt;markdown&#45;clj/markdown&#45;clj -->
<g id="edge27" class="edge">
<title>automaton&#45;build&#45;app.doc.markdown&#45;to&#45;html&#45;&gt;markdown&#45;clj/markdown&#45;clj</title>
<path fill="none" stroke="black" d="M2073.33,-1086.18C2049.85,-1089.69 2024.71,-1093.45 2000.7,-1097.03"/>
<polygon fill="black" stroke="black" points="2000.26,-1093.56 1990.89,-1098.5 2001.3,-1100.48 2000.26,-1093.56"/>
</g>
<!-- automaton&#45;build&#45;app.tasks.launcher.cli&#45;opts -->
<g id="node32" class="node">
<title>automaton&#45;build&#45;app.tasks.launcher.cli&#45;opts</title>
<g id="a_node32"><a xlink:href="./automaton-build-app.tasks.launcher.cli-opts.svg" xlink:title="automaton&#45;build&#45;app.tasks.launcher.cli&#45;opts">
<ellipse fill="none" stroke="black" cx="1747.91" cy="-1369.14" rx="173.67" ry="18"/>
<text text-anchor="middle" x="1747.91" y="-1364.09" font-family="Times,serif" font-size="14.00">automaton&#45;build&#45;app.tasks.launcher.cli&#45;opts</text>
</a>
</g>
</g>
<!-- automaton&#45;build&#45;app.tasks.launcher.cli&#45;opts&#45;&gt;org.clojure/clojure -->
<g id="edge3" class="edge">
<title>automaton&#45;build&#45;app.tasks.launcher.cli&#45;opts&#45;&gt;org.clojure/clojure</title>
<path fill="none" stroke="black" d="M1701.95,-1351.32C1586.63,-1306.58 1284.77,-1189.49 1151.58,-1137.82"/>
<polygon fill="black" stroke="black" points="1153.13,-1134.67 1142.54,-1134.32 1150.6,-1141.2 1153.13,-1134.67"/>
</g>
<!-- automaton&#45;build&#45;app.tasks.launcher.cli&#45;opts&#45;&gt;org.clojure/tools.cli -->
<g id="edge4" class="edge">
<title>automaton&#45;build&#45;app.tasks.launcher.cli&#45;opts&#45;&gt;org.clojure/tools.cli</title>
<path fill="none" stroke="black" d="M1770.16,-1387.37C1839.7,-1444.31 2053.31,-1619.25 2137.88,-1688.51"/>
<polygon fill="black" stroke="black" points="2135.47,-1691.06 2145.42,-1694.69 2139.91,-1685.64 2135.47,-1691.06"/>
</g>
<!-- automaton&#45;build&#45;app.doc.markdown -->
<g id="node33" class="node">
<title>automaton&#45;build&#45;app.doc.markdown</title>
<g id="a_node33"><a xlink:href="./automaton-build-app.doc.markdown.svg" xlink:title="automaton&#45;build&#45;app.doc.markdown">
<ellipse fill="none" stroke="black" cx="1287.57" cy="-764.33" rx="147.06" ry="18"/>
<text text-anchor="middle" x="1287.57" y="-759.28" font-family="Times,serif" font-size="14.00">automaton&#45;build&#45;app.doc.markdown</text>
</a>
</g>
</g>
<!-- automaton&#45;build&#45;app.doc.markdown&#45;&gt;org.clojure/clojure -->
<g id="edge29" class="edge">
<title>automaton&#45;build&#45;app.doc.markdown&#45;&gt;org.clojure/clojure</title>
<path fill="none" stroke="black" d="M1277.06,-782.57C1244.61,-838.88 1145.75,-1010.46 1104.85,-1081.45"/>
<polygon fill="black" stroke="black" points="1101.96,-1079.45 1100,-1089.86 1108.03,-1082.94 1101.96,-1079.45"/>
</g>
<!-- automaton&#45;build&#45;app.file&#45;repo.clj&#45;code -->
<g id="node34" class="node">
<title>automaton&#45;build&#45;app.file&#45;repo.clj&#45;code</title>
<g id="a_node34"><a xlink:href="./automaton-build-app.file-repo.clj-code.svg" xlink:title="automaton&#45;build&#45;app.file&#45;repo.clj&#45;code">
<ellipse fill="none" stroke="black" cx="709.95" cy="-1590.46" rx="155.25" ry="18"/>
<text text-anchor="middle" x="709.95" y="-1585.41" font-family="Times,serif" font-size="14.00">automaton&#45;build&#45;app.file&#45;repo.clj&#45;code</text>
</a>
</g>
</g>
<!-- automaton&#45;build&#45;app.file&#45;repo.clj&#45;code&#45;&gt;org.clojure/clojure -->
<g id="edge14" class="edge">
<title>automaton&#45;build&#45;app.file&#45;repo.clj&#45;code&#45;&gt;org.clojure/clojure</title>
<path fill="none" stroke="black" d="M724.26,-1572.32C781.08,-1500.3 991.06,-1234.11 1062.7,-1143.3"/>
<polygon fill="black" stroke="black" points="1065.39,-1145.54 1068.84,-1135.52 1059.9,-1141.21 1065.39,-1145.54"/>
</g>
<!-- automaton&#45;build&#45;app.os.commands -->
<g id="node35" class="node">
<title>automaton&#45;build&#45;app.os.commands</title>
<g id="a_node35"><a xlink:href="./automaton-build-app.os.commands.svg" xlink:title="automaton&#45;build&#45;app.os.commands">
<ellipse fill="none" stroke="black" cx="483.21" cy="-1464.38" rx="142.97" ry="18"/>
<text text-anchor="middle" x="483.21" y="-1459.33" font-family="Times,serif" font-size="14.00">automaton&#45;build&#45;app.os.commands</text>
</a>
</g>
</g>
<!-- automaton&#45;build&#45;app.os.commands&#45;&gt;org.clojure/clojure -->
<g id="edge32" class="edge">
<title>automaton&#45;build&#45;app.os.commands&#45;&gt;org.clojure/clojure</title>
<path fill="none" stroke="black" d="M513.97,-1446.45C612.6,-1388.99 921.37,-1209.11 1039.88,-1140.07"/>
<polygon fill="black" stroke="black" points="1041.56,-1143.14 1048.44,-1135.08 1038.03,-1137.09 1041.56,-1143.14"/>
</g>
<!-- automaton&#45;build&#45;app.os.commands&#45;&gt;babashka/process -->
<g id="edge31" class="edge">
<title>automaton&#45;build&#45;app.os.commands&#45;&gt;babashka/process</title>
<path fill="none" stroke="black" d="M461.13,-1482.5C393.67,-1537.85 189.9,-1705.05 107.55,-1772.62"/>
<polygon fill="black" stroke="black" points="105.49,-1769.78 99.98,-1778.83 109.93,-1775.19 105.49,-1769.78"/>
</g>
<!-- automaton&#45;build&#45;app.tasks.registry.specific&#45;task -->
<g id="node36" class="node">
<title>automaton&#45;build&#45;app.tasks.registry.specific&#45;task</title>
<g id="a_node36"><a xlink:href="./automaton-build-app.tasks.registry.specific-task.svg" xlink:title="automaton&#45;build&#45;app.tasks.registry.specific&#45;task">
<ellipse fill="none" stroke="black" cx="1631.85" cy="-797.22" rx="189.03" ry="18"/>
<text text-anchor="middle" x="1631.85" y="-792.17" font-family="Times,serif" font-size="14.00">automaton&#45;build&#45;app.tasks.registry.specific&#45;task</text>
</a>
</g>
</g>
<!-- automaton&#45;build&#45;app.tasks.registry.specific&#45;task&#45;&gt;org.clojure/clojure -->
<g id="edge7" class="edge">
<title>automaton&#45;build&#45;app.tasks.registry.specific&#45;task&#45;&gt;org.clojure/clojure</title>
<path fill="none" stroke="black" d="M1600.59,-815.32C1509.35,-868.14 1242.95,-1022.34 1134.05,-1085.38"/>
<polygon fill="black" stroke="black" points="1132.53,-1082.21 1125.63,-1090.25 1136.04,-1088.27 1132.53,-1082.21"/>
</g>
<!-- automaton&#45;build&#45;app.tasks.registry.specific&#45;task&#45;&gt;babashka/fs -->
<g id="edge8" class="edge">
<title>automaton&#45;build&#45;app.tasks.registry.specific&#45;task&#45;&gt;babashka/fs</title>
<path fill="none" stroke="black" d="M1657.33,-779.02C1726.96,-729.28 1920.87,-590.75 2004.66,-530.89"/>
<polygon fill="black" stroke="black" points="2006.51,-533.87 2012.61,-525.21 2002.44,-528.18 2006.51,-533.87"/>
</g>
<!-- automaton&#45;build&#45;app.os.pdf -->
<g id="node37" class="node">
<title>automaton&#45;build&#45;app.os.pdf</title>
<g id="a_node37"><a xlink:href="./automaton-build-app.os.pdf.svg" xlink:title="automaton&#45;build&#45;app.os.pdf">
<ellipse fill="none" stroke="black" cx="829.23" cy="-487.75" rx="114.3" ry="18"/>
<text text-anchor="middle" x="829.23" y="-482.7" font-family="Times,serif" font-size="14.00">automaton&#45;build&#45;app.os.pdf</text>
</a>
</g>
</g>
<!-- automaton&#45;build&#45;app.os.pdf&#45;&gt;org.clojure/clojure -->
<g id="edge34" class="edge">
<title>automaton&#45;build&#45;app.os.pdf&#45;&gt;org.clojure/clojure</title>
<path fill="none" stroke="black" d="M836.8,-506.11C872.87,-593.63 1027.48,-968.71 1073.72,-1080.89"/>
<polygon fill="black" stroke="black" points="1070.35,-1081.89 1077.39,-1089.81 1076.82,-1079.23 1070.35,-1081.89"/>
</g>
<!-- automaton&#45;build&#45;app.os.pdf&#45;&gt;clj&#45;htmltopdf/clj&#45;htmltopdf -->
<g id="edge33" class="edge">
<title>automaton&#45;build&#45;app.os.pdf&#45;&gt;clj&#45;htmltopdf/clj&#45;htmltopdf</title>
<path fill="none" stroke="black" d="M818.6,-469.46C777.48,-398.73 628.56,-142.57 576.3,-52.69"/>
<polygon fill="black" stroke="black" points="579.38,-51.01 571.33,-44.12 573.33,-54.52 579.38,-51.01"/>
</g>
<!-- automaton&#45;build&#45;app.doc.docstring -->
<g id="node38" class="node">
<title>automaton&#45;build&#45;app.doc.docstring</title>
<g id="a_node38"><a xlink:href="./automaton-build-app.doc.docstring.svg" xlink:title="automaton&#45;build&#45;app.doc.docstring">
<ellipse fill="none" stroke="black" cx="1160.6" cy="-342" rx="141.43" ry="18"/>
<text text-anchor="middle" x="1160.6" y="-336.95" font-family="Times,serif" font-size="14.00">automaton&#45;build&#45;app.doc.docstring</text>
</a>
</g>
</g>
<!-- automaton&#45;build&#45;app.doc.docstring&#45;&gt;codox/codox -->
<g id="edge30" class="edge">
<title>automaton&#45;build&#45;app.doc.docstring&#45;&gt;codox/codox</title>
<path fill="none" stroke="black" d="M1067.48,-355.91C1052.47,-358.15 1037.15,-360.44 1022.75,-362.6"/>
<polygon fill="black" stroke="black" points="1022.29,-359.13 1012.92,-364.06 1023.33,-366.05 1022.29,-359.13"/>
</g>
<!-- automaton&#45;build&#45;app.code&#45;helpers.code&#45;stats -->
<g id="node39" class="node">
<title>automaton&#45;build&#45;app.code&#45;helpers.code&#45;stats</title>
<g id="a_node39"><a xlink:href="./automaton-build-app.code-helpers.code-stats.svg" xlink:title="automaton&#45;build&#45;app.code&#45;helpers.code&#45;stats">
<ellipse fill="none" stroke="black" cx="619.8" cy="-971.91" rx="177.77" ry="18"/>
<text text-anchor="middle" x="619.8" y="-966.86" font-family="Times,serif" font-size="14.00">automaton&#45;build&#45;app.code&#45;helpers.code&#45;stats</text>
</a>
</g>
</g>
<!-- automaton&#45;build&#45;app.code&#45;helpers.code&#45;stats&#45;&gt;org.clojure/clojure -->
<g id="edge18" class="edge">
<title>automaton&#45;build&#45;app.code&#45;helpers.code&#45;stats&#45;&gt;org.clojure/clojure</title>
<path fill="none" stroke="black" d="M677.54,-989.32C759.58,-1014.05 910.35,-1059.51 1004.22,-1087.8"/>
<polygon fill="black" stroke="black" points="1003.06,-1091.11 1013.64,-1090.65 1005.08,-1084.41 1003.06,-1091.11"/>
</g>
<!-- automaton&#45;build&#45;app.doc.blog -->
<g id="node40" class="node">
<title>automaton&#45;build&#45;app.doc.blog</title>
<g id="a_node40"><a xlink:href="./automaton-build-app.doc.blog.svg" xlink:title="automaton&#45;build&#45;app.doc.blog">
<ellipse fill="none" stroke="black" cx="1237.68" cy="-1463.32" rx="123.52" ry="18"/>
<text text-anchor="middle" x="1237.68" y="-1458.27" font-family="Times,serif" font-size="14.00">automaton&#45;build&#45;app.doc.blog</text>
</a>
</g>
</g>
<!-- automaton&#45;build&#45;app.doc.blog&#45;&gt;org.clojure/clojure -->
<g id="edge26" class="edge">
<title>automaton&#45;build&#45;app.doc.blog&#45;&gt;org.clojure/clojure</title>
<path fill="none" stroke="black" d="M1229.78,-1444.97C1205.45,-1388.41 1131.41,-1216.32 1100.56,-1144.61"/>
<polygon fill="black" stroke="black" points="1103.93,-1143.58 1096.76,-1135.78 1097.5,-1146.35 1103.93,-1143.58"/>
</g>
<!-- automaton&#45;build&#45;app.cicd.server -->
<g id="node41" class="node">
<title>automaton&#45;build&#45;app.cicd.server</title>
<g id="a_node41"><a xlink:href="./automaton-build-app.cicd.server.svg" xlink:title="automaton&#45;build&#45;app.cicd.server">
<ellipse fill="none" stroke="black" cx="1411.24" cy="-1679.47" rx="131.71" ry="18"/>
<text text-anchor="middle" x="1411.24" y="-1674.42" font-family="Times,serif" font-size="14.00">automaton&#45;build&#45;app.cicd.server</text>
</a>
</g>
</g>
<!-- automaton&#45;build&#45;app.cicd.server&#45;&gt;org.clojure/clojure -->
<g id="edge24" class="edge">
<title>automaton&#45;build&#45;app.cicd.server&#45;&gt;org.clojure/clojure</title>
<path fill="none" stroke="black" d="M1400.82,-1661.26C1354.21,-1579.83 1164.64,-1248.65 1104.94,-1144.33"/>
<polygon fill="black" stroke="black" points="1108.01,-1142.66 1100.01,-1135.72 1101.94,-1146.14 1108.01,-1142.66"/>
</g>
<!-- automaton&#45;build&#45;app.file&#45;repo.text -->
<g id="node42" class="node">
<title>automaton&#45;build&#45;app.file&#45;repo.text</title>
<g id="a_node42"><a xlink:href="./automaton-build-app.file-repo.text.svg" xlink:title="automaton&#45;build&#45;app.file&#45;repo.text">
<ellipse fill="none" stroke="black" cx="893.23" cy="-1707.94" rx="139.38" ry="18"/>
<text text-anchor="middle" x="893.23" y="-1702.89" font-family="Times,serif" font-size="14.00">automaton&#45;build&#45;app.file&#45;repo.text</text>
</a>
</g>
</g>
<!-- automaton&#45;build&#45;app.file&#45;repo.text&#45;&gt;org.clojure/clojure -->
<g id="edge13" class="edge">
<title>automaton&#45;build&#45;app.file&#45;repo.text&#45;&gt;org.clojure/clojure</title>
<path fill="none" stroke="black" d="M899.24,-1689.47C926.73,-1604.94 1040.77,-1254.33 1076.25,-1145.25"/>
<polygon fill="black" stroke="black" points="1079.58,-1146.34 1079.34,-1135.75 1072.92,-1144.18 1079.58,-1146.34"/>
</g>
<!-- automaton&#45;build&#45;app.os.files -->
<g id="node43" class="node">
<title>automaton&#45;build&#45;app.os.files</title>
<g id="a_node43"><a xlink:href="./automaton-build-app.os.files.svg" xlink:title="automaton&#45;build&#45;app.os.files">
<ellipse fill="none" stroke="black" cx="1520.92" cy="-612.88" rx="117.89" ry="18"/>
<text text-anchor="middle" x="1520.92" y="-607.83" font-family="Times,serif" font-size="14.00">automaton&#45;build&#45;app.os.files</text>
</a>
</g>
</g>
<!-- automaton&#45;build&#45;app.os.files&#45;&gt;org.clojure/clojure -->
<g id="edge37" class="edge">
<title>automaton&#45;build&#45;app.os.files&#45;&gt;org.clojure/clojure</title>
<path fill="none" stroke="black" d="M1505.22,-630.96C1440.5,-705.48 1194.1,-989.2 1112.93,-1082.66"/>
<polygon fill="black" stroke="black" points="1110.51,-1080.11 1106.6,-1089.95 1115.8,-1084.7 1110.51,-1080.11"/>
</g>
<!-- automaton&#45;build&#45;app.os.files&#45;&gt;babashka/fs -->
<g id="edge36" class="edge">
<title>automaton&#45;build&#45;app.os.files&#45;&gt;babashka/fs</title>
<path fill="none" stroke="black" d="M1591.48,-598.02C1692.18,-576.82 1875.95,-538.14 1975.53,-517.17"/>
<polygon fill="black" stroke="black" points="1976.11,-520.63 1985.18,-515.14 1974.67,-513.78 1976.11,-520.63"/>
</g>
<!-- automaton&#45;build&#45;app.tasks.launcher.bb&#45;entrypoint -->
<g id="node44" class="node">
<title>automaton&#45;build&#45;app.tasks.launcher.bb&#45;entrypoint</title>
<g id="a_node44"><a xlink:href="./automaton-build-app.tasks.launcher.bb-entrypoint.svg" xlink:title="automaton&#45;build&#45;app.tasks.launcher.bb&#45;entrypoint">
<ellipse fill="none" stroke="black" cx="1565.53" cy="-1475.07" rx="196.19" ry="18"/>
<text text-anchor="middle" x="1565.53" y="-1470.02" font-family="Times,serif" font-size="14.00">automaton&#45;build&#45;app.tasks.launcher.bb&#45;entrypoint</text>
</a>
</g>
</g>
<!-- automaton&#45;build&#45;app.tasks.launcher.bb&#45;entrypoint&#45;&gt;org.clojure/clojure -->
<g id="edge5" class="edge">
<title>automaton&#45;build&#45;app.tasks.launcher.bb&#45;entrypoint&#45;&gt;org.clojure/clojure</title>
<path fill="none" stroke="black" d="M1541.46,-1456.85C1463.67,-1397.96 1218.56,-1212.42 1124.29,-1141.06"/>
<polygon fill="black" stroke="black" points="1126.68,-1138.48 1116.59,-1135.23 1122.45,-1144.06 1126.68,-1138.48"/>
</g>
<!-- automaton&#45;build&#45;app.code&#45;helpers.analyze.forbidden&#45;words -->
<g id="node45" class="node">
<title>automaton&#45;build&#45;app.code&#45;helpers.analyze.forbidden&#45;words</title>
<g id="a_node45"><a xlink:href="./automaton-build-app.code-helpers.analyze.forbidden-words.svg" xlink:title="automaton&#45;build&#45;app.code&#45;helpers.analyze.forbidden&#45;words">
<ellipse fill="none" stroke="black" cx="872.96" cy="-1413.91" rx="233.04" ry="18"/>
<text text-anchor="middle" x="872.96" y="-1408.86" font-family="Times,serif" font-size="14.00">automaton&#45;build&#45;app.code&#45;helpers.analyze.forbidden&#45;words</text>
</a>
</g>
</g>
<!-- automaton&#45;build&#45;app.code&#45;helpers.analyze.forbidden&#45;words&#45;&gt;org.clojure/clojure -->
<g id="edge20" class="edge">
<title>automaton&#45;build&#45;app.code&#45;helpers.analyze.forbidden&#45;words&#45;&gt;org.clojure/clojure</title>
<path fill="none" stroke="black" d="M886.02,-1395.53C921.57,-1345.45 1020.41,-1206.26 1064.78,-1143.77"/>
<polygon fill="black" stroke="black" points="1067.6,-1145.84 1070.54,-1135.66 1061.9,-1141.79 1067.6,-1145.84"/>
</g>
</g>
</svg>
