<?xml version="1.0" encoding="UTF-8" standalone="no"?>
<!DOCTYPE svg PUBLIC "-//W3C//DTD SVG 1.1//EN"
 "http://www.w3.org/Graphics/SVG/1.1/DTD/svg11.dtd">
<!-- Generated by graphviz version 9.0.0 (20230911.1827)
 -->
<!-- Pages: 1 -->
<svg width="2252pt" height="2512pt"
 viewBox="0.00 0.00 2252.26 2512.05" xmlns="http://www.w3.org/2000/svg" xmlns:xlink="http://www.w3.org/1999/xlink">
<g id="graph0" class="graph" transform="scale(1 1) rotate(0) translate(4 2508.05)">
<polygon fill="white" stroke="none" points="-4,4 -4,-2508.05 2248.26,-2508.05 2248.26,4 -4,4"/>
<!-- org.clojure/clojure -->
<g id="node1" class="node">
<title>org.clojure/clojure</title>
<g id="a_node1"><a xlink:href="./org.clojure__clojure.svg" xlink:title="org.clojure/clojure">
<path fill="green" stroke="black" d="M1114.17,-1300.05C1114.17,-1302.18 1080.35,-1303.92 1038.72,-1303.92 997.09,-1303.92 963.27,-1302.18 963.27,-1300.05 963.27,-1300.05 963.27,-1265.29 963.27,-1265.29 963.27,-1263.16 997.09,-1261.43 1038.72,-1261.43 1080.35,-1261.43 1114.17,-1263.16 1114.17,-1265.29 1114.17,-1265.29 1114.17,-1300.05 1114.17,-1300.05"/>
<path fill="none" stroke="black" d="M1114.17,-1300.05C1114.17,-1297.92 1080.35,-1296.19 1038.72,-1296.19 997.09,-1296.19 963.27,-1297.92 963.27,-1300.05"/>
<text text-anchor="middle" x="1038.72" y="-1277.62" font-family="Times,serif" font-size="14.00">org.clojure/clojure</text>
</a>
</g>
</g>
<!-- clj&#45;htmltopdf/clj&#45;htmltopdf -->
<g id="node2" class="node">
<title>clj&#45;htmltopdf/clj&#45;htmltopdf</title>
<g id="a_node2"><a xlink:href="./clj-htmltopdf.svg" xlink:title="clj&#45;htmltopdf/clj&#45;htmltopdf">
<path fill="green" stroke="black" d="M1528.53,-2500.19C1528.53,-2502.32 1484.13,-2504.05 1429.46,-2504.05 1374.79,-2504.05 1330.38,-2502.32 1330.38,-2500.19 1330.38,-2500.19 1330.38,-2465.43 1330.38,-2465.43 1330.38,-2463.3 1374.79,-2461.57 1429.46,-2461.57 1484.13,-2461.57 1528.53,-2463.3 1528.53,-2465.43 1528.53,-2465.43 1528.53,-2500.19 1528.53,-2500.19"/>
<path fill="none" stroke="black" d="M1528.53,-2500.19C1528.53,-2498.06 1484.13,-2496.33 1429.46,-2496.33 1374.79,-2496.33 1330.38,-2498.06 1330.38,-2500.19"/>
<text text-anchor="middle" x="1429.46" y="-2477.76" font-family="Times,serif" font-size="14.00">clj&#45;htmltopdf/clj&#45;htmltopdf</text>
</a>
</g>
</g>
<!-- markdown&#45;clj/markdown&#45;clj -->
<g id="node3" class="node">
<title>markdown&#45;clj/markdown&#45;clj</title>
<g id="a_node3"><a xlink:href="./markdown-clj.svg" xlink:title="markdown&#45;clj/markdown&#45;clj">
<path fill="green" stroke="black" d="M1131.65,-38.62C1131.65,-40.76 1085.23,-42.49 1028.08,-42.49 970.92,-42.49 924.5,-40.76 924.5,-38.62 924.5,-38.62 924.5,-3.86 924.5,-3.86 924.5,-1.73 970.92,0 1028.08,0 1085.23,0 1131.65,-1.73 1131.65,-3.86 1131.65,-3.86 1131.65,-38.62 1131.65,-38.62"/>
<path fill="none" stroke="black" d="M1131.65,-38.62C1131.65,-36.49 1085.23,-34.76 1028.08,-34.76 970.92,-34.76 924.5,-36.49 924.5,-38.62"/>
<text text-anchor="middle" x="1028.08" y="-16.19" font-family="Times,serif" font-size="14.00">markdown&#45;clj/markdown&#45;clj</text>
</a>
</g>
</g>
<!-- hiccup/hiccup -->
<g id="node4" class="node">
<title>hiccup/hiccup</title>
<g id="a_node4"><a xlink:href="./hiccup.svg" xlink:title="hiccup/hiccup">
<path fill="green" stroke="black" d="M1890.15,-750.61C1890.15,-752.74 1861.88,-754.47 1827.08,-754.47 1792.27,-754.47 1764,-752.74 1764,-750.61 1764,-750.61 1764,-715.85 1764,-715.85 1764,-713.72 1792.27,-711.99 1827.08,-711.99 1861.88,-711.99 1890.15,-713.72 1890.15,-715.85 1890.15,-715.85 1890.15,-750.61 1890.15,-750.61"/>
<path fill="none" stroke="black" d="M1890.15,-750.61C1890.15,-748.48 1861.88,-746.75 1827.08,-746.75 1792.27,-746.75 1764,-748.48 1764,-750.61"/>
<text text-anchor="middle" x="1827.08" y="-728.18" font-family="Times,serif" font-size="14.00">hiccup/hiccup</text>
</a>
</g>
</g>
<!-- metosin/malli -->
<g id="node5" class="node">
<title>metosin/malli</title>
<g id="a_node5"><a xlink:href="./metosin__malli.svg" xlink:title="metosin/malli">
<path fill="green" stroke="black" d="M1988.15,-945.85C1988.15,-947.98 1959.88,-949.71 1925.08,-949.71 1890.27,-949.71 1862,-947.98 1862,-945.85 1862,-945.85 1862,-911.08 1862,-911.08 1862,-908.95 1890.27,-907.22 1925.08,-907.22 1959.88,-907.22 1988.15,-908.95 1988.15,-911.08 1988.15,-911.08 1988.15,-945.85 1988.15,-945.85"/>
<path fill="none" stroke="black" d="M1988.15,-945.85C1988.15,-943.71 1959.88,-941.98 1925.08,-941.98 1890.27,-941.98 1862,-943.71 1862,-945.85"/>
<text text-anchor="middle" x="1925.08" y="-923.41" font-family="Times,serif" font-size="14.00">metosin/malli</text>
</a>
</g>
</g>
<!-- babashka/process -->
<g id="node6" class="node">
<title>babashka/process</title>
<g id="a_node6"><a xlink:href="./babashka__process.svg" xlink:title="babashka/process">
<path fill="green" stroke="black" d="M144.9,-2126.6C144.9,-2128.73 112.43,-2130.46 72.45,-2130.46 32.47,-2130.46 0,-2128.73 0,-2126.6 0,-2126.6 0,-2091.83 0,-2091.83 0,-2089.7 32.47,-2087.97 72.45,-2087.97 112.43,-2087.97 144.9,-2089.7 144.9,-2091.83 144.9,-2091.83 144.9,-2126.6 144.9,-2126.6"/>
<path fill="none" stroke="black" d="M144.9,-2126.6C144.9,-2124.46 112.43,-2122.73 72.45,-2122.73 32.47,-2122.73 0,-2124.46 0,-2126.6"/>
<text text-anchor="middle" x="72.45" y="-2104.16" font-family="Times,serif" font-size="14.00">babashka/process</text>
</a>
</g>
</g>
<!-- com.github.liquidz/antq -->
<g id="node7" class="node">
<title>com.github.liquidz/antq</title>
<g id="a_node7"><a xlink:href="./com.github.liquidz__antq.svg" xlink:title="com.github.liquidz/antq">
<path fill="green" stroke="black" d="M1846.9,-1841.8C1846.9,-1843.93 1806.36,-1845.66 1756.45,-1845.66 1706.54,-1845.66 1666,-1843.93 1666,-1841.8 1666,-1841.8 1666,-1807.04 1666,-1807.04 1666,-1804.91 1706.54,-1803.18 1756.45,-1803.18 1806.36,-1803.18 1846.9,-1804.91 1846.9,-1807.04 1846.9,-1807.04 1846.9,-1841.8 1846.9,-1841.8"/>
<path fill="none" stroke="black" d="M1846.9,-1841.8C1846.9,-1839.67 1806.36,-1837.94 1756.45,-1837.94 1706.54,-1837.94 1666,-1839.67 1666,-1841.8"/>
<text text-anchor="middle" x="1756.45" y="-1819.37" font-family="Times,serif" font-size="14.00">com.github.liquidz/antq</text>
</a>
</g>
</g>
<!-- codox/codox -->
<g id="node8" class="node">
<title>codox/codox</title>
<g id="a_node8"><a xlink:href="./codox.svg" xlink:title="codox/codox">
<path fill="green" stroke="black" d="M1884.15,-1144.61C1884.15,-1146.74 1857.22,-1148.47 1824.08,-1148.47 1790.93,-1148.47 1764,-1146.74 1764,-1144.61 1764,-1144.61 1764,-1109.85 1764,-1109.85 1764,-1107.72 1790.93,-1105.98 1824.08,-1105.98 1857.22,-1105.98 1884.15,-1107.72 1884.15,-1109.85 1884.15,-1109.85 1884.15,-1144.61 1884.15,-1144.61"/>
<path fill="none" stroke="black" d="M1884.15,-1144.61C1884.15,-1142.48 1857.22,-1140.75 1824.08,-1140.75 1790.93,-1140.75 1764,-1142.48 1764,-1144.61"/>
<text text-anchor="middle" x="1824.08" y="-1122.18" font-family="Times,serif" font-size="14.00">codox/codox</text>
</a>
</g>
</g>
<!-- io.github.clojure/tools.build -->
<g id="node9" class="node">
<title>io.github.clojure/tools.build</title>
<g id="a_node9"><a xlink:href="./io.github.clojure__tools.build.svg" xlink:title="io.github.clojure/tools.build">
<path fill="green" stroke="black" d="M2118.98,-2051.51C2118.98,-2053.64 2073.73,-2055.37 2018.03,-2055.37 1962.32,-2055.37 1917.08,-2053.64 1917.08,-2051.51 1917.08,-2051.51 1917.08,-2016.74 1917.08,-2016.74 1917.08,-2014.61 1962.32,-2012.88 2018.03,-2012.88 2073.73,-2012.88 2118.98,-2014.61 2118.98,-2016.74 2118.98,-2016.74 2118.98,-2051.51 2118.98,-2051.51"/>
<path fill="none" stroke="black" d="M2118.98,-2051.51C2118.98,-2049.37 2073.73,-2047.64 2018.03,-2047.64 1962.32,-2047.64 1917.08,-2049.37 1917.08,-2051.51"/>
<text text-anchor="middle" x="2018.03" y="-2029.07" font-family="Times,serif" font-size="14.00">io.github.clojure/tools.build</text>
</a>
</g>
</g>
<!-- babashka/fs -->
<g id="node10" class="node">
<title>babashka/fs</title>
<g id="a_node10"><a xlink:href="./babashka__fs.svg" xlink:title="babashka/fs">
<path fill="green" stroke="black" d="M2244.26,-1628.04C2244.26,-1630.17 2218.68,-1631.9 2187.18,-1631.9 2155.69,-1631.9 2130.11,-1630.17 2130.11,-1628.04 2130.11,-1628.04 2130.11,-1593.28 2130.11,-1593.28 2130.11,-1591.14 2155.69,-1589.41 2187.18,-1589.41 2218.68,-1589.41 2244.26,-1591.14 2244.26,-1593.28 2244.26,-1593.28 2244.26,-1628.04 2244.26,-1628.04"/>
<path fill="none" stroke="black" d="M2244.26,-1628.04C2244.26,-1625.91 2218.68,-1624.18 2187.18,-1624.18 2155.69,-1624.18 2130.11,-1625.91 2130.11,-1628.04"/>
<text text-anchor="middle" x="2187.18" y="-1605.61" font-family="Times,serif" font-size="14.00">babashka/fs</text>
</a>
</g>
</g>
<!-- org.clojure/core.async -->
<g id="node11" class="node">
<title>org.clojure/core.async</title>
<g id="a_node11"><a xlink:href="./org.clojure__core.async.svg" xlink:title="org.clojure/core.async">
<path fill="red" stroke="black" d="M1543.15,-653.14C1543.15,-655.27 1504.79,-657.01 1457.58,-657.01 1410.36,-657.01 1372,-655.27 1372,-653.14 1372,-653.14 1372,-618.38 1372,-618.38 1372,-616.25 1410.36,-614.52 1457.58,-614.52 1504.79,-614.52 1543.15,-616.25 1543.15,-618.38 1543.15,-618.38 1543.15,-653.14 1543.15,-653.14"/>
<path fill="none" stroke="black" d="M1543.15,-653.14C1543.15,-651.01 1504.79,-649.28 1457.58,-649.28 1410.36,-649.28 1372,-651.01 1372,-653.14"/>
<text text-anchor="middle" x="1457.58" y="-630.71" font-family="Times,serif" font-size="14.00">org.clojure/core.async</text>
</a>
</g>
</g>
<!-- automaton&#45;build&#45;app.code&#45;helpers.analyze.utils -->
<g id="node12" class="node">
<title>automaton&#45;build&#45;app.code&#45;helpers.analyze.utils</title>
<g id="a_node12"><a xlink:href="./automaton-build-app.code-helpers.analyze.utils.svg" xlink:title="automaton&#45;build&#45;app.code&#45;helpers.analyze.utils">
<ellipse fill="none" stroke="black" cx="658.22" cy="-1455.19" rx="187.49" ry="18"/>
<text text-anchor="middle" x="658.22" y="-1450.14" font-family="Times,serif" font-size="14.00">automaton&#45;build&#45;app.code&#45;helpers.analyze.utils</text>
</a>
</g>
</g>
<!-- automaton&#45;build&#45;app.code&#45;helpers.analyze.utils&#45;&gt;org.clojure/clojure -->
<g id="edge14" class="edge">
<title>automaton&#45;build&#45;app.code&#45;helpers.analyze.utils&#45;&gt;org.clojure/clojure</title>
<path fill="none" stroke="black" d="M697.86,-1437.21C765.45,-1406.57 903.21,-1344.11 981.32,-1308.69"/>
<polygon fill="black" stroke="black" points="982.43,-1312.04 990.09,-1304.72 979.54,-1305.66 982.43,-1312.04"/>
</g>
<!-- automaton&#45;build&#45;app.os.edn&#45;utils -->
<g id="node13" class="node">
<title>automaton&#45;build&#45;app.os.edn&#45;utils</title>
<g id="a_node13"><a xlink:href="./automaton-build-app.os.edn-utils.svg" xlink:title="automaton&#45;build&#45;app.os.edn&#45;utils">
<ellipse fill="none" stroke="black" cx="496.78" cy="-939.66" rx="134.26" ry="18"/>
<text text-anchor="middle" x="496.78" y="-934.61" font-family="Times,serif" font-size="14.00">automaton&#45;build&#45;app.os.edn&#45;utils</text>
</a>
</g>
</g>
<!-- automaton&#45;build&#45;app.os.edn&#45;utils&#45;&gt;org.clojure/clojure -->
<g id="edge27" class="edge">
<title>automaton&#45;build&#45;app.os.edn&#45;utils&#45;&gt;org.clojure/clojure</title>
<path fill="none" stroke="black" d="M525.16,-957.62C614.07,-1013.9 887.71,-1187.1 994.96,-1254.97"/>
<polygon fill="black" stroke="black" points="992.9,-1257.82 1003.22,-1260.21 996.65,-1251.9 992.9,-1257.82"/>
</g>
<!-- automaton&#45;build&#45;app.doc.html -->
<g id="node14" class="node">
<title>automaton&#45;build&#45;app.doc.html</title>
<g id="a_node14"><a xlink:href="./automaton-build-app.doc.html.svg" xlink:title="automaton&#45;build&#45;app.doc.html">
<ellipse fill="none" stroke="black" cx="2022.71" cy="-704" rx="124.54" ry="18"/>
<text text-anchor="middle" x="2022.71" y="-698.95" font-family="Times,serif" font-size="14.00">automaton&#45;build&#45;app.doc.html</text>
</a>
</g>
</g>
<!-- automaton&#45;build&#45;app.doc.html&#45;&gt;hiccup/hiccup -->
<g id="edge18" class="edge">
<title>automaton&#45;build&#45;app.doc.html&#45;&gt;hiccup/hiccup</title>
<path fill="none" stroke="black" d="M1934.91,-717.12C1923.82,-718.77 1912.57,-720.46 1901.72,-722.08"/>
<polygon fill="black" stroke="black" points="1901.45,-718.58 1892.08,-723.52 1902.48,-725.5 1901.45,-718.58"/>
</g>
<!-- automaton&#45;build&#45;app.schema -->
<g id="node15" class="node">
<title>automaton&#45;build&#45;app.schema</title>
<g id="a_node15"><a xlink:href="./automaton-build-app.schema.svg" xlink:title="automaton&#45;build&#45;app.schema">
<ellipse fill="none" stroke="black" cx="2115.59" cy="-900" rx="119.42" ry="18"/>
<text text-anchor="middle" x="2115.59" y="-894.95" font-family="Times,serif" font-size="14.00">automaton&#45;build&#45;app.schema</text>
</a>
</g>
</g>
<!-- automaton&#45;build&#45;app.schema&#45;&gt;metosin/malli -->
<g id="edge3" class="edge">
<title>automaton&#45;build&#45;app.schema&#45;&gt;metosin/malli</title>
<path fill="none" stroke="black" d="M2029.53,-912.86C2019.61,-914.34 2009.55,-915.84 1999.79,-917.3"/>
<polygon fill="black" stroke="black" points="1999.38,-913.82 1990,-918.76 2000.41,-920.75 1999.38,-913.82"/>
</g>
<!-- automaton&#45;build&#45;app.log -->
<g id="node16" class="node">
<title>automaton&#45;build&#45;app.log</title>
<g id="a_node16"><a xlink:href="./automaton-build-app.log.svg" xlink:title="automaton&#45;build&#45;app.log">
<ellipse fill="none" stroke="black" cx="1609.67" cy="-977.02" rx="103.04" ry="18"/>
<text text-anchor="middle" x="1609.67" y="-971.97" font-family="Times,serif" font-size="14.00">automaton&#45;build&#45;app.log</text>
</a>
</g>
</g>
<!-- automaton&#45;build&#45;app.log&#45;&gt;org.clojure/clojure -->
<g id="edge5" class="edge">
<title>automaton&#45;build&#45;app.log&#45;&gt;org.clojure/clojure</title>
<path fill="none" stroke="black" d="M1576.92,-994.55C1481.58,-1045.59 1203.71,-1194.34 1089.07,-1255.71"/>
<polygon fill="black" stroke="black" points="1087.65,-1252.51 1080.49,-1260.31 1090.95,-1258.68 1087.65,-1252.51"/>
</g>
<!-- automaton&#45;build&#45;app.code&#45;helpers.compiler -->
<g id="node17" class="node">
<title>automaton&#45;build&#45;app.code&#45;helpers.compiler</title>
<g id="a_node17"><a xlink:href="./automaton-build-app.code-helpers.compiler.svg" xlink:title="automaton&#45;build&#45;app.code&#45;helpers.compiler">
<ellipse fill="none" stroke="black" cx="2054.15" cy="-2081.37" rx="174.19" ry="18"/>
<text text-anchor="middle" x="2054.15" y="-2076.32" font-family="Times,serif" font-size="14.00">automaton&#45;build&#45;app.code&#45;helpers.compiler</text>
</a>
</g>
</g>
<!-- automaton&#45;build&#45;app.code&#45;helpers.compiler&#45;&gt;io.github.clojure/tools.build -->
<g id="edge12" class="edge">
<title>automaton&#45;build&#45;app.code&#45;helpers.compiler&#45;&gt;io.github.clojure/tools.build</title>
<path fill="none" stroke="black" d="M2040.08,-2062.97C2039.96,-2062.82 2039.85,-2062.67 2039.73,-2062.52"/>
<polygon fill="black" stroke="black" points="2044.29,-2062.72 2035.44,-2056.9 2038.73,-2066.97 2044.29,-2062.72"/>
</g>
<!-- automaton&#45;build&#45;app.utils.namespace -->
<g id="node18" class="node">
<title>automaton&#45;build&#45;app.utils.namespace</title>
<g id="a_node18"><a xlink:href="./automaton-build-app.utils.namespace.svg" xlink:title="automaton&#45;build&#45;app.utils.namespace">
<ellipse fill="none" stroke="black" cx="661.36" cy="-763.8" rx="150.64" ry="18"/>
<text text-anchor="middle" x="661.36" y="-758.75" font-family="Times,serif" font-size="14.00">automaton&#45;build&#45;app.utils.namespace</text>
</a>
</g>
</g>
<!-- automaton&#45;build&#45;app.utils.namespace&#45;&gt;org.clojure/clojure -->
<g id="edge10" class="edge">
<title>automaton&#45;build&#45;app.utils.namespace&#45;&gt;org.clojure/clojure</title>
<path fill="none" stroke="black" d="M674.57,-781.96C730.18,-858.44 945.69,-1154.76 1016.23,-1251.75"/>
<polygon fill="black" stroke="black" points="1013.37,-1253.77 1022.08,-1259.8 1019.03,-1249.65 1013.37,-1253.77"/>
</g>
<!-- automaton&#45;build&#45;app.code&#45;helpers.update&#45;deps -->
<g id="node19" class="node">
<title>automaton&#45;build&#45;app.code&#45;helpers.update&#45;deps</title>
<g id="a_node19"><a xlink:href="./automaton-build-app.code-helpers.update-deps.svg" xlink:title="automaton&#45;build&#45;app.code&#45;helpers.update&#45;deps">
<ellipse fill="none" stroke="black" cx="2040.37" cy="-1782" rx="185.45" ry="18"/>
<text text-anchor="middle" x="2040.37" y="-1776.95" font-family="Times,serif" font-size="14.00">automaton&#45;build&#45;app.code&#45;helpers.update&#45;deps</text>
</a>
</g>
</g>
<!-- automaton&#45;build&#45;app.code&#45;helpers.update&#45;deps&#45;&gt;com.github.liquidz/antq -->
<g id="edge13" class="edge">
<title>automaton&#45;build&#45;app.code&#45;helpers.update&#45;deps&#45;&gt;com.github.liquidz/antq</title>
<path fill="none" stroke="black" d="M1937.47,-1797.37C1911.76,-1801.22 1884.19,-1805.33 1858.52,-1809.17"/>
<polygon fill="black" stroke="black" points="1858.13,-1805.69 1848.75,-1810.63 1859.16,-1812.61 1858.13,-1805.69"/>
</g>
<!-- automaton&#45;build&#45;app.file&#45;repo.text&#45;matches -->
<g id="node20" class="node">
<title>automaton&#45;build&#45;app.file&#45;repo.text&#45;matches</title>
<g id="a_node20"><a xlink:href="./automaton-build-app.file-repo.text-matches.svg" xlink:title="automaton&#45;build&#45;app.file&#45;repo.text&#45;matches">
<ellipse fill="none" stroke="black" cx="1230.7" cy="-859.06" rx="173.16" ry="18"/>
<text text-anchor="middle" x="1230.7" y="-854.01" font-family="Times,serif" font-size="14.00">automaton&#45;build&#45;app.file&#45;repo.text&#45;matches</text>
</a>
</g>
</g>
<!-- automaton&#45;build&#45;app.file&#45;repo.text&#45;matches&#45;&gt;org.clojure/clojure -->
<g id="edge6" class="edge">
<title>automaton&#45;build&#45;app.file&#45;repo.text&#45;matches&#45;&gt;org.clojure/clojure</title>
<path fill="none" stroke="black" d="M1222.33,-877.54C1192.49,-943.37 1091.12,-1167.05 1053.19,-1250.73"/>
<polygon fill="black" stroke="black" points="1050.05,-1249.2 1049.11,-1259.75 1056.42,-1252.09 1050.05,-1249.2"/>
</g>
<!-- automaton&#45;build&#45;app.containers.local&#45;engine -->
<g id="node21" class="node">
<title>automaton&#45;build&#45;app.containers.local&#45;engine</title>
<g id="a_node21"><a xlink:href="./automaton-build-app.containers.local-engine.svg" xlink:title="automaton&#45;build&#45;app.containers.local&#45;engine">
<ellipse fill="none" stroke="black" cx="872.24" cy="-864.99" rx="177.26" ry="18"/>
<text text-anchor="middle" x="872.24" y="-859.94" font-family="Times,serif" font-size="14.00">automaton&#45;build&#45;app.containers.local&#45;engine</text>
</a>
</g>
</g>
<!-- automaton&#45;build&#45;app.containers.local&#45;engine&#45;&gt;org.clojure/clojure -->
<g id="edge30" class="edge">
<title>automaton&#45;build&#45;app.containers.local&#45;engine&#45;&gt;org.clojure/clojure</title>
<path fill="none" stroke="black" d="M879.5,-883.2C905.32,-947.98 992.9,-1167.71 1025.95,-1250.64"/>
<polygon fill="black" stroke="black" points="1022.64,-1251.78 1029.59,-1259.77 1029.14,-1249.19 1022.64,-1251.78"/>
</g>
<!-- automaton&#45;build&#45;app.cicd.cfg&#45;mgt -->
<g id="node22" class="node">
<title>automaton&#45;build&#45;app.cicd.cfg&#45;mgt</title>
<g id="a_node22"><a xlink:href="./automaton-build-app.cicd.cfg-mgt.svg" xlink:title="automaton&#45;build&#45;app.cicd.cfg&#45;mgt">
<ellipse fill="none" stroke="black" cx="397.38" cy="-1379.87" rx="138.87" ry="18"/>
<text text-anchor="middle" x="397.38" y="-1374.82" font-family="Times,serif" font-size="14.00">automaton&#45;build&#45;app.cicd.cfg&#45;mgt</text>
</a>
</g>
</g>
<!-- automaton&#45;build&#45;app.cicd.cfg&#45;mgt&#45;&gt;org.clojure/clojure -->
<g id="edge17" class="edge">
<title>automaton&#45;build&#45;app.cicd.cfg&#45;mgt&#45;&gt;org.clojure/clojure</title>
<path fill="none" stroke="black" d="M488.92,-1366C612.43,-1347.28 830.86,-1314.18 951.89,-1295.83"/>
<polygon fill="black" stroke="black" points="952.08,-1299.34 961.44,-1294.38 951.03,-1292.42 952.08,-1299.34"/>
</g>
<!-- automaton&#45;build&#45;app.file&#45;repo.raw.impl -->
<g id="node23" class="node">
<title>automaton&#45;build&#45;app.file&#45;repo.raw.impl</title>
<g id="a_node23"><a xlink:href="./automaton-build-app.file-repo.raw.impl.svg" xlink:title="automaton&#45;build&#45;app.file&#45;repo.raw.impl">
<ellipse fill="none" stroke="black" cx="1484.83" cy="-1200.44" rx="158.83" ry="18"/>
<text text-anchor="middle" x="1484.83" y="-1195.39" font-family="Times,serif" font-size="14.00">automaton&#45;build&#45;app.file&#45;repo.raw.impl</text>
</a>
</g>
</g>
<!-- automaton&#45;build&#45;app.file&#45;repo.raw.impl&#45;&gt;org.clojure/clojure -->
<g id="edge9" class="edge">
<title>automaton&#45;build&#45;app.file&#45;repo.raw.impl&#45;&gt;org.clojure/clojure</title>
<path fill="none" stroke="black" d="M1400.13,-1216.06C1321.45,-1230.56 1204.81,-1252.06 1125.48,-1266.68"/>
<polygon fill="black" stroke="black" points="1125.23,-1263.17 1116.03,-1268.42 1126.49,-1270.05 1125.23,-1263.17"/>
</g>
<!-- automaton&#45;build&#45;app.configuration.edn&#45;read -->
<g id="node24" class="node">
<title>automaton&#45;build&#45;app.configuration.edn&#45;read</title>
<g id="a_node24"><a xlink:href="./automaton-build-app.configuration.edn-read.svg" xlink:title="automaton&#45;build&#45;app.configuration.edn&#45;read">
<ellipse fill="none" stroke="black" cx="1702.54" cy="-1371.91" rx="175.72" ry="18"/>
<text text-anchor="middle" x="1702.54" y="-1366.86" font-family="Times,serif" font-size="14.00">automaton&#45;build&#45;app.configuration.edn&#45;read</text>
</a>
</g>
</g>
<!-- automaton&#45;build&#45;app.configuration.edn&#45;read&#45;&gt;org.clojure/clojure -->
<g id="edge2" class="edge">
<title>automaton&#45;build&#45;app.configuration.edn&#45;read&#45;&gt;org.clojure/clojure</title>
<path fill="none" stroke="black" d="M1594.41,-1357.37C1463.61,-1339.79 1246.03,-1310.54 1125.6,-1294.35"/>
<polygon fill="black" stroke="black" points="1126.13,-1290.89 1115.76,-1293.03 1125.2,-1297.83 1126.13,-1290.89"/>
</g>
<!-- automaton&#45;build&#45;app.configuration.edn&#45;read&#45;&gt;babashka/fs -->
<g id="edge1" class="edge">
<title>automaton&#45;build&#45;app.configuration.edn&#45;read&#45;&gt;babashka/fs</title>
<path fill="none" stroke="black" d="M1738.96,-1389.85C1824.01,-1431.75 2035.9,-1536.13 2134.8,-1584.85"/>
<polygon fill="black" stroke="black" points="2132.99,-1587.86 2143.51,-1589.14 2136.08,-1581.58 2132.99,-1587.86"/>
</g>
<!-- automaton&#45;build&#45;app.code&#45;helpers.formatter -->
<g id="node25" class="node">
<title>automaton&#45;build&#45;app.code&#45;helpers.formatter</title>
<g id="a_node25"><a xlink:href="./automaton-build-app.code-helpers.formatter.svg" xlink:title="automaton&#45;build&#45;app.code&#45;helpers.formatter">
<ellipse fill="none" stroke="black" cx="1015.25" cy="-1851.29" rx="175.72" ry="18"/>
<text text-anchor="middle" x="1015.25" y="-1846.24" font-family="Times,serif" font-size="14.00">automaton&#45;build&#45;app.code&#45;helpers.formatter</text>
</a>
</g>
</g>
<!-- automaton&#45;build&#45;app.code&#45;helpers.formatter&#45;&gt;org.clojure/clojure -->
<g id="edge15" class="edge">
<title>automaton&#45;build&#45;app.code&#45;helpers.formatter&#45;&gt;org.clojure/clojure</title>
<path fill="none" stroke="black" d="M1016.01,-1833.02C1019.37,-1751.56 1033.01,-1420.99 1037.37,-1315.32"/>
<polygon fill="black" stroke="black" points="1040.85,-1315.78 1037.77,-1305.64 1033.86,-1315.49 1040.85,-1315.78"/>
</g>
<!-- automaton&#45;build&#45;app.repl -->
<g id="node26" class="node">
<title>automaton&#45;build&#45;app.repl</title>
<g id="a_node26"><a xlink:href="./automaton-build-app.repl.svg" xlink:title="automaton&#45;build&#45;app.repl">
<ellipse fill="none" stroke="black" cx="1656.77" cy="-606" rx="105.6" ry="18"/>
<text text-anchor="middle" x="1656.77" y="-600.95" font-family="Times,serif" font-size="14.00">automaton&#45;build&#45;app.repl</text>
</a>
</g>
</g>
<!-- automaton&#45;build&#45;app.repl&#45;&gt;org.clojure/core.async -->
<g id="edge4" class="edge">
<title>automaton&#45;build&#45;app.repl&#45;&gt;org.clojure/core.async</title>
<path fill="none" stroke="black" d="M1576.33,-618.02C1569.24,-619.08 1562.02,-620.16 1554.82,-621.23"/>
<polygon fill="black" stroke="black" points="1554.4,-617.76 1545.03,-622.7 1555.43,-624.68 1554.4,-617.76"/>
</g>
<!-- automaton&#45;build&#45;app.cicd.version -->
<g id="node27" class="node">
<title>automaton&#45;build&#45;app.cicd.version</title>
<g id="a_node27"><a xlink:href="./automaton-build-app.cicd.version.svg" xlink:title="automaton&#45;build&#45;app.cicd.version">
<ellipse fill="none" stroke="black" cx="1998.31" cy="-1978" rx="136.31" ry="18"/>
<text text-anchor="middle" x="1998.31" y="-1972.95" font-family="Times,serif" font-size="14.00">automaton&#45;build&#45;app.cicd.version</text>
</a>
</g>
</g>
<!-- automaton&#45;build&#45;app.cicd.version&#45;&gt;io.github.clojure/tools.build -->
<g id="edge16" class="edge">
<title>automaton&#45;build&#45;app.cicd.version&#45;&gt;io.github.clojure/tools.build</title>
<path fill="none" stroke="black" d="M2004.77,-1996.38C2005.36,-1998.06 2005.96,-1999.79 2006.58,-2001.54"/>
<polygon fill="black" stroke="black" points="2003.27,-2002.68 2009.89,-2010.96 2009.88,-2000.36 2003.27,-2002.68"/>
</g>
<!-- automaton&#45;build&#45;app.doc.markdown -->
<g id="node28" class="node">
<title>automaton&#45;build&#45;app.doc.markdown</title>
<g id="a_node28"><a xlink:href="./automaton-build-app.doc.markdown.svg" xlink:title="automaton&#45;build&#45;app.doc.markdown">
<ellipse fill="none" stroke="black" cx="1043.35" cy="-583.38" rx="147.06" ry="18"/>
<text text-anchor="middle" x="1043.35" y="-578.33" font-family="Times,serif" font-size="14.00">automaton&#45;build&#45;app.doc.markdown</text>
</a>
</g>
</g>
<!-- automaton&#45;build&#45;app.doc.markdown&#45;&gt;org.clojure/clojure -->
<g id="edge21" class="edge">
<title>automaton&#45;build&#45;app.doc.markdown&#45;&gt;org.clojure/clojure</title>
<path fill="none" stroke="black" d="M1043.23,-601.73C1042.6,-696.09 1039.75,-1127.18 1038.93,-1249.96"/>
<polygon fill="black" stroke="black" points="1035.44,-1249.64 1038.87,-1259.66 1042.44,-1249.68 1035.44,-1249.64"/>
</g>
<!-- automaton&#45;build&#45;app.doc.markdown&#45;&gt;markdown&#45;clj/markdown&#45;clj -->
<g id="edge22" class="edge">
<title>automaton&#45;build&#45;app.doc.markdown&#45;&gt;markdown&#45;clj/markdown&#45;clj</title>
<path fill="none" stroke="black" d="M1042.85,-565C1040.65,-484.09 1031.82,-159.11 1028.97,-54.13"/>
<polygon fill="black" stroke="black" points="1032.47,-54.13 1028.7,-44.23 1025.47,-54.32 1032.47,-54.13"/>
</g>
<!-- automaton&#45;build&#45;app.file&#45;repo.clj&#45;code -->
<g id="node29" class="node">
<title>automaton&#45;build&#45;app.file&#45;repo.clj&#45;code</title>
<g id="a_node29"><a xlink:href="./automaton-build-app.file-repo.clj-code.svg" xlink:title="automaton&#45;build&#45;app.file&#45;repo.clj&#45;code">
<ellipse fill="none" stroke="black" cx="1443.22" cy="-771.58" rx="155.25" ry="18"/>
<text text-anchor="middle" x="1443.22" y="-766.53" font-family="Times,serif" font-size="14.00">automaton&#45;build&#45;app.file&#45;repo.clj&#45;code</text>
</a>
</g>
</g>
<!-- automaton&#45;build&#45;app.file&#45;repo.clj&#45;code&#45;&gt;org.clojure/clojure -->
<g id="edge8" class="edge">
<title>automaton&#45;build&#45;app.file&#45;repo.clj&#45;code&#45;&gt;org.clojure/clojure</title>
<path fill="none" stroke="black" d="M1428.82,-789.77C1368.83,-865.58 1138.29,-1156.86 1062.8,-1252.24"/>
<polygon fill="black" stroke="black" points="1060.19,-1249.9 1056.73,-1259.92 1065.68,-1254.25 1060.19,-1249.9"/>
</g>
<!-- automaton&#45;build&#45;app.os.commands -->
<g id="node30" class="node">
<title>automaton&#45;build&#45;app.os.commands</title>
<g id="a_node30"><a xlink:href="./automaton-build-app.os.commands.svg" xlink:title="automaton&#45;build&#45;app.os.commands">
<ellipse fill="none" stroke="black" cx="492.15" cy="-1746.52" rx="142.97" ry="18"/>
<text text-anchor="middle" x="492.15" y="-1741.47" font-family="Times,serif" font-size="14.00">automaton&#45;build&#45;app.os.commands</text>
</a>
</g>
</g>
<!-- automaton&#45;build&#45;app.os.commands&#45;&gt;org.clojure/clojure -->
<g id="edge24" class="edge">
<title>automaton&#45;build&#45;app.os.commands&#45;&gt;org.clojure/clojure</title>
<path fill="none" stroke="black" d="M513.57,-1728.33C597.11,-1657.45 901.37,-1399.23 1004.36,-1311.83"/>
<polygon fill="black" stroke="black" points="1006.61,-1314.51 1011.97,-1305.37 1002.08,-1309.17 1006.61,-1314.51"/>
</g>
<!-- automaton&#45;build&#45;app.os.commands&#45;&gt;babashka/process -->
<g id="edge23" class="edge">
<title>automaton&#45;build&#45;app.os.commands&#45;&gt;babashka/process</title>
<path fill="none" stroke="black" d="M471.05,-1764.75C403.05,-1823.52 189.24,-2008.29 106.04,-2080.18"/>
<polygon fill="black" stroke="black" points="103.9,-2077.41 98.63,-2086.59 108.48,-2082.7 103.9,-2077.41"/>
</g>
<!-- automaton&#45;build&#45;app.os.pdf -->
<g id="node31" class="node">
<title>automaton&#45;build&#45;app.os.pdf</title>
<g id="a_node31"><a xlink:href="./automaton-build-app.os.pdf.svg" xlink:title="automaton&#45;build&#45;app.os.pdf">
<ellipse fill="none" stroke="black" cx="1271.14" cy="-1931.91" rx="114.3" ry="18"/>
<text text-anchor="middle" x="1271.14" y="-1926.86" font-family="Times,serif" font-size="14.00">automaton&#45;build&#45;app.os.pdf</text>
</a>
</g>
</g>
<!-- automaton&#45;build&#45;app.os.pdf&#45;&gt;org.clojure/clojure -->
<g id="edge26" class="edge">
<title>automaton&#45;build&#45;app.os.pdf&#45;&gt;org.clojure/clojure</title>
<path fill="none" stroke="black" d="M1264.56,-1913.52C1232.39,-1823.65 1091.55,-1430.25 1050.18,-1314.7"/>
<polygon fill="black" stroke="black" points="1053.56,-1313.76 1046.9,-1305.52 1046.97,-1316.12 1053.56,-1313.76"/>
</g>
<!-- automaton&#45;build&#45;app.os.pdf&#45;&gt;clj&#45;htmltopdf/clj&#45;htmltopdf -->
<g id="edge25" class="edge">
<title>automaton&#45;build&#45;app.os.pdf&#45;&gt;clj&#45;htmltopdf/clj&#45;htmltopdf</title>
<path fill="none" stroke="black" d="M1276.41,-1950.24C1299.32,-2029.97 1390.48,-2347.19 1420.11,-2450.27"/>
<polygon fill="black" stroke="black" points="1416.71,-2451.11 1422.83,-2459.75 1423.43,-2449.18 1416.71,-2451.11"/>
</g>
<!-- automaton&#45;build&#45;app.code&#45;helpers.code&#45;stats -->
<g id="node32" class="node">
<title>automaton&#45;build&#45;app.code&#45;helpers.code&#45;stats</title>
<g id="a_node32"><a xlink:href="./automaton-build-app.code-helpers.code-stats.svg" xlink:title="automaton&#45;build&#45;app.code&#45;helpers.code&#45;stats">
<ellipse fill="none" stroke="black" cx="820.91" cy="-1767.47" rx="177.77" ry="18"/>
<text text-anchor="middle" x="820.91" y="-1762.42" font-family="Times,serif" font-size="14.00">automaton&#45;build&#45;app.code&#45;helpers.code&#45;stats</text>
</a>
</g>
</g>
<!-- automaton&#45;build&#45;app.code&#45;helpers.code&#45;stats&#45;&gt;org.clojure/clojure -->
<g id="edge11" class="edge">
<title>automaton&#45;build&#45;app.code&#45;helpers.code&#45;stats&#45;&gt;org.clojure/clojure</title>
<path fill="none" stroke="black" d="M829.19,-1749.05C861.89,-1676.26 982.42,-1407.98 1024.28,-1314.81"/>
<polygon fill="black" stroke="black" points="1027.46,-1316.27 1028.36,-1305.72 1021.07,-1313.4 1027.46,-1316.27"/>
</g>
<!-- automaton&#45;build&#45;app.doc.blog -->
<g id="node33" class="node">
<title>automaton&#45;build&#45;app.doc.blog</title>
<g id="a_node33"><a xlink:href="./automaton-build-app.doc.blog.svg" xlink:title="automaton&#45;build&#45;app.doc.blog">
<ellipse fill="none" stroke="black" cx="1292.23" cy="-1620.97" rx="123.52" ry="18"/>
<text text-anchor="middle" x="1292.23" y="-1615.92" font-family="Times,serif" font-size="14.00">automaton&#45;build&#45;app.doc.blog</text>
</a>
</g>
</g>
<!-- automaton&#45;build&#45;app.doc.blog&#45;&gt;org.clojure/clojure -->
<g id="edge19" class="edge">
<title>automaton&#45;build&#45;app.doc.blog&#45;&gt;org.clojure/clojure</title>
<path fill="none" stroke="black" d="M1278.6,-1602.78C1237.34,-1547.73 1113.49,-1382.45 1061.79,-1313.46"/>
<polygon fill="black" stroke="black" points="1064.69,-1311.5 1055.89,-1305.59 1059.09,-1315.69 1064.69,-1311.5"/>
</g>
<!-- automaton&#45;build&#45;app.file&#45;repo.text -->
<g id="node34" class="node">
<title>automaton&#45;build&#45;app.file&#45;repo.text</title>
<g id="a_node34"><a xlink:href="./automaton-build-app.file-repo.text.svg" xlink:title="automaton&#45;build&#45;app.file&#45;repo.text">
<ellipse fill="none" stroke="black" cx="450.66" cy="-1148.28" rx="139.38" ry="18"/>
<text text-anchor="middle" x="450.66" y="-1143.23" font-family="Times,serif" font-size="14.00">automaton&#45;build&#45;app.file&#45;repo.text</text>
</a>
</g>
</g>
<!-- automaton&#45;build&#45;app.file&#45;repo.text&#45;&gt;org.clojure/clojure -->
<g id="edge7" class="edge">
<title>automaton&#45;build&#45;app.file&#45;repo.text&#45;&gt;org.clojure/clojure</title>
<path fill="none" stroke="black" d="M520.72,-1164.29C628.55,-1188.93 834.97,-1236.11 952.05,-1262.87"/>
<polygon fill="black" stroke="black" points="951.09,-1266.24 961.62,-1265.05 952.65,-1259.41 951.09,-1266.24"/>
</g>
<!-- automaton&#45;build&#45;app.doc.code&#45;doc -->
<g id="node35" class="node">
<title>automaton&#45;build&#45;app.doc.code&#45;doc</title>
<g id="a_node35"><a xlink:href="./automaton-build-app.doc.code-doc.svg" xlink:title="automaton&#45;build&#45;app.doc.code&#45;doc">
<ellipse fill="none" stroke="black" cx="2033.09" cy="-1096" rx="140.92" ry="18"/>
<text text-anchor="middle" x="2033.09" y="-1090.95" font-family="Times,serif" font-size="14.00">automaton&#45;build&#45;app.doc.code&#45;doc</text>
</a>
</g>
</g>
<!-- automaton&#45;build&#45;app.doc.code&#45;doc&#45;&gt;codox/codox -->
<g id="edge20" class="edge">
<title>automaton&#45;build&#45;app.doc.code&#45;doc&#45;&gt;codox/codox</title>
<path fill="none" stroke="black" d="M1940.2,-1109.88C1925.31,-1112.1 1910.11,-1114.37 1895.82,-1116.51"/>
<polygon fill="black" stroke="black" points="1895.45,-1113.03 1886.07,-1117.97 1896.48,-1119.95 1895.45,-1113.03"/>
</g>
<!-- automaton&#45;build&#45;app.os.files -->
<g id="node36" class="node">
<title>automaton&#45;build&#45;app.os.files</title>
<g id="a_node36"><a xlink:href="./automaton-build-app.os.files.svg" xlink:title="automaton&#45;build&#45;app.os.files">
<ellipse fill="none" stroke="black" cx="1612.68" cy="-1608.19" rx="117.89" ry="18"/>
<text text-anchor="middle" x="1612.68" y="-1603.14" font-family="Times,serif" font-size="14.00">automaton&#45;build&#45;app.os.files</text>
</a>
</g>
</g>
<!-- automaton&#45;build&#45;app.os.files&#45;&gt;org.clojure/clojure -->
<g id="edge29" class="edge">
<title>automaton&#45;build&#45;app.os.files&#45;&gt;org.clojure/clojure</title>
<path fill="none" stroke="black" d="M1581.42,-1590.45C1486.5,-1536.62 1201.19,-1374.81 1086.86,-1309.98"/>
<polygon fill="black" stroke="black" points="1088.73,-1307.01 1078.31,-1305.12 1085.28,-1313.1 1088.73,-1307.01"/>
</g>
<!-- automaton&#45;build&#45;app.os.files&#45;&gt;babashka/fs -->
<g id="edge28" class="edge">
<title>automaton&#45;build&#45;app.os.files&#45;&gt;babashka/fs</title>
<path fill="none" stroke="black" d="M1731.02,-1608.69C1847.97,-1609.2 2022.84,-1609.95 2118.54,-1610.36"/>
<polygon fill="black" stroke="black" points="2118.28,-1613.86 2128.29,-1610.4 2118.31,-1606.86 2118.28,-1613.86"/>
</g>
</g>
</svg>
