<?xml version="1.0" encoding="UTF-8" standalone="no"?>
<!DOCTYPE svg PUBLIC "-//W3C//DTD SVG 1.1//EN"
 "http://www.w3.org/Graphics/SVG/1.1/DTD/svg11.dtd">
<!-- Generated by graphviz version 9.0.0 (20230911.1827)
 -->
<!-- Pages: 1 -->
<svg width="2118pt" height="2129pt"
 viewBox="0.00 0.00 2118.38 2128.94" xmlns="http://www.w3.org/2000/svg" xmlns:xlink="http://www.w3.org/1999/xlink">
<g id="graph0" class="graph" transform="scale(1 1) rotate(0) translate(4 2124.94)">
<polygon fill="white" stroke="none" points="-4,4 -4,-2124.94 2114.38,-2124.94 2114.38,4 -4,4"/>
<!-- org.clojure/clojure -->
<g id="node1" class="node">
<title>org.clojure/clojure</title>
<g id="a_node1"><a xlink:href="./org.clojure__clojure.svg" xlink:title="org.clojure/clojure">
<path fill="green" stroke="black" d="M1128.85,-1095.35C1128.85,-1097.48 1095.03,-1099.22 1053.4,-1099.22 1011.77,-1099.22 977.95,-1097.48 977.95,-1095.35 977.95,-1095.35 977.95,-1060.59 977.95,-1060.59 977.95,-1058.46 1011.77,-1056.73 1053.4,-1056.73 1095.03,-1056.73 1128.85,-1058.46 1128.85,-1060.59 1128.85,-1060.59 1128.85,-1095.35 1128.85,-1095.35"/>
<path fill="none" stroke="black" d="M1128.85,-1095.35C1128.85,-1093.22 1095.03,-1091.49 1053.4,-1091.49 1011.77,-1091.49 977.95,-1093.22 977.95,-1095.35"/>
<text text-anchor="middle" x="1053.4" y="-1072.92" font-family="Times,serif" font-size="14.00">org.clojure/clojure</text>
</a>
</g>
</g>
<!-- org.clojure/tools.cli -->
<g id="node2" class="node">
<title>org.clojure/tools.cli</title>
<g id="a_node2"><a xlink:href="./org.clojure__tools.cli.svg" xlink:title="org.clojure/tools.cli">
<path fill="red" stroke="black" d="M1952.51,-223.39C1952.51,-225.53 1917.35,-227.26 1874.06,-227.26 1830.77,-227.26 1795.61,-225.53 1795.61,-223.39 1795.61,-223.39 1795.61,-188.63 1795.61,-188.63 1795.61,-186.5 1830.77,-184.77 1874.06,-184.77 1917.35,-184.77 1952.51,-186.5 1952.51,-188.63 1952.51,-188.63 1952.51,-223.39 1952.51,-223.39"/>
<path fill="none" stroke="black" d="M1952.51,-223.39C1952.51,-221.26 1917.35,-219.53 1874.06,-219.53 1830.77,-219.53 1795.61,-221.26 1795.61,-223.39"/>
<text text-anchor="middle" x="1874.06" y="-200.96" font-family="Times,serif" font-size="14.00">org.clojure/tools.cli</text>
</a>
</g>
</g>
<!-- clj&#45;htmltopdf/clj&#45;htmltopdf -->
<g id="node3" class="node">
<title>clj&#45;htmltopdf/clj&#45;htmltopdf</title>
<g id="a_node3"><a xlink:href="./clj-htmltopdf.svg" xlink:title="clj&#45;htmltopdf/clj&#45;htmltopdf">
<path fill="green" stroke="black" d="M198.15,-358.5C198.15,-360.63 153.74,-362.36 99.07,-362.36 44.41,-362.36 0,-360.63 0,-358.5 0,-358.5 0,-323.74 0,-323.74 0,-321.61 44.41,-319.88 99.07,-319.88 153.74,-319.88 198.15,-321.61 198.15,-323.74 198.15,-323.74 198.15,-358.5 198.15,-358.5"/>
<path fill="none" stroke="black" d="M198.15,-358.5C198.15,-356.37 153.74,-354.64 99.07,-354.64 44.41,-354.64 0,-356.37 0,-358.5"/>
<text text-anchor="middle" x="99.07" y="-336.07" font-family="Times,serif" font-size="14.00">clj&#45;htmltopdf/clj&#45;htmltopdf</text>
</a>
</g>
</g>
<!-- markdown&#45;clj/markdown&#45;clj -->
<g id="node4" class="node">
<title>markdown&#45;clj/markdown&#45;clj</title>
<g id="a_node4"><a xlink:href="./markdown-clj.svg" xlink:title="markdown&#45;clj/markdown&#45;clj">
<path fill="green" stroke="black" d="M302.75,-1960.09C302.75,-1962.22 256.32,-1963.95 199.17,-1963.95 142.02,-1963.95 95.6,-1962.22 95.6,-1960.09 95.6,-1960.09 95.6,-1925.33 95.6,-1925.33 95.6,-1923.2 142.02,-1921.47 199.17,-1921.47 256.32,-1921.47 302.75,-1923.2 302.75,-1925.33 302.75,-1925.33 302.75,-1960.09 302.75,-1960.09"/>
<path fill="none" stroke="black" d="M302.75,-1960.09C302.75,-1957.96 256.32,-1956.23 199.17,-1956.23 142.02,-1956.23 95.6,-1957.96 95.6,-1960.09"/>
<text text-anchor="middle" x="199.17" y="-1937.66" font-family="Times,serif" font-size="14.00">markdown&#45;clj/markdown&#45;clj</text>
</a>
</g>
</g>
<!-- hiccup/hiccup -->
<g id="node5" class="node">
<title>hiccup/hiccup</title>
<g id="a_node5"><a xlink:href="./hiccup.svg" xlink:title="hiccup/hiccup">
<path fill="green" stroke="black" d="M1760.15,-1096.61C1760.15,-1098.74 1731.88,-1100.47 1697.08,-1100.47 1662.27,-1100.47 1634,-1098.74 1634,-1096.61 1634,-1096.61 1634,-1061.85 1634,-1061.85 1634,-1059.72 1662.27,-1057.99 1697.08,-1057.99 1731.88,-1057.99 1760.15,-1059.72 1760.15,-1061.85 1760.15,-1061.85 1760.15,-1096.61 1760.15,-1096.61"/>
<path fill="none" stroke="black" d="M1760.15,-1096.61C1760.15,-1094.48 1731.88,-1092.75 1697.08,-1092.75 1662.27,-1092.75 1634,-1094.48 1634,-1096.61"/>
<text text-anchor="middle" x="1697.08" y="-1074.18" font-family="Times,serif" font-size="14.00">hiccup/hiccup</text>
</a>
</g>
</g>
<!-- metosin/malli -->
<g id="node6" class="node">
<title>metosin/malli</title>
<g id="a_node6"><a xlink:href="./metosin__malli.svg" xlink:title="metosin/malli">
<path fill="green" stroke="black" d="M1760.15,-1697.85C1760.15,-1699.98 1731.88,-1701.71 1697.08,-1701.71 1662.27,-1701.71 1634,-1699.98 1634,-1697.85 1634,-1697.85 1634,-1663.08 1634,-1663.08 1634,-1660.95 1662.27,-1659.22 1697.08,-1659.22 1731.88,-1659.22 1760.15,-1660.95 1760.15,-1663.08 1760.15,-1663.08 1760.15,-1697.85 1760.15,-1697.85"/>
<path fill="none" stroke="black" d="M1760.15,-1697.85C1760.15,-1695.71 1731.88,-1693.98 1697.08,-1693.98 1662.27,-1693.98 1634,-1695.71 1634,-1697.85"/>
<text text-anchor="middle" x="1697.08" y="-1675.41" font-family="Times,serif" font-size="14.00">metosin/malli</text>
</a>
</g>
</g>
<!-- babashka/process -->
<g id="node7" class="node">
<title>babashka/process</title>
<g id="a_node7"><a xlink:href="./babashka__process.svg" xlink:title="babashka/process">
<path fill="green" stroke="black" d="M1744.06,-2117.07C1744.06,-2119.21 1711.59,-2120.94 1671.61,-2120.94 1631.64,-2120.94 1599.16,-2119.21 1599.16,-2117.07 1599.16,-2117.07 1599.16,-2082.31 1599.16,-2082.31 1599.16,-2080.18 1631.64,-2078.45 1671.61,-2078.45 1711.59,-2078.45 1744.06,-2080.18 1744.06,-2082.31 1744.06,-2082.31 1744.06,-2117.07 1744.06,-2117.07"/>
<path fill="none" stroke="black" d="M1744.06,-2117.07C1744.06,-2114.94 1711.59,-2113.21 1671.61,-2113.21 1631.64,-2113.21 1599.16,-2114.94 1599.16,-2117.07"/>
<text text-anchor="middle" x="1671.61" y="-2094.64" font-family="Times,serif" font-size="14.00">babashka/process</text>
</a>
</g>
</g>
<!-- io.github.clojure/tools.deps.graph -->
<g id="node8" class="node">
<title>io.github.clojure/tools.deps.graph</title>
<g id="a_node8"><a xlink:href="./io.github.clojure__tools.deps.graph.svg" xlink:title="io.github.clojure/tools.deps.graph">
<path fill="green" stroke="black" d="M1781.4,-649.79C1781.4,-651.92 1729.09,-653.65 1664.7,-653.65 1600.31,-653.65 1548,-651.92 1548,-649.79 1548,-649.79 1548,-615.02 1548,-615.02 1548,-612.89 1600.31,-611.16 1664.7,-611.16 1729.09,-611.16 1781.4,-612.89 1781.4,-615.02 1781.4,-615.02 1781.4,-649.79 1781.4,-649.79"/>
<path fill="none" stroke="black" d="M1781.4,-649.79C1781.4,-647.66 1729.09,-645.92 1664.7,-645.92 1600.31,-645.92 1548,-647.66 1548,-649.79"/>
<text text-anchor="middle" x="1664.7" y="-627.36" font-family="Times,serif" font-size="14.00">io.github.clojure/tools.deps.graph</text>
</a>
</g>
</g>
<!-- com.github.liquidz/antq -->
<g id="node9" class="node">
<title>com.github.liquidz/antq</title>
<g id="a_node9"><a xlink:href="./com.github.liquidz__antq.svg" xlink:title="com.github.liquidz/antq">
<path fill="green" stroke="black" d="M1642.9,-1541.64C1642.9,-1543.77 1602.36,-1545.5 1552.45,-1545.5 1502.54,-1545.5 1462,-1543.77 1462,-1541.64 1462,-1541.64 1462,-1506.87 1462,-1506.87 1462,-1504.74 1502.54,-1503.01 1552.45,-1503.01 1602.36,-1503.01 1642.9,-1504.74 1642.9,-1506.87 1642.9,-1506.87 1642.9,-1541.64 1642.9,-1541.64"/>
<path fill="none" stroke="black" d="M1642.9,-1541.64C1642.9,-1539.51 1602.36,-1537.77 1552.45,-1537.77 1502.54,-1537.77 1462,-1539.51 1462,-1541.64"/>
<text text-anchor="middle" x="1552.45" y="-1519.21" font-family="Times,serif" font-size="14.00">com.github.liquidz/antq</text>
</a>
</g>
</g>
<!-- codox/codox -->
<g id="node10" class="node">
<title>codox/codox</title>
<g id="a_node10"><a xlink:href="./codox.svg" xlink:title="codox/codox">
<path fill="green" stroke="black" d="M1957.2,-688.12C1957.2,-690.25 1930.27,-691.98 1897.12,-691.98 1863.97,-691.98 1837.05,-690.25 1837.05,-688.12 1837.05,-688.12 1837.05,-653.35 1837.05,-653.35 1837.05,-651.22 1863.97,-649.49 1897.12,-649.49 1930.27,-649.49 1957.2,-651.22 1957.2,-653.35 1957.2,-653.35 1957.2,-688.12 1957.2,-688.12"/>
<path fill="none" stroke="black" d="M1957.2,-688.12C1957.2,-685.98 1930.27,-684.25 1897.12,-684.25 1863.97,-684.25 1837.05,-685.98 1837.05,-688.12"/>
<text text-anchor="middle" x="1897.12" y="-665.68" font-family="Times,serif" font-size="14.00">codox/codox</text>
</a>
</g>
</g>
<!-- io.github.clojure/tools.build -->
<g id="node11" class="node">
<title>io.github.clojure/tools.build</title>
<g id="a_node11"><a xlink:href="./io.github.clojure__tools.build.svg" xlink:title="io.github.clojure/tools.build">
<path fill="green" stroke="black" d="M686.98,-521.51C686.98,-523.64 641.73,-525.37 586.03,-525.37 530.32,-525.37 485.08,-523.64 485.08,-521.51 485.08,-521.51 485.08,-486.74 485.08,-486.74 485.08,-484.61 530.32,-482.88 586.03,-482.88 641.73,-482.88 686.98,-484.61 686.98,-486.74 686.98,-486.74 686.98,-521.51 686.98,-521.51"/>
<path fill="none" stroke="black" d="M686.98,-521.51C686.98,-519.37 641.73,-517.64 586.03,-517.64 530.32,-517.64 485.08,-519.37 485.08,-521.51"/>
<text text-anchor="middle" x="586.03" y="-499.07" font-family="Times,serif" font-size="14.00">io.github.clojure/tools.build</text>
</a>
</g>
</g>
<!-- io.dominic/vizns -->
<g id="node12" class="node">
<title>io.dominic/vizns</title>
<g id="a_node12"><a xlink:href="./io.dominic__vizns.svg" xlink:title="io.dominic/vizns">
<path fill="green" stroke="black" d="M1884.86,-468.62C1884.86,-470.76 1853.06,-472.49 1813.91,-472.49 1774.76,-472.49 1742.96,-470.76 1742.96,-468.62 1742.96,-468.62 1742.96,-433.86 1742.96,-433.86 1742.96,-431.73 1774.76,-430 1813.91,-430 1853.06,-430 1884.86,-431.73 1884.86,-433.86 1884.86,-433.86 1884.86,-468.62 1884.86,-468.62"/>
<path fill="none" stroke="black" d="M1884.86,-468.62C1884.86,-466.49 1853.06,-464.76 1813.91,-464.76 1774.76,-464.76 1742.96,-466.49 1742.96,-468.62"/>
<text text-anchor="middle" x="1813.91" y="-446.19" font-family="Times,serif" font-size="14.00">io.dominic/vizns</text>
</a>
</g>
</g>
<!-- babashka/fs -->
<g id="node13" class="node">
<title>babashka/fs</title>
<g id="a_node13"><a xlink:href="./babashka__fs.svg" xlink:title="babashka/fs">
<path fill="green" stroke="black" d="M1240.4,-38.63C1240.4,-40.76 1214.82,-42.49 1183.33,-42.49 1151.83,-42.49 1126.25,-40.76 1126.25,-38.63 1126.25,-38.63 1126.25,-3.86 1126.25,-3.86 1126.25,-1.73 1151.83,0 1183.33,0 1214.82,0 1240.4,-1.73 1240.4,-3.86 1240.4,-3.86 1240.4,-38.63 1240.4,-38.63"/>
<path fill="none" stroke="black" d="M1240.4,-38.63C1240.4,-36.49 1214.82,-34.76 1183.33,-34.76 1151.83,-34.76 1126.25,-36.49 1126.25,-38.63"/>
<text text-anchor="middle" x="1183.33" y="-16.19" font-family="Times,serif" font-size="14.00">babashka/fs</text>
</a>
</g>
</g>
<!-- org.clojure/core.async -->
<g id="node14" class="node">
<title>org.clojure/core.async</title>
<g id="a_node14"><a xlink:href="./org.clojure__core.async.svg" xlink:title="org.clojure/core.async">
<path fill="red" stroke="black" d="M1891.15,-925.14C1891.15,-927.27 1852.79,-929.01 1805.57,-929.01 1758.36,-929.01 1720,-927.27 1720,-925.14 1720,-925.14 1720,-890.38 1720,-890.38 1720,-888.25 1758.36,-886.52 1805.57,-886.52 1852.79,-886.52 1891.15,-888.25 1891.15,-890.38 1891.15,-890.38 1891.15,-925.14 1891.15,-925.14"/>
<path fill="none" stroke="black" d="M1891.15,-925.14C1891.15,-923.01 1852.79,-921.28 1805.57,-921.28 1758.36,-921.28 1720,-923.01 1720,-925.14"/>
<text text-anchor="middle" x="1805.57" y="-902.71" font-family="Times,serif" font-size="14.00">org.clojure/core.async</text>
</a>
</g>
</g>
<!-- automaton&#45;build&#45;app.os.edn&#45;utils -->
<g id="node15" class="node">
<title>automaton&#45;build&#45;app.os.edn&#45;utils</title>
<g id="a_node15"><a xlink:href="./automaton-build-app.os.edn-utils.svg" xlink:title="automaton&#45;build&#45;app.os.edn&#45;utils">
<ellipse fill="none" stroke="black" cx="564.78" cy="-867.16" rx="134.26" ry="18"/>
<text text-anchor="middle" x="564.78" y="-862.11" font-family="Times,serif" font-size="14.00">automaton&#45;build&#45;app.os.edn&#45;utils</text>
</a>
</g>
</g>
<!-- automaton&#45;build&#45;app.os.edn&#45;utils&#45;&gt;org.clojure/clojure -->
<g id="edge33" class="edge">
<title>automaton&#45;build&#45;app.os.edn&#45;utils&#45;&gt;org.clojure/clojure</title>
<path fill="none" stroke="black" d="M605.6,-884.77C691.66,-921.9 892.09,-1008.37 993.03,-1051.92"/>
<polygon fill="black" stroke="black" points="991.4,-1055.03 1001.97,-1055.78 994.18,-1048.61 991.4,-1055.03"/>
</g>
<!-- automaton&#45;build&#45;app.doc.html -->
<g id="node16" class="node">
<title>automaton&#45;build&#45;app.doc.html</title>
<g id="a_node16"><a xlink:href="./automaton-build-app.doc.html.svg" xlink:title="automaton&#45;build&#45;app.doc.html">
<ellipse fill="none" stroke="black" cx="1892.71" cy="-1050" rx="124.54" ry="18"/>
<text text-anchor="middle" x="1892.71" y="-1044.95" font-family="Times,serif" font-size="14.00">automaton&#45;build&#45;app.doc.html</text>
</a>
</g>
</g>
<!-- automaton&#45;build&#45;app.doc.html&#45;&gt;hiccup/hiccup -->
<g id="edge22" class="edge">
<title>automaton&#45;build&#45;app.doc.html&#45;&gt;hiccup/hiccup</title>
<path fill="none" stroke="black" d="M1804.91,-1063.12C1793.82,-1064.77 1782.57,-1066.46 1771.72,-1068.08"/>
<polygon fill="black" stroke="black" points="1771.45,-1064.58 1762.08,-1069.52 1772.48,-1071.5 1771.45,-1064.58"/>
</g>
<!-- automaton&#45;build&#45;app.schema -->
<g id="node17" class="node">
<title>automaton&#45;build&#45;app.schema</title>
<g id="a_node17"><a xlink:href="./automaton-build-app.schema.svg" xlink:title="automaton&#45;build&#45;app.schema">
<ellipse fill="none" stroke="black" cx="1887.59" cy="-1652" rx="119.42" ry="18"/>
<text text-anchor="middle" x="1887.59" y="-1646.95" font-family="Times,serif" font-size="14.00">automaton&#45;build&#45;app.schema</text>
</a>
</g>
</g>
<!-- automaton&#45;build&#45;app.schema&#45;&gt;metosin/malli -->
<g id="edge4" class="edge">
<title>automaton&#45;build&#45;app.schema&#45;&gt;metosin/malli</title>
<path fill="none" stroke="black" d="M1801.53,-1664.86C1791.61,-1666.34 1781.55,-1667.84 1771.79,-1669.3"/>
<polygon fill="black" stroke="black" points="1771.38,-1665.82 1762,-1670.76 1772.41,-1672.75 1771.38,-1665.82"/>
</g>
<!-- automaton&#45;build&#45;app.log -->
<g id="node18" class="node">
<title>automaton&#45;build&#45;app.log</title>
<g id="a_node18"><a xlink:href="./automaton-build-app.log.svg" xlink:title="automaton&#45;build&#45;app.log">
<ellipse fill="none" stroke="black" cx="1550.78" cy="-1004.45" rx="103.04" ry="18"/>
<text text-anchor="middle" x="1550.78" y="-999.4" font-family="Times,serif" font-size="14.00">automaton&#45;build&#45;app.log</text>
</a>
</g>
</g>
<!-- automaton&#45;build&#45;app.log&#45;&gt;org.clojure/clojure -->
<g id="edge6" class="edge">
<title>automaton&#45;build&#45;app.log&#45;&gt;org.clojure/clojure</title>
<path fill="none" stroke="black" d="M1471.14,-1016.22C1380.69,-1029.59 1233.57,-1051.34 1140.24,-1065.14"/>
<polygon fill="black" stroke="black" points="1140.01,-1061.63 1130.63,-1066.56 1141.03,-1068.56 1140.01,-1061.63"/>
</g>
<!-- automaton&#45;build&#45;app.code&#45;helpers.compiler -->
<g id="node19" class="node">
<title>automaton&#45;build&#45;app.code&#45;helpers.compiler</title>
<g id="a_node19"><a xlink:href="./automaton-build-app.code-helpers.compiler.svg" xlink:title="automaton&#45;build&#45;app.code&#45;helpers.compiler">
<ellipse fill="none" stroke="black" cx="622.15" cy="-551.37" rx="174.19" ry="18"/>
<text text-anchor="middle" x="622.15" y="-546.32" font-family="Times,serif" font-size="14.00">automaton&#45;build&#45;app.code&#45;helpers.compiler</text>
</a>
</g>
</g>
<!-- automaton&#45;build&#45;app.code&#45;helpers.compiler&#45;&gt;io.github.clojure/tools.build -->
<g id="edge14" class="edge">
<title>automaton&#45;build&#45;app.code&#45;helpers.compiler&#45;&gt;io.github.clojure/tools.build</title>
<path fill="none" stroke="black" d="M608.08,-532.97C607.96,-532.82 607.85,-532.67 607.73,-532.52"/>
<polygon fill="black" stroke="black" points="612.29,-532.72 603.44,-526.9 606.73,-536.97 612.29,-532.72"/>
</g>
<!-- automaton&#45;build&#45;app.code&#45;helpers.update&#45;deps&#45;clj -->
<g id="node20" class="node">
<title>automaton&#45;build&#45;app.code&#45;helpers.update&#45;deps&#45;clj</title>
<g id="a_node20"><a xlink:href="./automaton-build-app.code-helpers.update-deps-clj.svg" xlink:title="automaton&#45;build&#45;app.code&#45;helpers.update&#45;deps&#45;clj">
<ellipse fill="none" stroke="black" cx="1848.66" cy="-1480" rx="197.73" ry="18"/>
<text text-anchor="middle" x="1848.66" y="-1474.95" font-family="Times,serif" font-size="14.00">automaton&#45;build&#45;app.code&#45;helpers.update&#45;deps&#45;clj</text>
</a>
</g>
</g>
<!-- automaton&#45;build&#45;app.code&#45;helpers.update&#45;deps&#45;clj&#45;&gt;com.github.liquidz/antq -->
<g id="edge12" class="edge">
<title>automaton&#45;build&#45;app.code&#45;helpers.update&#45;deps&#45;clj&#45;&gt;com.github.liquidz/antq</title>
<path fill="none" stroke="black" d="M1743.81,-1495.66C1714.87,-1499.99 1683.51,-1504.67 1654.71,-1508.98"/>
<polygon fill="black" stroke="black" points="1654.26,-1505.51 1644.89,-1510.44 1655.3,-1512.43 1654.26,-1505.51"/>
</g>
<!-- automaton&#45;build&#45;app.tasks&#45;helper -->
<g id="node21" class="node">
<title>automaton&#45;build&#45;app.tasks&#45;helper</title>
<g id="a_node21"><a xlink:href="./automaton-build-app.tasks-helper.svg" xlink:title="automaton&#45;build&#45;app.tasks&#45;helper">
<ellipse fill="none" stroke="black" cx="1438.35" cy="-507.39" rx="135.8" ry="18"/>
<text text-anchor="middle" x="1438.35" y="-502.34" font-family="Times,serif" font-size="14.00">automaton&#45;build&#45;app.tasks&#45;helper</text>
</a>
</g>
</g>
<!-- automaton&#45;build&#45;app.tasks&#45;helper&#45;&gt;org.clojure/clojure -->
<g id="edge20" class="edge">
<title>automaton&#45;build&#45;app.tasks&#45;helper&#45;&gt;org.clojure/clojure</title>
<path fill="none" stroke="black" d="M1425.97,-525.72C1370.5,-607.96 1144.31,-943.22 1074.22,-1047.12"/>
<polygon fill="black" stroke="black" points="1071.47,-1044.94 1068.78,-1055.18 1077.27,-1048.85 1071.47,-1044.94"/>
</g>
<!-- automaton&#45;build&#45;app.tasks&#45;helper&#45;&gt;org.clojure/tools.cli -->
<g id="edge21" class="edge">
<title>automaton&#45;build&#45;app.tasks&#45;helper&#45;&gt;org.clojure/tools.cli</title>
<path fill="none" stroke="black" d="M1464.3,-489.44C1537.32,-438.93 1744.95,-295.31 1833.38,-234.15"/>
<polygon fill="black" stroke="black" points="1835.33,-237.06 1841.56,-228.49 1831.35,-231.3 1835.33,-237.06"/>
</g>
<!-- automaton&#45;build&#45;app.tasks&#45;helper&#45;&gt;babashka/fs -->
<g id="edge19" class="edge">
<title>automaton&#45;build&#45;app.tasks&#45;helper&#45;&gt;babashka/fs</title>
<path fill="none" stroke="black" d="M1428.81,-489.22C1390.64,-416.44 1248.48,-145.44 1199.8,-52.65"/>
<polygon fill="black" stroke="black" points="1203.05,-51.3 1195.3,-44.07 1196.85,-54.56 1203.05,-51.3"/>
</g>
<!-- automaton&#45;build&#45;app.utils.namespace -->
<g id="node22" class="node">
<title>automaton&#45;build&#45;app.utils.namespace</title>
<g id="a_node22"><a xlink:href="./automaton-build-app.utils.namespace.svg" xlink:title="automaton&#45;build&#45;app.utils.namespace">
<ellipse fill="none" stroke="black" cx="1261.86" cy="-808.81" rx="150.64" ry="18"/>
<text text-anchor="middle" x="1261.86" y="-803.76" font-family="Times,serif" font-size="14.00">automaton&#45;build&#45;app.utils.namespace</text>
</a>
</g>
</g>
<!-- automaton&#45;build&#45;app.utils.namespace&#45;&gt;org.clojure/clojure -->
<g id="edge11" class="edge">
<title>automaton&#45;build&#45;app.utils.namespace&#45;&gt;org.clojure/clojure</title>
<path fill="none" stroke="black" d="M1247.86,-826.88C1212.75,-872.22 1120.67,-991.12 1077.01,-1047.49"/>
<polygon fill="black" stroke="black" points="1074.47,-1045.05 1071.12,-1055.1 1080.01,-1049.34 1074.47,-1045.05"/>
</g>
<!-- automaton&#45;build&#45;app.file&#45;repo.text&#45;matches -->
<g id="node23" class="node">
<title>automaton&#45;build&#45;app.file&#45;repo.text&#45;matches</title>
<g id="a_node23"><a xlink:href="./automaton-build-app.file-repo.text-matches.svg" xlink:title="automaton&#45;build&#45;app.file&#45;repo.text&#45;matches">
<ellipse fill="none" stroke="black" cx="825.28" cy="-761.89" rx="173.16" ry="18"/>
<text text-anchor="middle" x="825.28" y="-756.84" font-family="Times,serif" font-size="14.00">automaton&#45;build&#45;app.file&#45;repo.text&#45;matches</text>
</a>
</g>
</g>
<!-- automaton&#45;build&#45;app.file&#45;repo.text&#45;matches&#45;&gt;org.clojure/clojure -->
<g id="edge7" class="edge">
<title>automaton&#45;build&#45;app.file&#45;repo.text&#45;matches&#45;&gt;org.clojure/clojure</title>
<path fill="none" stroke="black" d="M838.53,-780.25C876.23,-832.49 984.4,-982.37 1031.29,-1047.33"/>
<polygon fill="black" stroke="black" points="1028.17,-1048.99 1036.86,-1055.05 1033.84,-1044.89 1028.17,-1048.99"/>
</g>
<!-- automaton&#45;build&#45;app.containers.local&#45;engine -->
<g id="node24" class="node">
<title>automaton&#45;build&#45;app.containers.local&#45;engine</title>
<g id="a_node24"><a xlink:href="./automaton-build-app.containers.local-engine.svg" xlink:title="automaton&#45;build&#45;app.containers.local&#45;engine">
<ellipse fill="none" stroke="black" cx="416.45" cy="-1251.55" rx="177.26" ry="18"/>
<text text-anchor="middle" x="416.45" y="-1246.5" font-family="Times,serif" font-size="14.00">automaton&#45;build&#45;app.containers.local&#45;engine</text>
</a>
</g>
</g>
<!-- automaton&#45;build&#45;app.containers.local&#45;engine&#45;&gt;org.clojure/clojure -->
<g id="edge36" class="edge">
<title>automaton&#45;build&#45;app.containers.local&#45;engine&#45;&gt;org.clojure/clojure</title>
<path fill="none" stroke="black" d="M479.85,-1234.27C595.2,-1202.84 839.37,-1136.3 968.78,-1101.03"/>
<polygon fill="black" stroke="black" points="969.61,-1104.43 978.34,-1098.43 967.77,-1097.68 969.61,-1104.43"/>
</g>
<!-- automaton&#45;build&#45;app.cicd.cfg&#45;mgt -->
<g id="node25" class="node">
<title>automaton&#45;build&#45;app.cicd.cfg&#45;mgt</title>
<g id="a_node25"><a xlink:href="./automaton-build-app.cicd.cfg-mgt.svg" xlink:title="automaton&#45;build&#45;app.cicd.cfg&#45;mgt">
<ellipse fill="none" stroke="black" cx="1681.34" cy="-1145.94" rx="138.87" ry="18"/>
<text text-anchor="middle" x="1681.34" y="-1140.89" font-family="Times,serif" font-size="14.00">automaton&#45;build&#45;app.cicd.cfg&#45;mgt</text>
</a>
</g>
</g>
<!-- automaton&#45;build&#45;app.cicd.cfg&#45;mgt&#45;&gt;org.clojure/clojure -->
<g id="edge17" class="edge">
<title>automaton&#45;build&#45;app.cicd.cfg&#45;mgt&#45;&gt;org.clojure/clojure</title>
<path fill="none" stroke="black" d="M1573.39,-1134.25C1450.84,-1120.99 1253.3,-1099.61 1140.26,-1087.37"/>
<polygon fill="black" stroke="black" points="1140.74,-1083.9 1130.42,-1086.31 1139.99,-1090.86 1140.74,-1083.9"/>
</g>
<!-- automaton&#45;build&#45;app.tasks.container&#45;publication -->
<g id="node26" class="node">
<title>automaton&#45;build&#45;app.tasks.container&#45;publication</title>
<g id="a_node26"><a xlink:href="./automaton-build-app.tasks.container-publication.svg" xlink:title="automaton&#45;build&#45;app.tasks.container&#45;publication">
<ellipse fill="none" stroke="black" cx="1575.39" cy="-1326.96" rx="191.08" ry="18"/>
<text text-anchor="middle" x="1575.39" y="-1321.91" font-family="Times,serif" font-size="14.00">automaton&#45;build&#45;app.tasks.container&#45;publication</text>
</a>
</g>
</g>
<!-- automaton&#45;build&#45;app.tasks.container&#45;publication&#45;&gt;org.clojure/clojure -->
<g id="edge3" class="edge">
<title>automaton&#45;build&#45;app.tasks.container&#45;publication&#45;&gt;org.clojure/clojure</title>
<path fill="none" stroke="black" d="M1537.43,-1308.85C1446.38,-1265.43 1215.28,-1155.19 1108.74,-1104.37"/>
<polygon fill="black" stroke="black" points="1110.42,-1101.29 1099.89,-1100.15 1107.41,-1107.61 1110.42,-1101.29"/>
</g>
<!-- automaton&#45;build&#45;app.file&#45;repo.raw.impl -->
<g id="node27" class="node">
<title>automaton&#45;build&#45;app.file&#45;repo.raw.impl</title>
<g id="a_node27"><a xlink:href="./automaton-build-app.file-repo.raw.impl.svg" xlink:title="automaton&#45;build&#45;app.file&#45;repo.raw.impl">
<ellipse fill="none" stroke="black" cx="1021.63" cy="-1673.83" rx="158.83" ry="18"/>
<text text-anchor="middle" x="1021.63" y="-1668.78" font-family="Times,serif" font-size="14.00">automaton&#45;build&#45;app.file&#45;repo.raw.impl</text>
</a>
</g>
</g>
<!-- automaton&#45;build&#45;app.file&#45;repo.raw.impl&#45;&gt;org.clojure/clojure -->
<g id="edge10" class="edge">
<title>automaton&#45;build&#45;app.file&#45;repo.raw.impl&#45;&gt;org.clojure/clojure</title>
<path fill="none" stroke="black" d="M1022.61,-1655.34C1027.12,-1570.81 1045.8,-1220.45 1051.65,-1110.88"/>
<polygon fill="black" stroke="black" points="1055.13,-1111.28 1052.17,-1101.11 1048.14,-1110.91 1055.13,-1111.28"/>
</g>
<!-- automaton&#45;build&#45;app.configuration.edn&#45;read -->
<g id="node28" class="node">
<title>automaton&#45;build&#45;app.configuration.edn&#45;read</title>
<g id="a_node28"><a xlink:href="./automaton-build-app.configuration.edn-read.svg" xlink:title="automaton&#45;build&#45;app.configuration.edn&#45;read">
<ellipse fill="none" stroke="black" cx="1118.79" cy="-522.89" rx="175.72" ry="18"/>
<text text-anchor="middle" x="1118.79" y="-517.84" font-family="Times,serif" font-size="14.00">automaton&#45;build&#45;app.configuration.edn&#45;read</text>
</a>
</g>
</g>
<!-- automaton&#45;build&#45;app.configuration.edn&#45;read&#45;&gt;org.clojure/clojure -->
<g id="edge2" class="edge">
<title>automaton&#45;build&#45;app.configuration.edn&#45;read&#45;&gt;org.clojure/clojure</title>
<path fill="none" stroke="black" d="M1116.62,-541.36C1107.15,-621.7 1069.49,-941.39 1057.26,-1045.22"/>
<polygon fill="black" stroke="black" points="1053.8,-1044.67 1056.11,-1055.01 1060.75,-1045.48 1053.8,-1044.67"/>
</g>
<!-- automaton&#45;build&#45;app.configuration.edn&#45;read&#45;&gt;babashka/fs -->
<g id="edge1" class="edge">
<title>automaton&#45;build&#45;app.configuration.edn&#45;read&#45;&gt;babashka/fs</title>
<path fill="none" stroke="black" d="M1121.17,-504.44C1130.75,-429.94 1166.68,-150.66 1179.08,-54.23"/>
<polygon fill="black" stroke="black" points="1182.54,-54.76 1180.35,-44.39 1175.6,-53.87 1182.54,-54.76"/>
</g>
<!-- automaton&#45;build&#45;app.code&#45;helpers.formatter -->
<g id="node29" class="node">
<title>automaton&#45;build&#45;app.code&#45;helpers.formatter</title>
<g id="a_node29"><a xlink:href="./automaton-build-app.code-helpers.formatter.svg" xlink:title="automaton&#45;build&#45;app.code&#45;helpers.formatter">
<ellipse fill="none" stroke="black" cx="1596.35" cy="-801.86" rx="175.72" ry="18"/>
<text text-anchor="middle" x="1596.35" y="-796.81" font-family="Times,serif" font-size="14.00">automaton&#45;build&#45;app.code&#45;helpers.formatter</text>
</a>
</g>
</g>
<!-- automaton&#45;build&#45;app.code&#45;helpers.formatter&#45;&gt;org.clojure/clojure -->
<g id="edge15" class="edge">
<title>automaton&#45;build&#45;app.code&#45;helpers.formatter&#45;&gt;org.clojure/clojure</title>
<path fill="none" stroke="black" d="M1560.72,-819.97C1467.48,-867.39 1215.86,-995.35 1105.96,-1051.24"/>
<polygon fill="black" stroke="black" points="1104.46,-1048.08 1097.13,-1055.73 1107.63,-1054.32 1104.46,-1048.08"/>
</g>
<!-- automaton&#45;build&#45;app.repl -->
<g id="node30" class="node">
<title>automaton&#45;build&#45;app.repl</title>
<g id="a_node30"><a xlink:href="./automaton-build-app.repl.svg" xlink:title="automaton&#45;build&#45;app.repl">
<ellipse fill="none" stroke="black" cx="2004.77" cy="-878" rx="105.6" ry="18"/>
<text text-anchor="middle" x="2004.77" y="-872.95" font-family="Times,serif" font-size="14.00">automaton&#45;build&#45;app.repl</text>
</a>
</g>
</g>
<!-- automaton&#45;build&#45;app.repl&#45;&gt;org.clojure/core.async -->
<g id="edge5" class="edge">
<title>automaton&#45;build&#45;app.repl&#45;&gt;org.clojure/core.async</title>
<path fill="none" stroke="black" d="M1924.33,-890.02C1917.24,-891.08 1910.02,-892.16 1902.82,-893.23"/>
<polygon fill="black" stroke="black" points="1902.4,-889.76 1893.03,-894.7 1903.43,-896.68 1902.4,-889.76"/>
</g>
<!-- automaton&#45;build&#45;app.cicd.version -->
<g id="node31" class="node">
<title>automaton&#45;build&#45;app.cicd.version</title>
<g id="a_node31"><a xlink:href="./automaton-build-app.cicd.version.svg" xlink:title="automaton&#45;build&#45;app.cicd.version">
<ellipse fill="none" stroke="black" cx="566.31" cy="-448" rx="136.31" ry="18"/>
<text text-anchor="middle" x="566.31" y="-442.95" font-family="Times,serif" font-size="14.00">automaton&#45;build&#45;app.cicd.version</text>
</a>
</g>
</g>
<!-- automaton&#45;build&#45;app.cicd.version&#45;&gt;io.github.clojure/tools.build -->
<g id="edge16" class="edge">
<title>automaton&#45;build&#45;app.cicd.version&#45;&gt;io.github.clojure/tools.build</title>
<path fill="none" stroke="black" d="M572.77,-466.38C573.36,-468.06 573.96,-469.79 574.58,-471.54"/>
<polygon fill="black" stroke="black" points="571.27,-472.68 577.89,-480.96 577.88,-470.36 571.27,-472.68"/>
</g>
<!-- automaton&#45;build&#45;app.doc.markdown -->
<g id="node32" class="node">
<title>automaton&#45;build&#45;app.doc.markdown</title>
<g id="a_node32"><a xlink:href="./automaton-build-app.doc.markdown.svg" xlink:title="automaton&#45;build&#45;app.doc.markdown">
<ellipse fill="none" stroke="black" cx="572.03" cy="-1564.56" rx="147.06" ry="18"/>
<text text-anchor="middle" x="572.03" y="-1559.51" font-family="Times,serif" font-size="14.00">automaton&#45;build&#45;app.doc.markdown</text>
</a>
</g>
</g>
<!-- automaton&#45;build&#45;app.doc.markdown&#45;&gt;org.clojure/clojure -->
<g id="edge27" class="edge">
<title>automaton&#45;build&#45;app.doc.markdown&#45;&gt;org.clojure/clojure</title>
<path fill="none" stroke="black" d="M590.02,-1546.37C662.6,-1473 934.24,-1198.42 1024.24,-1107.45"/>
<polygon fill="black" stroke="black" points="1026.51,-1110.13 1031.06,-1100.56 1021.54,-1105.2 1026.51,-1110.13"/>
</g>
<!-- automaton&#45;build&#45;app.doc.markdown&#45;&gt;markdown&#45;clj/markdown&#45;clj -->
<g id="edge28" class="edge">
<title>automaton&#45;build&#45;app.doc.markdown&#45;&gt;markdown&#45;clj/markdown&#45;clj</title>
<path fill="none" stroke="black" d="M554.05,-1582.79C494.38,-1643.31 302.54,-1837.87 228.61,-1912.86"/>
<polygon fill="black" stroke="black" points="226.19,-1910.32 221.66,-1919.9 231.18,-1915.24 226.19,-1910.32"/>
</g>
<!-- automaton&#45;build&#45;app.file&#45;repo.clj&#45;code -->
<g id="node33" class="node">
<title>automaton&#45;build&#45;app.file&#45;repo.clj&#45;code</title>
<g id="a_node33"><a xlink:href="./automaton-build-app.file-repo.clj-code.svg" xlink:title="automaton&#45;build&#45;app.file&#45;repo.clj&#45;code">
<ellipse fill="none" stroke="black" cx="757.05" cy="-1275.94" rx="155.25" ry="18"/>
<text text-anchor="middle" x="757.05" y="-1270.89" font-family="Times,serif" font-size="14.00">automaton&#45;build&#45;app.file&#45;repo.clj&#45;code</text>
</a>
</g>
</g>
<!-- automaton&#45;build&#45;app.file&#45;repo.clj&#45;code&#45;&gt;org.clojure/clojure -->
<g id="edge9" class="edge">
<title>automaton&#45;build&#45;app.file&#45;repo.clj&#45;code&#45;&gt;org.clojure/clojure</title>
<path fill="none" stroke="black" d="M784.14,-1257.85C836.08,-1223.14 950.02,-1147.03 1011.72,-1105.82"/>
<polygon fill="black" stroke="black" points="1013.53,-1108.82 1019.9,-1100.35 1009.64,-1103 1013.53,-1108.82"/>
</g>
<!-- automaton&#45;build&#45;app.os.commands -->
<g id="node34" class="node">
<title>automaton&#45;build&#45;app.os.commands</title>
<g id="a_node34"><a xlink:href="./automaton-build-app.os.commands.svg" xlink:title="automaton&#45;build&#45;app.os.commands">
<ellipse fill="none" stroke="black" cx="1348.17" cy="-1674.49" rx="142.97" ry="18"/>
<text text-anchor="middle" x="1348.17" y="-1669.44" font-family="Times,serif" font-size="14.00">automaton&#45;build&#45;app.os.commands</text>
</a>
</g>
</g>
<!-- automaton&#45;build&#45;app.os.commands&#45;&gt;org.clojure/clojure -->
<g id="edge30" class="edge">
<title>automaton&#45;build&#45;app.os.commands&#45;&gt;org.clojure/clojure</title>
<path fill="none" stroke="black" d="M1339.19,-1656.31C1297.54,-1572.02 1122.97,-1218.76 1069.22,-1109.99"/>
<polygon fill="black" stroke="black" points="1072.36,-1108.44 1064.79,-1101.02 1066.08,-1111.54 1072.36,-1108.44"/>
</g>
<!-- automaton&#45;build&#45;app.os.commands&#45;&gt;babashka/process -->
<g id="edge29" class="edge">
<title>automaton&#45;build&#45;app.os.commands&#45;&gt;babashka/process</title>
<path fill="none" stroke="black" d="M1362.07,-1692.76C1412.37,-1758.88 1585.25,-1986.16 1648.34,-2069.09"/>
<polygon fill="black" stroke="black" points="1645.37,-2070.98 1654.21,-2076.82 1650.94,-2066.74 1645.37,-2070.98"/>
</g>
<!-- automaton&#45;build&#45;app.os.pdf -->
<g id="node35" class="node">
<title>automaton&#45;build&#45;app.os.pdf</title>
<g id="a_node35"><a xlink:href="./automaton-build-app.os.pdf.svg" xlink:title="automaton&#45;build&#45;app.os.pdf">
<ellipse fill="none" stroke="black" cx="562.06" cy="-630.9" rx="114.3" ry="18"/>
<text text-anchor="middle" x="562.06" y="-625.85" font-family="Times,serif" font-size="14.00">automaton&#45;build&#45;app.os.pdf</text>
</a>
</g>
</g>
<!-- automaton&#45;build&#45;app.os.pdf&#45;&gt;org.clojure/clojure -->
<g id="edge32" class="edge">
<title>automaton&#45;build&#45;app.os.pdf&#45;&gt;org.clojure/clojure</title>
<path fill="none" stroke="black" d="M581.93,-648.98C657.5,-717.74 927.47,-963.39 1021.13,-1048.6"/>
<polygon fill="black" stroke="black" points="1018.76,-1051.18 1028.51,-1055.32 1023.47,-1046 1018.76,-1051.18"/>
</g>
<!-- automaton&#45;build&#45;app.os.pdf&#45;&gt;clj&#45;htmltopdf/clj&#45;htmltopdf -->
<g id="edge31" class="edge">
<title>automaton&#45;build&#45;app.os.pdf&#45;&gt;clj&#45;htmltopdf/clj&#45;htmltopdf</title>
<path fill="none" stroke="black" d="M533.45,-612.99C455.19,-564.01 237.18,-427.56 143.16,-368.71"/>
<polygon fill="black" stroke="black" points="145.27,-365.91 134.94,-363.57 141.56,-371.84 145.27,-365.91"/>
</g>
<!-- automaton&#45;build&#45;app.code&#45;helpers.code&#45;stats -->
<g id="node36" class="node">
<title>automaton&#45;build&#45;app.code&#45;helpers.code&#45;stats</title>
<g id="a_node36"><a xlink:href="./automaton-build-app.code-helpers.code-stats.svg" xlink:title="automaton&#45;build&#45;app.code&#45;helpers.code&#45;stats">
<ellipse fill="none" stroke="black" cx="468.48" cy="-1043.02" rx="177.77" ry="18"/>
<text text-anchor="middle" x="468.48" y="-1037.97" font-family="Times,serif" font-size="14.00">automaton&#45;build&#45;app.code&#45;helpers.code&#45;stats</text>
</a>
</g>
</g>
<!-- automaton&#45;build&#45;app.code&#45;helpers.code&#45;stats&#45;&gt;org.clojure/clojure -->
<g id="edge13" class="edge">
<title>automaton&#45;build&#45;app.code&#45;helpers.code&#45;stats&#45;&gt;org.clojure/clojure</title>
<path fill="none" stroke="black" d="M622.93,-1052.25C732.64,-1058.8 875.97,-1067.37 966.38,-1072.77"/>
<polygon fill="black" stroke="black" points="965.98,-1076.25 976.17,-1073.36 966.4,-1069.27 965.98,-1076.25"/>
</g>
<!-- automaton&#45;build&#45;app.doc.blog -->
<g id="node37" class="node">
<title>automaton&#45;build&#45;app.doc.blog</title>
<g id="a_node37"><a xlink:href="./automaton-build-app.doc.blog.svg" xlink:title="automaton&#45;build&#45;app.doc.blog">
<ellipse fill="none" stroke="black" cx="1151.58" cy="-1434.91" rx="123.52" ry="18"/>
<text text-anchor="middle" x="1151.58" y="-1429.86" font-family="Times,serif" font-size="14.00">automaton&#45;build&#45;app.doc.blog</text>
</a>
</g>
</g>
<!-- automaton&#45;build&#45;app.doc.blog&#45;&gt;org.clojure/clojure -->
<g id="edge23" class="edge">
<title>automaton&#45;build&#45;app.doc.blog&#45;&gt;org.clojure/clojure</title>
<path fill="none" stroke="black" d="M1146.58,-1416.72C1130.89,-1359.68 1082.5,-1183.77 1062.35,-1110.52"/>
<polygon fill="black" stroke="black" points="1065.8,-1109.85 1059.77,-1101.13 1059.05,-1111.7 1065.8,-1109.85"/>
</g>
<!-- automaton&#45;build&#45;app.cicd.server -->
<g id="node38" class="node">
<title>automaton&#45;build&#45;app.cicd.server</title>
<g id="a_node38"><a xlink:href="./automaton-build-app.cicd.server.svg" xlink:title="automaton&#45;build&#45;app.cicd.server">
<ellipse fill="none" stroke="black" cx="1414.83" cy="-1435.45" rx="131.71" ry="18"/>
<text text-anchor="middle" x="1414.83" y="-1430.4" font-family="Times,serif" font-size="14.00">automaton&#45;build&#45;app.cicd.server</text>
</a>
</g>
</g>
<!-- automaton&#45;build&#45;app.cicd.server&#45;&gt;org.clojure/clojure -->
<g id="edge18" class="edge">
<title>automaton&#45;build&#45;app.cicd.server&#45;&gt;org.clojure/clojure</title>
<path fill="none" stroke="black" d="M1396.41,-1417.23C1337.82,-1359.28 1155.38,-1178.83 1083.21,-1107.46"/>
<polygon fill="black" stroke="black" points="1086.02,-1105.31 1076.45,-1100.77 1081.1,-1110.29 1086.02,-1105.31"/>
</g>
<!-- automaton&#45;build&#45;app.file&#45;repo.text -->
<g id="node39" class="node">
<title>automaton&#45;build&#45;app.file&#45;repo.text</title>
<g id="a_node39"><a xlink:href="./automaton-build-app.file-repo.text.svg" xlink:title="automaton&#45;build&#45;app.file&#45;repo.text">
<ellipse fill="none" stroke="black" cx="866.58" cy="-1533.91" rx="139.38" ry="18"/>
<text text-anchor="middle" x="866.58" y="-1528.86" font-family="Times,serif" font-size="14.00">automaton&#45;build&#45;app.file&#45;repo.text</text>
</a>
</g>
</g>
<!-- automaton&#45;build&#45;app.file&#45;repo.text&#45;&gt;org.clojure/clojure -->
<g id="edge8" class="edge">
<title>automaton&#45;build&#45;app.file&#45;repo.text&#45;&gt;org.clojure/clojure</title>
<path fill="none" stroke="black" d="M874.14,-1515.47C902.65,-1445.9 1003.92,-1198.73 1040.28,-1109.99"/>
<polygon fill="black" stroke="black" points="1043.46,-1111.48 1044.01,-1100.9 1036.98,-1108.82 1043.46,-1111.48"/>
</g>
<!-- automaton&#45;build&#45;app.doc.code&#45;doc -->
<g id="node40" class="node">
<title>automaton&#45;build&#45;app.doc.code&#45;doc</title>
<g id="a_node40"><a xlink:href="./automaton-build-app.doc.code-doc.svg" xlink:title="automaton&#45;build&#45;app.doc.code&#45;doc">
<ellipse fill="none" stroke="black" cx="1791.87" cy="-585.16" rx="140.92" ry="18"/>
<text text-anchor="middle" x="1791.87" y="-580.11" font-family="Times,serif" font-size="14.00">automaton&#45;build&#45;app.doc.code&#45;doc</text>
</a>
</g>
</g>
<!-- automaton&#45;build&#45;app.doc.code&#45;doc&#45;&gt;io.github.clojure/tools.deps.graph -->
<g id="edge25" class="edge">
<title>automaton&#45;build&#45;app.doc.code&#45;doc&#45;&gt;io.github.clojure/tools.deps.graph</title>
<path fill="none" stroke="black" d="M1745.24,-602.48C1741.4,-603.91 1737.47,-605.37 1733.51,-606.84"/>
<polygon fill="black" stroke="black" points="1732.59,-603.45 1724.43,-610.21 1735.02,-610.01 1732.59,-603.45"/>
</g>
<!-- automaton&#45;build&#45;app.doc.code&#45;doc&#45;&gt;codox/codox -->
<g id="edge26" class="edge">
<title>automaton&#45;build&#45;app.doc.code&#45;doc&#45;&gt;codox/codox</title>
<path fill="none" stroke="black" d="M1814.19,-603.31C1828.14,-614.65 1846.4,-629.5 1862.24,-642.37"/>
<polygon fill="black" stroke="black" points="1859.6,-644.74 1869.57,-648.33 1864.02,-639.31 1859.6,-644.74"/>
</g>
<!-- automaton&#45;build&#45;app.doc.code&#45;doc&#45;&gt;io.dominic/vizns -->
<g id="edge24" class="edge">
<title>automaton&#45;build&#45;app.doc.code&#45;doc&#45;&gt;io.dominic/vizns</title>
<path fill="none" stroke="black" d="M1794.89,-566.82C1798.38,-545.57 1804.21,-510.16 1808.5,-484.12"/>
<polygon fill="black" stroke="black" points="1811.93,-484.83 1810.1,-474.4 1805.02,-483.7 1811.93,-484.83"/>
</g>
<!-- automaton&#45;build&#45;app.os.files -->
<g id="node41" class="node">
<title>automaton&#45;build&#45;app.os.files</title>
<g id="a_node41"><a xlink:href="./automaton-build-app.os.files.svg" xlink:title="automaton&#45;build&#45;app.os.files">
<ellipse fill="none" stroke="black" cx="906.9" cy="-478.86" rx="117.89" ry="18"/>
<text text-anchor="middle" x="906.9" y="-473.81" font-family="Times,serif" font-size="14.00">automaton&#45;build&#45;app.os.files</text>
</a>
</g>
</g>
<!-- automaton&#45;build&#45;app.os.files&#45;&gt;org.clojure/clojure -->
<g id="edge35" class="edge">
<title>automaton&#45;build&#45;app.os.files&#45;&gt;org.clojure/clojure</title>
<path fill="none" stroke="black" d="M911.36,-497.12C932.04,-581.7 1018.67,-935.94 1045.47,-1045.52"/>
<polygon fill="black" stroke="black" points="1042.02,-1046.15 1047.79,-1055.03 1048.82,-1044.49 1042.02,-1046.15"/>
</g>
<!-- automaton&#45;build&#45;app.os.files&#45;&gt;babashka/fs -->
<g id="edge34" class="edge">
<title>automaton&#45;build&#45;app.os.files&#45;&gt;babashka/fs</title>
<path fill="none" stroke="black" d="M917.9,-460.64C959.97,-391 1110.88,-141.17 1164.37,-52.63"/>
<polygon fill="black" stroke="black" points="1167.29,-54.56 1169.47,-44.19 1161.3,-50.94 1167.29,-54.56"/>
</g>
</g>
</svg>
