<?xml version="1.0" encoding="UTF-8" standalone="no"?>
<!DOCTYPE svg PUBLIC "-//W3C//DTD SVG 1.1//EN"
 "http://www.w3.org/Graphics/SVG/1.1/DTD/svg11.dtd">
<!-- Generated by graphviz version 9.0.0 (20230911.1827)
 -->
<!-- Pages: 1 -->
<svg width="2647pt" height="1942pt"
 viewBox="0.00 0.00 2647.47 1941.98" xmlns="http://www.w3.org/2000/svg" xmlns:xlink="http://www.w3.org/1999/xlink">
<g id="graph0" class="graph" transform="scale(1 1) rotate(0) translate(4 1937.98)">
<polygon fill="white" stroke="none" points="-4,4 -4,-1937.98 2643.47,-1937.98 2643.47,4 -4,4"/>
<!-- org.clojure/clojure -->
<g id="node1" class="node">
<title>org.clojure/clojure</title>
<g id="a_node1"><a xlink:href="./org.clojure__clojure.svg" xlink:title="org.clojure/clojure">
<path fill="green" stroke="black" d="M1286.54,-885.25C1286.54,-887.39 1252.72,-889.12 1211.09,-889.12 1169.46,-889.12 1135.64,-887.39 1135.64,-885.25 1135.64,-885.25 1135.64,-850.49 1135.64,-850.49 1135.64,-848.36 1169.46,-846.63 1211.09,-846.63 1252.72,-846.63 1286.54,-848.36 1286.54,-850.49 1286.54,-850.49 1286.54,-885.25 1286.54,-885.25"/>
<path fill="none" stroke="black" d="M1286.54,-885.25C1286.54,-883.12 1252.72,-881.39 1211.09,-881.39 1169.46,-881.39 1135.64,-883.12 1135.64,-885.25"/>
<text text-anchor="middle" x="1211.09" y="-862.82" font-family="Times,serif" font-size="14.00">org.clojure/clojure</text>
</a>
</g>
</g>
<!-- org.clojure/tools.cli -->
<g id="node2" class="node">
<title>org.clojure/tools.cli</title>
<g id="a_node2"><a xlink:href="./org.clojure__tools.cli.svg" xlink:title="org.clojure/tools.cli">
<path fill="red" stroke="black" d="M2639.47,-1245.4C2639.47,-1247.53 2604.3,-1249.26 2561.02,-1249.26 2517.73,-1249.26 2482.57,-1247.53 2482.57,-1245.4 2482.57,-1245.4 2482.57,-1210.64 2482.57,-1210.64 2482.57,-1208.51 2517.73,-1206.78 2561.02,-1206.78 2604.3,-1206.78 2639.47,-1208.51 2639.47,-1210.64 2639.47,-1210.64 2639.47,-1245.4 2639.47,-1245.4"/>
<path fill="none" stroke="black" d="M2639.47,-1245.4C2639.47,-1243.27 2604.3,-1241.54 2561.02,-1241.54 2517.73,-1241.54 2482.57,-1243.27 2482.57,-1245.4"/>
<text text-anchor="middle" x="2561.02" y="-1222.97" font-family="Times,serif" font-size="14.00">org.clojure/tools.cli</text>
</a>
</g>
</g>
<!-- clj&#45;htmltopdf/clj&#45;htmltopdf -->
<g id="node3" class="node">
<title>clj&#45;htmltopdf/clj&#45;htmltopdf</title>
<g id="a_node3"><a xlink:href="./clj-htmltopdf.svg" xlink:title="clj&#45;htmltopdf/clj&#45;htmltopdf">
<path fill="green" stroke="black" d="M198.15,-38.62C198.15,-40.76 153.74,-42.49 99.08,-42.49 44.41,-42.49 0,-40.76 0,-38.62 0,-38.62 0,-3.86 0,-3.86 0,-1.73 44.41,0 99.08,0 153.74,0 198.15,-1.73 198.15,-3.86 198.15,-3.86 198.15,-38.62 198.15,-38.62"/>
<path fill="none" stroke="black" d="M198.15,-38.62C198.15,-36.49 153.74,-34.76 99.08,-34.76 44.41,-34.76 0,-36.49 0,-38.62"/>
<text text-anchor="middle" x="99.08" y="-16.19" font-family="Times,serif" font-size="14.00">clj&#45;htmltopdf/clj&#45;htmltopdf</text>
</a>
</g>
</g>
<!-- markdown&#45;clj/markdown&#45;clj -->
<g id="node4" class="node">
<title>markdown&#45;clj/markdown&#45;clj</title>
<g id="a_node4"><a xlink:href="./markdown-clj.svg" xlink:title="markdown&#45;clj/markdown&#45;clj">
<path fill="green" stroke="black" d="M2055.15,-1046.61C2055.15,-1048.75 2008.73,-1050.48 1951.57,-1050.48 1894.42,-1050.48 1848,-1048.75 1848,-1046.61 1848,-1046.61 1848,-1011.85 1848,-1011.85 1848,-1009.72 1894.42,-1007.99 1951.57,-1007.99 2008.73,-1007.99 2055.15,-1009.72 2055.15,-1011.85 2055.15,-1011.85 2055.15,-1046.61 2055.15,-1046.61"/>
<path fill="none" stroke="black" d="M2055.15,-1046.61C2055.15,-1044.48 2008.73,-1042.75 1951.57,-1042.75 1894.42,-1042.75 1848,-1044.48 1848,-1046.61"/>
<text text-anchor="middle" x="1951.57" y="-1024.18" font-family="Times,serif" font-size="14.00">markdown&#45;clj/markdown&#45;clj</text>
</a>
</g>
</g>
<!-- hiccup/hiccup -->
<g id="node5" class="node">
<title>hiccup/hiccup</title>
<g id="a_node5"><a xlink:href="./hiccup.svg" xlink:title="hiccup/hiccup">
<path fill="green" stroke="black" d="M2150.15,-592.61C2150.15,-594.74 2121.88,-596.47 2087.07,-596.47 2052.27,-596.47 2024,-594.74 2024,-592.61 2024,-592.61 2024,-557.85 2024,-557.85 2024,-555.72 2052.27,-553.99 2087.07,-553.99 2121.88,-553.99 2150.15,-555.72 2150.15,-557.85 2150.15,-557.85 2150.15,-592.61 2150.15,-592.61"/>
<path fill="none" stroke="black" d="M2150.15,-592.61C2150.15,-590.48 2121.88,-588.75 2087.07,-588.75 2052.27,-588.75 2024,-590.48 2024,-592.61"/>
<text text-anchor="middle" x="2087.07" y="-570.18" font-family="Times,serif" font-size="14.00">hiccup/hiccup</text>
</a>
</g>
</g>
<!-- metosin/malli -->
<g id="node6" class="node">
<title>metosin/malli</title>
<g id="a_node6"><a xlink:href="./metosin__malli.svg" xlink:title="metosin/malli">
<path fill="green" stroke="black" d="M742.15,-1735.85C742.15,-1737.98 713.88,-1739.71 679.07,-1739.71 644.27,-1739.71 616,-1737.98 616,-1735.85 616,-1735.85 616,-1701.08 616,-1701.08 616,-1698.95 644.27,-1697.22 679.07,-1697.22 713.88,-1697.22 742.15,-1698.95 742.15,-1701.08 742.15,-1701.08 742.15,-1735.85 742.15,-1735.85"/>
<path fill="none" stroke="black" d="M742.15,-1735.85C742.15,-1733.71 713.88,-1731.98 679.07,-1731.98 644.27,-1731.98 616,-1733.71 616,-1735.85"/>
<text text-anchor="middle" x="679.07" y="-1713.41" font-family="Times,serif" font-size="14.00">metosin/malli</text>
</a>
</g>
</g>
<!-- babashka/process -->
<g id="node7" class="node">
<title>babashka/process</title>
<g id="a_node7"><a xlink:href="./babashka__process.svg" xlink:title="babashka/process">
<path fill="green" stroke="black" d="M207.11,-1798.27C207.11,-1800.4 174.63,-1802.13 134.66,-1802.13 94.68,-1802.13 62.21,-1800.4 62.21,-1798.27 62.21,-1798.27 62.21,-1763.51 62.21,-1763.51 62.21,-1761.38 94.68,-1759.64 134.66,-1759.64 174.63,-1759.64 207.11,-1761.38 207.11,-1763.51 207.11,-1763.51 207.11,-1798.27 207.11,-1798.27"/>
<path fill="none" stroke="black" d="M207.11,-1798.27C207.11,-1796.14 174.63,-1794.41 134.66,-1794.41 94.68,-1794.41 62.21,-1796.14 62.21,-1798.27"/>
<text text-anchor="middle" x="134.66" y="-1775.84" font-family="Times,serif" font-size="14.00">babashka/process</text>
</a>
</g>
</g>
<!-- io.github.clojure/tools.deps.graph -->
<g id="node8" class="node">
<title>io.github.clojure/tools.deps.graph</title>
<g id="a_node8"><a xlink:href="./io.github.clojure__tools.deps.graph.svg" xlink:title="io.github.clojure/tools.deps.graph">
<path fill="green" stroke="black" d="M1113.4,-1891.79C1113.4,-1893.92 1061.09,-1895.65 996.7,-1895.65 932.31,-1895.65 880,-1893.92 880,-1891.79 880,-1891.79 880,-1857.02 880,-1857.02 880,-1854.89 932.31,-1853.16 996.7,-1853.16 1061.09,-1853.16 1113.4,-1854.89 1113.4,-1857.02 1113.4,-1857.02 1113.4,-1891.79 1113.4,-1891.79"/>
<path fill="none" stroke="black" d="M1113.4,-1891.79C1113.4,-1889.66 1061.09,-1887.92 996.7,-1887.92 932.31,-1887.92 880,-1889.66 880,-1891.79"/>
<text text-anchor="middle" x="996.7" y="-1869.36" font-family="Times,serif" font-size="14.00">io.github.clojure/tools.deps.graph</text>
</a>
</g>
</g>
<!-- com.github.liquidz/antq -->
<g id="node9" class="node">
<title>com.github.liquidz/antq</title>
<g id="a_node9"><a xlink:href="./com.github.liquidz__antq.svg" xlink:title="com.github.liquidz/antq">
<path fill="green" stroke="black" d="M2116.9,-343.64C2116.9,-345.77 2076.36,-347.5 2026.45,-347.5 1976.54,-347.5 1936,-345.77 1936,-343.64 1936,-343.64 1936,-308.87 1936,-308.87 1936,-306.74 1976.54,-305.01 2026.45,-305.01 2076.36,-305.01 2116.9,-306.74 2116.9,-308.87 2116.9,-308.87 2116.9,-343.64 2116.9,-343.64"/>
<path fill="none" stroke="black" d="M2116.9,-343.64C2116.9,-341.51 2076.36,-339.77 2026.45,-339.77 1976.54,-339.77 1936,-341.51 1936,-343.64"/>
<text text-anchor="middle" x="2026.45" y="-321.21" font-family="Times,serif" font-size="14.00">com.github.liquidz/antq</text>
</a>
</g>
</g>
<!-- codox/codox -->
<g id="node10" class="node">
<title>codox/codox</title>
<g id="a_node10"><a xlink:href="./codox.svg" xlink:title="codox/codox">
<path fill="green" stroke="black" d="M1289.2,-1930.12C1289.2,-1932.25 1262.27,-1933.98 1229.12,-1933.98 1195.97,-1933.98 1169.05,-1932.25 1169.05,-1930.12 1169.05,-1930.12 1169.05,-1895.35 1169.05,-1895.35 1169.05,-1893.22 1195.97,-1891.49 1229.12,-1891.49 1262.27,-1891.49 1289.2,-1893.22 1289.2,-1895.35 1289.2,-1895.35 1289.2,-1930.12 1289.2,-1930.12"/>
<path fill="none" stroke="black" d="M1289.2,-1930.12C1289.2,-1927.98 1262.27,-1926.25 1229.12,-1926.25 1195.97,-1926.25 1169.05,-1927.98 1169.05,-1930.12"/>
<text text-anchor="middle" x="1229.12" y="-1907.68" font-family="Times,serif" font-size="14.00">codox/codox</text>
</a>
</g>
</g>
<!-- io.github.clojure/tools.build -->
<g id="node11" class="node">
<title>io.github.clojure/tools.build</title>
<g id="a_node11"><a xlink:href="./io.github.clojure__tools.build.svg" xlink:title="io.github.clojure/tools.build">
<path fill="green" stroke="black" d="M2368.98,-1499.51C2368.98,-1501.64 2323.73,-1503.37 2268.03,-1503.37 2212.32,-1503.37 2167.08,-1501.64 2167.08,-1499.51 2167.08,-1499.51 2167.08,-1464.74 2167.08,-1464.74 2167.08,-1462.61 2212.32,-1460.88 2268.03,-1460.88 2323.73,-1460.88 2368.98,-1462.61 2368.98,-1464.74 2368.98,-1464.74 2368.98,-1499.51 2368.98,-1499.51"/>
<path fill="none" stroke="black" d="M2368.98,-1499.51C2368.98,-1497.37 2323.73,-1495.64 2268.03,-1495.64 2212.32,-1495.64 2167.08,-1497.37 2167.08,-1499.51"/>
<text text-anchor="middle" x="2268.03" y="-1477.07" font-family="Times,serif" font-size="14.00">io.github.clojure/tools.build</text>
</a>
</g>
</g>
<!-- io.dominic/vizns -->
<g id="node12" class="node">
<title>io.dominic/vizns</title>
<g id="a_node12"><a xlink:href="./io.dominic__vizns.svg" xlink:title="io.dominic/vizns">
<path fill="green" stroke="black" d="M1216.86,-1710.62C1216.86,-1712.76 1185.06,-1714.49 1145.91,-1714.49 1106.76,-1714.49 1074.96,-1712.76 1074.96,-1710.62 1074.96,-1710.62 1074.96,-1675.86 1074.96,-1675.86 1074.96,-1673.73 1106.76,-1672 1145.91,-1672 1185.06,-1672 1216.86,-1673.73 1216.86,-1675.86 1216.86,-1675.86 1216.86,-1710.62 1216.86,-1710.62"/>
<path fill="none" stroke="black" d="M1216.86,-1710.62C1216.86,-1708.49 1185.06,-1706.76 1145.91,-1706.76 1106.76,-1706.76 1074.96,-1708.49 1074.96,-1710.62"/>
<text text-anchor="middle" x="1145.91" y="-1688.19" font-family="Times,serif" font-size="14.00">io.dominic/vizns</text>
</a>
</g>
</g>
<!-- babashka/fs -->
<g id="node13" class="node">
<title>babashka/fs</title>
<g id="a_node13"><a xlink:href="./babashka__fs.svg" xlink:title="babashka/fs">
<path fill="green" stroke="black" d="M2015.26,-1907.21C2015.26,-1909.34 1989.68,-1911.08 1958.18,-1911.08 1926.69,-1911.08 1901.11,-1909.34 1901.11,-1907.21 1901.11,-1907.21 1901.11,-1872.45 1901.11,-1872.45 1901.11,-1870.32 1926.69,-1868.59 1958.18,-1868.59 1989.68,-1868.59 2015.26,-1870.32 2015.26,-1872.45 2015.26,-1872.45 2015.26,-1907.21 2015.26,-1907.21"/>
<path fill="none" stroke="black" d="M2015.26,-1907.21C2015.26,-1905.08 1989.68,-1903.35 1958.18,-1903.35 1926.69,-1903.35 1901.11,-1905.08 1901.11,-1907.21"/>
<text text-anchor="middle" x="1958.18" y="-1884.78" font-family="Times,serif" font-size="14.00">babashka/fs</text>
</a>
</g>
</g>
<!-- org.clojure/core.async -->
<g id="node14" class="node">
<title>org.clojure/core.async</title>
<g id="a_node14"><a xlink:href="./org.clojure__core.async.svg" xlink:title="org.clojure/core.async">
<path fill="red" stroke="black" d="M2195.15,-857.14C2195.15,-859.27 2156.79,-861.01 2109.57,-861.01 2062.36,-861.01 2024,-859.27 2024,-857.14 2024,-857.14 2024,-822.38 2024,-822.38 2024,-820.25 2062.36,-818.52 2109.57,-818.52 2156.79,-818.52 2195.15,-820.25 2195.15,-822.38 2195.15,-822.38 2195.15,-857.14 2195.15,-857.14"/>
<path fill="none" stroke="black" d="M2195.15,-857.14C2195.15,-855.01 2156.79,-853.28 2109.57,-853.28 2062.36,-853.28 2024,-855.01 2024,-857.14"/>
<text text-anchor="middle" x="2109.57" y="-834.71" font-family="Times,serif" font-size="14.00">org.clojure/core.async</text>
</a>
</g>
</g>
<!-- automaton&#45;build&#45;app.os.edn&#45;utils -->
<g id="node15" class="node">
<title>automaton&#45;build&#45;app.os.edn&#45;utils</title>
<g id="a_node15"><a xlink:href="./automaton-build-app.os.edn-utils.svg" xlink:title="automaton&#45;build&#45;app.os.edn&#45;utils">
<ellipse fill="none" stroke="black" cx="655.73" cy="-1054.41" rx="134.26" ry="18"/>
<text text-anchor="middle" x="655.73" y="-1049.36" font-family="Times,serif" font-size="14.00">automaton&#45;build&#45;app.os.edn&#45;utils</text>
</a>
</g>
</g>
<!-- automaton&#45;build&#45;app.os.edn&#45;utils&#45;&gt;org.clojure/clojure -->
<g id="edge34" class="edge">
<title>automaton&#45;build&#45;app.os.edn&#45;utils&#45;&gt;org.clojure/clojure</title>
<path fill="none" stroke="black" d="M706.49,-1037.36C805.58,-1004.08 1025.04,-930.37 1139.1,-892.05"/>
<polygon fill="black" stroke="black" points="1140,-895.44 1148.36,-888.94 1137.77,-888.81 1140,-895.44"/>
</g>
<!-- automaton&#45;build&#45;app.doc.html -->
<g id="node16" class="node">
<title>automaton&#45;build&#45;app.doc.html</title>
<g id="a_node16"><a xlink:href="./automaton-build-app.doc.html.svg" xlink:title="automaton&#45;build&#45;app.doc.html">
<ellipse fill="none" stroke="black" cx="2282.71" cy="-546" rx="124.54" ry="18"/>
<text text-anchor="middle" x="2282.71" y="-540.95" font-family="Times,serif" font-size="14.00">automaton&#45;build&#45;app.doc.html</text>
</a>
</g>
</g>
<!-- automaton&#45;build&#45;app.doc.html&#45;&gt;hiccup/hiccup -->
<g id="edge23" class="edge">
<title>automaton&#45;build&#45;app.doc.html&#45;&gt;hiccup/hiccup</title>
<path fill="none" stroke="black" d="M2194.91,-559.12C2183.82,-560.77 2172.57,-562.46 2161.72,-564.08"/>
<polygon fill="black" stroke="black" points="2161.45,-560.58 2152.08,-565.52 2162.48,-567.5 2161.45,-560.58"/>
</g>
<!-- automaton&#45;build&#45;app.schema -->
<g id="node17" class="node">
<title>automaton&#45;build&#45;app.schema</title>
<g id="a_node17"><a xlink:href="./automaton-build-app.schema.svg" xlink:title="automaton&#45;build&#45;app.schema">
<ellipse fill="none" stroke="black" cx="869.59" cy="-1690" rx="119.42" ry="18"/>
<text text-anchor="middle" x="869.59" y="-1684.95" font-family="Times,serif" font-size="14.00">automaton&#45;build&#45;app.schema</text>
</a>
</g>
</g>
<!-- automaton&#45;build&#45;app.schema&#45;&gt;metosin/malli -->
<g id="edge4" class="edge">
<title>automaton&#45;build&#45;app.schema&#45;&gt;metosin/malli</title>
<path fill="none" stroke="black" d="M783.53,-1702.86C773.61,-1704.34 763.55,-1705.84 753.79,-1707.3"/>
<polygon fill="black" stroke="black" points="753.38,-1703.82 744,-1708.76 754.41,-1710.75 753.38,-1703.82"/>
</g>
<!-- automaton&#45;build&#45;app.log -->
<g id="node18" class="node">
<title>automaton&#45;build&#45;app.log</title>
<g id="a_node18"><a xlink:href="./automaton-build-app.log.svg" xlink:title="automaton&#45;build&#45;app.log">
<ellipse fill="none" stroke="black" cx="815.84" cy="-315.97" rx="103.04" ry="18"/>
<text text-anchor="middle" x="815.84" y="-310.92" font-family="Times,serif" font-size="14.00">automaton&#45;build&#45;app.log</text>
</a>
</g>
</g>
<!-- automaton&#45;build&#45;app.log&#45;&gt;org.clojure/clojure -->
<g id="edge6" class="edge">
<title>automaton&#45;build&#45;app.log&#45;&gt;org.clojure/clojure</title>
<path fill="none" stroke="black" d="M828.77,-334.01C885.93,-413.83 1116.37,-735.61 1189.03,-837.07"/>
<polygon fill="black" stroke="black" points="1186.01,-838.86 1194.68,-844.96 1191.7,-834.79 1186.01,-838.86"/>
</g>
<!-- automaton&#45;build&#45;app.tasks.gha&#45;container&#45;publish -->
<g id="node19" class="node">
<title>automaton&#45;build&#45;app.tasks.gha&#45;container&#45;publish</title>
<g id="a_node19"><a xlink:href="./automaton-build-app.tasks.gha-container-publish.svg" xlink:title="automaton&#45;build&#45;app.tasks.gha&#45;container&#45;publish">
<ellipse fill="none" stroke="black" cx="1826.82" cy="-465.72" rx="193.12" ry="18"/>
<text text-anchor="middle" x="1826.82" y="-460.67" font-family="Times,serif" font-size="14.00">automaton&#45;build&#45;app.tasks.gha&#45;container&#45;publish</text>
</a>
</g>
</g>
<!-- automaton&#45;build&#45;app.tasks.gha&#45;container&#45;publish&#45;&gt;org.clojure/clojure -->
<g id="edge3" class="edge">
<title>automaton&#45;build&#45;app.tasks.gha&#45;container&#45;publish&#45;&gt;org.clojure/clojure</title>
<path fill="none" stroke="black" d="M1799.16,-483.78C1701.41,-547.63 1371.67,-762.99 1253.59,-840.11"/>
<polygon fill="black" stroke="black" points="1251.87,-837.06 1245.41,-845.45 1255.7,-842.92 1251.87,-837.06"/>
</g>
<!-- automaton&#45;build&#45;app.code&#45;helpers.compiler -->
<g id="node20" class="node">
<title>automaton&#45;build&#45;app.code&#45;helpers.compiler</title>
<g id="a_node20"><a xlink:href="./automaton-build-app.code-helpers.compiler.svg" xlink:title="automaton&#45;build&#45;app.code&#45;helpers.compiler">
<ellipse fill="none" stroke="black" cx="2304.15" cy="-1529.37" rx="174.19" ry="18"/>
<text text-anchor="middle" x="2304.15" y="-1524.32" font-family="Times,serif" font-size="14.00">automaton&#45;build&#45;app.code&#45;helpers.compiler</text>
</a>
</g>
</g>
<!-- automaton&#45;build&#45;app.code&#45;helpers.compiler&#45;&gt;io.github.clojure/tools.build -->
<g id="edge14" class="edge">
<title>automaton&#45;build&#45;app.code&#45;helpers.compiler&#45;&gt;io.github.clojure/tools.build</title>
<path fill="none" stroke="black" d="M2290.08,-1510.97C2289.96,-1510.82 2289.85,-1510.67 2289.73,-1510.52"/>
<polygon fill="black" stroke="black" points="2294.29,-1510.72 2285.44,-1504.9 2288.73,-1514.97 2294.29,-1510.72"/>
</g>
<!-- automaton&#45;build&#45;app.code&#45;helpers.update&#45;deps&#45;clj -->
<g id="node21" class="node">
<title>automaton&#45;build&#45;app.code&#45;helpers.update&#45;deps&#45;clj</title>
<g id="a_node21"><a xlink:href="./automaton-build-app.code-helpers.update-deps-clj.svg" xlink:title="automaton&#45;build&#45;app.code&#45;helpers.update&#45;deps&#45;clj">
<ellipse fill="none" stroke="black" cx="2322.66" cy="-282" rx="197.73" ry="18"/>
<text text-anchor="middle" x="2322.66" y="-276.95" font-family="Times,serif" font-size="14.00">automaton&#45;build&#45;app.code&#45;helpers.update&#45;deps&#45;clj</text>
</a>
</g>
</g>
<!-- automaton&#45;build&#45;app.code&#45;helpers.update&#45;deps&#45;clj&#45;&gt;com.github.liquidz/antq -->
<g id="edge12" class="edge">
<title>automaton&#45;build&#45;app.code&#45;helpers.update&#45;deps&#45;clj&#45;&gt;com.github.liquidz/antq</title>
<path fill="none" stroke="black" d="M2217.81,-297.66C2188.87,-301.99 2157.51,-306.67 2128.71,-310.98"/>
<polygon fill="black" stroke="black" points="2128.26,-307.51 2118.89,-312.44 2129.3,-314.43 2128.26,-307.51"/>
</g>
<!-- automaton&#45;build&#45;app.tasks&#45;helper -->
<g id="node22" class="node">
<title>automaton&#45;build&#45;app.tasks&#45;helper</title>
<g id="a_node22"><a xlink:href="./automaton-build-app.tasks-helper.svg" xlink:title="automaton&#45;build&#45;app.tasks&#45;helper">
<ellipse fill="none" stroke="black" cx="1913.29" cy="-1239.18" rx="135.8" ry="18"/>
<text text-anchor="middle" x="1913.29" y="-1234.13" font-family="Times,serif" font-size="14.00">automaton&#45;build&#45;app.tasks&#45;helper</text>
</a>
</g>
</g>
<!-- automaton&#45;build&#45;app.tasks&#45;helper&#45;&gt;org.clojure/clojure -->
<g id="edge21" class="edge">
<title>automaton&#45;build&#45;app.tasks&#45;helper&#45;&gt;org.clojure/clojure</title>
<path fill="none" stroke="black" d="M1879.42,-1221.27C1765.81,-1161.19 1397.8,-966.6 1262.02,-894.8"/>
<polygon fill="black" stroke="black" points="1263.7,-891.74 1253.23,-890.15 1260.43,-897.92 1263.7,-891.74"/>
</g>
<!-- automaton&#45;build&#45;app.tasks&#45;helper&#45;&gt;org.clojure/tools.cli -->
<g id="edge22" class="edge">
<title>automaton&#45;build&#45;app.tasks&#45;helper&#45;&gt;org.clojure/tools.cli</title>
<path fill="none" stroke="black" d="M2048.29,-1236.85C2175.05,-1234.67 2361.15,-1231.46 2470.82,-1229.57"/>
<polygon fill="black" stroke="black" points="2470.71,-1233.08 2480.65,-1229.4 2470.59,-1226.08 2470.71,-1233.08"/>
</g>
<!-- automaton&#45;build&#45;app.tasks&#45;helper&#45;&gt;babashka/fs -->
<g id="edge20" class="edge">
<title>automaton&#45;build&#45;app.tasks&#45;helper&#45;&gt;babashka/fs</title>
<path fill="none" stroke="black" d="M1914.56,-1257.6C1920.76,-1347.48 1947.87,-1740.34 1955.92,-1857.03"/>
<polygon fill="black" stroke="black" points="1952.42,-1857.11 1956.6,-1866.85 1959.4,-1856.63 1952.42,-1857.11"/>
</g>
<!-- automaton&#45;build&#45;app.utils.namespace -->
<g id="node23" class="node">
<title>automaton&#45;build&#45;app.utils.namespace</title>
<g id="a_node23"><a xlink:href="./automaton-build-app.utils.namespace.svg" xlink:title="automaton&#45;build&#45;app.utils.namespace">
<ellipse fill="none" stroke="black" cx="1436.37" cy="-170.13" rx="150.64" ry="18"/>
<text text-anchor="middle" x="1436.37" y="-165.08" font-family="Times,serif" font-size="14.00">automaton&#45;build&#45;app.utils.namespace</text>
</a>
</g>
</g>
<!-- automaton&#45;build&#45;app.utils.namespace&#45;&gt;org.clojure/clojure -->
<g id="edge11" class="edge">
<title>automaton&#45;build&#45;app.utils.namespace&#45;&gt;org.clojure/clojure</title>
<path fill="none" stroke="black" d="M1430.46,-188.44C1400.03,-282.69 1260.9,-713.6 1221.51,-835.6"/>
<polygon fill="black" stroke="black" points="1218.22,-834.39 1218.48,-844.98 1224.88,-836.54 1218.22,-834.39"/>
</g>
<!-- automaton&#45;build&#45;app.file&#45;repo.text&#45;matches -->
<g id="node24" class="node">
<title>automaton&#45;build&#45;app.file&#45;repo.text&#45;matches</title>
<g id="a_node24"><a xlink:href="./automaton-build-app.file-repo.text-matches.svg" xlink:title="automaton&#45;build&#45;app.file&#45;repo.text&#45;matches">
<ellipse fill="none" stroke="black" cx="1067.21" cy="-422.36" rx="173.16" ry="18"/>
<text text-anchor="middle" x="1067.21" y="-417.31" font-family="Times,serif" font-size="14.00">automaton&#45;build&#45;app.file&#45;repo.text&#45;matches</text>
</a>
</g>
</g>
<!-- automaton&#45;build&#45;app.file&#45;repo.text&#45;matches&#45;&gt;org.clojure/clojure -->
<g id="edge7" class="edge">
<title>automaton&#45;build&#45;app.file&#45;repo.text&#45;matches&#45;&gt;org.clojure/clojure</title>
<path fill="none" stroke="black" d="M1073.12,-440.66C1095.11,-508.74 1172.39,-748.03 1200.64,-835.52"/>
<polygon fill="black" stroke="black" points="1197.27,-836.48 1203.68,-844.92 1203.93,-834.33 1197.27,-836.48"/>
</g>
<!-- automaton&#45;build&#45;app.containers.local&#45;engine -->
<g id="node25" class="node">
<title>automaton&#45;build&#45;app.containers.local&#45;engine</title>
<g id="a_node25"><a xlink:href="./automaton-build-app.containers.local-engine.svg" xlink:title="automaton&#45;build&#45;app.containers.local&#45;engine">
<ellipse fill="none" stroke="black" cx="502.66" cy="-859.29" rx="177.26" ry="18"/>
<text text-anchor="middle" x="502.66" y="-854.24" font-family="Times,serif" font-size="14.00">automaton&#45;build&#45;app.containers.local&#45;engine</text>
</a>
</g>
</g>
<!-- automaton&#45;build&#45;app.containers.local&#45;engine&#45;&gt;org.clojure/clojure -->
<g id="edge37" class="edge">
<title>automaton&#45;build&#45;app.containers.local&#45;engine&#45;&gt;org.clojure/clojure</title>
<path fill="none" stroke="black" d="M679.14,-861.43C820.84,-863.14 1013.75,-865.48 1124.09,-866.82"/>
<polygon fill="black" stroke="black" points="1123.93,-870.32 1133.97,-866.94 1124.01,-863.32 1123.93,-870.32"/>
</g>
<!-- automaton&#45;build&#45;app.cicd.cfg&#45;mgt -->
<g id="node26" class="node">
<title>automaton&#45;build&#45;app.cicd.cfg&#45;mgt</title>
<g id="a_node26"><a xlink:href="./automaton-build-app.cicd.cfg-mgt.svg" xlink:title="automaton&#45;build&#45;app.cicd.cfg&#45;mgt">
<ellipse fill="none" stroke="black" cx="1912.3" cy="-714.22" rx="138.87" ry="18"/>
<text text-anchor="middle" x="1912.3" y="-709.17" font-family="Times,serif" font-size="14.00">automaton&#45;build&#45;app.cicd.cfg&#45;mgt</text>
</a>
</g>
</g>
<!-- automaton&#45;build&#45;app.cicd.cfg&#45;mgt&#45;&gt;org.clojure/clojure -->
<g id="edge18" class="edge">
<title>automaton&#45;build&#45;app.cicd.cfg&#45;mgt&#45;&gt;org.clojure/clojure</title>
<path fill="none" stroke="black" d="M1840.22,-730.02C1710.41,-758.46 1437.83,-818.19 1297.95,-848.84"/>
<polygon fill="black" stroke="black" points="1297.38,-845.38 1288.36,-850.94 1298.88,-852.22 1297.38,-845.38"/>
</g>
<!-- automaton&#45;build&#45;app.file&#45;repo.raw.impl -->
<g id="node27" class="node">
<title>automaton&#45;build&#45;app.file&#45;repo.raw.impl</title>
<g id="a_node27"><a xlink:href="./automaton-build-app.file-repo.raw.impl.svg" xlink:title="automaton&#45;build&#45;app.file&#45;repo.raw.impl">
<ellipse fill="none" stroke="black" cx="1744.65" cy="-883.7" rx="158.83" ry="18"/>
<text text-anchor="middle" x="1744.65" y="-878.65" font-family="Times,serif" font-size="14.00">automaton&#45;build&#45;app.file&#45;repo.raw.impl</text>
</a>
</g>
</g>
<!-- automaton&#45;build&#45;app.file&#45;repo.raw.impl&#45;&gt;org.clojure/clojure -->
<g id="edge10" class="edge">
<title>automaton&#45;build&#45;app.file&#45;repo.raw.impl&#45;&gt;org.clojure/clojure</title>
<path fill="none" stroke="black" d="M1590.32,-879.12C1495.43,-876.31 1377.29,-872.8 1298.32,-870.46"/>
<polygon fill="black" stroke="black" points="1298.58,-866.97 1288.48,-870.17 1298.37,-873.96 1298.58,-866.97"/>
</g>
<!-- automaton&#45;build&#45;app.configuration.edn&#45;read -->
<g id="node28" class="node">
<title>automaton&#45;build&#45;app.configuration.edn&#45;read</title>
<g id="a_node28"><a xlink:href="./automaton-build-app.configuration.edn-read.svg" xlink:title="automaton&#45;build&#45;app.configuration.edn&#45;read">
<ellipse fill="none" stroke="black" cx="1595.55" cy="-1459.14" rx="175.72" ry="18"/>
<text text-anchor="middle" x="1595.55" y="-1454.09" font-family="Times,serif" font-size="14.00">automaton&#45;build&#45;app.configuration.edn&#45;read</text>
</a>
</g>
</g>
<!-- automaton&#45;build&#45;app.configuration.edn&#45;read&#45;&gt;org.clojure/clojure -->
<g id="edge2" class="edge">
<title>automaton&#45;build&#45;app.configuration.edn&#45;read&#45;&gt;org.clojure/clojure</title>
<path fill="none" stroke="black" d="M1583.62,-1440.8C1528.8,-1356.48 1300.72,-1005.72 1231.26,-898.89"/>
<polygon fill="black" stroke="black" points="1234.25,-897.07 1225.87,-890.6 1228.38,-900.89 1234.25,-897.07"/>
</g>
<!-- automaton&#45;build&#45;app.configuration.edn&#45;read&#45;&gt;babashka/fs -->
<g id="edge1" class="edge">
<title>automaton&#45;build&#45;app.configuration.edn&#45;read&#45;&gt;babashka/fs</title>
<path fill="none" stroke="black" d="M1610.9,-1477.37C1667.1,-1544.12 1862.01,-1775.6 1932.49,-1859.32"/>
<polygon fill="black" stroke="black" points="1929.79,-1861.54 1938.91,-1866.94 1935.14,-1857.03 1929.79,-1861.54"/>
</g>
<!-- automaton&#45;build&#45;app.code&#45;helpers.formatter -->
<g id="node29" class="node">
<title>automaton&#45;build&#45;app.code&#45;helpers.formatter</title>
<g id="a_node29"><a xlink:href="./automaton-build-app.code-helpers.formatter.svg" xlink:title="automaton&#45;build&#45;app.code&#45;helpers.formatter">
<ellipse fill="none" stroke="black" cx="1481.11" cy="-509.73" rx="175.72" ry="18"/>
<text text-anchor="middle" x="1481.11" y="-504.68" font-family="Times,serif" font-size="14.00">automaton&#45;build&#45;app.code&#45;helpers.formatter</text>
</a>
</g>
</g>
<!-- automaton&#45;build&#45;app.code&#45;helpers.formatter&#45;&gt;org.clojure/clojure -->
<g id="edge16" class="edge">
<title>automaton&#45;build&#45;app.code&#45;helpers.formatter&#45;&gt;org.clojure/clojure</title>
<path fill="none" stroke="black" d="M1467.35,-527.98C1423.74,-585.82 1288.29,-765.48 1233.97,-837.53"/>
<polygon fill="black" stroke="black" points="1231.3,-835.26 1228.07,-845.35 1236.89,-839.47 1231.3,-835.26"/>
</g>
<!-- automaton&#45;build&#45;app.repl -->
<g id="node30" class="node">
<title>automaton&#45;build&#45;app.repl</title>
<g id="a_node30"><a xlink:href="./automaton-build-app.repl.svg" xlink:title="automaton&#45;build&#45;app.repl">
<ellipse fill="none" stroke="black" cx="2308.77" cy="-810" rx="105.6" ry="18"/>
<text text-anchor="middle" x="2308.77" y="-804.95" font-family="Times,serif" font-size="14.00">automaton&#45;build&#45;app.repl</text>
</a>
</g>
</g>
<!-- automaton&#45;build&#45;app.repl&#45;&gt;org.clojure/core.async -->
<g id="edge5" class="edge">
<title>automaton&#45;build&#45;app.repl&#45;&gt;org.clojure/core.async</title>
<path fill="none" stroke="black" d="M2228.33,-822.02C2221.24,-823.08 2214.02,-824.16 2206.82,-825.23"/>
<polygon fill="black" stroke="black" points="2206.4,-821.76 2197.03,-826.7 2207.43,-828.68 2206.4,-821.76"/>
</g>
<!-- automaton&#45;build&#45;app.cicd.version -->
<g id="node31" class="node">
<title>automaton&#45;build&#45;app.cicd.version</title>
<g id="a_node31"><a xlink:href="./automaton-build-app.cicd.version.svg" xlink:title="automaton&#45;build&#45;app.cicd.version">
<ellipse fill="none" stroke="black" cx="2248.31" cy="-1426" rx="136.31" ry="18"/>
<text text-anchor="middle" x="2248.31" y="-1420.95" font-family="Times,serif" font-size="14.00">automaton&#45;build&#45;app.cicd.version</text>
</a>
</g>
</g>
<!-- automaton&#45;build&#45;app.cicd.version&#45;&gt;io.github.clojure/tools.build -->
<g id="edge17" class="edge">
<title>automaton&#45;build&#45;app.cicd.version&#45;&gt;io.github.clojure/tools.build</title>
<path fill="none" stroke="black" d="M2254.77,-1444.38C2255.36,-1446.06 2255.96,-1447.79 2256.58,-1449.54"/>
<polygon fill="black" stroke="black" points="2253.27,-1450.68 2259.89,-1458.96 2259.88,-1448.36 2253.27,-1450.68"/>
</g>
<!-- automaton&#45;build&#45;app.doc.markdown&#45;to&#45;html -->
<g id="node32" class="node">
<title>automaton&#45;build&#45;app.doc.markdown&#45;to&#45;html</title>
<g id="a_node32"><a xlink:href="./automaton-build-app.doc.markdown-to-html.svg" xlink:title="automaton&#45;build&#45;app.doc.markdown&#45;to&#45;html">
<ellipse fill="none" stroke="black" cx="2240.95" cy="-986" rx="177.77" ry="18"/>
<text text-anchor="middle" x="2240.95" y="-980.95" font-family="Times,serif" font-size="14.00">automaton&#45;build&#45;app.doc.markdown&#45;to&#45;html</text>
</a>
</g>
</g>
<!-- automaton&#45;build&#45;app.doc.markdown&#45;to&#45;html&#45;&gt;markdown&#45;clj/markdown&#45;clj -->
<g id="edge28" class="edge">
<title>automaton&#45;build&#45;app.doc.markdown&#45;to&#45;html&#45;&gt;markdown&#45;clj/markdown&#45;clj</title>
<path fill="none" stroke="black" d="M2139.33,-1001.18C2115.85,-1004.69 2090.71,-1008.45 2066.7,-1012.03"/>
<polygon fill="black" stroke="black" points="2066.26,-1008.56 2056.89,-1013.5 2067.3,-1015.48 2066.26,-1008.56"/>
</g>
<!-- automaton&#45;build&#45;app.doc.markdown -->
<g id="node33" class="node">
<title>automaton&#45;build&#45;app.doc.markdown</title>
<g id="a_node33"><a xlink:href="./automaton-build-app.doc.markdown.svg" xlink:title="automaton&#45;build&#45;app.doc.markdown">
<ellipse fill="none" stroke="black" cx="1658.65" cy="-252.43" rx="147.06" ry="18"/>
<text text-anchor="middle" x="1658.65" y="-247.38" font-family="Times,serif" font-size="14.00">automaton&#45;build&#45;app.doc.markdown</text>
</a>
</g>
</g>
<!-- automaton&#45;build&#45;app.doc.markdown&#45;&gt;org.clojure/clojure -->
<g id="edge29" class="edge">
<title>automaton&#45;build&#45;app.doc.markdown&#45;&gt;org.clojure/clojure</title>
<path fill="none" stroke="black" d="M1645.25,-270.85C1582,-357.83 1312.98,-727.76 1233.37,-837.23"/>
<polygon fill="black" stroke="black" points="1230.63,-835.05 1227.58,-845.2 1236.29,-839.17 1230.63,-835.05"/>
</g>
<!-- automaton&#45;build&#45;app.file&#45;repo.clj&#45;code -->
<g id="node34" class="node">
<title>automaton&#45;build&#45;app.file&#45;repo.clj&#45;code</title>
<g id="a_node34"><a xlink:href="./automaton-build-app.file-repo.clj-code.svg" xlink:title="automaton&#45;build&#45;app.file&#45;repo.clj&#45;code">
<ellipse fill="none" stroke="black" cx="986.55" cy="-1555.59" rx="155.25" ry="18"/>
<text text-anchor="middle" x="986.55" y="-1550.54" font-family="Times,serif" font-size="14.00">automaton&#45;build&#45;app.file&#45;repo.clj&#45;code</text>
</a>
</g>
</g>
<!-- automaton&#45;build&#45;app.file&#45;repo.clj&#45;code&#45;&gt;org.clojure/clojure -->
<g id="edge9" class="edge">
<title>automaton&#45;build&#45;app.file&#45;repo.clj&#45;code&#45;&gt;org.clojure/clojure</title>
<path fill="none" stroke="black" d="M992.56,-1537.19C1023.1,-1443.66 1161.24,-1020.56 1200.6,-900.02"/>
<polygon fill="black" stroke="black" points="1203.84,-901.35 1203.62,-890.76 1197.19,-899.17 1203.84,-901.35"/>
</g>
<!-- automaton&#45;build&#45;app.os.commands -->
<g id="node35" class="node">
<title>automaton&#45;build&#45;app.os.commands</title>
<g id="a_node35"><a xlink:href="./automaton-build-app.os.commands.svg" xlink:title="automaton&#45;build&#45;app.os.commands">
<ellipse fill="none" stroke="black" cx="597.93" cy="-1362.61" rx="142.97" ry="18"/>
<text text-anchor="middle" x="597.93" y="-1357.56" font-family="Times,serif" font-size="14.00">automaton&#45;build&#45;app.os.commands</text>
</a>
</g>
</g>
<!-- automaton&#45;build&#45;app.os.commands&#45;&gt;org.clojure/clojure -->
<g id="edge31" class="edge">
<title>automaton&#45;build&#45;app.os.commands&#45;&gt;org.clojure/clojure</title>
<path fill="none" stroke="black" d="M620.48,-1344.41C712.83,-1269.9 1062.59,-987.69 1175.63,-896.49"/>
<polygon fill="black" stroke="black" points="1177.52,-899.46 1183.1,-890.46 1173.12,-894.01 1177.52,-899.46"/>
</g>
<!-- automaton&#45;build&#45;app.os.commands&#45;&gt;babashka/process -->
<g id="edge30" class="edge">
<title>automaton&#45;build&#45;app.os.commands&#45;&gt;babashka/process</title>
<path fill="none" stroke="black" d="M577.72,-1380.85C505,-1446.51 256.16,-1671.18 166.87,-1751.8"/>
<polygon fill="black" stroke="black" points="164.7,-1749.05 159.62,-1758.35 169.39,-1754.24 164.7,-1749.05"/>
</g>
<!-- automaton&#45;build&#45;app.os.pdf -->
<g id="node36" class="node">
<title>automaton&#45;build&#45;app.os.pdf</title>
<g id="a_node36"><a xlink:href="./automaton-build-app.os.pdf.svg" xlink:title="automaton&#45;build&#45;app.os.pdf">
<ellipse fill="none" stroke="black" cx="563.33" cy="-450.14" rx="114.3" ry="18"/>
<text text-anchor="middle" x="563.33" y="-445.09" font-family="Times,serif" font-size="14.00">automaton&#45;build&#45;app.os.pdf</text>
</a>
</g>
</g>
<!-- automaton&#45;build&#45;app.os.pdf&#45;&gt;org.clojure/clojure -->
<g id="edge33" class="edge">
<title>automaton&#45;build&#45;app.os.pdf&#45;&gt;org.clojure/clojure</title>
<path fill="none" stroke="black" d="M590.75,-467.83C691.92,-533.07 1044.74,-760.59 1168.1,-840.15"/>
<polygon fill="black" stroke="black" points="1166.04,-842.99 1176.34,-845.46 1169.83,-837.1 1166.04,-842.99"/>
</g>
<!-- automaton&#45;build&#45;app.os.pdf&#45;&gt;clj&#45;htmltopdf/clj&#45;htmltopdf -->
<g id="edge32" class="edge">
<title>automaton&#45;build&#45;app.os.pdf&#45;&gt;clj&#45;htmltopdf/clj&#45;htmltopdf</title>
<path fill="none" stroke="black" d="M543.68,-431.99C471.44,-365.25 220.18,-133.12 130.88,-50.62"/>
<polygon fill="black" stroke="black" points="133.34,-48.13 123.62,-43.92 128.59,-53.27 133.34,-48.13"/>
</g>
<!-- automaton&#45;build&#45;app.code&#45;helpers.code&#45;stats -->
<g id="node37" class="node">
<title>automaton&#45;build&#45;app.code&#45;helpers.code&#45;stats</title>
<g id="a_node37"><a xlink:href="./automaton-build-app.code-helpers.code-stats.svg" xlink:title="automaton&#45;build&#45;app.code&#45;helpers.code&#45;stats">
<ellipse fill="none" stroke="black" cx="874.56" cy="-1284.27" rx="177.77" ry="18"/>
<text text-anchor="middle" x="874.56" y="-1279.22" font-family="Times,serif" font-size="14.00">automaton&#45;build&#45;app.code&#45;helpers.code&#45;stats</text>
</a>
</g>
</g>
<!-- automaton&#45;build&#45;app.code&#45;helpers.code&#45;stats&#45;&gt;org.clojure/clojure -->
<g id="edge13" class="edge">
<title>automaton&#45;build&#45;app.code&#45;helpers.code&#45;stats&#45;&gt;org.clojure/clojure</title>
<path fill="none" stroke="black" d="M889.46,-1265.84C942.25,-1200.52 1120.77,-979.62 1186.52,-898.28"/>
<polygon fill="black" stroke="black" points="1189.09,-900.66 1192.65,-890.69 1183.64,-896.26 1189.09,-900.66"/>
</g>
<!-- automaton&#45;build&#45;app.doc.blog -->
<g id="node38" class="node">
<title>automaton&#45;build&#45;app.doc.blog</title>
<g id="a_node38"><a xlink:href="./automaton-build-app.doc.blog.svg" xlink:title="automaton&#45;build&#45;app.doc.blog">
<ellipse fill="none" stroke="black" cx="743.68" cy="-708.43" rx="123.52" ry="18"/>
<text text-anchor="middle" x="743.68" y="-703.38" font-family="Times,serif" font-size="14.00">automaton&#45;build&#45;app.doc.blog</text>
</a>
</g>
</g>
<!-- automaton&#45;build&#45;app.doc.blog&#45;&gt;org.clojure/clojure -->
<g id="edge24" class="edge">
<title>automaton&#45;build&#45;app.doc.blog&#45;&gt;org.clojure/clojure</title>
<path fill="none" stroke="black" d="M793.26,-725.34C876.28,-753.66 1043.74,-810.79 1139.54,-843.46"/>
<polygon fill="black" stroke="black" points="1138.26,-846.73 1148.85,-846.64 1140.52,-840.1 1138.26,-846.73"/>
</g>
<!-- automaton&#45;build&#45;app.cicd.server -->
<g id="node39" class="node">
<title>automaton&#45;build&#45;app.cicd.server</title>
<g id="a_node39"><a xlink:href="./automaton-build-app.cicd.server.svg" xlink:title="automaton&#45;build&#45;app.cicd.server">
<ellipse fill="none" stroke="black" cx="1192.04" cy="-1343.58" rx="131.71" ry="18"/>
<text text-anchor="middle" x="1192.04" y="-1338.53" font-family="Times,serif" font-size="14.00">automaton&#45;build&#45;app.cicd.server</text>
</a>
</g>
</g>
<!-- automaton&#45;build&#45;app.cicd.server&#45;&gt;org.clojure/clojure -->
<g id="edge19" class="edge">
<title>automaton&#45;build&#45;app.cicd.server&#45;&gt;org.clojure/clojure</title>
<path fill="none" stroke="black" d="M1192.77,-1325.23C1195.63,-1253.73 1206.07,-993.31 1209.77,-900.78"/>
<polygon fill="black" stroke="black" points="1213.27,-901 1210.17,-890.87 1206.27,-900.72 1213.27,-901"/>
</g>
<!-- automaton&#45;build&#45;app.file&#45;repo.text -->
<g id="node40" class="node">
<title>automaton&#45;build&#45;app.file&#45;repo.text</title>
<g id="a_node40"><a xlink:href="./automaton-build-app.file-repo.text.svg" xlink:title="automaton&#45;build&#45;app.file&#45;repo.text">
<ellipse fill="none" stroke="black" cx="1582.45" cy="-1147.2" rx="139.38" ry="18"/>
<text text-anchor="middle" x="1582.45" y="-1142.15" font-family="Times,serif" font-size="14.00">automaton&#45;build&#45;app.file&#45;repo.text</text>
</a>
</g>
</g>
<!-- automaton&#45;build&#45;app.file&#45;repo.text&#45;&gt;org.clojure/clojure -->
<g id="edge8" class="edge">
<title>automaton&#45;build&#45;app.file&#45;repo.text&#45;&gt;org.clojure/clojure</title>
<path fill="none" stroke="black" d="M1558.37,-1129.09C1495.28,-1081.63 1324.8,-953.4 1248.68,-896.15"/>
<polygon fill="black" stroke="black" points="1251.18,-893.65 1241.09,-890.44 1246.98,-899.24 1251.18,-893.65"/>
</g>
<!-- automaton&#45;build&#45;app.doc.code&#45;doc -->
<g id="node41" class="node">
<title>automaton&#45;build&#45;app.doc.code&#45;doc</title>
<g id="a_node41"><a xlink:href="./automaton-build-app.doc.code-doc.svg" xlink:title="automaton&#45;build&#45;app.doc.code&#45;doc">
<ellipse fill="none" stroke="black" cx="1123.87" cy="-1827.16" rx="140.92" ry="18"/>
<text text-anchor="middle" x="1123.87" y="-1822.11" font-family="Times,serif" font-size="14.00">automaton&#45;build&#45;app.doc.code&#45;doc</text>
</a>
</g>
</g>
<!-- automaton&#45;build&#45;app.doc.code&#45;doc&#45;&gt;io.github.clojure/tools.deps.graph -->
<g id="edge26" class="edge">
<title>automaton&#45;build&#45;app.doc.code&#45;doc&#45;&gt;io.github.clojure/tools.deps.graph</title>
<path fill="none" stroke="black" d="M1077.24,-1844.48C1073.4,-1845.91 1069.47,-1847.37 1065.51,-1848.84"/>
<polygon fill="black" stroke="black" points="1064.59,-1845.45 1056.43,-1852.21 1067.02,-1852.01 1064.59,-1845.45"/>
</g>
<!-- automaton&#45;build&#45;app.doc.code&#45;doc&#45;&gt;codox/codox -->
<g id="edge27" class="edge">
<title>automaton&#45;build&#45;app.doc.code&#45;doc&#45;&gt;codox/codox</title>
<path fill="none" stroke="black" d="M1146.19,-1845.31C1160.14,-1856.65 1178.4,-1871.5 1194.24,-1884.37"/>
<polygon fill="black" stroke="black" points="1191.6,-1886.74 1201.57,-1890.33 1196.02,-1881.31 1191.6,-1886.74"/>
</g>
<!-- automaton&#45;build&#45;app.doc.code&#45;doc&#45;&gt;io.dominic/vizns -->
<g id="edge25" class="edge">
<title>automaton&#45;build&#45;app.doc.code&#45;doc&#45;&gt;io.dominic/vizns</title>
<path fill="none" stroke="black" d="M1126.89,-1808.82C1130.38,-1787.57 1136.21,-1752.16 1140.5,-1726.12"/>
<polygon fill="black" stroke="black" points="1143.93,-1726.83 1142.1,-1716.4 1137.02,-1725.7 1143.93,-1726.83"/>
</g>
<!-- automaton&#45;build&#45;app.os.files -->
<g id="node42" class="node">
<title>automaton&#45;build&#45;app.os.files</title>
<g id="a_node42"><a xlink:href="./automaton-build-app.os.files.svg" xlink:title="automaton&#45;build&#45;app.os.files">
<ellipse fill="none" stroke="black" cx="1393.62" cy="-1603.42" rx="117.89" ry="18"/>
<text text-anchor="middle" x="1393.62" y="-1598.37" font-family="Times,serif" font-size="14.00">automaton&#45;build&#45;app.os.files</text>
</a>
</g>
</g>
<!-- automaton&#45;build&#45;app.os.files&#45;&gt;org.clojure/clojure -->
<g id="edge36" class="edge">
<title>automaton&#45;build&#45;app.os.files&#45;&gt;org.clojure/clojure</title>
<path fill="none" stroke="black" d="M1389.11,-1585.24C1364.94,-1487.84 1250.71,-1027.53 1219.17,-900.44"/>
<polygon fill="black" stroke="black" points="1222.64,-899.87 1216.83,-891.01 1215.84,-901.56 1222.64,-899.87"/>
</g>
<!-- automaton&#45;build&#45;app.os.files&#45;&gt;babashka/fs -->
<g id="edge35" class="edge">
<title>automaton&#45;build&#45;app.os.files&#45;&gt;babashka/fs</title>
<path fill="none" stroke="black" d="M1428.08,-1620.9C1523.73,-1669.43 1792.89,-1805.98 1906.53,-1863.63"/>
<polygon fill="black" stroke="black" points="1904.86,-1866.7 1915.36,-1868.1 1908.02,-1860.46 1904.86,-1866.7"/>
</g>
<!-- automaton&#45;build&#45;app.code&#45;helpers.analyze.forbidden&#45;words -->
<g id="node43" class="node">
<title>automaton&#45;build&#45;app.code&#45;helpers.analyze.forbidden&#45;words</title>
<g id="a_node43"><a xlink:href="./automaton-build-app.code-helpers.analyze.forbidden-words.svg" xlink:title="automaton&#45;build&#45;app.code&#45;helpers.analyze.forbidden&#45;words">
<ellipse fill="none" stroke="black" cx="1044.64" cy="-135.46" rx="233.04" ry="18"/>
<text text-anchor="middle" x="1044.64" y="-130.41" font-family="Times,serif" font-size="14.00">automaton&#45;build&#45;app.code&#45;helpers.analyze.forbidden&#45;words</text>
</a>
</g>
</g>
<!-- automaton&#45;build&#45;app.code&#45;helpers.analyze.forbidden&#45;words&#45;&gt;org.clojure/clojure -->
<g id="edge15" class="edge">
<title>automaton&#45;build&#45;app.code&#45;helpers.analyze.forbidden&#45;words&#45;&gt;org.clojure/clojure</title>
<path fill="none" stroke="black" d="M1048.84,-153.93C1071.04,-251.62 1174.82,-708.29 1203.65,-835.12"/>
<polygon fill="black" stroke="black" points="1200.23,-835.89 1205.86,-844.87 1207.06,-834.34 1200.23,-835.89"/>
</g>
</g>
</svg>
