<?xml version="1.0" encoding="UTF-8" standalone="no"?>
<!DOCTYPE svg PUBLIC "-//W3C//DTD SVG 1.1//EN"
 "http://www.w3.org/Graphics/SVG/1.1/DTD/svg11.dtd">
<!-- Generated by graphviz version 9.0.0 (20230911.1827)
 -->
<!-- Pages: 1 -->
<svg width="2818pt" height="2598pt"
 viewBox="0.00 0.00 2818.17 2598.38" xmlns="http://www.w3.org/2000/svg" xmlns:xlink="http://www.w3.org/1999/xlink">
<g id="graph0" class="graph" transform="scale(1 1) rotate(0) translate(4 2594.38)">
<polygon fill="white" stroke="none" points="-4,4 -4,-2594.38 2814.17,-2594.38 2814.17,4 -4,4"/>
<!-- org.clojure/clojure -->
<g id="node1" class="node">
<title>org.clojure/clojure</title>
<g id="a_node1"><a xlink:href="./org.clojure__clojure.svg" xlink:title="org.clojure/clojure">
<path fill="green" stroke="black" d="M1381.65,-772.79C1381.65,-774.92 1347.83,-776.65 1306.2,-776.65 1264.57,-776.65 1230.75,-774.92 1230.75,-772.79 1230.75,-772.79 1230.75,-738.02 1230.75,-738.02 1230.75,-735.89 1264.57,-734.16 1306.2,-734.16 1347.83,-734.16 1381.65,-735.89 1381.65,-738.02 1381.65,-738.02 1381.65,-772.79 1381.65,-772.79"/>
<path fill="none" stroke="black" d="M1381.65,-772.79C1381.65,-770.66 1347.83,-768.92 1306.2,-768.92 1264.57,-768.92 1230.75,-770.66 1230.75,-772.79"/>
<text text-anchor="middle" x="1306.2" y="-750.36" font-family="Times,serif" font-size="14.00">org.clojure/clojure</text>
</a>
</g>
</g>
<!-- org.clojure/tools.cli -->
<g id="node2" class="node">
<title>org.clojure/tools.cli</title>
<g id="a_node2"><a xlink:href="./org.clojure__tools.cli.svg" xlink:title="org.clojure/tools.cli">
<path fill="red" stroke="black" d="M2037.9,-767.25C2037.9,-769.38 2002.74,-771.11 1959.45,-771.11 1916.16,-771.11 1881,-769.38 1881,-767.25 1881,-767.25 1881,-732.49 1881,-732.49 1881,-730.36 1916.16,-728.62 1959.45,-728.62 2002.74,-728.62 2037.9,-730.36 2037.9,-732.49 2037.9,-732.49 2037.9,-767.25 2037.9,-767.25"/>
<path fill="none" stroke="black" d="M2037.9,-767.25C2037.9,-765.12 2002.74,-763.39 1959.45,-763.39 1916.16,-763.39 1881,-765.12 1881,-767.25"/>
<text text-anchor="middle" x="1959.45" y="-744.82" font-family="Times,serif" font-size="14.00">org.clojure/tools.cli</text>
</a>
</g>
</g>
<!-- clj&#45;htmltopdf/clj&#45;htmltopdf -->
<g id="node3" class="node">
<title>clj&#45;htmltopdf/clj&#45;htmltopdf</title>
<g id="a_node3"><a xlink:href="./clj-htmltopdf.svg" xlink:title="clj&#45;htmltopdf/clj&#45;htmltopdf">
<path fill="green" stroke="black" d="M2810.17,-772.02C2810.17,-774.15 2765.76,-775.88 2711.09,-775.88 2656.42,-775.88 2612.02,-774.15 2612.02,-772.02 2612.02,-772.02 2612.02,-737.26 2612.02,-737.26 2612.02,-735.13 2656.42,-733.4 2711.09,-733.4 2765.76,-733.4 2810.17,-735.13 2810.17,-737.26 2810.17,-737.26 2810.17,-772.02 2810.17,-772.02"/>
<path fill="none" stroke="black" d="M2810.17,-772.02C2810.17,-769.89 2765.76,-768.16 2711.09,-768.16 2656.42,-768.16 2612.02,-769.89 2612.02,-772.02"/>
<text text-anchor="middle" x="2711.09" y="-749.59" font-family="Times,serif" font-size="14.00">clj&#45;htmltopdf/clj&#45;htmltopdf</text>
</a>
</g>
</g>
<!-- markdown&#45;clj/markdown&#45;clj -->
<g id="node4" class="node">
<title>markdown&#45;clj/markdown&#45;clj</title>
<g id="a_node4"><a xlink:href="./markdown-clj.svg" xlink:title="markdown&#45;clj/markdown&#45;clj">
<path fill="green" stroke="black" d="M2088.15,-1068.61C2088.15,-1070.75 2041.73,-1072.48 1984.58,-1072.48 1927.42,-1072.48 1881,-1070.75 1881,-1068.61 1881,-1068.61 1881,-1033.85 1881,-1033.85 1881,-1031.72 1927.42,-1029.99 1984.58,-1029.99 2041.73,-1029.99 2088.15,-1031.72 2088.15,-1033.85 2088.15,-1033.85 2088.15,-1068.61 2088.15,-1068.61"/>
<path fill="none" stroke="black" d="M2088.15,-1068.61C2088.15,-1066.48 2041.73,-1064.75 1984.58,-1064.75 1927.42,-1064.75 1881,-1066.48 1881,-1068.61"/>
<text text-anchor="middle" x="1984.58" y="-1046.18" font-family="Times,serif" font-size="14.00">markdown&#45;clj/markdown&#45;clj</text>
</a>
</g>
</g>
<!-- hiccup/hiccup -->
<g id="node5" class="node">
<title>hiccup/hiccup</title>
<g id="a_node5"><a xlink:href="./hiccup.svg" xlink:title="hiccup/hiccup">
<path fill="green" stroke="black" d="M918.15,-1945.61C918.15,-1947.74 889.88,-1949.47 855.08,-1949.47 820.27,-1949.47 792,-1947.74 792,-1945.61 792,-1945.61 792,-1910.85 792,-1910.85 792,-1908.72 820.27,-1906.99 855.08,-1906.99 889.88,-1906.99 918.15,-1908.72 918.15,-1910.85 918.15,-1910.85 918.15,-1945.61 918.15,-1945.61"/>
<path fill="none" stroke="black" d="M918.15,-1945.61C918.15,-1943.48 889.88,-1941.75 855.08,-1941.75 820.27,-1941.75 792,-1943.48 792,-1945.61"/>
<text text-anchor="middle" x="855.08" y="-1923.18" font-family="Times,serif" font-size="14.00">hiccup/hiccup</text>
</a>
</g>
</g>
<!-- metosin/malli -->
<g id="node6" class="node">
<title>metosin/malli</title>
<g id="a_node6"><a xlink:href="./metosin__malli.svg" xlink:title="metosin/malli">
<path fill="green" stroke="black" d="M819.15,-1746.85C819.15,-1748.98 790.88,-1750.71 756.08,-1750.71 721.27,-1750.71 693,-1748.98 693,-1746.85 693,-1746.85 693,-1712.08 693,-1712.08 693,-1709.95 721.27,-1708.22 756.08,-1708.22 790.88,-1708.22 819.15,-1709.95 819.15,-1712.08 819.15,-1712.08 819.15,-1746.85 819.15,-1746.85"/>
<path fill="none" stroke="black" d="M819.15,-1746.85C819.15,-1744.71 790.88,-1742.98 756.08,-1742.98 721.27,-1742.98 693,-1744.71 693,-1746.85"/>
<text text-anchor="middle" x="756.08" y="-1724.41" font-family="Times,serif" font-size="14.00">metosin/malli</text>
</a>
</g>
</g>
<!-- babashka/process -->
<g id="node7" class="node">
<title>babashka/process</title>
<g id="a_node7"><a xlink:href="./babashka__process.svg" xlink:title="babashka/process">
<path fill="green" stroke="black" d="M144.9,-186.26C144.9,-188.39 112.43,-190.12 72.45,-190.12 32.47,-190.12 0,-188.39 0,-186.26 0,-186.26 0,-151.5 0,-151.5 0,-149.37 32.47,-147.64 72.45,-147.64 112.43,-147.64 144.9,-149.37 144.9,-151.5 144.9,-151.5 144.9,-186.26 144.9,-186.26"/>
<path fill="none" stroke="black" d="M144.9,-186.26C144.9,-184.13 112.43,-182.4 72.45,-182.4 32.47,-182.4 0,-184.13 0,-186.26"/>
<text text-anchor="middle" x="72.45" y="-163.83" font-family="Times,serif" font-size="14.00">babashka/process</text>
</a>
</g>
</g>
<!-- io.github.clojure/tools.deps.graph -->
<g id="node8" class="node">
<title>io.github.clojure/tools.deps.graph</title>
<g id="a_node8"><a xlink:href="./io.github.clojure__tools.deps.graph.svg" xlink:title="io.github.clojure/tools.deps.graph">
<path fill="green" stroke="black" d="M2015.4,-1704.79C2015.4,-1706.92 1963.09,-1708.65 1898.7,-1708.65 1834.31,-1708.65 1782,-1706.92 1782,-1704.79 1782,-1704.79 1782,-1670.02 1782,-1670.02 1782,-1667.89 1834.31,-1666.16 1898.7,-1666.16 1963.09,-1666.16 2015.4,-1667.89 2015.4,-1670.02 2015.4,-1670.02 2015.4,-1704.79 2015.4,-1704.79"/>
<path fill="none" stroke="black" d="M2015.4,-1704.79C2015.4,-1702.66 1963.09,-1700.92 1898.7,-1700.92 1834.31,-1700.92 1782,-1702.66 1782,-1704.79"/>
<text text-anchor="middle" x="1898.7" y="-1682.36" font-family="Times,serif" font-size="14.00">io.github.clojure/tools.deps.graph</text>
</a>
</g>
</g>
<!-- com.github.liquidz/antq -->
<g id="node9" class="node">
<title>com.github.liquidz/antq</title>
<g id="a_node9"><a xlink:href="./com.github.liquidz__antq.svg" xlink:title="com.github.liquidz/antq">
<path fill="green" stroke="black" d="M1962.9,-1366.64C1962.9,-1368.77 1922.36,-1370.5 1872.45,-1370.5 1822.54,-1370.5 1782,-1368.77 1782,-1366.64 1782,-1366.64 1782,-1331.87 1782,-1331.87 1782,-1329.74 1822.54,-1328.01 1872.45,-1328.01 1922.36,-1328.01 1962.9,-1329.74 1962.9,-1331.87 1962.9,-1331.87 1962.9,-1366.64 1962.9,-1366.64"/>
<path fill="none" stroke="black" d="M1962.9,-1366.64C1962.9,-1364.51 1922.36,-1362.77 1872.45,-1362.77 1822.54,-1362.77 1782,-1364.51 1782,-1366.64"/>
<text text-anchor="middle" x="1872.45" y="-1344.21" font-family="Times,serif" font-size="14.00">com.github.liquidz/antq</text>
</a>
</g>
</g>
<!-- codox/codox -->
<g id="node10" class="node">
<title>codox/codox</title>
<g id="a_node10"><a xlink:href="./codox.svg" xlink:title="codox/codox">
<path fill="green" stroke="black" d="M2191.2,-1743.12C2191.2,-1745.25 2164.27,-1746.98 2131.12,-1746.98 2097.97,-1746.98 2071.05,-1745.25 2071.05,-1743.12 2071.05,-1743.12 2071.05,-1708.35 2071.05,-1708.35 2071.05,-1706.22 2097.97,-1704.49 2131.12,-1704.49 2164.27,-1704.49 2191.2,-1706.22 2191.2,-1708.35 2191.2,-1708.35 2191.2,-1743.12 2191.2,-1743.12"/>
<path fill="none" stroke="black" d="M2191.2,-1743.12C2191.2,-1740.98 2164.27,-1739.25 2131.12,-1739.25 2097.97,-1739.25 2071.05,-1740.98 2071.05,-1743.12"/>
<text text-anchor="middle" x="2131.12" y="-1720.68" font-family="Times,serif" font-size="14.00">codox/codox</text>
</a>
</g>
</g>
<!-- io.github.clojure/tools.build -->
<g id="node11" class="node">
<title>io.github.clojure/tools.build</title>
<g id="a_node11"><a xlink:href="./io.github.clojure__tools.build.svg" xlink:title="io.github.clojure/tools.build">
<path fill="green" stroke="black" d="M2434.98,-2170.51C2434.98,-2172.64 2389.73,-2174.37 2334.03,-2174.37 2278.32,-2174.37 2233.08,-2172.64 2233.08,-2170.51 2233.08,-2170.51 2233.08,-2135.74 2233.08,-2135.74 2233.08,-2133.61 2278.32,-2131.88 2334.03,-2131.88 2389.73,-2131.88 2434.98,-2133.61 2434.98,-2135.74 2434.98,-2135.74 2434.98,-2170.51 2434.98,-2170.51"/>
<path fill="none" stroke="black" d="M2434.98,-2170.51C2434.98,-2168.37 2389.73,-2166.64 2334.03,-2166.64 2278.32,-2166.64 2233.08,-2168.37 2233.08,-2170.51"/>
<text text-anchor="middle" x="2334.03" y="-2148.07" font-family="Times,serif" font-size="14.00">io.github.clojure/tools.build</text>
</a>
</g>
</g>
<!-- io.dominic/vizns -->
<g id="node12" class="node">
<title>io.dominic/vizns</title>
<g id="a_node12"><a xlink:href="./io.dominic__vizns.svg" xlink:title="io.dominic/vizns">
<path fill="green" stroke="black" d="M2118.86,-1523.62C2118.86,-1525.76 2087.06,-1527.49 2047.91,-1527.49 2008.76,-1527.49 1976.96,-1525.76 1976.96,-1523.62 1976.96,-1523.62 1976.96,-1488.86 1976.96,-1488.86 1976.96,-1486.73 2008.76,-1485 2047.91,-1485 2087.06,-1485 2118.86,-1486.73 2118.86,-1488.86 2118.86,-1488.86 2118.86,-1523.62 2118.86,-1523.62"/>
<path fill="none" stroke="black" d="M2118.86,-1523.62C2118.86,-1521.49 2087.06,-1519.76 2047.91,-1519.76 2008.76,-1519.76 1976.96,-1521.49 1976.96,-1523.62"/>
<text text-anchor="middle" x="2047.91" y="-1501.19" font-family="Times,serif" font-size="14.00">io.dominic/vizns</text>
</a>
</g>
</g>
<!-- babashka/fs -->
<g id="node13" class="node">
<title>babashka/fs</title>
<g id="a_node13"><a xlink:href="./babashka__fs.svg" xlink:title="babashka/fs">
<path fill="green" stroke="black" d="M1458.89,-2036.59C1458.89,-2038.73 1433.3,-2040.46 1401.81,-2040.46 1370.32,-2040.46 1344.74,-2038.73 1344.74,-2036.59 1344.74,-2036.59 1344.74,-2001.83 1344.74,-2001.83 1344.74,-1999.7 1370.32,-1997.97 1401.81,-1997.97 1433.3,-1997.97 1458.89,-1999.7 1458.89,-2001.83 1458.89,-2001.83 1458.89,-2036.59 1458.89,-2036.59"/>
<path fill="none" stroke="black" d="M1458.89,-2036.59C1458.89,-2034.46 1433.3,-2032.73 1401.81,-2032.73 1370.32,-2032.73 1344.74,-2034.46 1344.74,-2036.59"/>
<text text-anchor="middle" x="1401.81" y="-2014.16" font-family="Times,serif" font-size="14.00">babashka/fs</text>
</a>
</g>
</g>
<!-- org.clojure/core.async -->
<g id="node14" class="node">
<title>org.clojure/core.async</title>
<g id="a_node14"><a xlink:href="./org.clojure__core.async.svg" xlink:title="org.clojure/core.async">
<path fill="red" stroke="black" d="M2151.15,-1946.14C2151.15,-1948.27 2112.79,-1950.01 2065.57,-1950.01 2018.36,-1950.01 1980,-1948.27 1980,-1946.14 1980,-1946.14 1980,-1911.38 1980,-1911.38 1980,-1909.25 2018.36,-1907.52 2065.57,-1907.52 2112.79,-1907.52 2151.15,-1909.25 2151.15,-1911.38 2151.15,-1911.38 2151.15,-1946.14 2151.15,-1946.14"/>
<path fill="none" stroke="black" d="M2151.15,-1946.14C2151.15,-1944.01 2112.79,-1942.28 2065.57,-1942.28 2018.36,-1942.28 1980,-1944.01 1980,-1946.14"/>
<text text-anchor="middle" x="2065.57" y="-1923.71" font-family="Times,serif" font-size="14.00">org.clojure/core.async</text>
</a>
</g>
</g>
<!-- automaton&#45;build&#45;app.os.edn&#45;utils -->
<g id="node15" class="node">
<title>automaton&#45;build&#45;app.os.edn&#45;utils</title>
<g id="a_node15"><a xlink:href="./automaton-build-app.os.edn-utils.svg" xlink:title="automaton&#45;build&#45;app.os.edn&#45;utils">
<ellipse fill="none" stroke="black" cx="1702.53" cy="-534.83" rx="134.26" ry="18"/>
<text text-anchor="middle" x="1702.53" y="-529.78" font-family="Times,serif" font-size="14.00">automaton&#45;build&#45;app.os.edn&#45;utils</text>
</a>
</g>
</g>
<!-- automaton&#45;build&#45;app.os.edn&#45;utils&#45;&gt;org.clojure/clojure -->
<g id="edge36" class="edge">
<title>automaton&#45;build&#45;app.os.edn&#45;utils&#45;&gt;org.clojure/clojure</title>
<path fill="none" stroke="black" d="M1670.43,-552.69C1601.17,-591.24 1437.34,-682.42 1355.09,-728.19"/>
<polygon fill="black" stroke="black" points="1353.6,-725.02 1346.56,-732.94 1357,-731.14 1353.6,-725.02"/>
</g>
<!-- automaton&#45;build&#45;app.doc.html -->
<g id="node16" class="node">
<title>automaton&#45;build&#45;app.doc.html</title>
<g id="a_node16"><a xlink:href="./automaton-build-app.doc.html.svg" xlink:title="automaton&#45;build&#45;app.doc.html">
<ellipse fill="none" stroke="black" cx="1050.71" cy="-1899" rx="124.54" ry="18"/>
<text text-anchor="middle" x="1050.71" y="-1893.95" font-family="Times,serif" font-size="14.00">automaton&#45;build&#45;app.doc.html</text>
</a>
</g>
</g>
<!-- automaton&#45;build&#45;app.doc.html&#45;&gt;hiccup/hiccup -->
<g id="edge25" class="edge">
<title>automaton&#45;build&#45;app.doc.html&#45;&gt;hiccup/hiccup</title>
<path fill="none" stroke="black" d="M962.91,-1912.12C951.82,-1913.77 940.57,-1915.46 929.72,-1917.08"/>
<polygon fill="black" stroke="black" points="929.45,-1913.58 920.08,-1918.52 930.48,-1920.5 929.45,-1913.58"/>
</g>
<!-- automaton&#45;build&#45;app.schema -->
<g id="node17" class="node">
<title>automaton&#45;build&#45;app.schema</title>
<g id="a_node17"><a xlink:href="./automaton-build-app.schema.svg" xlink:title="automaton&#45;build&#45;app.schema">
<ellipse fill="none" stroke="black" cx="946.59" cy="-1701" rx="119.42" ry="18"/>
<text text-anchor="middle" x="946.59" y="-1695.95" font-family="Times,serif" font-size="14.00">automaton&#45;build&#45;app.schema</text>
</a>
</g>
</g>
<!-- automaton&#45;build&#45;app.schema&#45;&gt;metosin/malli -->
<g id="edge9" class="edge">
<title>automaton&#45;build&#45;app.schema&#45;&gt;metosin/malli</title>
<path fill="none" stroke="black" d="M860.53,-1713.86C850.61,-1715.34 840.55,-1716.84 830.79,-1718.3"/>
<polygon fill="black" stroke="black" points="830.38,-1714.82 821,-1719.76 831.41,-1721.75 830.38,-1714.82"/>
</g>
<!-- automaton&#45;build&#45;app.log -->
<g id="node18" class="node">
<title>automaton&#45;build&#45;app.log</title>
<g id="a_node18"><a xlink:href="./automaton-build-app.log.svg" xlink:title="automaton&#45;build&#45;app.log">
<ellipse fill="none" stroke="black" cx="694.14" cy="-1072.58" rx="103.04" ry="18"/>
<text text-anchor="middle" x="694.14" y="-1067.53" font-family="Times,serif" font-size="14.00">automaton&#45;build&#45;app.log</text>
</a>
</g>
</g>
<!-- automaton&#45;build&#45;app.log&#45;&gt;org.clojure/clojure -->
<g id="edge11" class="edge">
<title>automaton&#45;build&#45;app.log&#45;&gt;org.clojure/clojure</title>
<path fill="none" stroke="black" d="M727.48,-1055.31C828.56,-1002.93 1132.1,-845.63 1254.35,-782.28"/>
<polygon fill="black" stroke="black" points="1255.95,-785.39 1263.22,-777.68 1252.73,-779.17 1255.95,-785.39"/>
</g>
<!-- automaton&#45;build&#45;app.tasks.gha&#45;container&#45;publish -->
<g id="node19" class="node">
<title>automaton&#45;build&#45;app.tasks.gha&#45;container&#45;publish</title>
<g id="a_node19"><a xlink:href="./automaton-build-app.tasks.gha-container-publish.svg" xlink:title="automaton&#45;build&#45;app.tasks.gha&#45;container&#45;publish">
<ellipse fill="none" stroke="black" cx="878.19" cy="-416.42" rx="193.12" ry="18"/>
<text text-anchor="middle" x="878.19" y="-411.37" font-family="Times,serif" font-size="14.00">automaton&#45;build&#45;app.tasks.gha&#45;container&#45;publish</text>
</a>
</g>
</g>
<!-- automaton&#45;build&#45;app.tasks.gha&#45;container&#45;publish&#45;&gt;org.clojure/clojure -->
<g id="edge8" class="edge">
<title>automaton&#45;build&#45;app.tasks.gha&#45;container&#45;publish&#45;&gt;org.clojure/clojure</title>
<path fill="none" stroke="black" d="M901.2,-434.64C971.65,-490.44 1184.76,-659.22 1270.2,-726.89"/>
<polygon fill="black" stroke="black" points="1267.82,-729.47 1277.83,-732.93 1272.16,-723.98 1267.82,-729.47"/>
</g>
<!-- automaton&#45;build&#45;app.code&#45;helpers.compiler -->
<g id="node20" class="node">
<title>automaton&#45;build&#45;app.code&#45;helpers.compiler</title>
<g id="a_node20"><a xlink:href="./automaton-build-app.code-helpers.compiler.svg" xlink:title="automaton&#45;build&#45;app.code&#45;helpers.compiler">
<ellipse fill="none" stroke="black" cx="2370.15" cy="-2200.37" rx="174.19" ry="18"/>
<text text-anchor="middle" x="2370.15" y="-2195.32" font-family="Times,serif" font-size="14.00">automaton&#45;build&#45;app.code&#45;helpers.compiler</text>
</a>
</g>
</g>
<!-- automaton&#45;build&#45;app.code&#45;helpers.compiler&#45;&gt;io.github.clojure/tools.build -->
<g id="edge19" class="edge">
<title>automaton&#45;build&#45;app.code&#45;helpers.compiler&#45;&gt;io.github.clojure/tools.build</title>
<path fill="none" stroke="black" d="M2356.08,-2181.97C2355.96,-2181.82 2355.85,-2181.67 2355.73,-2181.52"/>
<polygon fill="black" stroke="black" points="2360.29,-2181.72 2351.44,-2175.9 2354.73,-2185.97 2360.29,-2181.72"/>
</g>
<!-- automaton&#45;build&#45;app.tasks.launcher.print&#45;or&#45;spit -->
<g id="node21" class="node">
<title>automaton&#45;build&#45;app.tasks.launcher.print&#45;or&#45;spit</title>
<g id="a_node21"><a xlink:href="./automaton-build-app.tasks.launcher.print-or-spit.svg" xlink:title="automaton&#45;build&#45;app.tasks.launcher.print&#45;or&#45;spit">
<ellipse fill="none" stroke="black" cx="1535.3" cy="-2572.38" rx="190.56" ry="18"/>
<text text-anchor="middle" x="1535.3" y="-2567.33" font-family="Times,serif" font-size="14.00">automaton&#45;build&#45;app.tasks.launcher.print&#45;or&#45;spit</text>
</a>
</g>
</g>
<!-- automaton&#45;build&#45;app.tasks.launcher.print&#45;or&#45;spit&#45;&gt;babashka/fs -->
<g id="edge5" class="edge">
<title>automaton&#45;build&#45;app.tasks.launcher.print&#45;or&#45;spit&#45;&gt;babashka/fs</title>
<path fill="none" stroke="black" d="M1530.86,-2553.97C1511.54,-2473.92 1434.67,-2155.39 1409.7,-2051.89"/>
<polygon fill="black" stroke="black" points="1413.15,-2051.27 1407.4,-2042.37 1406.34,-2052.92 1413.15,-2051.27"/>
</g>
<!-- automaton&#45;build&#45;app.code&#45;helpers.update&#45;deps&#45;clj -->
<g id="node22" class="node">
<title>automaton&#45;build&#45;app.code&#45;helpers.update&#45;deps&#45;clj</title>
<g id="a_node22"><a xlink:href="./automaton-build-app.code-helpers.update-deps-clj.svg" xlink:title="automaton&#45;build&#45;app.code&#45;helpers.update&#45;deps&#45;clj">
<ellipse fill="none" stroke="black" cx="2168.66" cy="-1305" rx="197.73" ry="18"/>
<text text-anchor="middle" x="2168.66" y="-1299.95" font-family="Times,serif" font-size="14.00">automaton&#45;build&#45;app.code&#45;helpers.update&#45;deps&#45;clj</text>
</a>
</g>
</g>
<!-- automaton&#45;build&#45;app.code&#45;helpers.update&#45;deps&#45;clj&#45;&gt;com.github.liquidz/antq -->
<g id="edge17" class="edge">
<title>automaton&#45;build&#45;app.code&#45;helpers.update&#45;deps&#45;clj&#45;&gt;com.github.liquidz/antq</title>
<path fill="none" stroke="black" d="M2063.81,-1320.66C2034.87,-1324.99 2003.51,-1329.67 1974.71,-1333.98"/>
<polygon fill="black" stroke="black" points="1974.26,-1330.51 1964.89,-1335.44 1975.3,-1337.43 1974.26,-1330.51"/>
</g>
<!-- automaton&#45;build&#45;app.utils.namespace -->
<g id="node23" class="node">
<title>automaton&#45;build&#45;app.utils.namespace</title>
<g id="a_node23"><a xlink:href="./automaton-build-app.utils.namespace.svg" xlink:title="automaton&#45;build&#45;app.utils.namespace">
<ellipse fill="none" stroke="black" cx="930.5" cy="-151.12" rx="150.64" ry="18"/>
<text text-anchor="middle" x="930.5" y="-146.07" font-family="Times,serif" font-size="14.00">automaton&#45;build&#45;app.utils.namespace</text>
</a>
</g>
</g>
<!-- automaton&#45;build&#45;app.utils.namespace&#45;&gt;org.clojure/clojure -->
<g id="edge16" class="edge">
<title>automaton&#45;build&#45;app.utils.namespace&#45;&gt;org.clojure/clojure</title>
<path fill="none" stroke="black" d="M941.95,-169.54C995.2,-255.19 1218.93,-615.04 1286.68,-724.01"/>
<polygon fill="black" stroke="black" points="1283.69,-725.82 1291.94,-732.47 1289.63,-722.12 1283.69,-725.82"/>
</g>
<!-- automaton&#45;build&#45;app.file&#45;repo.text&#45;matches -->
<g id="node24" class="node">
<title>automaton&#45;build&#45;app.file&#45;repo.text&#45;matches</title>
<g id="a_node24"><a xlink:href="./automaton-build-app.file-repo.text-matches.svg" xlink:title="automaton&#45;build&#45;app.file&#45;repo.text&#45;matches">
<ellipse fill="none" stroke="black" cx="1603.96" cy="-83.74" rx="173.16" ry="18"/>
<text text-anchor="middle" x="1603.96" y="-78.69" font-family="Times,serif" font-size="14.00">automaton&#45;build&#45;app.file&#45;repo.text&#45;matches</text>
</a>
</g>
</g>
<!-- automaton&#45;build&#45;app.file&#45;repo.text&#45;matches&#45;&gt;org.clojure/clojure -->
<g id="edge12" class="edge">
<title>automaton&#45;build&#45;app.file&#45;repo.text&#45;matches&#45;&gt;org.clojure/clojure</title>
<path fill="none" stroke="black" d="M1595.84,-102.05C1555.08,-194.01 1372.62,-605.58 1320.28,-723.65"/>
<polygon fill="black" stroke="black" points="1317.23,-721.89 1316.38,-732.45 1323.63,-724.72 1317.23,-721.89"/>
</g>
<!-- automaton&#45;build&#45;app.containers.local&#45;engine -->
<g id="node25" class="node">
<title>automaton&#45;build&#45;app.containers.local&#45;engine</title>
<g id="a_node25"><a xlink:href="./automaton-build-app.containers.local-engine.svg" xlink:title="automaton&#45;build&#45;app.containers.local&#45;engine">
<ellipse fill="none" stroke="black" cx="1149.02" cy="-211.65" rx="177.26" ry="18"/>
<text text-anchor="middle" x="1149.02" y="-206.6" font-family="Times,serif" font-size="14.00">automaton&#45;build&#45;app.containers.local&#45;engine</text>
</a>
</g>
</g>
<!-- automaton&#45;build&#45;app.containers.local&#45;engine&#45;&gt;org.clojure/clojure -->
<g id="edge39" class="edge">
<title>automaton&#45;build&#45;app.containers.local&#45;engine&#45;&gt;org.clojure/clojure</title>
<path fill="none" stroke="black" d="M1154.34,-230.06C1177.22,-309.19 1267.38,-621.11 1296.84,-723.01"/>
<polygon fill="black" stroke="black" points="1293.4,-723.74 1299.54,-732.38 1300.13,-721.8 1293.4,-723.74"/>
</g>
<!-- automaton&#45;build&#45;app.cicd.cfg&#45;mgt -->
<g id="node26" class="node">
<title>automaton&#45;build&#45;app.cicd.cfg&#45;mgt</title>
<g id="a_node26"><a xlink:href="./automaton-build-app.cicd.cfg-mgt.svg" xlink:title="automaton&#45;build&#45;app.cicd.cfg&#45;mgt">
<ellipse fill="none" stroke="black" cx="623.17" cy="-841.97" rx="138.87" ry="18"/>
<text text-anchor="middle" x="623.17" y="-836.92" font-family="Times,serif" font-size="14.00">automaton&#45;build&#45;app.cicd.cfg&#45;mgt</text>
</a>
</g>
</g>
<!-- automaton&#45;build&#45;app.cicd.cfg&#45;mgt&#45;&gt;org.clojure/clojure -->
<g id="edge23" class="edge">
<title>automaton&#45;build&#45;app.cicd.cfg&#45;mgt&#45;&gt;org.clojure/clojure</title>
<path fill="none" stroke="black" d="M723.95,-829.2C857.95,-812.21 1092.56,-782.48 1219.2,-766.43"/>
<polygon fill="black" stroke="black" points="1219.39,-769.94 1228.87,-765.21 1218.51,-762.99 1219.39,-769.94"/>
</g>
<!-- automaton&#45;build&#45;app.file&#45;repo.raw.impl -->
<g id="node27" class="node">
<title>automaton&#45;build&#45;app.file&#45;repo.raw.impl</title>
<g id="a_node27"><a xlink:href="./automaton-build-app.file-repo.raw.impl.svg" xlink:title="automaton&#45;build&#45;app.file&#45;repo.raw.impl">
<ellipse fill="none" stroke="black" cx="2003.66" cy="-524.58" rx="158.83" ry="18"/>
<text text-anchor="middle" x="2003.66" y="-519.53" font-family="Times,serif" font-size="14.00">automaton&#45;build&#45;app.file&#45;repo.raw.impl</text>
</a>
</g>
</g>
<!-- automaton&#45;build&#45;app.file&#45;repo.raw.impl&#45;&gt;org.clojure/clojure -->
<g id="edge15" class="edge">
<title>automaton&#45;build&#45;app.file&#45;repo.raw.impl&#45;&gt;org.clojure/clojure</title>
<path fill="none" stroke="black" d="M1950.95,-542.02C1827.7,-582.81 1520.44,-684.5 1379.25,-731.23"/>
<polygon fill="black" stroke="black" points="1378.39,-727.83 1370,-734.29 1380.59,-734.47 1378.39,-727.83"/>
</g>
<!-- automaton&#45;build&#45;app.configuration.edn&#45;read -->
<g id="node28" class="node">
<title>automaton&#45;build&#45;app.configuration.edn&#45;read</title>
<g id="a_node28"><a xlink:href="./automaton-build-app.configuration.edn-read.svg" xlink:title="automaton&#45;build&#45;app.configuration.edn&#45;read">
<ellipse fill="none" stroke="black" cx="1667.33" cy="-1438.4" rx="175.72" ry="18"/>
<text text-anchor="middle" x="1667.33" y="-1433.35" font-family="Times,serif" font-size="14.00">automaton&#45;build&#45;app.configuration.edn&#45;read</text>
</a>
</g>
</g>
<!-- automaton&#45;build&#45;app.configuration.edn&#45;read&#45;&gt;org.clojure/clojure -->
<g id="edge2" class="edge">
<title>automaton&#45;build&#45;app.configuration.edn&#45;read&#45;&gt;org.clojure/clojure</title>
<path fill="none" stroke="black" d="M1657.67,-1420.13C1608.51,-1327.16 1385.98,-906.29 1322.91,-787"/>
<polygon fill="black" stroke="black" points="1326.12,-785.59 1318.35,-778.38 1319.93,-788.86 1326.12,-785.59"/>
</g>
<!-- automaton&#45;build&#45;app.configuration.edn&#45;read&#45;&gt;babashka/fs -->
<g id="edge1" class="edge">
<title>automaton&#45;build&#45;app.configuration.edn&#45;read&#45;&gt;babashka/fs</title>
<path fill="none" stroke="black" d="M1658.94,-1456.75C1621.01,-1539.71 1465.24,-1880.47 1416.48,-1987.14"/>
<polygon fill="black" stroke="black" points="1413.31,-1985.63 1412.34,-1996.18 1419.68,-1988.54 1413.31,-1985.63"/>
</g>
<!-- automaton&#45;build&#45;app.code&#45;helpers.formatter -->
<g id="node29" class="node">
<title>automaton&#45;build&#45;app.code&#45;helpers.formatter</title>
<g id="a_node29"><a xlink:href="./automaton-build-app.code-helpers.formatter.svg" xlink:title="automaton&#45;build&#45;app.code&#45;helpers.formatter">
<ellipse fill="none" stroke="black" cx="829.34" cy="-1257.82" rx="175.72" ry="18"/>
<text text-anchor="middle" x="829.34" y="-1252.77" font-family="Times,serif" font-size="14.00">automaton&#45;build&#45;app.code&#45;helpers.formatter</text>
</a>
</g>
</g>
<!-- automaton&#45;build&#45;app.code&#45;helpers.formatter&#45;&gt;org.clojure/clojure -->
<g id="edge21" class="edge">
<title>automaton&#45;build&#45;app.code&#45;helpers.formatter&#45;&gt;org.clojure/clojure</title>
<path fill="none" stroke="black" d="M846.6,-1239.65C917.76,-1164.67 1188.91,-878.98 1277.8,-785.33"/>
<polygon fill="black" stroke="black" points="1280.19,-787.89 1284.54,-778.23 1275.11,-783.07 1280.19,-787.89"/>
</g>
<!-- automaton&#45;build&#45;app.repl -->
<g id="node30" class="node">
<title>automaton&#45;build&#45;app.repl</title>
<g id="a_node30"><a xlink:href="./automaton-build-app.repl.svg" xlink:title="automaton&#45;build&#45;app.repl">
<ellipse fill="none" stroke="black" cx="2264.77" cy="-1899" rx="105.6" ry="18"/>
<text text-anchor="middle" x="2264.77" y="-1893.95" font-family="Times,serif" font-size="14.00">automaton&#45;build&#45;app.repl</text>
</a>
</g>
</g>
<!-- automaton&#45;build&#45;app.repl&#45;&gt;org.clojure/core.async -->
<g id="edge10" class="edge">
<title>automaton&#45;build&#45;app.repl&#45;&gt;org.clojure/core.async</title>
<path fill="none" stroke="black" d="M2184.33,-1911.02C2177.24,-1912.08 2170.02,-1913.16 2162.82,-1914.23"/>
<polygon fill="black" stroke="black" points="2162.4,-1910.76 2153.03,-1915.7 2163.43,-1917.68 2162.4,-1910.76"/>
</g>
<!-- automaton&#45;build&#45;app.cicd.version -->
<g id="node31" class="node">
<title>automaton&#45;build&#45;app.cicd.version</title>
<g id="a_node31"><a xlink:href="./automaton-build-app.cicd.version.svg" xlink:title="automaton&#45;build&#45;app.cicd.version">
<ellipse fill="none" stroke="black" cx="2314.31" cy="-2097" rx="136.31" ry="18"/>
<text text-anchor="middle" x="2314.31" y="-2091.95" font-family="Times,serif" font-size="14.00">automaton&#45;build&#45;app.cicd.version</text>
</a>
</g>
</g>
<!-- automaton&#45;build&#45;app.cicd.version&#45;&gt;io.github.clojure/tools.build -->
<g id="edge22" class="edge">
<title>automaton&#45;build&#45;app.cicd.version&#45;&gt;io.github.clojure/tools.build</title>
<path fill="none" stroke="black" d="M2320.77,-2115.38C2321.36,-2117.06 2321.96,-2118.79 2322.58,-2120.54"/>
<polygon fill="black" stroke="black" points="2319.27,-2121.68 2325.89,-2129.96 2325.88,-2119.36 2319.27,-2121.68"/>
</g>
<!-- automaton&#45;build&#45;app.doc.markdown&#45;to&#45;html -->
<g id="node32" class="node">
<title>automaton&#45;build&#45;app.doc.markdown&#45;to&#45;html</title>
<g id="a_node32"><a xlink:href="./automaton-build-app.doc.markdown-to-html.svg" xlink:title="automaton&#45;build&#45;app.doc.markdown&#45;to&#45;html">
<ellipse fill="none" stroke="black" cx="2273.95" cy="-1008" rx="177.77" ry="18"/>
<text text-anchor="middle" x="2273.95" y="-1002.95" font-family="Times,serif" font-size="14.00">automaton&#45;build&#45;app.doc.markdown&#45;to&#45;html</text>
</a>
</g>
</g>
<!-- automaton&#45;build&#45;app.doc.markdown&#45;to&#45;html&#45;&gt;markdown&#45;clj/markdown&#45;clj -->
<g id="edge30" class="edge">
<title>automaton&#45;build&#45;app.doc.markdown&#45;to&#45;html&#45;&gt;markdown&#45;clj/markdown&#45;clj</title>
<path fill="none" stroke="black" d="M2172.33,-1023.18C2148.85,-1026.69 2123.71,-1030.45 2099.7,-1034.03"/>
<polygon fill="black" stroke="black" points="2099.26,-1030.56 2089.89,-1035.5 2100.3,-1037.48 2099.26,-1030.56"/>
</g>
<!-- automaton&#45;build&#45;app.tasks.launcher.cli&#45;opts -->
<g id="node33" class="node">
<title>automaton&#45;build&#45;app.tasks.launcher.cli&#45;opts</title>
<g id="a_node33"><a xlink:href="./automaton-build-app.tasks.launcher.cli-opts.svg" xlink:title="automaton&#45;build&#45;app.tasks.launcher.cli&#45;opts">
<ellipse fill="none" stroke="black" cx="2219.6" cy="-711" rx="173.67" ry="18"/>
<text text-anchor="middle" x="2219.6" y="-705.95" font-family="Times,serif" font-size="14.00">automaton&#45;build&#45;app.tasks.launcher.cli&#45;opts</text>
</a>
</g>
</g>
<!-- automaton&#45;build&#45;app.tasks.launcher.cli&#45;opts&#45;&gt;org.clojure/tools.cli -->
<g id="edge3" class="edge">
<title>automaton&#45;build&#45;app.tasks.launcher.cli&#45;opts&#45;&gt;org.clojure/tools.cli</title>
<path fill="none" stroke="black" d="M2119.02,-726.03C2096.15,-729.44 2071.99,-733.05 2049.58,-736.4"/>
<polygon fill="black" stroke="black" points="2049.26,-732.91 2039.89,-737.85 2050.29,-739.83 2049.26,-732.91"/>
</g>
<!-- automaton&#45;build&#45;app.doc.markdown -->
<g id="node34" class="node">
<title>automaton&#45;build&#45;app.doc.markdown</title>
<g id="a_node34"><a xlink:href="./automaton-build-app.doc.markdown.svg" xlink:title="automaton&#45;build&#45;app.doc.markdown">
<ellipse fill="none" stroke="black" cx="1445.25" cy="-313.48" rx="147.06" ry="18"/>
<text text-anchor="middle" x="1445.25" y="-308.43" font-family="Times,serif" font-size="14.00">automaton&#45;build&#45;app.doc.markdown</text>
</a>
</g>
</g>
<!-- automaton&#45;build&#45;app.doc.markdown&#45;&gt;org.clojure/clojure -->
<g id="edge31" class="edge">
<title>automaton&#45;build&#45;app.doc.markdown&#45;&gt;org.clojure/clojure</title>
<path fill="none" stroke="black" d="M1439.45,-331.9C1418.1,-399.75 1343.7,-636.23 1316.37,-723.08"/>
<polygon fill="black" stroke="black" points="1313.1,-721.82 1313.44,-732.41 1319.78,-723.92 1313.1,-721.82"/>
</g>
<!-- automaton&#45;build&#45;app.file&#45;repo.clj&#45;code -->
<g id="node35" class="node">
<title>automaton&#45;build&#45;app.file&#45;repo.clj&#45;code</title>
<g id="a_node35"><a xlink:href="./automaton-build-app.file-repo.clj-code.svg" xlink:title="automaton&#45;build&#45;app.file&#45;repo.clj&#45;code">
<ellipse fill="none" stroke="black" cx="1825.5" cy="-246.64" rx="155.25" ry="18"/>
<text text-anchor="middle" x="1825.5" y="-241.59" font-family="Times,serif" font-size="14.00">automaton&#45;build&#45;app.file&#45;repo.clj&#45;code</text>
</a>
</g>
</g>
<!-- automaton&#45;build&#45;app.file&#45;repo.clj&#45;code&#45;&gt;org.clojure/clojure -->
<g id="edge14" class="edge">
<title>automaton&#45;build&#45;app.file&#45;repo.clj&#45;code&#45;&gt;org.clojure/clojure</title>
<path fill="none" stroke="black" d="M1807.01,-264.75C1729.76,-340.44 1432.24,-631.92 1336.25,-725.97"/>
<polygon fill="black" stroke="black" points="1333.89,-723.38 1329.2,-732.87 1338.79,-728.38 1333.89,-723.38"/>
</g>
<!-- automaton&#45;build&#45;app.os.commands -->
<g id="node36" class="node">
<title>automaton&#45;build&#45;app.os.commands</title>
<g id="a_node36"><a xlink:href="./automaton-build-app.os.commands.svg" xlink:title="automaton&#45;build&#45;app.os.commands">
<ellipse fill="none" stroke="black" cx="605.55" cy="-470.64" rx="142.97" ry="18"/>
<text text-anchor="middle" x="605.55" y="-465.59" font-family="Times,serif" font-size="14.00">automaton&#45;build&#45;app.os.commands</text>
</a>
</g>
</g>
<!-- automaton&#45;build&#45;app.os.commands&#45;&gt;org.clojure/clojure -->
<g id="edge33" class="edge">
<title>automaton&#45;build&#45;app.os.commands&#45;&gt;org.clojure/clojure</title>
<path fill="none" stroke="black" d="M648.85,-488.24C768.07,-536.69 1101.59,-672.25 1242.3,-729.43"/>
<polygon fill="black" stroke="black" points="1240.91,-732.65 1251.49,-733.17 1243.54,-726.16 1240.91,-732.65"/>
</g>
<!-- automaton&#45;build&#45;app.os.commands&#45;&gt;babashka/process -->
<g id="edge32" class="edge">
<title>automaton&#45;build&#45;app.os.commands&#45;&gt;babashka/process</title>
<path fill="none" stroke="black" d="M573.79,-452.66C484,-401.84 227.83,-256.83 120.59,-196.13"/>
<polygon fill="black" stroke="black" points="122.43,-193.15 112,-191.27 118.98,-199.24 122.43,-193.15"/>
</g>
<!-- automaton&#45;build&#45;app.tasks.registry.specific&#45;task -->
<g id="node37" class="node">
<title>automaton&#45;build&#45;app.tasks.registry.specific&#45;task</title>
<g id="a_node37"><a xlink:href="./automaton-build-app.tasks.registry.specific-task.svg" xlink:title="automaton&#45;build&#45;app.tasks.registry.specific&#45;task">
<ellipse fill="none" stroke="black" cx="1050.73" cy="-1482.98" rx="189.03" ry="18"/>
<text text-anchor="middle" x="1050.73" y="-1477.93" font-family="Times,serif" font-size="14.00">automaton&#45;build&#45;app.tasks.registry.specific&#45;task</text>
</a>
</g>
</g>
<!-- automaton&#45;build&#45;app.tasks.registry.specific&#45;task&#45;&gt;org.clojure/clojure -->
<g id="edge6" class="edge">
<title>automaton&#45;build&#45;app.tasks.registry.specific&#45;task&#45;&gt;org.clojure/clojure</title>
<path fill="none" stroke="black" d="M1057.17,-1464.63C1091.24,-1367.6 1250.51,-914.02 1294.76,-787.97"/>
<polygon fill="black" stroke="black" points="1298.05,-789.17 1298.06,-778.58 1291.45,-786.85 1298.05,-789.17"/>
</g>
<!-- automaton&#45;build&#45;app.tasks.registry.specific&#45;task&#45;&gt;babashka/fs -->
<g id="edge7" class="edge">
<title>automaton&#45;build&#45;app.tasks.registry.specific&#45;task&#45;&gt;babashka/fs</title>
<path fill="none" stroke="black" d="M1062.82,-1501.44C1114.4,-1580.23 1316.45,-1888.84 1381.51,-1988.21"/>
<polygon fill="black" stroke="black" points="1378.48,-1989.97 1386.89,-1996.42 1384.34,-1986.14 1378.48,-1989.97"/>
</g>
<!-- automaton&#45;build&#45;app.os.pdf -->
<g id="node38" class="node">
<title>automaton&#45;build&#45;app.os.pdf</title>
<g id="a_node38"><a xlink:href="./automaton-build-app.os.pdf.svg" xlink:title="automaton&#45;build&#45;app.os.pdf">
<ellipse fill="none" stroke="black" cx="2098.28" cy="-820.56" rx="114.3" ry="18"/>
<text text-anchor="middle" x="2098.28" y="-815.51" font-family="Times,serif" font-size="14.00">automaton&#45;build&#45;app.os.pdf</text>
</a>
</g>
</g>
<!-- automaton&#45;build&#45;app.os.pdf&#45;&gt;org.clojure/clojure -->
<g id="edge35" class="edge">
<title>automaton&#45;build&#45;app.os.pdf&#45;&gt;org.clojure/clojure</title>
<path fill="none" stroke="black" d="M1996.35,-812.17C1839.27,-799.25 1540.76,-774.7 1393.21,-762.56"/>
<polygon fill="black" stroke="black" points="1393.76,-759.1 1383.5,-761.76 1393.18,-766.07 1393.76,-759.1"/>
</g>
<!-- automaton&#45;build&#45;app.os.pdf&#45;&gt;clj&#45;htmltopdf/clj&#45;htmltopdf -->
<g id="edge34" class="edge">
<title>automaton&#45;build&#45;app.os.pdf&#45;&gt;clj&#45;htmltopdf/clj&#45;htmltopdf</title>
<path fill="none" stroke="black" d="M2193.7,-810.29C2303.66,-798.47 2484.09,-779.06 2600.2,-766.57"/>
<polygon fill="black" stroke="black" points="2600.51,-770.06 2610.07,-765.51 2599.76,-763.1 2600.51,-770.06"/>
</g>
<!-- automaton&#45;build&#45;app.code&#45;helpers.code&#45;stats -->
<g id="node39" class="node">
<title>automaton&#45;build&#45;app.code&#45;helpers.code&#45;stats</title>
<g id="a_node39"><a xlink:href="./automaton-build-app.code-helpers.code-stats.svg" xlink:title="automaton&#45;build&#45;app.code&#45;helpers.code&#45;stats">
<ellipse fill="none" stroke="black" cx="1769.69" cy="-895.04" rx="177.77" ry="18"/>
<text text-anchor="middle" x="1769.69" y="-889.99" font-family="Times,serif" font-size="14.00">automaton&#45;build&#45;app.code&#45;helpers.code&#45;stats</text>
</a>
</g>
</g>
<!-- automaton&#45;build&#45;app.code&#45;helpers.code&#45;stats&#45;&gt;org.clojure/clojure -->
<g id="edge18" class="edge">
<title>automaton&#45;build&#45;app.code&#45;helpers.code&#45;stats&#45;&gt;org.clojure/clojure</title>
<path fill="none" stroke="black" d="M1711.92,-877.64C1629.37,-852.77 1477.42,-806.99 1384.72,-779.06"/>
<polygon fill="black" stroke="black" points="1385.76,-775.72 1375.17,-776.18 1383.74,-782.42 1385.76,-775.72"/>
</g>
<!-- automaton&#45;build&#45;app.doc.blog -->
<g id="node40" class="node">
<title>automaton&#45;build&#45;app.doc.blog</title>
<g id="a_node40"><a xlink:href="./automaton-build-app.doc.blog.svg" xlink:title="automaton&#45;build&#45;app.doc.blog">
<ellipse fill="none" stroke="black" cx="854.56" cy="-727.91" rx="123.52" ry="18"/>
<text text-anchor="middle" x="854.56" y="-722.86" font-family="Times,serif" font-size="14.00">automaton&#45;build&#45;app.doc.blog</text>
</a>
</g>
</g>
<!-- automaton&#45;build&#45;app.doc.blog&#45;&gt;org.clojure/clojure -->
<g id="edge26" class="edge">
<title>automaton&#45;build&#45;app.doc.blog&#45;&gt;org.clojure/clojure</title>
<path fill="none" stroke="black" d="M969.11,-734.88C1046.88,-739.62 1148.12,-745.78 1219.27,-750.11"/>
<polygon fill="black" stroke="black" points="1218.72,-753.59 1228.92,-750.7 1219.15,-746.6 1218.72,-753.59"/>
</g>
<!-- automaton&#45;build&#45;app.cicd.server -->
<g id="node41" class="node">
<title>automaton&#45;build&#45;app.cicd.server</title>
<g id="a_node41"><a xlink:href="./automaton-build-app.cicd.server.svg" xlink:title="automaton&#45;build&#45;app.cicd.server">
<ellipse fill="none" stroke="black" cx="1062.59" cy="-1114.03" rx="131.71" ry="18"/>
<text text-anchor="middle" x="1062.59" y="-1108.98" font-family="Times,serif" font-size="14.00">automaton&#45;build&#45;app.cicd.server</text>
</a>
</g>
</g>
<!-- automaton&#45;build&#45;app.cicd.server&#45;&gt;org.clojure/clojure -->
<g id="edge24" class="edge">
<title>automaton&#45;build&#45;app.cicd.server&#45;&gt;org.clojure/clojure</title>
<path fill="none" stroke="black" d="M1075,-1095.76C1114.27,-1037.95 1236.05,-858.68 1285.26,-786.24"/>
<polygon fill="black" stroke="black" points="1288.13,-788.24 1290.85,-778 1282.34,-784.31 1288.13,-788.24"/>
</g>
<!-- automaton&#45;build&#45;app.file&#45;repo.text -->
<g id="node42" class="node">
<title>automaton&#45;build&#45;app.file&#45;repo.text</title>
<g id="a_node42"><a xlink:href="./automaton-build-app.file-repo.text.svg" xlink:title="automaton&#45;build&#45;app.file&#45;repo.text">
<ellipse fill="none" stroke="black" cx="1539.65" cy="-1141.77" rx="139.38" ry="18"/>
<text text-anchor="middle" x="1539.65" y="-1136.72" font-family="Times,serif" font-size="14.00">automaton&#45;build&#45;app.file&#45;repo.text</text>
</a>
</g>
</g>
<!-- automaton&#45;build&#45;app.file&#45;repo.text&#45;&gt;org.clojure/clojure -->
<g id="edge13" class="edge">
<title>automaton&#45;build&#45;app.file&#45;repo.text&#45;&gt;org.clojure/clojure</title>
<path fill="none" stroke="black" d="M1528.55,-1123.39C1491.43,-1061.97 1371.39,-863.3 1324.87,-786.3"/>
<polygon fill="black" stroke="black" points="1328.01,-784.73 1319.84,-777.98 1322.02,-788.35 1328.01,-784.73"/>
</g>
<!-- automaton&#45;build&#45;app.doc.code&#45;doc -->
<g id="node43" class="node">
<title>automaton&#45;build&#45;app.doc.code&#45;doc</title>
<g id="a_node43"><a xlink:href="./automaton-build-app.doc.code-doc.svg" xlink:title="automaton&#45;build&#45;app.doc.code&#45;doc">
<ellipse fill="none" stroke="black" cx="2025.87" cy="-1640.16" rx="140.92" ry="18"/>
<text text-anchor="middle" x="2025.87" y="-1635.11" font-family="Times,serif" font-size="14.00">automaton&#45;build&#45;app.doc.code&#45;doc</text>
</a>
</g>
</g>
<!-- automaton&#45;build&#45;app.doc.code&#45;doc&#45;&gt;io.github.clojure/tools.deps.graph -->
<g id="edge28" class="edge">
<title>automaton&#45;build&#45;app.doc.code&#45;doc&#45;&gt;io.github.clojure/tools.deps.graph</title>
<path fill="none" stroke="black" d="M1979.24,-1657.48C1975.4,-1658.91 1971.47,-1660.37 1967.51,-1661.84"/>
<polygon fill="black" stroke="black" points="1966.59,-1658.45 1958.43,-1665.21 1969.02,-1665.01 1966.59,-1658.45"/>
</g>
<!-- automaton&#45;build&#45;app.doc.code&#45;doc&#45;&gt;codox/codox -->
<g id="edge29" class="edge">
<title>automaton&#45;build&#45;app.doc.code&#45;doc&#45;&gt;codox/codox</title>
<path fill="none" stroke="black" d="M2048.19,-1658.31C2062.14,-1669.65 2080.4,-1684.5 2096.24,-1697.37"/>
<polygon fill="black" stroke="black" points="2093.6,-1699.74 2103.57,-1703.33 2098.02,-1694.31 2093.6,-1699.74"/>
</g>
<!-- automaton&#45;build&#45;app.doc.code&#45;doc&#45;&gt;io.dominic/vizns -->
<g id="edge27" class="edge">
<title>automaton&#45;build&#45;app.doc.code&#45;doc&#45;&gt;io.dominic/vizns</title>
<path fill="none" stroke="black" d="M2028.89,-1621.82C2032.38,-1600.57 2038.21,-1565.16 2042.5,-1539.12"/>
<polygon fill="black" stroke="black" points="2045.93,-1539.83 2044.1,-1529.4 2039.02,-1538.7 2045.93,-1539.83"/>
</g>
<!-- automaton&#45;build&#45;app.os.files -->
<g id="node44" class="node">
<title>automaton&#45;build&#45;app.os.files</title>
<g id="a_node44"><a xlink:href="./automaton-build-app.os.files.svg" xlink:title="automaton&#45;build&#45;app.os.files">
<ellipse fill="none" stroke="black" cx="1365.68" cy="-1447.33" rx="117.89" ry="18"/>
<text text-anchor="middle" x="1365.68" y="-1442.28" font-family="Times,serif" font-size="14.00">automaton&#45;build&#45;app.os.files</text>
</a>
</g>
</g>
<!-- automaton&#45;build&#45;app.os.files&#45;&gt;org.clojure/clojure -->
<g id="edge38" class="edge">
<title>automaton&#45;build&#45;app.os.files&#45;&gt;org.clojure/clojure</title>
<path fill="none" stroke="black" d="M1364.12,-1429.18C1356.1,-1335.91 1319.51,-910.2 1309.02,-788.18"/>
<polygon fill="black" stroke="black" points="1312.53,-788.2 1308.19,-778.53 1305.56,-788.8 1312.53,-788.2"/>
</g>
<!-- automaton&#45;build&#45;app.os.files&#45;&gt;babashka/fs -->
<g id="edge37" class="edge">
<title>automaton&#45;build&#45;app.os.files&#45;&gt;babashka/fs</title>
<path fill="none" stroke="black" d="M1366.84,-1465.71C1372.02,-1547.63 1393.02,-1880.1 1399.74,-1986.38"/>
<polygon fill="black" stroke="black" points="1396.23,-1986.36 1400.35,-1996.12 1403.21,-1985.92 1396.23,-1986.36"/>
</g>
<!-- automaton&#45;build&#45;app.tasks.launcher.bb&#45;entrypoint -->
<g id="node45" class="node">
<title>automaton&#45;build&#45;app.tasks.launcher.bb&#45;entrypoint</title>
<g id="a_node45"><a xlink:href="./automaton-build-app.tasks.launcher.bb-entrypoint.svg" xlink:title="automaton&#45;build&#45;app.tasks.launcher.bb&#45;entrypoint">
<ellipse fill="none" stroke="black" cx="1309.6" cy="-18" rx="196.19" ry="18"/>
<text text-anchor="middle" x="1309.6" y="-12.95" font-family="Times,serif" font-size="14.00">automaton&#45;build&#45;app.tasks.launcher.bb&#45;entrypoint</text>
</a>
</g>
</g>
<!-- automaton&#45;build&#45;app.tasks.launcher.bb&#45;entrypoint&#45;&gt;org.clojure/clojure -->
<g id="edge4" class="edge">
<title>automaton&#45;build&#45;app.tasks.launcher.bb&#45;entrypoint&#45;&gt;org.clojure/clojure</title>
<path fill="none" stroke="black" d="M1309.52,-36.23C1309.07,-133.77 1306.94,-594.41 1306.35,-722.37"/>
<polygon fill="black" stroke="black" points="1302.85,-722.16 1306.31,-732.17 1309.85,-722.19 1302.85,-722.16"/>
</g>
<!-- automaton&#45;build&#45;app.code&#45;helpers.analyze.forbidden&#45;words -->
<g id="node46" class="node">
<title>automaton&#45;build&#45;app.code&#45;helpers.analyze.forbidden&#45;words</title>
<g id="a_node46"><a xlink:href="./automaton-build-app.code-helpers.analyze.forbidden-words.svg" xlink:title="automaton&#45;build&#45;app.code&#45;helpers.analyze.forbidden&#45;words">
<ellipse fill="none" stroke="black" cx="1920.13" cy="-1137.08" rx="233.04" ry="18"/>
<text text-anchor="middle" x="1920.13" y="-1132.03" font-family="Times,serif" font-size="14.00">automaton&#45;build&#45;app.code&#45;helpers.analyze.forbidden&#45;words</text>
</a>
</g>
</g>
<!-- automaton&#45;build&#45;app.code&#45;helpers.analyze.forbidden&#45;words&#45;&gt;org.clojure/clojure -->
<g id="edge20" class="edge">
<title>automaton&#45;build&#45;app.code&#45;helpers.analyze.forbidden&#45;words&#45;&gt;org.clojure/clojure</title>
<path fill="none" stroke="black" d="M1890.93,-1118.92C1792.08,-1057.47 1469.55,-856.96 1350.7,-783.07"/>
<polygon fill="black" stroke="black" points="1352.8,-780.25 1342.46,-777.94 1349.1,-786.2 1352.8,-780.25"/>
</g>
</g>
</svg>
