<?xml version="1.0" encoding="UTF-8" standalone="no"?>
<!DOCTYPE svg PUBLIC "-//W3C//DTD SVG 1.1//EN"
 "http://www.w3.org/Graphics/SVG/1.1/DTD/svg11.dtd">
<!-- Generated by graphviz version 9.0.0 (20230911.1827)
 -->
<!-- Pages: 1 -->
<svg width="2176pt" height="2077pt"
 viewBox="0.00 0.00 2176.39 2077.08" xmlns="http://www.w3.org/2000/svg" xmlns:xlink="http://www.w3.org/1999/xlink">
<g id="graph0" class="graph" transform="scale(1 1) rotate(0) translate(4 2073.08)">
<polygon fill="white" stroke="none" points="-4,4 -4,-2073.08 2172.39,-2073.08 2172.39,4 -4,4"/>
<!-- org.clojure/clojure -->
<g id="node1" class="node">
<title>org.clojure/clojure</title>
<g id="a_node1"><a xlink:href="./org.clojure__clojure.svg" xlink:title="org.clojure/clojure">
<path fill="green" stroke="black" d="M998.42,-1034.35C998.42,-1036.48 964.6,-1038.21 922.97,-1038.21 881.34,-1038.21 847.52,-1036.48 847.52,-1034.35 847.52,-1034.35 847.52,-999.59 847.52,-999.59 847.52,-997.46 881.34,-995.73 922.97,-995.73 964.6,-995.73 998.42,-997.46 998.42,-999.59 998.42,-999.59 998.42,-1034.35 998.42,-1034.35"/>
<path fill="none" stroke="black" d="M998.42,-1034.35C998.42,-1032.22 964.6,-1030.49 922.97,-1030.49 881.34,-1030.49 847.52,-1032.22 847.52,-1034.35"/>
<text text-anchor="middle" x="922.97" y="-1011.92" font-family="Times,serif" font-size="14.00">org.clojure/clojure</text>
</a>
</g>
</g>
<!-- org.clojure/tools.cli -->
<g id="node2" class="node">
<title>org.clojure/tools.cli</title>
<g id="a_node2"><a xlink:href="./org.clojure__tools.cli.svg" xlink:title="org.clojure/tools.cli">
<path fill="red" stroke="black" d="M2098.24,-685.19C2098.24,-687.32 2063.08,-689.05 2019.79,-689.05 1976.5,-689.05 1941.34,-687.32 1941.34,-685.19 1941.34,-685.19 1941.34,-650.43 1941.34,-650.43 1941.34,-648.3 1976.5,-646.57 2019.79,-646.57 2063.08,-646.57 2098.24,-648.3 2098.24,-650.43 2098.24,-650.43 2098.24,-685.19 2098.24,-685.19"/>
<path fill="none" stroke="black" d="M2098.24,-685.19C2098.24,-683.06 2063.08,-681.33 2019.79,-681.33 1976.5,-681.33 1941.34,-683.06 1941.34,-685.19"/>
<text text-anchor="middle" x="2019.79" y="-662.76" font-family="Times,serif" font-size="14.00">org.clojure/tools.cli</text>
</a>
</g>
</g>
<!-- clj&#45;htmltopdf/clj&#45;htmltopdf -->
<g id="node3" class="node">
<title>clj&#45;htmltopdf/clj&#45;htmltopdf</title>
<g id="a_node3"><a xlink:href="./clj-htmltopdf.svg" xlink:title="clj&#45;htmltopdf/clj&#45;htmltopdf">
<path fill="green" stroke="black" d="M433.34,-38.63C433.34,-40.76 388.93,-42.49 334.26,-42.49 279.6,-42.49 235.19,-40.76 235.19,-38.63 235.19,-38.63 235.19,-3.86 235.19,-3.86 235.19,-1.73 279.6,0 334.26,0 388.93,0 433.34,-1.73 433.34,-3.86 433.34,-3.86 433.34,-38.63 433.34,-38.63"/>
<path fill="none" stroke="black" d="M433.34,-38.63C433.34,-36.49 388.93,-34.76 334.26,-34.76 279.6,-34.76 235.19,-36.49 235.19,-38.63"/>
<text text-anchor="middle" x="334.26" y="-16.19" font-family="Times,serif" font-size="14.00">clj&#45;htmltopdf/clj&#45;htmltopdf</text>
</a>
</g>
</g>
<!-- markdown&#45;clj/markdown&#45;clj -->
<g id="node4" class="node">
<title>markdown&#45;clj/markdown&#45;clj</title>
<g id="a_node4"><a xlink:href="./markdown-clj.svg" xlink:title="markdown&#45;clj/markdown&#45;clj">
<path fill="green" stroke="black" d="M207.15,-1843.57C207.15,-1845.7 160.73,-1847.43 103.58,-1847.43 46.42,-1847.43 0,-1845.7 0,-1843.57 0,-1843.57 0,-1808.81 0,-1808.81 0,-1806.68 46.42,-1804.94 103.58,-1804.94 160.73,-1804.94 207.15,-1806.68 207.15,-1808.81 207.15,-1808.81 207.15,-1843.57 207.15,-1843.57"/>
<path fill="none" stroke="black" d="M207.15,-1843.57C207.15,-1841.44 160.73,-1839.71 103.58,-1839.71 46.42,-1839.71 0,-1841.44 0,-1843.57"/>
<text text-anchor="middle" x="103.58" y="-1821.14" font-family="Times,serif" font-size="14.00">markdown&#45;clj/markdown&#45;clj</text>
</a>
</g>
</g>
<!-- hiccup/hiccup -->
<g id="node5" class="node">
<title>hiccup/hiccup</title>
<g id="a_node5"><a xlink:href="./hiccup.svg" xlink:title="hiccup/hiccup">
<path fill="green" stroke="black" d="M1710.15,-1208.61C1710.15,-1210.74 1681.88,-1212.47 1647.08,-1212.47 1612.27,-1212.47 1584,-1210.74 1584,-1208.61 1584,-1208.61 1584,-1173.85 1584,-1173.85 1584,-1171.72 1612.27,-1169.99 1647.08,-1169.99 1681.88,-1169.99 1710.15,-1171.72 1710.15,-1173.85 1710.15,-1173.85 1710.15,-1208.61 1710.15,-1208.61"/>
<path fill="none" stroke="black" d="M1710.15,-1208.61C1710.15,-1206.48 1681.88,-1204.75 1647.08,-1204.75 1612.27,-1204.75 1584,-1206.48 1584,-1208.61"/>
<text text-anchor="middle" x="1647.08" y="-1186.18" font-family="Times,serif" font-size="14.00">hiccup/hiccup</text>
</a>
</g>
</g>
<!-- metosin/malli -->
<g id="node6" class="node">
<title>metosin/malli</title>
<g id="a_node6"><a xlink:href="./metosin__malli.svg" xlink:title="metosin/malli">
<path fill="green" stroke="black" d="M1886.15,-1823.85C1886.15,-1825.98 1857.88,-1827.71 1823.08,-1827.71 1788.27,-1827.71 1760,-1825.98 1760,-1823.85 1760,-1823.85 1760,-1789.08 1760,-1789.08 1760,-1786.95 1788.27,-1785.22 1823.08,-1785.22 1857.88,-1785.22 1886.15,-1786.95 1886.15,-1789.08 1886.15,-1789.08 1886.15,-1823.85 1886.15,-1823.85"/>
<path fill="none" stroke="black" d="M1886.15,-1823.85C1886.15,-1821.71 1857.88,-1819.98 1823.08,-1819.98 1788.27,-1819.98 1760,-1821.71 1760,-1823.85"/>
<text text-anchor="middle" x="1823.08" y="-1801.41" font-family="Times,serif" font-size="14.00">metosin/malli</text>
</a>
</g>
</g>
<!-- babashka/process -->
<g id="node7" class="node">
<title>babashka/process</title>
<g id="a_node7"><a xlink:href="./babashka__process.svg" xlink:title="babashka/process">
<path fill="green" stroke="black" d="M1518.14,-2065.22C1518.14,-2067.35 1485.67,-2069.08 1445.69,-2069.08 1405.71,-2069.08 1373.24,-2067.35 1373.24,-2065.22 1373.24,-2065.22 1373.24,-2030.46 1373.24,-2030.46 1373.24,-2028.33 1405.71,-2026.6 1445.69,-2026.6 1485.67,-2026.6 1518.14,-2028.33 1518.14,-2030.46 1518.14,-2030.46 1518.14,-2065.22 1518.14,-2065.22"/>
<path fill="none" stroke="black" d="M1518.14,-2065.22C1518.14,-2063.09 1485.67,-2061.36 1445.69,-2061.36 1405.71,-2061.36 1373.24,-2063.09 1373.24,-2065.22"/>
<text text-anchor="middle" x="1445.69" y="-2042.79" font-family="Times,serif" font-size="14.00">babashka/process</text>
</a>
</g>
</g>
<!-- io.github.clojure/tools.deps.graph -->
<g id="node8" class="node">
<title>io.github.clojure/tools.deps.graph</title>
<g id="a_node8"><a xlink:href="./io.github.clojure__tools.deps.graph.svg" xlink:title="io.github.clojure/tools.deps.graph">
<path fill="green" stroke="black" d="M1641.4,-1627.79C1641.4,-1629.92 1589.09,-1631.65 1524.7,-1631.65 1460.31,-1631.65 1408,-1629.92 1408,-1627.79 1408,-1627.79 1408,-1593.02 1408,-1593.02 1408,-1590.89 1460.31,-1589.16 1524.7,-1589.16 1589.09,-1589.16 1641.4,-1590.89 1641.4,-1593.02 1641.4,-1593.02 1641.4,-1627.79 1641.4,-1627.79"/>
<path fill="none" stroke="black" d="M1641.4,-1627.79C1641.4,-1625.66 1589.09,-1623.92 1524.7,-1623.92 1460.31,-1623.92 1408,-1625.66 1408,-1627.79"/>
<text text-anchor="middle" x="1524.7" y="-1605.36" font-family="Times,serif" font-size="14.00">io.github.clojure/tools.deps.graph</text>
</a>
</g>
</g>
<!-- com.github.liquidz/antq -->
<g id="node9" class="node">
<title>com.github.liquidz/antq</title>
<g id="a_node9"><a xlink:href="./com.github.liquidz__antq.svg" xlink:title="com.github.liquidz/antq">
<path fill="green" stroke="black" d="M1764.9,-959.64C1764.9,-961.77 1724.36,-963.5 1674.45,-963.5 1624.54,-963.5 1584,-961.77 1584,-959.64 1584,-959.64 1584,-924.87 1584,-924.87 1584,-922.74 1624.54,-921.01 1674.45,-921.01 1724.36,-921.01 1764.9,-922.74 1764.9,-924.87 1764.9,-924.87 1764.9,-959.64 1764.9,-959.64"/>
<path fill="none" stroke="black" d="M1764.9,-959.64C1764.9,-957.51 1724.36,-955.77 1674.45,-955.77 1624.54,-955.77 1584,-957.51 1584,-959.64"/>
<text text-anchor="middle" x="1674.45" y="-937.21" font-family="Times,serif" font-size="14.00">com.github.liquidz/antq</text>
</a>
</g>
</g>
<!-- codox/codox -->
<g id="node10" class="node">
<title>codox/codox</title>
<g id="a_node10"><a xlink:href="./codox.svg" xlink:title="codox/codox">
<path fill="green" stroke="black" d="M1817.2,-1666.12C1817.2,-1668.25 1790.27,-1669.98 1757.12,-1669.98 1723.97,-1669.98 1697.05,-1668.25 1697.05,-1666.12 1697.05,-1666.12 1697.05,-1631.35 1697.05,-1631.35 1697.05,-1629.22 1723.97,-1627.49 1757.12,-1627.49 1790.27,-1627.49 1817.2,-1629.22 1817.2,-1631.35 1817.2,-1631.35 1817.2,-1666.12 1817.2,-1666.12"/>
<path fill="none" stroke="black" d="M1817.2,-1666.12C1817.2,-1663.98 1790.27,-1662.25 1757.12,-1662.25 1723.97,-1662.25 1697.05,-1663.98 1697.05,-1666.12"/>
<text text-anchor="middle" x="1757.12" y="-1643.68" font-family="Times,serif" font-size="14.00">codox/codox</text>
</a>
</g>
</g>
<!-- io.github.clojure/tools.build -->
<g id="node11" class="node">
<title>io.github.clojure/tools.build</title>
<g id="a_node11"><a xlink:href="./io.github.clojure__tools.build.svg" xlink:title="io.github.clojure/tools.build">
<path fill="green" stroke="black" d="M1928.98,-531.51C1928.98,-533.64 1883.73,-535.37 1828.03,-535.37 1772.32,-535.37 1727.08,-533.64 1727.08,-531.51 1727.08,-531.51 1727.08,-496.74 1727.08,-496.74 1727.08,-494.61 1772.32,-492.88 1828.03,-492.88 1883.73,-492.88 1928.98,-494.61 1928.98,-496.74 1928.98,-496.74 1928.98,-531.51 1928.98,-531.51"/>
<path fill="none" stroke="black" d="M1928.98,-531.51C1928.98,-529.37 1883.73,-527.64 1828.03,-527.64 1772.32,-527.64 1727.08,-529.37 1727.08,-531.51"/>
<text text-anchor="middle" x="1828.03" y="-509.07" font-family="Times,serif" font-size="14.00">io.github.clojure/tools.build</text>
</a>
</g>
</g>
<!-- io.dominic/vizns -->
<g id="node12" class="node">
<title>io.dominic/vizns</title>
<g id="a_node12"><a xlink:href="./io.dominic__vizns.svg" xlink:title="io.dominic/vizns">
<path fill="green" stroke="black" d="M1744.86,-1446.62C1744.86,-1448.76 1713.06,-1450.49 1673.91,-1450.49 1634.76,-1450.49 1602.96,-1448.76 1602.96,-1446.62 1602.96,-1446.62 1602.96,-1411.86 1602.96,-1411.86 1602.96,-1409.73 1634.76,-1408 1673.91,-1408 1713.06,-1408 1744.86,-1409.73 1744.86,-1411.86 1744.86,-1411.86 1744.86,-1446.62 1744.86,-1446.62"/>
<path fill="none" stroke="black" d="M1744.86,-1446.62C1744.86,-1444.49 1713.06,-1442.76 1673.91,-1442.76 1634.76,-1442.76 1602.96,-1444.49 1602.96,-1446.62"/>
<text text-anchor="middle" x="1673.91" y="-1424.19" font-family="Times,serif" font-size="14.00">io.dominic/vizns</text>
</a>
</g>
</g>
<!-- babashka/fs -->
<g id="node13" class="node">
<title>babashka/fs</title>
<g id="a_node13"><a xlink:href="./babashka__fs.svg" xlink:title="babashka/fs">
<path fill="green" stroke="black" d="M1598.96,-207.22C1598.96,-209.35 1573.38,-211.08 1541.89,-211.08 1510.39,-211.08 1484.81,-209.35 1484.81,-207.22 1484.81,-207.22 1484.81,-172.45 1484.81,-172.45 1484.81,-170.32 1510.39,-168.59 1541.89,-168.59 1573.38,-168.59 1598.96,-170.32 1598.96,-172.45 1598.96,-172.45 1598.96,-207.22 1598.96,-207.22"/>
<path fill="none" stroke="black" d="M1598.96,-207.22C1598.96,-205.09 1573.38,-203.35 1541.89,-203.35 1510.39,-203.35 1484.81,-205.09 1484.81,-207.22"/>
<text text-anchor="middle" x="1541.89" y="-184.79" font-family="Times,serif" font-size="14.00">babashka/fs</text>
</a>
</g>
</g>
<!-- org.clojure/core.async -->
<g id="node14" class="node">
<title>org.clojure/core.async</title>
<g id="a_node14"><a xlink:href="./org.clojure__core.async.svg" xlink:title="org.clojure/core.async">
<path fill="red" stroke="black" d="M875.15,-1825.14C875.15,-1827.27 836.79,-1829.01 789.58,-1829.01 742.36,-1829.01 704,-1827.27 704,-1825.14 704,-1825.14 704,-1790.38 704,-1790.38 704,-1788.25 742.36,-1786.52 789.58,-1786.52 836.79,-1786.52 875.15,-1788.25 875.15,-1790.38 875.15,-1790.38 875.15,-1825.14 875.15,-1825.14"/>
<path fill="none" stroke="black" d="M875.15,-1825.14C875.15,-1823.01 836.79,-1821.28 789.58,-1821.28 742.36,-1821.28 704,-1823.01 704,-1825.14"/>
<text text-anchor="middle" x="789.58" y="-1802.71" font-family="Times,serif" font-size="14.00">org.clojure/core.async</text>
</a>
</g>
</g>
<!-- automaton&#45;build&#45;app.os.edn&#45;utils -->
<g id="node15" class="node">
<title>automaton&#45;build&#45;app.os.edn&#45;utils</title>
<g id="a_node15"><a xlink:href="./automaton-build-app.os.edn-utils.svg" xlink:title="automaton&#45;build&#45;app.os.edn&#45;utils">
<ellipse fill="none" stroke="black" cx="353.36" cy="-811.7" rx="134.26" ry="18"/>
<text text-anchor="middle" x="353.36" y="-806.65" font-family="Times,serif" font-size="14.00">automaton&#45;build&#45;app.os.edn&#45;utils</text>
</a>
</g>
</g>
<!-- automaton&#45;build&#45;app.os.edn&#45;utils&#45;&gt;org.clojure/clojure -->
<g id="edge33" class="edge">
<title>automaton&#45;build&#45;app.os.edn&#45;utils&#45;&gt;org.clojure/clojure</title>
<path fill="none" stroke="black" d="M400.95,-828.85C501.16,-864.96 734.39,-949.01 852.19,-991.46"/>
<polygon fill="black" stroke="black" points="850.86,-994.7 861.46,-994.8 853.23,-988.12 850.86,-994.7"/>
</g>
<!-- automaton&#45;build&#45;app.doc.html -->
<g id="node16" class="node">
<title>automaton&#45;build&#45;app.doc.html</title>
<g id="a_node16"><a xlink:href="./automaton-build-app.doc.html.svg" xlink:title="automaton&#45;build&#45;app.doc.html">
<ellipse fill="none" stroke="black" cx="1842.71" cy="-1162" rx="124.54" ry="18"/>
<text text-anchor="middle" x="1842.71" y="-1156.95" font-family="Times,serif" font-size="14.00">automaton&#45;build&#45;app.doc.html</text>
</a>
</g>
</g>
<!-- automaton&#45;build&#45;app.doc.html&#45;&gt;hiccup/hiccup -->
<g id="edge22" class="edge">
<title>automaton&#45;build&#45;app.doc.html&#45;&gt;hiccup/hiccup</title>
<path fill="none" stroke="black" d="M1754.91,-1175.12C1743.82,-1176.77 1732.57,-1178.46 1721.72,-1180.08"/>
<polygon fill="black" stroke="black" points="1721.45,-1176.58 1712.08,-1181.52 1722.48,-1183.5 1721.45,-1176.58"/>
</g>
<!-- automaton&#45;build&#45;app.schema -->
<g id="node17" class="node">
<title>automaton&#45;build&#45;app.schema</title>
<g id="a_node17"><a xlink:href="./automaton-build-app.schema.svg" xlink:title="automaton&#45;build&#45;app.schema">
<ellipse fill="none" stroke="black" cx="2013.59" cy="-1778" rx="119.42" ry="18"/>
<text text-anchor="middle" x="2013.59" y="-1772.95" font-family="Times,serif" font-size="14.00">automaton&#45;build&#45;app.schema</text>
</a>
</g>
</g>
<!-- automaton&#45;build&#45;app.schema&#45;&gt;metosin/malli -->
<g id="edge4" class="edge">
<title>automaton&#45;build&#45;app.schema&#45;&gt;metosin/malli</title>
<path fill="none" stroke="black" d="M1927.53,-1790.86C1917.61,-1792.34 1907.55,-1793.84 1897.79,-1795.3"/>
<polygon fill="black" stroke="black" points="1897.38,-1791.82 1888,-1796.76 1898.41,-1798.75 1897.38,-1791.82"/>
</g>
<!-- automaton&#45;build&#45;app.log -->
<g id="node18" class="node">
<title>automaton&#45;build&#45;app.log</title>
<g id="a_node18"><a xlink:href="./automaton-build-app.log.svg" xlink:title="automaton&#45;build&#45;app.log">
<ellipse fill="none" stroke="black" cx="1324.46" cy="-954.92" rx="103.04" ry="18"/>
<text text-anchor="middle" x="1324.46" y="-949.87" font-family="Times,serif" font-size="14.00">automaton&#45;build&#45;app.log</text>
</a>
</g>
</g>
<!-- automaton&#45;build&#45;app.log&#45;&gt;org.clojure/clojure -->
<g id="edge6" class="edge">
<title>automaton&#45;build&#45;app.log&#45;&gt;org.clojure/clojure</title>
<path fill="none" stroke="black" d="M1246.57,-966.96C1178.6,-977.46 1080.11,-992.68 1009.66,-1003.57"/>
<polygon fill="black" stroke="black" points="1009.44,-1000.06 1000.09,-1005.05 1010.51,-1006.98 1009.44,-1000.06"/>
</g>
<!-- automaton&#45;build&#45;app.tasks.gha&#45;container&#45;publish -->
<g id="node19" class="node">
<title>automaton&#45;build&#45;app.tasks.gha&#45;container&#45;publish</title>
<g id="a_node19"><a xlink:href="./automaton-build-app.tasks.gha-container-publish.svg" xlink:title="automaton&#45;build&#45;app.tasks.gha&#45;container&#45;publish">
<ellipse fill="none" stroke="black" cx="535.31" cy="-675.41" rx="193.12" ry="18"/>
<text text-anchor="middle" x="535.31" y="-670.36" font-family="Times,serif" font-size="14.00">automaton&#45;build&#45;app.tasks.gha&#45;container&#45;publish</text>
</a>
</g>
</g>
<!-- automaton&#45;build&#45;app.tasks.gha&#45;container&#45;publish&#45;&gt;org.clojure/clojure -->
<g id="edge3" class="edge">
<title>automaton&#45;build&#45;app.tasks.gha&#45;container&#45;publish&#45;&gt;org.clojure/clojure</title>
<path fill="none" stroke="black" d="M556.15,-693.77C619.83,-749.88 812.19,-919.37 889.89,-987.82"/>
<polygon fill="black" stroke="black" points="887.39,-990.29 897.21,-994.27 892.02,-985.04 887.39,-990.29"/>
</g>
<!-- automaton&#45;build&#45;app.code&#45;helpers.compiler -->
<g id="node20" class="node">
<title>automaton&#45;build&#45;app.code&#45;helpers.compiler</title>
<g id="a_node20"><a xlink:href="./automaton-build-app.code-helpers.compiler.svg" xlink:title="automaton&#45;build&#45;app.code&#45;helpers.compiler">
<ellipse fill="none" stroke="black" cx="1864.15" cy="-561.37" rx="174.19" ry="18"/>
<text text-anchor="middle" x="1864.15" y="-556.32" font-family="Times,serif" font-size="14.00">automaton&#45;build&#45;app.code&#45;helpers.compiler</text>
</a>
</g>
</g>
<!-- automaton&#45;build&#45;app.code&#45;helpers.compiler&#45;&gt;io.github.clojure/tools.build -->
<g id="edge14" class="edge">
<title>automaton&#45;build&#45;app.code&#45;helpers.compiler&#45;&gt;io.github.clojure/tools.build</title>
<path fill="none" stroke="black" d="M1850.08,-542.97C1849.96,-542.82 1849.85,-542.67 1849.73,-542.52"/>
<polygon fill="black" stroke="black" points="1854.29,-542.72 1845.44,-536.9 1848.73,-546.97 1854.29,-542.72"/>
</g>
<!-- automaton&#45;build&#45;app.code&#45;helpers.update&#45;deps&#45;clj -->
<g id="node21" class="node">
<title>automaton&#45;build&#45;app.code&#45;helpers.update&#45;deps&#45;clj</title>
<g id="a_node21"><a xlink:href="./automaton-build-app.code-helpers.update-deps-clj.svg" xlink:title="automaton&#45;build&#45;app.code&#45;helpers.update&#45;deps&#45;clj">
<ellipse fill="none" stroke="black" cx="1970.66" cy="-898" rx="197.73" ry="18"/>
<text text-anchor="middle" x="1970.66" y="-892.95" font-family="Times,serif" font-size="14.00">automaton&#45;build&#45;app.code&#45;helpers.update&#45;deps&#45;clj</text>
</a>
</g>
</g>
<!-- automaton&#45;build&#45;app.code&#45;helpers.update&#45;deps&#45;clj&#45;&gt;com.github.liquidz/antq -->
<g id="edge12" class="edge">
<title>automaton&#45;build&#45;app.code&#45;helpers.update&#45;deps&#45;clj&#45;&gt;com.github.liquidz/antq</title>
<path fill="none" stroke="black" d="M1865.81,-913.66C1836.87,-917.99 1805.51,-922.67 1776.71,-926.98"/>
<polygon fill="black" stroke="black" points="1776.26,-923.51 1766.89,-928.44 1777.3,-930.43 1776.26,-923.51"/>
</g>
<!-- automaton&#45;build&#45;app.tasks&#45;helper -->
<g id="node22" class="node">
<title>automaton&#45;build&#45;app.tasks&#45;helper</title>
<g id="a_node22"><a xlink:href="./automaton-build-app.tasks-helper.svg" xlink:title="automaton&#45;build&#45;app.tasks&#45;helper">
<ellipse fill="none" stroke="black" cx="1492.02" cy="-713.9" rx="135.8" ry="18"/>
<text text-anchor="middle" x="1492.02" y="-708.85" font-family="Times,serif" font-size="14.00">automaton&#45;build&#45;app.tasks&#45;helper</text>
</a>
</g>
</g>
<!-- automaton&#45;build&#45;app.tasks&#45;helper&#45;&gt;org.clojure/clojure -->
<g id="edge20" class="edge">
<title>automaton&#45;build&#45;app.tasks&#45;helper&#45;&gt;org.clojure/clojure</title>
<path fill="none" stroke="black" d="M1458.55,-731.72C1362.8,-782.71 1087.4,-929.39 973.36,-990.13"/>
<polygon fill="black" stroke="black" points="972,-986.89 964.82,-994.68 975.29,-993.07 972,-986.89"/>
</g>
<!-- automaton&#45;build&#45;app.tasks&#45;helper&#45;&gt;org.clojure/tools.cli -->
<g id="edge21" class="edge">
<title>automaton&#45;build&#45;app.tasks&#45;helper&#45;&gt;org.clojure/tools.cli</title>
<path fill="none" stroke="black" d="M1606.54,-703.9C1703.4,-695.44 1840.29,-683.48 1929.54,-675.69"/>
<polygon fill="black" stroke="black" points="1929.83,-679.18 1939.48,-674.82 1929.22,-672.21 1929.83,-679.18"/>
</g>
<!-- automaton&#45;build&#45;app.tasks&#45;helper&#45;&gt;babashka/fs -->
<g id="edge19" class="edge">
<title>automaton&#45;build&#45;app.tasks&#45;helper&#45;&gt;babashka/fs</title>
<path fill="none" stroke="black" d="M1493.76,-695.55C1501.07,-618.77 1529.25,-322.58 1538.75,-222.84"/>
<polygon fill="black" stroke="black" points="1542.23,-223.2 1539.69,-212.92 1535.26,-222.54 1542.23,-223.2"/>
</g>
<!-- automaton&#45;build&#45;app.utils.namespace -->
<g id="node23" class="node">
<title>automaton&#45;build&#45;app.utils.namespace</title>
<g id="a_node23"><a xlink:href="./automaton-build-app.utils.namespace.svg" xlink:title="automaton&#45;build&#45;app.utils.namespace">
<ellipse fill="none" stroke="black" cx="801.43" cy="-584.54" rx="150.64" ry="18"/>
<text text-anchor="middle" x="801.43" y="-579.49" font-family="Times,serif" font-size="14.00">automaton&#45;build&#45;app.utils.namespace</text>
</a>
</g>
</g>
<!-- automaton&#45;build&#45;app.utils.namespace&#45;&gt;org.clojure/clojure -->
<g id="edge11" class="edge">
<title>automaton&#45;build&#45;app.utils.namespace&#45;&gt;org.clojure/clojure</title>
<path fill="none" stroke="black" d="M806.57,-602.84C825.28,-669.39 889.83,-899.05 913.86,-984.56"/>
<polygon fill="black" stroke="black" points="910.42,-985.27 916.5,-993.95 917.16,-983.37 910.42,-985.27"/>
</g>
<!-- automaton&#45;build&#45;app.file&#45;repo.text&#45;matches -->
<g id="node24" class="node">
<title>automaton&#45;build&#45;app.file&#45;repo.text&#45;matches</title>
<g id="a_node24"><a xlink:href="./automaton-build-app.file-repo.text-matches.svg" xlink:title="automaton&#45;build&#45;app.file&#45;repo.text&#45;matches">
<ellipse fill="none" stroke="black" cx="325.34" cy="-1090.76" rx="173.16" ry="18"/>
<text text-anchor="middle" x="325.34" y="-1085.71" font-family="Times,serif" font-size="14.00">automaton&#45;build&#45;app.file&#45;repo.text&#45;matches</text>
</a>
</g>
</g>
<!-- automaton&#45;build&#45;app.file&#45;repo.text&#45;matches&#45;&gt;org.clojure/clojure -->
<g id="edge7" class="edge">
<title>automaton&#45;build&#45;app.file&#45;repo.text&#45;matches&#45;&gt;org.clojure/clojure</title>
<path fill="none" stroke="black" d="M438.45,-1076.79C554.03,-1062.52 731.03,-1040.67 836.06,-1027.7"/>
<polygon fill="black" stroke="black" points="836.25,-1031.2 845.75,-1026.5 835.39,-1024.26 836.25,-1031.2"/>
</g>
<!-- automaton&#45;build&#45;app.containers.local&#45;engine -->
<g id="node25" class="node">
<title>automaton&#45;build&#45;app.containers.local&#45;engine</title>
<g id="a_node25"><a xlink:href="./automaton-build-app.containers.local-engine.svg" xlink:title="automaton&#45;build&#45;app.containers.local&#45;engine">
<ellipse fill="none" stroke="black" cx="1482.21" cy="-1095.07" rx="177.26" ry="18"/>
<text text-anchor="middle" x="1482.21" y="-1090.02" font-family="Times,serif" font-size="14.00">automaton&#45;build&#45;app.containers.local&#45;engine</text>
</a>
</g>
</g>
<!-- automaton&#45;build&#45;app.containers.local&#45;engine&#45;&gt;org.clojure/clojure -->
<g id="edge36" class="edge">
<title>automaton&#45;build&#45;app.containers.local&#45;engine&#45;&gt;org.clojure/clojure</title>
<path fill="none" stroke="black" d="M1376.04,-1080.24C1269.88,-1065.42 1108.62,-1042.9 1009.85,-1029.1"/>
<polygon fill="black" stroke="black" points="1010.6,-1025.67 1000.21,-1027.76 1009.63,-1032.61 1010.6,-1025.67"/>
</g>
<!-- automaton&#45;build&#45;app.cicd.cfg&#45;mgt -->
<g id="node26" class="node">
<title>automaton&#45;build&#45;app.cicd.cfg&#45;mgt</title>
<g id="a_node26"><a xlink:href="./automaton-build-app.cicd.cfg-mgt.svg" xlink:title="automaton&#45;build&#45;app.cicd.cfg&#45;mgt">
<ellipse fill="none" stroke="black" cx="1428.4" cy="-1289.06" rx="138.87" ry="18"/>
<text text-anchor="middle" x="1428.4" y="-1284.01" font-family="Times,serif" font-size="14.00">automaton&#45;build&#45;app.cicd.cfg&#45;mgt</text>
</a>
</g>
</g>
<!-- automaton&#45;build&#45;app.cicd.cfg&#45;mgt&#45;&gt;org.clojure/clojure -->
<g id="edge17" class="edge">
<title>automaton&#45;build&#45;app.cicd.cfg&#45;mgt&#45;&gt;org.clojure/clojure</title>
<path fill="none" stroke="black" d="M1395.24,-1271.21C1308.73,-1224.64 1075.82,-1099.26 972.96,-1043.88"/>
<polygon fill="black" stroke="black" points="974.93,-1040.97 964.46,-1039.31 971.61,-1047.13 974.93,-1040.97"/>
</g>
<!-- automaton&#45;build&#45;app.file&#45;repo.raw.impl -->
<g id="node27" class="node">
<title>automaton&#45;build&#45;app.file&#45;repo.raw.impl</title>
<g id="a_node27"><a xlink:href="./automaton-build-app.file-repo.raw.impl.svg" xlink:title="automaton&#45;build&#45;app.file&#45;repo.raw.impl">
<ellipse fill="none" stroke="black" cx="853.3" cy="-1585.69" rx="158.83" ry="18"/>
<text text-anchor="middle" x="853.3" y="-1580.64" font-family="Times,serif" font-size="14.00">automaton&#45;build&#45;app.file&#45;repo.raw.impl</text>
</a>
</g>
</g>
<!-- automaton&#45;build&#45;app.file&#45;repo.raw.impl&#45;&gt;org.clojure/clojure -->
<g id="edge10" class="edge">
<title>automaton&#45;build&#45;app.file&#45;repo.raw.impl&#45;&gt;org.clojure/clojure</title>
<path fill="none" stroke="black" d="M855.54,-1567.41C865.52,-1485.94 906.02,-1155.32 918.97,-1049.62"/>
<polygon fill="black" stroke="black" points="922.41,-1050.29 920.16,-1039.94 915.47,-1049.44 922.41,-1050.29"/>
</g>
<!-- automaton&#45;build&#45;app.configuration.edn&#45;read -->
<g id="node28" class="node">
<title>automaton&#45;build&#45;app.configuration.edn&#45;read</title>
<g id="a_node28"><a xlink:href="./automaton-build-app.configuration.edn-read.svg" xlink:title="automaton&#45;build&#45;app.configuration.edn&#45;read">
<ellipse fill="none" stroke="black" cx="1275.9" cy="-583.46" rx="175.72" ry="18"/>
<text text-anchor="middle" x="1275.9" y="-578.41" font-family="Times,serif" font-size="14.00">automaton&#45;build&#45;app.configuration.edn&#45;read</text>
</a>
</g>
</g>
<!-- automaton&#45;build&#45;app.configuration.edn&#45;read&#45;&gt;org.clojure/clojure -->
<g id="edge2" class="edge">
<title>automaton&#45;build&#45;app.configuration.edn&#45;read&#45;&gt;org.clojure/clojure</title>
<path fill="none" stroke="black" d="M1260.96,-601.81C1206.2,-669.07 1016.13,-902.53 947.73,-986.55"/>
<polygon fill="black" stroke="black" points="945.12,-984.21 941.52,-994.18 950.55,-988.63 945.12,-984.21"/>
</g>
<!-- automaton&#45;build&#45;app.configuration.edn&#45;read&#45;&gt;babashka/fs -->
<g id="edge1" class="edge">
<title>automaton&#45;build&#45;app.configuration.edn&#45;read&#45;&gt;babashka/fs</title>
<path fill="none" stroke="black" d="M1288.19,-565.26C1330.23,-503.06 1468.51,-298.42 1521.22,-220.41"/>
<polygon fill="black" stroke="black" points="1523.96,-222.62 1526.65,-212.38 1518.16,-218.7 1523.96,-222.62"/>
</g>
<!-- automaton&#45;build&#45;app.code&#45;helpers.formatter -->
<g id="node29" class="node">
<title>automaton&#45;build&#45;app.code&#45;helpers.formatter</title>
<g id="a_node29"><a xlink:href="./automaton-build-app.code-helpers.formatter.svg" xlink:title="automaton&#45;build&#45;app.code&#45;helpers.formatter">
<ellipse fill="none" stroke="black" cx="1029.61" cy="-688.13" rx="175.72" ry="18"/>
<text text-anchor="middle" x="1029.61" y="-683.08" font-family="Times,serif" font-size="14.00">automaton&#45;build&#45;app.code&#45;helpers.formatter</text>
</a>
</g>
</g>
<!-- automaton&#45;build&#45;app.code&#45;helpers.formatter&#45;&gt;org.clojure/clojure -->
<g id="edge15" class="edge">
<title>automaton&#45;build&#45;app.code&#45;helpers.formatter&#45;&gt;org.clojure/clojure</title>
<path fill="none" stroke="black" d="M1023.72,-706.28C1006.43,-759.61 955.59,-916.36 933.46,-984.61"/>
<polygon fill="black" stroke="black" points="930.15,-983.49 930.39,-994.08 936.8,-985.65 930.15,-983.49"/>
</g>
<!-- automaton&#45;build&#45;app.repl -->
<g id="node30" class="node">
<title>automaton&#45;build&#45;app.repl</title>
<g id="a_node30"><a xlink:href="./automaton-build-app.repl.svg" xlink:title="automaton&#45;build&#45;app.repl">
<ellipse fill="none" stroke="black" cx="988.77" cy="-1778" rx="105.6" ry="18"/>
<text text-anchor="middle" x="988.77" y="-1772.95" font-family="Times,serif" font-size="14.00">automaton&#45;build&#45;app.repl</text>
</a>
</g>
</g>
<!-- automaton&#45;build&#45;app.repl&#45;&gt;org.clojure/core.async -->
<g id="edge5" class="edge">
<title>automaton&#45;build&#45;app.repl&#45;&gt;org.clojure/core.async</title>
<path fill="none" stroke="black" d="M908.33,-1790.02C901.24,-1791.08 894.02,-1792.16 886.82,-1793.23"/>
<polygon fill="black" stroke="black" points="886.4,-1789.76 877.03,-1794.7 887.43,-1796.68 886.4,-1789.76"/>
</g>
<!-- automaton&#45;build&#45;app.cicd.version -->
<g id="node31" class="node">
<title>automaton&#45;build&#45;app.cicd.version</title>
<g id="a_node31"><a xlink:href="./automaton-build-app.cicd.version.svg" xlink:title="automaton&#45;build&#45;app.cicd.version">
<ellipse fill="none" stroke="black" cx="1808.31" cy="-458" rx="136.31" ry="18"/>
<text text-anchor="middle" x="1808.31" y="-452.95" font-family="Times,serif" font-size="14.00">automaton&#45;build&#45;app.cicd.version</text>
</a>
</g>
</g>
<!-- automaton&#45;build&#45;app.cicd.version&#45;&gt;io.github.clojure/tools.build -->
<g id="edge16" class="edge">
<title>automaton&#45;build&#45;app.cicd.version&#45;&gt;io.github.clojure/tools.build</title>
<path fill="none" stroke="black" d="M1814.77,-476.38C1815.36,-478.06 1815.96,-479.79 1816.58,-481.54"/>
<polygon fill="black" stroke="black" points="1813.27,-482.68 1819.89,-490.96 1819.88,-480.36 1813.27,-482.68"/>
</g>
<!-- automaton&#45;build&#45;app.doc.markdown -->
<g id="node32" class="node">
<title>automaton&#45;build&#45;app.doc.markdown</title>
<g id="a_node32"><a xlink:href="./automaton-build-app.doc.markdown.svg" xlink:title="automaton&#45;build&#45;app.doc.markdown">
<ellipse fill="none" stroke="black" cx="474.52" cy="-1476" rx="147.06" ry="18"/>
<text text-anchor="middle" x="474.52" y="-1470.95" font-family="Times,serif" font-size="14.00">automaton&#45;build&#45;app.doc.markdown</text>
</a>
</g>
</g>
<!-- automaton&#45;build&#45;app.doc.markdown&#45;&gt;org.clojure/clojure -->
<g id="edge27" class="edge">
<title>automaton&#45;build&#45;app.doc.markdown&#45;&gt;org.clojure/clojure</title>
<path fill="none" stroke="black" d="M492.38,-1457.73C561.03,-1387.45 808.43,-1134.21 893.78,-1046.85"/>
<polygon fill="black" stroke="black" points="896.21,-1049.37 900.7,-1039.77 891.21,-1044.47 896.21,-1049.37"/>
</g>
<!-- automaton&#45;build&#45;app.doc.markdown&#45;&gt;markdown&#45;clj/markdown&#45;clj -->
<g id="edge28" class="edge">
<title>automaton&#45;build&#45;app.doc.markdown&#45;&gt;markdown&#45;clj/markdown&#45;clj</title>
<path fill="none" stroke="black" d="M455.1,-1494.34C394.53,-1551.52 208.69,-1726.96 134.57,-1796.93"/>
<polygon fill="black" stroke="black" points="132.48,-1794.09 127.61,-1803.5 137.29,-1799.18 132.48,-1794.09"/>
</g>
<!-- automaton&#45;build&#45;app.file&#45;repo.clj&#45;code -->
<g id="node33" class="node">
<title>automaton&#45;build&#45;app.file&#45;repo.clj&#45;code</title>
<g id="a_node33"><a xlink:href="./automaton-build-app.file-repo.clj-code.svg" xlink:title="automaton&#45;build&#45;app.file&#45;repo.clj&#45;code">
<ellipse fill="none" stroke="black" cx="504.59" cy="-1233.91" rx="155.25" ry="18"/>
<text text-anchor="middle" x="504.59" y="-1228.86" font-family="Times,serif" font-size="14.00">automaton&#45;build&#45;app.file&#45;repo.clj&#45;code</text>
</a>
</g>
</g>
<!-- automaton&#45;build&#45;app.file&#45;repo.clj&#45;code&#45;&gt;org.clojure/clojure -->
<g id="edge9" class="edge">
<title>automaton&#45;build&#45;app.file&#45;repo.clj&#45;code&#45;&gt;org.clojure/clojure</title>
<path fill="none" stroke="black" d="M539.18,-1215.98C612.65,-1177.88 784.58,-1088.73 871.18,-1043.82"/>
<polygon fill="black" stroke="black" points="872.7,-1046.98 879.96,-1039.27 869.47,-1040.77 872.7,-1046.98"/>
</g>
<!-- automaton&#45;build&#45;app.os.commands -->
<g id="node34" class="node">
<title>automaton&#45;build&#45;app.os.commands</title>
<g id="a_node34"><a xlink:href="./automaton-build-app.os.commands.svg" xlink:title="automaton&#45;build&#45;app.os.commands">
<ellipse fill="none" stroke="black" cx="1167.36" cy="-1612.22" rx="142.97" ry="18"/>
<text text-anchor="middle" x="1167.36" y="-1607.17" font-family="Times,serif" font-size="14.00">automaton&#45;build&#45;app.os.commands</text>
</a>
</g>
</g>
<!-- automaton&#45;build&#45;app.os.commands&#45;&gt;org.clojure/clojure -->
<g id="edge30" class="edge">
<title>automaton&#45;build&#45;app.os.commands&#45;&gt;org.clojure/clojure</title>
<path fill="none" stroke="black" d="M1159.78,-1593.75C1125.04,-1509.13 980.82,-1157.88 936.19,-1049.18"/>
<polygon fill="black" stroke="black" points="939.45,-1047.89 932.41,-1039.97 932.97,-1050.55 939.45,-1047.89"/>
</g>
<!-- automaton&#45;build&#45;app.os.commands&#45;&gt;babashka/process -->
<g id="edge29" class="edge">
<title>automaton&#45;build&#45;app.os.commands&#45;&gt;babashka/process</title>
<path fill="none" stroke="black" d="M1178.97,-1630.39C1221.82,-1697.46 1371.5,-1931.73 1425.81,-2016.73"/>
<polygon fill="black" stroke="black" points="1422.8,-2018.52 1431.13,-2025.06 1428.7,-2014.75 1422.8,-2018.52"/>
</g>
<!-- automaton&#45;build&#45;app.os.pdf -->
<g id="node35" class="node">
<title>automaton&#45;build&#45;app.os.pdf</title>
<g id="a_node35"><a xlink:href="./automaton-build-app.os.pdf.svg" xlink:title="automaton&#45;build&#45;app.os.pdf">
<ellipse fill="none" stroke="black" cx="630.21" cy="-441.63" rx="114.3" ry="18"/>
<text text-anchor="middle" x="630.21" y="-436.58" font-family="Times,serif" font-size="14.00">automaton&#45;build&#45;app.os.pdf</text>
</a>
</g>
</g>
<!-- automaton&#45;build&#45;app.os.pdf&#45;&gt;org.clojure/clojure -->
<g id="edge32" class="edge">
<title>automaton&#45;build&#45;app.os.pdf&#45;&gt;org.clojure/clojure</title>
<path fill="none" stroke="black" d="M639.45,-459.8C681.32,-542.07 853.38,-880.21 906.96,-985.51"/>
<polygon fill="black" stroke="black" points="903.71,-986.85 911.37,-994.17 909.95,-983.67 903.71,-986.85"/>
</g>
<!-- automaton&#45;build&#45;app.os.pdf&#45;&gt;clj&#45;htmltopdf/clj&#45;htmltopdf -->
<g id="edge31" class="edge">
<title>automaton&#45;build&#45;app.os.pdf&#45;&gt;clj&#45;htmltopdf/clj&#45;htmltopdf</title>
<path fill="none" stroke="black" d="M617.3,-423.3C571.17,-357.77 414.13,-134.69 356.07,-52.22"/>
<polygon fill="black" stroke="black" points="358.98,-50.28 350.37,-44.12 353.26,-54.31 358.98,-50.28"/>
</g>
<!-- automaton&#45;build&#45;app.code&#45;helpers.code&#45;stats -->
<g id="node36" class="node">
<title>automaton&#45;build&#45;app.code&#45;helpers.code&#45;stats</title>
<g id="a_node36"><a xlink:href="./automaton-build-app.code-helpers.code-stats.svg" xlink:title="automaton&#45;build&#45;app.code&#45;helpers.code&#45;stats">
<ellipse fill="none" stroke="black" cx="532.61" cy="-955.97" rx="177.77" ry="18"/>
<text text-anchor="middle" x="532.61" y="-950.92" font-family="Times,serif" font-size="14.00">automaton&#45;build&#45;app.code&#45;helpers.code&#45;stats</text>
</a>
</g>
</g>
<!-- automaton&#45;build&#45;app.code&#45;helpers.code&#45;stats&#45;&gt;org.clojure/clojure -->
<g id="edge13" class="edge">
<title>automaton&#45;build&#45;app.code&#45;helpers.code&#45;stats&#45;&gt;org.clojure/clojure</title>
<path fill="none" stroke="black" d="M631.11,-971.36C694.26,-981.23 775.48,-993.92 836.19,-1003.41"/>
<polygon fill="black" stroke="black" points="835.37,-1006.82 845.79,-1004.91 836.45,-999.91 835.37,-1006.82"/>
</g>
<!-- automaton&#45;build&#45;app.doc.blog -->
<g id="node37" class="node">
<title>automaton&#45;build&#45;app.doc.blog</title>
<g id="a_node37"><a xlink:href="./automaton-build-app.doc.blog.svg" xlink:title="automaton&#45;build&#45;app.doc.blog">
<ellipse fill="none" stroke="black" cx="1005.04" cy="-1360.51" rx="123.52" ry="18"/>
<text text-anchor="middle" x="1005.04" y="-1355.46" font-family="Times,serif" font-size="14.00">automaton&#45;build&#45;app.doc.blog</text>
</a>
</g>
</g>
<!-- automaton&#45;build&#45;app.doc.blog&#45;&gt;org.clojure/clojure -->
<g id="edge23" class="edge">
<title>automaton&#45;build&#45;app.doc.blog&#45;&gt;org.clojure/clojure</title>
<path fill="none" stroke="black" d="M1000.63,-1342.04C987.35,-1286.46 947.64,-1120.24 930.73,-1049.46"/>
<polygon fill="black" stroke="black" points="934.21,-1048.95 928.48,-1040.04 927.4,-1050.58 934.21,-1048.95"/>
</g>
<!-- automaton&#45;build&#45;app.cicd.server -->
<g id="node38" class="node">
<title>automaton&#45;build&#45;app.cicd.server</title>
<g id="a_node38"><a xlink:href="./automaton-build-app.cicd.server.svg" xlink:title="automaton&#45;build&#45;app.cicd.server">
<ellipse fill="none" stroke="black" cx="1268.28" cy="-1386.91" rx="131.71" ry="18"/>
<text text-anchor="middle" x="1268.28" y="-1381.86" font-family="Times,serif" font-size="14.00">automaton&#45;build&#45;app.cicd.server</text>
</a>
</g>
</g>
<!-- automaton&#45;build&#45;app.cicd.server&#45;&gt;org.clojure/clojure -->
<g id="edge18" class="edge">
<title>automaton&#45;build&#45;app.cicd.server&#45;&gt;org.clojure/clojure</title>
<path fill="none" stroke="black" d="M1251.39,-1368.82C1195.98,-1309.45 1019.34,-1120.21 950.66,-1046.63"/>
<polygon fill="black" stroke="black" points="953.62,-1044.68 944.24,-1039.76 948.51,-1049.46 953.62,-1044.68"/>
</g>
<!-- automaton&#45;build&#45;app.file&#45;repo.text -->
<g id="node39" class="node">
<title>automaton&#45;build&#45;app.file&#45;repo.text</title>
<g id="a_node39"><a xlink:href="./automaton-build-app.file-repo.text.svg" xlink:title="automaton&#45;build&#45;app.file&#45;repo.text">
<ellipse fill="none" stroke="black" cx="714.35" cy="-1418.05" rx="139.38" ry="18"/>
<text text-anchor="middle" x="714.35" y="-1413" font-family="Times,serif" font-size="14.00">automaton&#45;build&#45;app.file&#45;repo.text</text>
</a>
</g>
</g>
<!-- automaton&#45;build&#45;app.file&#45;repo.text&#45;&gt;org.clojure/clojure -->
<g id="edge8" class="edge">
<title>automaton&#45;build&#45;app.file&#45;repo.text&#45;&gt;org.clojure/clojure</title>
<path fill="none" stroke="black" d="M723.86,-1399.78C756.58,-1336.86 864.86,-1128.69 906.47,-1048.68"/>
<polygon fill="black" stroke="black" points="909.46,-1050.53 910.97,-1040.05 903.25,-1047.3 909.46,-1050.53"/>
</g>
<!-- automaton&#45;build&#45;app.doc.code&#45;doc -->
<g id="node40" class="node">
<title>automaton&#45;build&#45;app.doc.code&#45;doc</title>
<g id="a_node40"><a xlink:href="./automaton-build-app.doc.code-doc.svg" xlink:title="automaton&#45;build&#45;app.doc.code&#45;doc">
<ellipse fill="none" stroke="black" cx="1651.87" cy="-1563.16" rx="140.92" ry="18"/>
<text text-anchor="middle" x="1651.87" y="-1558.11" font-family="Times,serif" font-size="14.00">automaton&#45;build&#45;app.doc.code&#45;doc</text>
</a>
</g>
</g>
<!-- automaton&#45;build&#45;app.doc.code&#45;doc&#45;&gt;io.github.clojure/tools.deps.graph -->
<g id="edge25" class="edge">
<title>automaton&#45;build&#45;app.doc.code&#45;doc&#45;&gt;io.github.clojure/tools.deps.graph</title>
<path fill="none" stroke="black" d="M1605.24,-1580.48C1601.4,-1581.91 1597.47,-1583.37 1593.51,-1584.84"/>
<polygon fill="black" stroke="black" points="1592.59,-1581.45 1584.43,-1588.21 1595.02,-1588.01 1592.59,-1581.45"/>
</g>
<!-- automaton&#45;build&#45;app.doc.code&#45;doc&#45;&gt;codox/codox -->
<g id="edge26" class="edge">
<title>automaton&#45;build&#45;app.doc.code&#45;doc&#45;&gt;codox/codox</title>
<path fill="none" stroke="black" d="M1674.19,-1581.31C1688.14,-1592.65 1706.4,-1607.5 1722.24,-1620.37"/>
<polygon fill="black" stroke="black" points="1719.6,-1622.74 1729.57,-1626.33 1724.02,-1617.31 1719.6,-1622.74"/>
</g>
<!-- automaton&#45;build&#45;app.doc.code&#45;doc&#45;&gt;io.dominic/vizns -->
<g id="edge24" class="edge">
<title>automaton&#45;build&#45;app.doc.code&#45;doc&#45;&gt;io.dominic/vizns</title>
<path fill="none" stroke="black" d="M1654.89,-1544.82C1658.38,-1523.57 1664.21,-1488.16 1668.5,-1462.12"/>
<polygon fill="black" stroke="black" points="1671.93,-1462.83 1670.1,-1452.4 1665.02,-1461.7 1671.93,-1462.83"/>
</g>
<!-- automaton&#45;build&#45;app.os.files -->
<g id="node41" class="node">
<title>automaton&#45;build&#45;app.os.files</title>
<g id="a_node41"><a xlink:href="./automaton-build-app.os.files.svg" xlink:title="automaton&#45;build&#45;app.os.files">
<ellipse fill="none" stroke="black" cx="1097.9" cy="-432.14" rx="117.89" ry="18"/>
<text text-anchor="middle" x="1097.9" y="-427.09" font-family="Times,serif" font-size="14.00">automaton&#45;build&#45;app.os.files</text>
</a>
</g>
</g>
<!-- automaton&#45;build&#45;app.os.files&#45;&gt;org.clojure/clojure -->
<g id="edge35" class="edge">
<title>automaton&#45;build&#45;app.os.files&#45;&gt;org.clojure/clojure</title>
<path fill="none" stroke="black" d="M1092.37,-450.61C1067.38,-534.16 964.73,-877.34 932.62,-984.71"/>
<polygon fill="black" stroke="black" points="929.34,-983.44 929.83,-994.03 936.05,-985.45 929.34,-983.44"/>
</g>
<!-- automaton&#45;build&#45;app.os.files&#45;&gt;babashka/fs -->
<g id="edge34" class="edge">
<title>automaton&#45;build&#45;app.os.files&#45;&gt;babashka/fs</title>
<path fill="none" stroke="black" d="M1130.18,-414.52C1206.93,-372.63 1400.67,-266.9 1492.34,-216.87"/>
<polygon fill="black" stroke="black" points="1493.78,-220.08 1500.88,-212.21 1490.43,-213.93 1493.78,-220.08"/>
</g>
</g>
</svg>
